<svg xmlns="http://www.w3.org/2000/svg" width="40.443" height="39.21" viewBox="0 0 40.443 39.21"><g transform="translate(0 0)"><path d="M3.044,3.9c1.025-.629,2.05-1.258,3.085-1.87C7.332,1.324,8.55.635,9.794,0Q4.84,1.554,0,3.447C.378,3.8.954,4.455,1.361,4.564c.661.179,1.148-.331,1.683-.659" transform="translate(19.359 28.432)" fill="#fefefe"/><path d="M0,1.176c.168.335.343.667.529.991L2.72,1.22Q2.315.611,1.912,0L0,1.176" transform="translate(35.93 22.669)" fill="#fefefe"/><path d="M2.021,0Q1.008.577,0,1.16c.312.566.591,1.148.875,1.727l0,0L3.523,1.257,2.1.123A.212.212,0,0,1,2.021,0" transform="translate(34.839 20.524)" fill="#fefefe"/><path d="M4.984,5.574C4.449,4.562,3.952,3.527,3.479,2.486A15.751,15.751,0,0,0,2.6.376C2.3-.082,2.486-.06,1.782.118A14.661,14.661,0,0,1,.027.556.213.213,0,0,1,0,.554a57.568,57.568,0,0,0,4.984,5.02" transform="translate(23.809 3.279)" fill="#fefefe"/><path d="M16.292,26v0a.079.079,0,0,0,.026-.056c0-.113-.189-.294-.375-.47-.075-.071-.146-.138-.2-.2-.87-.924-1.76-1.829-2.6-2.677-2.085-2.112-4.315-4.322-7.019-6.957l-1-.98C3.469,13.049,1.762,11.378,0,9.832L2.228,8.193a6.882,6.882,0,0,0,1.425,1.64,2.187,2.187,0,0,0,1.332.59,1.175,1.175,0,0,0,.424-.078,1.052,1.052,0,0,0,.64-1.231A4.772,4.772,0,0,0,5.027,7.188c-.061-.081-.125-.169-.192-.262-.108-.149-.219-.3-.338-.452l.017-.006a.092.092,0,0,0,.022-.008C6.07,5.57,7.616,4.68,9.058,3.85c1.128-.648,2.469-1.416,3.852-2.2.129-.073.345-.216.594-.38A7.685,7.685,0,0,1,15.923,0a.325.325,0,0,1,.109.017c.3.107.742.807,1.1,1.368.164.258.306.481.4.6.517.633,1.083,1.283,1.73,1.987,1.1,1.2,2.3,2.387,3.645,3.629.6.556,1.247,1.127,1.91,1.7l.027.048.027.048a.17.17,0,0,0,.151.095h.021c1.644,1.408,3.389,2.8,5.189,4.124,1.484,1.1,2.649,1.915,3.777,2.648a19.4,19.4,0,0,1-5.445,2.786c-.739.285-1.5.581-2.214.9A58.662,58.662,0,0,0,16.937,25.5c-.054.038-.123.1-.2.167A2.544,2.544,0,0,1,16.292,26Zm3.975-6.789a.277.277,0,0,0-.122.032,28.474,28.474,0,0,0-4.086,2.471.243.243,0,0,0-.1.279.235.235,0,0,0,.221.167.28.28,0,0,0,.164-.058,27.411,27.411,0,0,1,3.97-2.393.288.288,0,0,0,.149-.326A.2.2,0,0,0,20.267,19.215ZM19.08,16.921a.246.246,0,0,0-.131.045,58.42,58.42,0,0,0-4.8,3.46.26.26,0,0,0-.092.294.228.228,0,0,0,.209.159.266.266,0,0,0,.166-.066,57.047,57.047,0,0,1,4.68-3.381.33.33,0,0,0,.128-.365A.178.178,0,0,0,19.08,16.921Zm1.8-3.912a.275.275,0,0,0-.124.033A65.195,65.195,0,0,0,12.3,18.258a.243.243,0,0,0-.1.279.235.235,0,0,0,.22.167.28.28,0,0,0,.165-.059,63.794,63.794,0,0,1,8.34-5.135.3.3,0,0,0,.147-.333A.2.2,0,0,0,20.878,13.009Zm.437-3.591a.259.259,0,0,0-.128.039c-1.415.816-2.888,1.584-4.313,2.325A67.579,67.579,0,0,0,9.7,15.9a.236.236,0,0,0-.105.271.241.241,0,0,0,.226.17.287.287,0,0,0,.163-.055,66.034,66.034,0,0,1,7.069-4.05c1.42-.737,2.889-1.5,4.3-2.312a.308.308,0,0,0,.138-.347A.189.189,0,0,0,21.315,9.418ZM18.206,7.826a.259.259,0,0,0-.127.038c-.646.367-1.3.736-1.941,1.093A80.739,80.739,0,0,0,7.792,14.09a.245.245,0,0,0-.1.281.234.234,0,0,0,.219.167.275.275,0,0,0,.164-.06,78.937,78.937,0,0,1,8.2-5.041c.645-.361,1.312-.734,1.968-1.107a.306.306,0,0,0,.139-.345A.191.191,0,0,0,18.206,7.826Zm-.443-2.764a.263.263,0,0,0-.126.037A133.936,133.936,0,0,0,5.854,12.422a.237.237,0,0,0-.1.272.241.241,0,0,0,.226.171.283.283,0,0,0,.163-.056A132.034,132.034,0,0,1,17.8,5.566a.3.3,0,0,0,.142-.342A.193.193,0,0,0,17.763,5.062ZM15.682,3.234a.277.277,0,0,0-.121.031,39.858,39.858,0,0,0-7.979,5.17.267.267,0,0,0-.088.3.222.222,0,0,0,.2.155.263.263,0,0,0,.168-.069,39.2,39.2,0,0,1,7.862-5.09.286.286,0,0,0,.149-.324A.205.205,0,0,0,15.682,3.234Z" transform="translate(4.594 0.686)" fill="#fefefe"/><path d="M5.673,6.664A.2.2,0,0,1,5.86,6.8c.027.062.055.124.083.185,2.425,2.883,4.667,5.949,6.913,8.886q.579.759,1.162,1.518c.17.219.554.946.827,1.057.44.181,2.24-1.166,2.789-1.484q1.492-.866,2.978-1.745c4.145-2.446,8.266-4.935,12.453-7.31l-.816-.851c-2.009.982-4.231,1.645-6.18,2.6A61.011,61.011,0,0,0,17.035,15.2a.242.242,0,0,1-.347-.015C14.1,12.245,11.22,9.536,8.432,6.8,6.113,4.516,3.815,2.188,1.4,0a.3.3,0,0,1-.087.082L0,.86a52.489,52.489,0,0,1,5.673,5.8" transform="translate(3.91 11.931)" fill="#fefefe"/><path d="M.2.47c.957-.619,1.81,1.143,2.219,1.743.171.25-.234.622-.414.357-.231-.337-.466-.671-.712-1a2.35,2.35,0,0,0-.452-.561c-.2-.126-.1-.236-.3.085-.176.278-.112.187-.046.4.233.77,1.823,2.619,2.73,2.151C4.16,3.167,2.279,1.059,1.888.6,1.542.2,1.217-.112.641.039A.794.794,0,0,0,0,.643.846.846,0,0,1,.2.47" transform="translate(6.699 6.863)" fill="#fefefe"/><path d="M35.563,6.01a.262.262,0,0,1-.218.046c-.306.081-.612.166-.918.249A.3.3,0,0,1,34.3,6.5c-2.471,1.552-4.883,3.2-7.277,4.874a47.393,47.393,0,0,0-6.9,5.277.248.248,0,0,1-.3.029c-1.6-1.271-3.143-2.608-4.712-3.912a.22.22,0,0,1-.073-.132C12.352,9.908,9.393,7.44,6.474,4.987c-2-1.678-4-3.429-6.111-4.987A.252.252,0,0,1,.3.15C-.091.615-.111.341.3.73c.238.222.515.417.766.625.6.5,1.182,1,1.767,1.509,1.576,1.37,3.132,2.761,4.688,4.155,3.042,2.725,6.066,5.47,9.128,8.176a26.424,26.424,0,0,0,3.412,2.95c.448.27.153.3.594-.215.21-.248.429-.489.653-.725.561-.592,1.155-1.152,1.766-1.693A90.774,90.774,0,0,1,37.779,5.3l-.4-.543L35.563,6.01" transform="translate(1.354 20.199)" fill="#fefefe"/><path d="M.026,0,0,.017C.314.491.63.966.944,1.441a.262.262,0,0,1,.032.19l.44-.3A7.985,7.985,0,0,1,.026,0" transform="translate(38.304 22.369)" fill="#fefefe"/><path d="M7.522,7.389Q6.889,6.03,6.288,4.657A56.307,56.307,0,0,0,1.96,0L0,1.48A25.9,25.9,0,0,1,4.163,4.549c1.133.926,2.265,1.863,3.359,2.84" transform="translate(3.142 14.61)" fill="#fefefe"/><path d="M14.668,14.159c-.1-.165-.187-.333-.28-.5a.227.227,0,0,1-.158-.069c-2.92-3.056-5.937-6.024-9.006-8.928a45.983,45.983,0,0,0-4.2-2.173.262.262,0,0,1-.037-.446q1.1-.848,2.187-1.7A.3.3,0,0,1,3.292.294c-.151-.1-.305-.2-.459-.294A.273.273,0,0,1,2.69.177,15.616,15.616,0,0,0,0,1.89,92.991,92.991,0,0,1,7.707,8.04c2.356,1.985,4.731,3.983,6.961,6.119" transform="translate(0.715 16.927)" fill="#fefefe"/><path d="M0,1.687c1.16.542,2.3,1.122,3.4,1.751a.182.182,0,0,1,.235.02c.1.1.207.2.31.3a30.2,30.2,0,0,1,6.431,4.984q-.717-1.4-1.4-2.826C7.678,4.69,6.3,3.54,4.925,2.407,3.977,1.627,2.992.743,1.944,0a.256.256,0,0,1-.1.259L0,1.687" transform="translate(2.331 17.405)" fill="#fefefe"/><path d="M.894,3.507C.6,3.626.3,3.749,0,3.87c.87.722,1.721,1.507,2.632,2.175.5.363.379.288.844.041A4.961,4.961,0,0,0,4.2,5.455C5.361,4.483,6.587,3.59,7.83,2.73,9.2,1.782,10.59.865,12.015,0,8.92,1.518,6,3.387,3.062,5.18a.229.229,0,0,1-.245-.01Q1.893,4.4.969,3.643a.217.217,0,0,1-.075-.136" transform="translate(17.949 28.578)" fill="#fefefe"/><path d="M5.816,5.8c-.191-.351-.382-.7-.569-1.053a.209.209,0,0,1-.129-.073A26.713,26.713,0,0,0,0,0Q2.955,2.852,5.816,5.8" transform="translate(8.389 23.174)" fill="#fefefe"/><path d="M0,5.946Q1.216,6.958,2.43,7.972q.654.547,1.31,1.088c.115.1.278.3.424.349l.059.02c.018-.008.042-.017.069-.026.549-.186,1.272-1.1,1.739-1.461.82-.64,1.657-1.257,2.5-1.865C11.436,3.976,14.4,1.932,17.42,0c-.358.1-.715.2-1.073.3A.234.234,0,0,1,16.3.343,52.78,52.78,0,0,0,4.073,8.7a.246.246,0,0,1-.3.029Q2.12,7.372.472,6.008A.223.223,0,0,1,.4,5.786c-.132.054-.264.105-.4.16" transform="translate(17.106 26.845)" fill="#fefefe"/><path d="M1.966,0,0,.851c.073.116.153.229.232.343L1.966,0" transform="translate(36.715 24.413)" fill="#fefefe"/><path d="M25.438,4.575a.234.234,0,0,1-.106-.178c-.616-1.059-1.086-2.195-1.686-3.27-5.18,3.012-10.289,6.144-15.505,9.094a.233.233,0,0,1-.291-.055C5.174,6.875,2.681,3.35,0,0Q.482,1.065.985,2.118l.124.115a.252.252,0,0,1,.058.271Q2.193,4.637,3.3,6.729q1.038,1.948,2.153,3.857c.549.938.821.876,1.814.472q.963-.39,1.932-.767A157.722,157.722,0,0,1,25.693,4.979c-.088-.133-.174-.267-.255-.4" transform="translate(10.732 20.826)" fill="#fefefe"/><path d="M16.92,27.242a.249.249,0,0,1-.188-.089c-2.1-2.382-4.422-4.646-6.669-6.835l-1.618-1.58L6.984,17.294C4.77,15.1,2.482,12.834.1,10.763a.281.281,0,0,1-.1-.23.287.287,0,0,1,.118-.23l2.5-1.834a.3.3,0,0,1,.18-.065.262.262,0,0,1,.247.185.275.275,0,0,1-.112.312l-1.112.82L.7,10.537c1.746,1.486,3.436,3.142,5.07,4.743l1.052,1.028c2.648,2.58,4.945,4.856,7.02,6.957.875.884,1.746,1.774,2.6,2.679.056.061.129.129.2.2.2.189.389.368.383.494a3.6,3.6,0,0,0,.369-.3c.079-.069.152-.13.208-.17A58.49,58.49,0,0,1,27.026,20.6c.714-.317,1.464-.607,2.221-.9a19.336,19.336,0,0,0,5.436-2.777c-1.394-.859-2.753-1.848-3.78-2.607a88.284,88.284,0,0,1-7.326-6.012c-1.349-1.244-2.542-2.431-3.646-3.631-.659-.718-1.226-1.369-1.732-1.987-.1-.12-.242-.347-.408-.605C17.455,1.556,17,.833,16.707.729a.286.286,0,0,0-.1-.014,7.662,7.662,0,0,0-2.394,1.258c-.259.17-.475.311-.606.385q-1.931,1.1-3.851,2.2-2.265,1.3-4.522,2.611a.29.29,0,0,1-.143.043.217.217,0,0,1-.2-.178.338.338,0,0,1,.149-.38l1.536-.892C9.863,3.853,13.262,1.878,16.657.033A.28.28,0,0,1,16.788,0a.239.239,0,0,1,.2.095C21.133,5.962,27.3,11.532,35.305,16.65a.223.223,0,0,1,.1.173.363.363,0,0,1-.118.288,19.206,19.206,0,0,1-6.05,3.213c-1.025.4-2.087.809-3.057,1.283a60.459,60.459,0,0,0-9.064,5.565.33.33,0,0,1-.2.07" transform="translate(3.908 0)" fill="#6a6c60"/><path d="M15.566,19.657a.259.259,0,0,1-.2-.093c-1.414-1.741-2.8-3.58-4.144-5.358C7.864,9.76,4.394,5.163.1,1.537A.258.258,0,0,1,0,1.311a.364.364,0,0,1,.177-.275L1.857.043A.277.277,0,0,1,2,0a.215.215,0,0,1,.2.174.342.342,0,0,1-.15.383L1.4.947l-.657.39c4.306,3.656,7.848,8.34,11.273,12.871q.819,1.081,1.632,2.149l.582.761.585.763c.048.06.111.162.187.28.186.292.441.694.63.77h.016a6.2,6.2,0,0,0,2.181-1.113c.242-.159.445-.3.578-.373q1.5-.87,2.989-1.753,1.7-1,3.391-2.011c2.972-1.765,6.046-3.589,9.105-5.325l-.926-.918a.225.225,0,0,1-.043-.26.353.353,0,0,1,.31-.216.261.261,0,0,1,.189.083l1.129,1.181a.206.206,0,0,1,.056.185.4.4,0,0,1-.184.268c-3.149,1.78-6.307,3.657-9.363,5.473s-6.216,3.692-9.362,5.472a.259.259,0,0,1-.127.033" transform="translate(3.194 11.447)" fill="#6a6c60"/><path d="M9.262,9.6a.206.206,0,0,1-.146-.062C7.727,8.22,6.247,6.991,4.853,5.848c-.269-.222-.541-.453-.817-.685A17.953,17.953,0,0,0,.16,2.424.28.28,0,0,1,0,2.2a.3.3,0,0,1,.12-.267l.484-.365L2.586.069A.3.3,0,0,1,2.768,0a.264.264,0,0,1,.244.182A.285.285,0,0,1,2.9.5L.781,2.1A17.749,17.749,0,0,1,4.235,4.548c.242.2.481.4.719.6C6.349,6.282,7.966,7.617,9.475,9.05a.291.291,0,0,1,.059.331.318.318,0,0,1-.272.219" transform="translate(2.383 13.987)" fill="#6a6c60"/><path d="M7.327,14.446a.2.2,0,0,1-.188-.1A122.21,122.21,0,0,1,.021.419.275.275,0,0,1,.048.158.346.346,0,0,1,.326,0,.236.236,0,0,1,.548.153C1.936,3.347,3.322,6.239,4.786,8.989c.678,1.274,1.4,2.569,2.151,3.853.32.544.541.738.848.738a2.839,2.839,0,0,0,.933-.277q.96-.39,1.931-.768A156.673,156.673,0,0,1,27.14,7.223a15.362,15.362,0,0,1-1.272-2.271c-.257-.527-.515-1.054-.8-1.566a.314.314,0,0,1,.017-.314.342.342,0,0,1,.269-.183A.2.2,0,0,1,25.53,3c.286.511.543,1.036.8,1.562A17.792,17.792,0,0,0,27.809,7.2a.269.269,0,0,1,.032.258.352.352,0,0,1-.233.221A152.422,152.422,0,0,0,7.466,14.417a.38.38,0,0,1-.139.029" transform="translate(9.273 18.554)" fill="#6a6c60"/><path d="M6.081,7.521A.2.2,0,0,1,5.9,7.409C5.19,6.172,4.5,4.8,3.723,3.091c-.113-.244-.21-.519-.307-.8a6.226,6.226,0,0,0-.572-1.3c-.056-.085-.1-.152-.126-.2-.073-.127-.1-.159-.163-.159a1.412,1.412,0,0,0-.283.059L2.056.737c-.2.05-.384.105-.573.162A7.555,7.555,0,0,1,.3,1.178h0A.259.259,0,0,1,0,.934.3.3,0,0,1,.25.609a9.485,9.485,0,0,0,1.323-.3A9.307,9.307,0,0,1,2.9,0H2.91c.168,0,.255.06.28.158A29.819,29.819,0,0,0,6.366,7.024a.307.307,0,0,1-.012.312.343.343,0,0,1-.273.185" transform="translate(23.542 2.686)" fill="#6a6c60"/><path d="M12.107,10.772a.241.241,0,0,1-.19-.091C9.118,7.327,5.383,4.65.161,2.257A.27.27,0,0,1,0,2.04.305.305,0,0,1,.12,1.763L1.212.916,2.306.068A.3.3,0,0,1,2.488,0a.26.26,0,0,1,.24.18A.285.285,0,0,1,2.623.5L1.086,1.691l-.3.237a31.6,31.6,0,0,1,11.593,8.361.256.256,0,0,1,.028.278.356.356,0,0,1-.3.2" transform="translate(1.568 17.186)" fill="#6a6c60"/><path d="M2.085,6.78a.228.228,0,0,1-.145-.048L.093,5.208a.276.276,0,0,1-.072-.316.332.332,0,0,1,.285-.231.238.238,0,0,1,.149.054c.109.092.246.227.4.377a3.406,3.406,0,0,0,1.071.84.992.992,0,0,0,.263.036A1.951,1.951,0,0,0,3.245,5.5c.112-.077.222-.154.336-.224C4.606,4.646,5.632,4.018,6.667,3.4A53.466,53.466,0,0,1,13.221.025.345.345,0,0,1,13.343,0a.249.249,0,0,1,.243.212.3.3,0,0,1-.177.333A69.742,69.742,0,0,0,3.724,5.821l-1.506.926a.26.26,0,0,1-.133.033" transform="translate(18.807 27.037)" fill="#6a6c60"/><path d="M.209,3.818a.209.209,0,0,1-.2-.172.349.349,0,0,1,.144-.39L2.8,1.63,1.372.545A.261.261,0,0,1,1.294.236.334.334,0,0,1,1.584,0a.225.225,0,0,1,.145.051L3.445,1.416a.248.248,0,0,1,.1.219.385.385,0,0,1-.183.284L.353,3.772a.292.292,0,0,1-.144.046" transform="translate(35.546 20.125)" fill="#6a6c60"/><path d="M.245,3.346a.241.241,0,0,1-.238-.207A.3.3,0,0,1,.181,2.8l1.214-.524L2.61,1.749,2.021.924,1.735.493a.292.292,0,0,1,0-.3A.351.351,0,0,1,2.014,0,.211.211,0,0,1,2.2.1l.523.79.522.787a.3.3,0,0,1,.035.251.309.309,0,0,1-.17.2L.369,3.319a.323.323,0,0,1-.124.027" transform="translate(36.03 22.113)" fill="#6a6c60"/><path d="M9.572,9.842a.255.255,0,0,1-.187-.081C6.573,6.814,3.53,3.8.087.55A.288.288,0,0,1,.024.222.323.323,0,0,1,.3,0,.213.213,0,0,1,.446.065c3.458,3.261,6.53,6.3,9.4,9.3a.234.234,0,0,1,.042.265.357.357,0,0,1-.312.213" transform="translate(5.538 20.778)" fill="#6a6c60"/><path d="M3.533,8.987a.225.225,0,0,1-.141-.046L1.122,7.064.1,6.216A.274.274,0,0,1,.019,5.9a.333.333,0,0,1,.288-.233.241.241,0,0,1,.15.053c.286.239.572.485.857.732.587.5,1.194,1.025,1.82,1.483.244.18.333.244.41.244a.447.447,0,0,0,.2-.089c.054-.031.118-.07.2-.116a2.278,2.278,0,0,0,.477-.395c.082-.083.163-.164.244-.231C5.678,6.5,6.8,5.662,8.3,4.624A69.671,69.671,0,0,1,15.761.038.278.278,0,0,1,15.9,0a.225.225,0,0,1,.215.188.32.32,0,0,1-.161.365A51.96,51.96,0,0,0,3.736,8.911a.31.31,0,0,1-.2.076" transform="translate(17.464 26.66)" fill="#6a6c60"/><path d="M16.684,16.489a.256.256,0,0,1-.19-.081c-2.6-2.667-5.512-5.115-8.331-7.482l-.353-.3L6.578,7.588A69.43,69.43,0,0,0,.1,2.52.236.236,0,0,1,0,2.335a.369.369,0,0,1,.119-.278A16.248,16.248,0,0,1,3.226.035.278.278,0,0,1,3.361,0a.23.23,0,0,1,.22.192.317.317,0,0,1-.163.359,15.677,15.677,0,0,0-2.687,1.7A66.15,66.15,0,0,1,7.179,7.3L8.441,8.368l.13.109c2.83,2.384,5.759,4.851,8.38,7.536a.233.233,0,0,1,.045.261.359.359,0,0,1-.312.215" transform="translate(0 16.579)" fill="#6a6c60"/><path d="M4.95,10.786a.239.239,0,0,1-.145-.046C3.732,9.885,2.679,9,1.627,8.112Q.862,7.467.093,6.828A.275.275,0,0,1,.02,6.513a.333.333,0,0,1,.286-.232.226.226,0,0,1,.148.058c.723.6,1.446,1.2,2.167,1.806l.591.494L3.649,9l.874.722c.035.032.074.071.116.113a.9.9,0,0,0,.3.232l.113-.007a4.045,4.045,0,0,0,1.171-.934A7.039,7.039,0,0,1,6.778,8.6c.818-.639,1.657-1.255,2.5-1.864,3.589-2.6,6.81-4.785,9.847-6.693A.271.271,0,0,1,19.269,0a.215.215,0,0,1,.2.17.357.357,0,0,1-.146.393C16.743,2.182,14.2,3.935,12.048,5.435c-.421.294-.85.586-1.281.881a36.636,36.636,0,0,0-5.62,4.393.283.283,0,0,1-.2.077" transform="translate(16.342 26.158)" fill="#6a6c60"/><path d="M.265,4.525a.263.263,0,0,1-.253-.188.266.266,0,0,1,.115-.3L3.211,1.913A6.559,6.559,0,0,1,1.705.484.254.254,0,0,1,1.683.2.343.343,0,0,1,1.975,0a.231.231,0,0,1,.188.1A7.538,7.538,0,0,0,3.854,1.672a.251.251,0,0,1,.1.207.3.3,0,0,1-.12.255L2.139,3.3.445,4.465a.306.306,0,0,1-.18.06" transform="translate(36.489 21.766)" fill="#6a6c60"/><path d="M20.925,19.276a.216.216,0,0,1-.137-.048c-2.842-2.315-5.606-4.824-8.278-7.25Q11.253,10.837,9.992,9.7C9.2,8.989,8.408,8.261,7.616,7.536A98.321,98.321,0,0,0,.1,1.078.26.26,0,0,1,0,.9.293.293,0,0,1,.067.673L.211.5.534.118A.307.307,0,0,1,.769,0a.268.268,0,0,1,.243.151A.253.253,0,0,1,.957.432,2.338,2.338,0,0,1,.719.681.787.787,0,0,0,.96.974c.152.141.317.272.483.4.1.075.191.149.284.224.594.495,1.181,1,1.766,1.511,1.576,1.368,3.133,2.76,4.688,4.155l2.991,2.687q3.06,2.753,6.137,5.488c.326.288.655.6.989.926a14.708,14.708,0,0,0,2.42,2.019,2.28,2.28,0,0,1,.213.15l.1-.023a2.384,2.384,0,0,1,.246-.336c.209-.247.428-.487.652-.723.518-.548,1.1-1.1,1.768-1.7A91.564,91.564,0,0,1,38.4,5.546l-.182-.2-.353-.474a.27.27,0,0,1-.014-.29.348.348,0,0,1,.29-.2.227.227,0,0,1,.186.1l.7.947a.264.264,0,0,1,.042.214.365.365,0,0,1-.175.238c-2.241,1.3-4.582,2.768-7.156,4.493l-.484.326c-3.5,2.343-7.462,5-10.074,8.435a.345.345,0,0,1-.257.137" transform="translate(0.716 19.934)" fill="#6a6c60"/><path d="M3.449,4.832A2.217,2.217,0,0,1,2.1,4.238,7.127,7.127,0,0,1,.668,2.587c-.017.051-.088.074-.15.074A.254.254,0,0,1,.29,2.517,1.643,1.643,0,0,1,.433.449,1.7,1.7,0,0,1,1.583,0a1.368,1.368,0,0,1,.608.132A3.412,3.412,0,0,1,3.325,1.293l.19.261a4.823,4.823,0,0,1,1.03,1.938,1.081,1.081,0,0,1-.659,1.26A1.2,1.2,0,0,1,3.449,4.832ZM1.259,1.473h0a.611.611,0,0,0-.074.112l-.054.086c-.124.194-.124.194-.094.258l.008.016a.631.631,0,0,1,.041.106c.208.689,1.495,2.206,2.381,2.206a.677.677,0,0,0,.311-.072.417.417,0,0,0,.233-.308c.137-.706-1.1-2.142-1.5-2.614L2.5,1.25C2.165.862,1.9.587,1.494.587a1.147,1.147,0,0,0-.276.037.793.793,0,0,0-.6.519A.364.364,0,0,1,.755,1,.773.773,0,0,1,1.181.87c.663,0,1.239.935,1.621,1.554l0,.006.033.054c.065.106.121.2.172.272a.283.283,0,0,1,.007.3.346.346,0,0,1-.283.192.216.216,0,0,1-.185-.1c-.258-.38-.49-.706-.71-1-.029-.037-.06-.085-.093-.135L1.735,2l-.009-.013A1.362,1.362,0,0,0,1.4,1.6a.486.486,0,0,1-.12-.1Z" transform="translate(6.128 6.304)" fill="#709f8e"/><path d="M.249,5.713a.252.252,0,0,1-.232-.174.3.3,0,0,1,.1-.333A39.853,39.853,0,0,1,8.1.035.307.307,0,0,1,8.232,0a.235.235,0,0,1,.224.194.317.317,0,0,1-.165.357A39.212,39.212,0,0,0,.435,5.639a.3.3,0,0,1-.186.074" transform="translate(12.044 3.892)" fill="#6a6c60"/><path d="M.264,7.859a.267.267,0,0,1-.137-.494A133.332,133.332,0,0,1,11.912.041.293.293,0,0,1,12.053,0a.219.219,0,0,1,.209.181.334.334,0,0,1-.155.375A132.017,132.017,0,0,0,.445,7.8a.314.314,0,0,1-.181.062" transform="translate(10.304 5.72)" fill="#6a6c60"/><path d="M.262,6.766a.264.264,0,0,1-.249-.187A.273.273,0,0,1,.125,6.27,80.6,80.6,0,0,1,8.509,1.114C9.144.757,9.782.4,10.414.041A.312.312,0,0,1,10.557,0a.216.216,0,0,1,.2.178.335.335,0,0,1-.151.379q-.981.555-1.966,1.1A78.55,78.55,0,0,0,.442,6.7a.3.3,0,0,1-.18.064" transform="translate(12.244 8.485)" fill="#6a6c60"/><path d="M.265,6.978a.266.266,0,0,1-.137-.492A67.559,67.559,0,0,1,7.291,2.371C8.72,1.627,10.2.86,11.612.042A.3.3,0,0,1,11.754,0a.221.221,0,0,1,.207.179.338.338,0,0,1-.153.378C10.4,1.371,8.927,2.134,7.5,2.874A66.188,66.188,0,0,0,.445,6.918a.31.31,0,0,1-.18.06" transform="translate(14.154 10.076)" fill="#6a6c60"/><path d="M.261,5.752a.264.264,0,0,1-.248-.187.273.273,0,0,1,.112-.31A65.165,65.165,0,0,1,8.586.037.3.3,0,0,1,8.722,0,.232.232,0,0,1,8.94.19a.323.323,0,0,1-.161.365A63.689,63.689,0,0,0,.442,5.688a.305.305,0,0,1-.181.064" transform="translate(16.75 13.666)" fill="#6a6c60"/><path d="M.25,4.013a.252.252,0,0,1-.233-.176.285.285,0,0,1,.1-.327A58.372,58.372,0,0,1,4.914.05.27.27,0,0,1,5.062,0a.205.205,0,0,1,.192.164.364.364,0,0,1-.143.4A56.3,56.3,0,0,0,.437,3.943a.317.317,0,0,1-.187.07" transform="translate(18.612 17.579)" fill="#6a6c60"/><path d="M.261,3.005a.264.264,0,0,1-.248-.187.272.272,0,0,1,.111-.309A28.7,28.7,0,0,1,4.216.035.315.315,0,0,1,4.351,0a.233.233,0,0,1,.222.192.317.317,0,0,1-.165.359A27.427,27.427,0,0,0,.444,2.942a.321.321,0,0,1-.183.063" transform="translate(20.511 19.873)" fill="#6a6c60"/></g></svg>