<svg xmlns="http://www.w3.org/2000/svg" width="85.978" height="108.482" viewBox="0 0 85.978 108.482"><g transform="translate(-783.5 -247)"><g transform="translate(20.683 -130.301)"><path d="M831.681,457.635a28.677,28.677,0,0,1-20.273-48.954h0a28.676,28.676,0,1,1,20.278,48.954Zm-19.287-47.969h0a27.284,27.284,0,0,0,19.288,46.575h0a27.274,27.274,0,1,0-19.293-46.575Z" transform="translate(-12.044)" fill="#333" stroke="#0d0222" stroke-width="1"/><path d="M767.073,505.939l-1.152-1.153a8.949,8.949,0,0,1,0-12.62L778.487,479.6a8.934,8.934,0,0,1,12.622,0l1.153,1.152a8.937,8.937,0,0,1,0,12.622l-12.567,12.566a8.949,8.949,0,0,1-12.622,0Zm12.4-25.355-12.567,12.567a7.556,7.556,0,0,0,0,10.65l1.152,1.152a7.555,7.555,0,0,0,10.651,0l12.567-12.566a7.542,7.542,0,0,0,0-10.651l-1.152-1.152a7.539,7.539,0,0,0-10.651,0Z" transform="translate(0 -23.261)" fill="#333" stroke="#0d0222" stroke-width="1"/><rect width="12.253" height="1.393" transform="matrix(0.707, -0.707, 0.707, 0.707, 790.7, 456.913)" fill="#333" stroke="#0d0222" stroke-width="1"/><path d="M864.362,432.043h1.393a21.623,21.623,0,0,0-21.6-21.6v1.393A20.228,20.228,0,0,1,864.362,432.043Z" transform="translate(-24.521 -3.077)" fill="#333" stroke="#0d0222" stroke-width="1"/><path d="M834.755,463.034V461.64a20.226,20.226,0,0,1-20.2-20.2h-1.393A21.621,21.621,0,0,0,834.755,463.034Z" transform="translate(-15.118 -12.48)" fill="#333" stroke="#0d0222" stroke-width="1"/></g><path d="M13.421.059C10.752.6,9.476,4.605,10.441,9.376c.05.244.122.463.18.7-.136-.09-.26-.188-.4-.273a13.188,13.188,0,0,0-5.56-1.988c-1.983-.172-3.478.4-4.214,1.592s-.559,2.788.493,4.478a13.223,13.223,0,0,0,4.3,4.053,15.316,15.316,0,0,0,2.7,1.31c-.731,1.413-.887,2.677-.284,3.5,1.308,1.776,5.648.8,9.693-2.177s6.265-6.832,4.958-8.608a2.635,2.635,0,0,0-2.215-.88,15.046,15.046,0,0,0-.293-3.592h0C18.825,2.712,16.088-.48,13.421.059ZM6.282,16.234a11.376,11.376,0,0,1-3.647-3.407c-.613-.985-.795-1.872-.486-2.378a1.029,1.029,0,0,1,.265-.281A3.175,3.175,0,0,1,4.49,9.8a11.355,11.355,0,0,1,4.688,1.7h0a12.048,12.048,0,0,1,3.2,2.8,18.142,18.142,0,0,0-3.315,3.2A13.052,13.052,0,0,1,6.282,16.234ZM17.835,7.88a12.713,12.713,0,0,1,.229,3.491,15.588,15.588,0,0,0-3.994,1.782A11.788,11.788,0,0,1,12.4,8.981c-.659-3.251-.043-6,1-6.771a1.061,1.061,0,0,1,.423-.193C15.1,1.757,17.091,4.21,17.835,7.88Z" transform="matrix(0.951, 0.309, -0.309, 0.951, 833.435, 282.334)"/><g transform="translate(82.406 -656.127)"><g transform="translate(710 903.126)"><path d="M725.258,908.143V888L712.275,901.47v19.656h16.294V908.143Z" transform="translate(-691.735 -888.002)" fill="#a39393"/><path d="M702.983,908.143V888L690,901.47v19.656h16.244V908.143Z" transform="translate(-690 -888.002)" fill="#a39393"/></g></g></g></svg>