<svg xmlns="http://www.w3.org/2000/svg" width="48.376" height="54.5" viewBox="0 0 48.376 54.5"><g transform="translate(-186.243 -20)"><g transform="translate(-553 -901.43)"><g transform="translate(742 932.93)"><path d="M760.887,975.93a.734.734,0,0,1-.685-1l2.989-7.825c-11.778-.426-21.191-7.924-21.191-17.08,0-9.428,9.981-17.1,22.249-17.1,12.128,0,21.643,6.568,23.138,15.973a14.56,14.56,0,0,1-2.355,11.152c-2.754,3.754-7.558,6.181-14.282,7.215l-9.372,8.47A.734.734,0,0,1,760.887,975.93Zm3.362-41.533c-11.459,0-20.782,7.012-20.782,15.632s9.323,15.632,20.782,15.632a.734.734,0,0,1,.685,1l-2.271,5.946,7.267-6.569a.73.73,0,0,1,.384-.182c6.437-.955,10.991-3.2,13.535-6.665a13.29,13.29,0,0,0,2.089-10.054C784.558,940.457,775.64,934.4,764.249,934.4Z" transform="translate(-742 -932.93)" fill="#161615"/></g></g><g transform="translate(19 -3)"><path d="M6.788,10.531V0L0,7.042V17.318H8.519V10.531Z" transform="translate(177.981 23)" fill="#a39393"/><path d="M6.788,10.531V0L0,7.042V17.318H8.492V10.531Z" transform="translate(167.243 23)" fill="#a39393"/></g><path d="M10.384.046C8.319.467,7.331,3.563,8.078,7.254c.038.189.094.358.14.541-.105-.069-.2-.145-.31-.211a10.2,10.2,0,0,0-4.3-1.538A3.257,3.257,0,0,0,.346,7.277a3.254,3.254,0,0,0,.382,3.465,10.23,10.23,0,0,0,3.324,3.135A11.85,11.85,0,0,0,6.138,14.89c-.566,1.094-.686,2.071-.22,2.705,1.012,1.374,4.369.62,7.5-1.684s4.847-5.286,3.836-6.66a2.038,2.038,0,0,0-1.713-.681,11.641,11.641,0,0,0-.226-2.779h0C14.564,2.1,12.447-.371,10.384.046ZM4.86,12.56A8.8,8.8,0,0,1,2.039,9.924c-.475-.762-.615-1.449-.376-1.84a.8.8,0,0,1,.2-.217,2.456,2.456,0,0,1,1.607-.283A8.785,8.785,0,0,1,7.1,8.9h0A9.322,9.322,0,0,1,9.579,11.07a14.036,14.036,0,0,0-2.565,2.48A10.1,10.1,0,0,1,4.86,12.56ZM13.8,6.1a9.836,9.836,0,0,1,.177,2.7,12.06,12.06,0,0,0-3.09,1.378A9.12,9.12,0,0,1,9.593,6.948c-.51-2.516-.033-4.646.771-5.238a.821.821,0,0,1,.327-.15C11.684,1.359,13.223,3.257,13.8,6.1Z" transform="matrix(0.951, 0.309, -0.309, 0.951, 204.435, 36.334)"/></g></svg>