<svg xmlns="http://www.w3.org/2000/svg" width="14.965" height="13.523" viewBox="0 0 14.965 13.523"><g transform="translate(0 -0.238)"><path d="M2.924,8.483l.36-.36A12.91,12.91,0,0,1,.568,5.332h0a.459.459,0,0,1,0-.531,10.674,10.674,0,0,1,4-3.58A4.087,4.087,0,0,0,4.5,6.908L10.621.786A7.193,7.193,0,0,0,7.483,0C6.243,0,3.05.441.171,4.524a.944.944,0,0,0,0,1.088A12.578,12.578,0,0,0,2.924,8.483Z" transform="translate(0 2.052)" fill="#00a395"/><path d="M.18,13.515a.242.242,0,0,1-.172-.173.239.239,0,0,1,.066-.234L13.109.074a.239.239,0,0,1,.234-.066.241.241,0,0,1,.107.407L10.774,3.091a12.09,12.09,0,0,1,3.3,3.244.941.941,0,0,1,0,1.1c-2.93,4.082-6.085,4.522-7.3,4.522a7.438,7.438,0,0,1-3.736-1.112L.415,13.45a.24.24,0,0,1-.235.066Z" transform="translate(0.721 0.238)" fill="#00a395"/></g></svg>