<svg xmlns="http://www.w3.org/2000/svg" width="20.48" height="20.48" viewBox="0 0 20.48 20.48"><path d="M4.539,6.846,3.826,9.507,1.22,9.562A10.258,10.258,0,0,1,1.145,0h0l2.32.425L4.481,2.731a6.111,6.111,0,0,0,.057,4.115Z" transform="translate(0 5.531)" fill="#fbbb00"/><path d="M9.836,0a10.251,10.251,0,0,1,.179,1.913,10.259,10.259,0,0,1-.224,2.138A10.238,10.238,0,0,1,6.186,9.9h0L3.263,9.749,2.85,7.167A6.1,6.1,0,0,0,5.476,4.051H0V0H9.836Z" transform="translate(10.465 8.327)" fill="#518ef8"/><path d="M15.43,5.849h0A10.2,10.2,0,0,1,9.02,8.1,10.238,10.238,0,0,1,0,2.716L3.318,0a6.089,6.089,0,0,0,5.7,3.951,6.055,6.055,0,0,0,3.075-.833Z" transform="translate(1.22 12.376)" fill="#28b446"/><path d="M15.631,2.357,12.314,5.073A6.089,6.089,0,0,0,3.336,8.262L0,5.531H0A10.242,10.242,0,0,1,15.631,2.357Z" transform="translate(1.145)" fill="#f14336"/></svg>