<svg xmlns="http://www.w3.org/2000/svg" width="10.24" height="10.24" viewBox="0 0 10.24 10.24"><path d="M2.269,3.423,1.913,4.753l-1.3.028A5.129,5.129,0,0,1,.572,0h0l1.16.213.508,1.153a3.056,3.056,0,0,0,.029,2.057Z" transform="translate(0 2.765)" fill="#fff"/><path d="M4.918,0a5.126,5.126,0,0,1,.089.956A5.13,5.13,0,0,1,4.9,2.026a5.119,5.119,0,0,1-1.8,2.924h0L1.632,4.874,1.425,3.584A3.051,3.051,0,0,0,2.738,2.026H0V0H4.918Z" transform="translate(5.233 4.164)" fill="#fff"/><path d="M7.715,2.924h0A5.1,5.1,0,0,1,4.51,4.052,5.119,5.119,0,0,1,0,1.358L1.659,0A3.044,3.044,0,0,0,4.51,1.975a3.027,3.027,0,0,0,1.537-.416Z" transform="translate(0.61 6.188)" fill="#fff"/><path d="M7.816,1.179,6.157,2.537A3.045,3.045,0,0,0,1.668,4.131L0,2.765H0A5.121,5.121,0,0,1,7.816,1.179Z" transform="translate(0.572)" fill="#fff"/></svg>