<svg xmlns="http://www.w3.org/2000/svg" xmlns:xlink="http://www.w3.org/1999/xlink" width="41.882" height="39.018" viewBox="0 0 41.882 39.018"><defs><clipPath id="a"><path d="M0,0H14.564V5.468H0Z" transform="translate(0.293 0.132)" fill="none"/></clipPath></defs><g transform="translate(0 -0.8)"><path d="M11.288,0c.023.5.021,1.007,0,1.506-.014.347.037.482-.248.632a3.058,3.058,0,0,1-1.107.04c-.7,0-1.406-.008-2.108-.018C6.3,2.137,4.772,2.1,3.243,2.079a.173.173,0,0,1-.166-.162A12.8,12.8,0,0,1,3.18,0,5.818,5.818,0,0,0,.28,1.818c-.689,1,0,1.6.894,1.91a18.423,18.423,0,0,0,6.053.75c1.74,0,4.332.064,5.814-1.043C14.848,2.084,12.669.538,11.288,0" transform="translate(20.735 34.882)" fill="#6a6c60"/><path d="M1.835,5.78A3.281,3.281,0,0,0,5.527,4.734,3.07,3.07,0,0,0,5.09.679C2.184-1.727-1.982,2.844,1.066,5.34a2.674,2.674,0,0,0,.546.346.151.151,0,0,1,.223.094" transform="translate(31.877 1.252)" fill="#fefefe"/><path d="M.351,5.991c1.6-.054,3.2-.1,4.8-.115.236,0,1.03.136,1.214,0,.314-.233.085-1.77.058-2.116A4.6,4.6,0,0,0,4.765.123.167.167,0,0,1,4.7,0,3.688,3.688,0,0,1,1.744.141C.389,1.01.121,2.973.02,4.452-.016,4.97.037,5.5,0,6.013c.116,0,.238-.018.351-.022" transform="translate(31.724 7.262)" fill="#fefefe"/><path d="M.572,3.01a9.322,9.322,0,0,0-.406,1.8C.123,5.152-.131,6.2.088,6.4c.3.276,1.641.1,2.108.111.856.016,1.712.033,2.567.045.706.01,1.411.022,2.117.013.12,0,.551.054.65-.019.015-.01-.022-.958-.026-1.183C7.467,3.414,7.122,1.294,5.336.212A3.269,3.269,0,0,1,2.6,0,6.757,6.757,0,0,0,.572,3.01" transform="translate(24.131 30.072)" fill="#fefefe"/><path d="M4.092,5.631l.011,0a2.922,2.922,0,0,0,.983-.646A2.96,2.96,0,0,0,4.937.742,3.135,3.135,0,0,0,.522,1.1,3.027,3.027,0,0,0,.893,4.905a2.881,2.881,0,0,0,3.2.726" transform="translate(25.382 24.234)" fill="#fefefe"/><path d="M1.006,4.557a16.216,16.216,0,0,0,6.32.2c1.614-.178,4.432-.382,5.544-1.773C14.174,1.356,11.68.315,10.328,0a11.62,11.62,0,0,1-.113,2.467.245.245,0,0,1-.232.2c-2.242-.034-4.489.047-6.728.13a.172.172,0,0,1-.166-.163A15.63,15.63,0,0,1,3.076.722c-1.445.685-4.726,3.014-2.07,3.835" transform="translate(28.242 10.891)" fill="#6a6c60"/><path d="M.489,6.688a15.272,15.272,0,0,0,3.5-.006c1.045-.018,2.087-.016,3.131.022-.01-.325-.013-.674-.018-1.039-.09-.055-.075-.18,0-.274C7.063,3.432,6.9,1.153,5.268.162L5.26.154A3.575,3.575,0,0,1,2.437,0a.243.243,0,0,1-.065.181,8.554,8.554,0,0,0-1.9,3.248,9.683,9.683,0,0,0-.385,1.85c-.068.606-.279,1.243.4,1.41" transform="translate(3.966 11.642)" fill="#fefefe"/><path d="M11,0c.006.391.013.765.027,1.106a.243.243,0,0,1-.234.258c-2.5-.108-5.006.059-7.508-.049a.173.173,0,0,1-.166-.163c-.006-.37,0-.736.03-1.1A7.369,7.369,0,0,0,.484,1.589C-.524,2.622.2,3.349,1.228,3.682a19.373,19.373,0,0,0,6.3.638c1.647-.039,4.486,0,5.785-1.257C14.894,1.53,12.395.367,11,0" transform="translate(0.472 17.411)" fill="#6a6c60"/><path d="M5.411,4.729A3.276,3.276,0,0,0,4.674.674C1.635-1.84-1.943,3.33,1.251,5.488a3.093,3.093,0,0,0,4.16-.759" transform="translate(5.111 5.618)" fill="#fefefe"/><g transform="translate(31.2 0.618)"><path d="M3.311,6.873a3.275,3.275,0,0,1-2.082-.707A3,3,0,0,1,.193,2.681,4.046,4.046,0,0,1,3.781,0,3.094,3.094,0,0,1,5.772.734,3.883,3.883,0,0,1,6.943,3.126a3.314,3.314,0,0,1-.732,2.392A3.713,3.713,0,0,1,3.311,6.873Zm.408-6.4A3.487,3.487,0,0,0,.626,2.758a2.608,2.608,0,0,0,.89,3.017,2.924,2.924,0,0,0,1.856.635A3.241,3.241,0,0,0,5.945,5.172a3.031,3.031,0,0,0-.436-4.024A2.749,2.749,0,0,0,3.719.474Z" transform="translate(0.241 0.182)" fill="#6a6c60"/></g><path d="M.226,6.823h0a.2.2,0,0,1-.186-.186C-.092,4.689.014,1.239,2.186.031A.233.233,0,0,1,2.3,0a.175.175,0,0,1,.169.146.265.265,0,0,1-.123.3C.914,1.239.6,3.2.5,4.822c-.018.255-.014.513-.01.768s.008.531-.01.794a.408.408,0,0,1,.173-.035L.8,6.337c1.419-.048,3.1-.1,4.8-.115.082,0,.192.012.318.023.227.022.4.037.557.037A.62.62,0,0,0,6.8,6.226c.255-.19.132-1.319.074-1.862L6.847,4.13A4.6,4.6,0,0,0,5.2.511a.2.2,0,0,1-.07-.238.275.275,0,0,1,.24-.2A.182.182,0,0,1,5.49.117C7.467,1.563,7.515,4.37,7.207,6.467a.264.264,0,0,1-.25.224C6.6,6.685,6.25,6.683,5.9,6.683c-1.928,0-3.918.074-5.671.14" transform="translate(31.271 6.893)" fill="#6a6c60"/><path d="M5.035,5.848c-.438,0-.876-.012-1.309-.034L3.472,5.8C2.374,5.756.328,5.667.041,4.392-.425,2.338,3.227.854,3.646.692A.286.286,0,0,1,3.739.674a.207.207,0,0,1,.2.177.228.228,0,0,1-.144.258C2.927,1.444.437,3,.475,4.12c.013.394.346.7.989.894a10.7,10.7,0,0,0,3.173.41,29.008,29.008,0,0,0,3.14-.209l.359-.04C9.786,5,12.278,4.737,13.3,3.453a1.241,1.241,0,0,0,.3-1.235C13.259,1.289,11.589.652,10.55.451a.156.156,0,0,1-.137-.18A.306.306,0,0,1,10.687,0c.866.162,3.548.821,3.4,2.632-.143,1.71-2.386,2.278-3.466,2.55a22.85,22.85,0,0,1-5.585.666" transform="translate(27.79 10.412)" fill="#6a6c60"/><path d="M3.342,6.723a3.1,3.1,0,0,1-2.164-.852A3.476,3.476,0,0,1,.7,1.215,3.6,3.6,0,0,1,3.389,0,3.5,3.5,0,0,1,5.6.788,3.8,3.8,0,0,1,6.737,3.174,3.253,3.253,0,0,1,5.952,5.53,3.477,3.477,0,0,1,3.342,6.723ZM3.3.465A2.986,2.986,0,0,0,.959,1.557a3.018,3.018,0,0,0,.369,3.775,2.816,2.816,0,0,0,2.1.923,2.892,2.892,0,0,0,2.062-.85,2.707,2.707,0,0,0,.82-1.962A3.206,3.206,0,0,0,5.338,1.2,3.183,3.183,0,0,0,3.3.465Z" transform="translate(24.963 23.791)" fill="#6a6c60"/><path d="M7.551,7.467c-.119,0-.247-.006-.362-.015s-.218-.017-.286-.017l-.271,0c-.55,0-1.1-.008-1.648-.017l-.21,0L2.735,7.382c-.847-.017-1.7-.034-2.544-.044A.2.2,0,0,1,0,7.152C-.054,4.073.892,1.62,2.741.062A.233.233,0,0,1,2.89,0a.2.2,0,0,1,.183.138A.233.233,0,0,1,3,.4,6.763,6.763,0,0,0,.937,3.442a9.309,9.309,0,0,0-.4,1.8c-.009.07-.027.172-.047.29-.077.42-.2,1.124-.038,1.274a1.434,1.434,0,0,0,.839.15c.222,0,.458-.012.67-.023s.4-.022.532-.022l.694.011c.642.011,1.283.023,1.925.032l.166,0c.481.006.962.013,1.443.013l.508,0c.048,0,.1,0,.151.007.106.006.189.011.264.011a.45.45,0,0,0,.222-.031c0-.027-.018-.541-.027-.846l-.01-.318C7.79,3.953,7.5,1.7,5.584.6A.174.174,0,0,1,5.5.4.3.3,0,0,1,5.763.178a.212.212,0,0,1,.1.029A4.816,4.816,0,0,1,8.106,3.788a13.857,13.857,0,0,1,.155,2.955l0,.145c0,.242,0,.374-.257.506a1.007,1.007,0,0,1-.45.074" transform="translate(23.787 29.646)" fill="#6a6c60"/><g transform="translate(20 34.218)"><path d="M0,0H14.564V5.468H0Z" transform="translate(0.293 0.132)" fill="none"/><g clip-path="url(#a)"><path d="M7.484,5.468a26.027,26.027,0,0,1-3.869-.292l-.294-.042C2.169,4.974.243,4.7.024,3.428-.329,1.387,3.278.2,3.691.068h.038c.127,0,.178.054.19.138a.291.291,0,0,1-.182.315,6.136,6.136,0,0,0-3,1.842,1.136,1.136,0,0,0-.237,1,1.718,1.718,0,0,0,1.121.88,18.3,18.3,0,0,0,5.94.75h.25l.157,0h.2c1.462,0,3.906,0,5.3-1.037a1.319,1.319,0,0,0,.662-1.278c-.167-.986-1.7-1.9-2.677-2.214a.181.181,0,0,1-.13-.217A.274.274,0,0,1,11.572,0c.638.192,3.48,1.2,2.919,3.182-.47,1.651-2.677,1.932-3.994,2.1a23.766,23.766,0,0,1-3.014.187" transform="translate(0.293 0.132)" fill="#6a6c60"/></g></g><path d="M7.291,5.3a28.534,28.534,0,0,1-3.159-.182l-.386-.04C2.6,4.961.671,4.77.154,3.7A1.368,1.368,0,0,1,.1,2.555C.447,1.693,1.667.846,3.633.107A.257.257,0,0,1,3.724.09a.208.208,0,0,1,.2.178.224.224,0,0,1-.143.255A7.612,7.612,0,0,0,.973,2.114,1.215,1.215,0,0,0,.516,3.219c.1.4.522.733,1.191.949a17.4,17.4,0,0,0,5.186.653c.374,0,.743-.006,1.106-.015L8.373,4.8c1.671-.034,4.2-.083,5.4-1.243a1.221,1.221,0,0,0,.459-1.232c-.3-1.014-2.261-1.71-3.108-1.873A.159.159,0,0,1,10.984.27.306.306,0,0,1,11.259,0c1.789.338,3.585,1.227,3.383,2.723C14.41,4.445,12.2,4.81,11.007,5.006A22.8,22.8,0,0,1,7.291,5.3" transform="translate(0 16.902)" fill="#6a6c60"/><path d="M7.7,7.4H7.7c-.67-.03-1.342-.04-2.014-.04-.581,0-1.16.006-1.738.015H3.855c-.547.006-1.094.011-1.642.011-.674,0-1.35-.008-2.025-.036A.2.2,0,0,1,0,7.165,9.881,9.881,0,0,1,2.529.1.2.2,0,0,1,2.677.025.189.189,0,0,1,2.84.148a.273.273,0,0,1-.052.293A8.57,8.57,0,0,0,.89,3.68,9.729,9.729,0,0,0,.508,5.526C.5,5.613.485,5.7.473,5.787.4,6.314.33,6.772.893,6.91a4.939,4.939,0,0,0,1.149.113c.438,0,.89-.032,1.327-.065.358-.025.706-.05,1.022-.057q.623-.01,1.243-.01c.629,0,1.259.01,1.89.033a5.922,5.922,0,0,1-.038-.752C7.458,4.092,7.424,1.5,5.656.427A.183.183,0,0,1,5.575.211.292.292,0,0,1,5.831,0,.21.21,0,0,1,5.94.03c1.9,1.159,1.95,3.89,1.989,6.084.007.354.012.694.026,1a.286.286,0,0,1-.078.2A.237.237,0,0,1,7.7,7.4" transform="translate(3.566 11.398)" fill="#6a6c60"/><path d="M3.3,6.871a3.331,3.331,0,0,1-1.886-.556A3.077,3.077,0,0,1,.162,2.71,3.672,3.672,0,0,1,3.445,0,2.978,2.978,0,0,1,5.353.728,4.587,4.587,0,0,1,6.594,2.9a3.163,3.163,0,0,1-.426,2.511A3.426,3.426,0,0,1,3.3,6.871Zm.085-6.4a3.121,3.121,0,0,0-2.79,2.3A2.691,2.691,0,0,0,1.7,5.921a2.947,2.947,0,0,0,1.659.484,2.951,2.951,0,0,0,2.47-1.239,3.27,3.27,0,0,0-.735-4.025A2.651,2.651,0,0,0,3.384.472Z" transform="translate(4.677 5.168)" fill="#6a6c60"/><path d="M.157,5.194A.154.154,0,0,1,0,5.049a.3.3,0,0,1,.182-.322C5.514,2.96,10.959,1.371,16.369,0H16.4c.137,0,.2.062.207.155a.272.272,0,0,1-.19.3C10.99,1.828,5.546,3.419.232,5.18l0,0Z" transform="translate(12.512 12.572)" fill="#6a6c60"/><path d="M11.667,13.98a.2.2,0,0,1-.15-.068C7.524,9.582,3.664,5.033.043.39A.208.208,0,0,1,.026.162.279.279,0,0,1,.26,0a.188.188,0,0,1,.15.078C4.031,4.72,7.892,9.266,11.882,13.6a.19.19,0,0,1,.032.214.287.287,0,0,1-.247.17" transform="translate(9.843 21.818)" fill="#6a6c60"/><path d="M.215,19.534a.218.218,0,0,1-.174-.086.232.232,0,0,1-.028-.209C1.9,13.015,3.532,6.614,4.869.21A.267.267,0,0,1,5.132,0a.181.181,0,0,1,.146.062.2.2,0,0,1,.03.17C3.972,6.635,2.328,13.074.422,19.37a.215.215,0,0,1-.207.164" transform="translate(32.666 15.422)" fill="#6a6c60"/></g></svg>