<svg xmlns="http://www.w3.org/2000/svg" width="10.584" height="10.584" viewBox="0 0 10.584 10.584"><g transform="translate(-460 -57)"><path d="M5.292,0a5.292,5.292,0,1,0,5.292,5.292A5.292,5.292,0,0,0,5.292,0Z" transform="translate(460 57)" fill="rgba(194,225,218,0.81)"/><path d="M2.693,3.969q-.408.161-.651.245a1.737,1.737,0,0,1-.566.085,1.12,1.12,0,0,1-.769-.242.776.776,0,0,1-.274-.612,2.3,2.3,0,0,1,.02-.295c.014-.1.036-.214.066-.34l.341-1.2c.03-.115.056-.225.077-.327A1.5,1.5,0,0,0,.967.994a.438.438,0,0,0-.1-.321A.541.541,0,0,0,.508.583a.967.967,0,0,0-.271.04C.145.652.065.677,0,.7L.09.331C.313.241.527.162.73.1A1.885,1.885,0,0,1,1.309,0a1.105,1.105,0,0,1,.758.238.787.787,0,0,1,.266.616c0,.052-.007.145-.019.276a1.854,1.854,0,0,1-.068.364l-.339,1.2c-.028.1-.052.207-.075.33A1.715,1.715,0,0,0,1.8,3.3a.4.4,0,0,0,.107.327.6.6,0,0,0,.37.087,1.055,1.055,0,0,0,.28-.044A1.456,1.456,0,0,0,2.784,3.6l-.09.37Z" transform="translate(463.7 61.233)" fill="rgba(255,255,255,0.81)"/><path d="M1.383,1.293a.807.807,0,0,1-.57.22.816.816,0,0,1-.574-.22A.7.7,0,0,1,0,.759.707.707,0,0,1,.239.223.811.811,0,0,1,.812,0a.8.8,0,0,1,.571.223.706.706,0,0,1,.238.536A.7.7,0,0,1,1.383,1.293Z" transform="translate(464.95 59.035)" fill="rgba(255,255,255,0.81)"/></g></svg>