<svg xmlns="http://www.w3.org/2000/svg" width="339.205" height="99.547" viewBox="0 0 339.205 99.547">
  <g id="Group_1300" data-name="Group 1300" transform="translate(5605.833 755.267)">
    <g id="Group_1217" data-name="Group 1217" transform="translate(-5629.281 -1307.097)" style="mix-blend-mode: overlay;isolation: isolate">
      <g id="Group_933" data-name="Group 933" transform="translate(-2 296.682)">
        <g id="Group_917" data-name="Group 917">
          <path id="Path_818" data-name="Path 818" d="M121.62,353.754a22.877,22.877,0,0,0-7.69-11.339c-.045-1.814-1.322-3.442-2.468-4.842-1.89-2.309-4.6-4.317-4.941-7.281a11.693,11.693,0,0,1,1.05-5.085,8.449,8.449,0,0,0,.621-4.344c-.515-2.605-3.145-4.365-3.773-6.946-.946-3.888,2.968-7.485,2.782-11.482-.125-2.674-2.045-4.893-2.914-7.425-1.648-4.8.619-10.194-.607-15.12a11,11,0,0,0-3.491-5.655c-1.3-1.113-2.9-1.962-3.78-3.427a19.316,19.316,0,0,1-1.243-3.428c-.571-1.551-1.852-2.252-2.865-3.424a12.026,12.026,0,0,0-3.719-3.241,7.536,7.536,0,0,0-5.769-.325,8.03,8.03,0,0,1-2.328.707,7.651,7.651,0,0,1-1.827-.3,10.083,10.083,0,0,0-6.64,1.088,18.961,18.961,0,0,0-5.3,4.558,11.919,11.919,0,0,0-13.338,8.175c-.649,2.062-1.16,4.162-1.819,6.207-.741,2.3-2.447,4.205-2.868,6.615a11.725,11.725,0,0,0,.2,4.011,7.267,7.267,0,0,0-1.97,9.211,11.651,11.651,0,0,0-2.3,4.839c-.528,3.347,1.4,7.051-.235,10.02-.857,1.557-2.5,2.485-3.745,3.758-2.67,2.738-3.285,6.9-3.008,10.715.121,1.669.362,3.457-.445,4.923a9.1,9.1,0,0,1-3.342,2.855,7.821,7.821,0,0,0-3.083,3.152,3.617,3.617,0,0,0,.284,3.568,23.466,23.466,0,0,0-5.393,9.264.081.081,0,0,0,.011.072.082.082,0,0,0,.066.033h95.819a.081.081,0,0,0,.077-.105Z" fill="#fff"/>
        </g>
        <g id="Group_918" data-name="Group 918">
          <ellipse id="Ellipse_60" data-name="Ellipse 60" cx="1.006" cy="1.676" rx="1.006" ry="1.676" transform="translate(80.659 290.499)" fill="#1a1818"/>
        </g>
        <g id="Group_919" data-name="Group 919">
          <path id="Path_819" data-name="Path 819" d="M89.654,333.253a.276.276,0,0,1-.148-.043,21.516,21.516,0,0,1-3.956-3.195.279.279,0,0,1-.077-.192v-18.98a.276.276,0,0,1,.552,0v18.868a21.026,21.026,0,0,0,3.778,3.033.276.276,0,0,1-.149.509Z" fill="#1a1818"/>
        </g>
        <g id="Group_920" data-name="Group 920">
          <path id="Path_820" data-name="Path 820" d="M56.985,333.637a.276.276,0,0,1-.141-.514,21.625,21.625,0,0,0,4.4-3.412V310.772a.276.276,0,0,1,.553,0v19.051a.276.276,0,0,1-.078.192,22.088,22.088,0,0,1-4.59,3.583A.278.278,0,0,1,56.985,333.637Z" fill="#1a1818"/>
        </g>
        <g id="Group_921" data-name="Group 921">
          <path id="Path_821" data-name="Path 821" d="M74.113,318.12A11.2,11.2,0,0,1,67.562,316c-1.772-1.284-3.344-2.508-4.673-3.639-.55-.466-1.076-.933-1.561-1.387-.1-.094-.33-.341-.624-.685a30.733,30.733,0,0,1-4.216-6.621,22.536,22.536,0,0,1-2.284-9.741l-.057-3.828-.268-14.171a.277.277,0,0,1,.553-.01L54.7,290.09l.057,3.835a22.013,22.013,0,0,0,2.233,9.509,30.065,30.065,0,0,0,4.136,6.5c.3.348.51.574.581.641.478.447,1,.908,1.541,1.369,1.318,1.122,2.879,2.337,4.639,3.612a10.553,10.553,0,0,0,13.155-.567,52.419,52.419,0,0,0,4.5-4.327l.094-.1a22.86,22.86,0,0,0,4.42-7.027,32.266,32.266,0,0,0,2.247-9.616l.056-3.847.268-14.151a.276.276,0,0,1,.276-.271h.005a.276.276,0,0,1,.271.281l-.267,14.15-.057,3.855v.019a32.809,32.809,0,0,1-2.287,9.791,23.425,23.425,0,0,1-4.533,7.2c-.037.038-.065.067-.082.086A53.126,53.126,0,0,1,81.4,315.4a11.18,11.18,0,0,1-6.815,2.707C74.429,318.117,74.271,318.12,74.113,318.12Z" fill="#1a1818"/>
        </g>
        <g id="Group_922" data-name="Group 922">
          <path id="Path_822" data-name="Path 822" d="M121.543,354.054H25.724a.276.276,0,0,1-.263-.36c3-9.353,9.989-14.976,21.363-17.19l.02,0a25.641,25.641,0,0,0,5.232-1.185,25.178,25.178,0,0,0,4.768-2.192.274.274,0,0,1,.235-.023.28.28,0,0,1,.166.167c2.247,6.313,8.681,10.554,16.01,10.554,7.413,0,14.048-4.495,16.136-10.93a.276.276,0,0,1,.411-.148,24.908,24.908,0,0,0,4.719,2.333,25.718,25.718,0,0,0,5.9,1.424l.02,0c11.374,2.214,18.362,7.837,21.365,17.19a.276.276,0,0,1-.263.36ZM26.1,353.5h95.056c-3-8.925-9.812-14.309-20.815-16.454A26.224,26.224,0,0,1,94.33,335.6a25.425,25.425,0,0,1-4.526-2.2,16.029,16.029,0,0,1-6.065,7.779,18.368,18.368,0,0,1-10.484,3.2c-7.441,0-13.992-4.249-16.415-10.608a25.763,25.763,0,0,1-4.586,2.073,26.152,26.152,0,0,1-5.335,1.209C35.915,339.193,29.1,344.578,26.1,353.5Z" fill="#1a1818"/>
        </g>
        <g id="Group_923" data-name="Group 923">
          <path id="Path_823" data-name="Path 823" d="M53.326,304.686a7.475,7.475,0,1,1,1.139-14.864.277.277,0,0,1,.234.269l.057,3.834a22.013,22.013,0,0,0,2.233,9.509.277.277,0,0,1-.119.361A7.5,7.5,0,0,1,53.326,304.686Zm0-14.4a6.923,6.923,0,1,0,3.051,13.138,22.412,22.412,0,0,1-2.173-9.5l-.054-3.59A7.01,7.01,0,0,0,53.326,290.289Z" fill="#1a1818"/>
        </g>
        <g id="Group_924" data-name="Group 924">
          <path id="Path_824" data-name="Path 824" d="M72.513,301.532a.275.275,0,0,1-.189-.075c-1.689-1.592-2.376-2.791-2.1-3.665.2-.632.859-1.038,2.011-1.24V290.5a.276.276,0,0,1,.552,0v6.289a.276.276,0,0,1-.237.273c-1.053.151-1.659.453-1.8.9s.085,1.337,1.951,3.1a.276.276,0,0,1-.19.477Z" fill="#1a1818"/>
        </g>
        <g id="Group_925" data-name="Group 925">
          <path id="Path_825" data-name="Path 825" d="M73.413,306.674a17.137,17.137,0,0,1-5.456-.947.276.276,0,0,1,.175-.524,14.768,14.768,0,0,0,10.241,0,.276.276,0,0,1,.195.517A14.5,14.5,0,0,1,73.413,306.674Z" fill="#1a1818"/>
        </g>
        <g id="Group_926" data-name="Group 926">
          <path id="Path_826" data-name="Path 826" d="M73.305,308.753c-1.6,0-3.208-.974-4.783-2.895a.283.283,0,0,1-.06-.213.277.277,0,0,1,.115-.188l1.333-.938a3.146,3.146,0,0,1,3.353-.174l.093-.051a3.162,3.162,0,0,1,3.4.233l1.254.934a.274.274,0,0,1,.05.395c-1.556,1.919-3.154,2.893-4.75,2.9Zm-4.164-3.017c1.4,1.636,2.8,2.465,4.164,2.465h.009c1.361,0,2.753-.835,4.138-2.471l-1.021-.76a2.609,2.609,0,0,0-2.809-.192l-.231.127a.278.278,0,0,1-.28-.008,2.6,2.6,0,0,0-2.883.074Z" fill="#1a1818"/>
        </g>
        <g id="Group_927" data-name="Group 927">
          <path id="Path_827" data-name="Path 827" d="M79.189,292.531a.271.271,0,0,1-.151-.045.276.276,0,0,1-.08-.382,3.941,3.941,0,0,1,2.539-1.892,4.164,4.164,0,0,1,3.171.9.276.276,0,0,1-.323.448,3.626,3.626,0,0,0-2.748-.806,3.409,3.409,0,0,0-2.177,1.651A.277.277,0,0,1,79.189,292.531Z" fill="#1a1818"/>
        </g>
        <g id="Group_928" data-name="Group 928">
          <ellipse id="Ellipse_61" data-name="Ellipse 61" cx="1.006" cy="1.676" rx="1.006" ry="1.676" transform="translate(63.84 290.499)" fill="#1a1818"/>
        </g>
        <g id="Group_929" data-name="Group 929">
          <path id="Path_828" data-name="Path 828" d="M67.321,292.531a.277.277,0,0,1-.231-.124,3.409,3.409,0,0,0-2.177-1.651,3.626,3.626,0,0,0-2.748.806.276.276,0,1,1-.323-.448,4.163,4.163,0,0,1,3.171-.9,3.941,3.941,0,0,1,2.539,1.892.276.276,0,0,1-.08.382A.271.271,0,0,1,67.321,292.531Z" fill="#1a1818"/>
        </g>
        <g id="Group_930" data-name="Group 930">
          <path id="Path_829" data-name="Path 829" d="M81.342,288.962a11.868,11.868,0,0,1,4.8.477,1.372,1.372,0,0,0,1.07.053.871.871,0,0,0,.223-1.16,2.257,2.257,0,0,0-1-.821,12.79,12.79,0,0,0-8.3-1.22c-1.093.219-2.785,1.287-1.584,2.474C77.667,289.87,80.012,289.1,81.342,288.962Z" fill="#1a1818"/>
        </g>
        <g id="Group_931" data-name="Group 931">
          <path id="Path_830" data-name="Path 830" d="M64.669,288.962a11.872,11.872,0,0,0-4.8.477,1.372,1.372,0,0,1-1.07.053.872.872,0,0,1-.223-1.16,2.26,2.26,0,0,1,1-.821,12.787,12.787,0,0,1,8.3-1.22c1.094.219,2.785,1.287,1.584,2.474C68.344,289.87,66,289.1,64.669,288.962Z" fill="#1a1818"/>
        </g>
        <g id="Group_932" data-name="Group 932">
          <path id="Path_831" data-name="Path 831" d="M111.462,337.023c-1.89-2.309-4.6-4.317-4.941-7.281a11.693,11.693,0,0,1,1.05-5.085,8.449,8.449,0,0,0,.621-4.344c-.515-2.6-3.145-4.365-3.773-6.946-.946-3.888,2.968-7.485,2.782-11.482-.125-2.674-2.045-4.893-2.914-7.425-1.648-4.8.619-10.194-.607-15.12a11,11,0,0,0-3.491-5.655c-1.3-1.113-2.9-1.962-3.78-3.427a19.315,19.315,0,0,1-1.243-3.428c-.571-1.551-1.852-2.252-2.865-3.424a12.026,12.026,0,0,0-3.719-3.241,7.536,7.536,0,0,0-5.769-.325,8.03,8.03,0,0,1-2.328.707,7.65,7.65,0,0,1-1.827-.3,10.083,10.083,0,0,0-6.64,1.088,18.961,18.961,0,0,0-5.3,4.558,11.919,11.919,0,0,0-13.338,8.175c-.649,2.062-1.16,4.162-1.819,6.207-.741,2.295-2.447,4.2-2.868,6.615-.363,2.082.327,4.186.547,6.288a8.636,8.636,0,0,1-1.623,5.981c-1.309,1.764-2.658,3.622-3,5.792-.528,3.347,1.4,7.051-.235,10.02-.857,1.557-2.5,2.485-3.745,3.758-2.67,2.738-3.285,6.9-3.008,10.715.121,1.669.362,3.457-.445,4.923a9.1,9.1,0,0,1-3.342,2.855,7.82,7.82,0,0,0-3.083,3.152,3.4,3.4,0,0,0,.78,4.061,5.159,5.159,0,0,0,2.124.751,14.282,14.282,0,0,0,6.132.291c1.46-.362,2.884-1.193,4.366-.94,1.44.246,2.53,1.461,3.924,1.9,1.931.609,3.977-.374,5.712-1.417a26.09,26.09,0,0,1,2.6-1.684c.865-.385,1.834-.372,2.718-.726a5.8,5.8,0,0,0,3.723-4.673c.222-2.562-1.41-5.027-1.136-7.584.176-1.648,1.125-3.115,1.487-4.732.723-3.223-.949-6.534-.7-9.827.137-1.812.852-3.546.946-5.361.147-2.844-1.375-5.15-2.111-7.767-.651-2.318-2.635-4.579-2.272-7.119.43-3.01,4.015-4.816,4.428-7.829.25-1.829-.748-3.766-.076-5.486a5.18,5.18,0,0,1,2.621-2.46,12.583,12.583,0,0,0,3.135-1.889,2.9,2.9,0,0,0,.788-3.326,6.2,6.2,0,0,0,4.458,4.207c1.191.3,2.495.257,3.558.87,2.938,1.7,1.815,6.7,4.414,8.878,1.485,1.246,3.8,1.189,5.163,2.57,1.695,1.721.986,4.625-.17,6.746s-2.706,4.313-2.356,6.7c.234,1.6,1.317,3.075,1.094,4.673-.187,1.334-1.232,2.357-1.9,3.524a9.6,9.6,0,0,0-.692,8.162,15.2,15.2,0,0,1,1.553,4.8c.15,3.128-2.335,5.928-2.2,9.057.112,2.636,2.082,5.089,1.571,7.678A13.027,13.027,0,0,0,83.7,345.4c.08,1.811,2.018,2.974,3.806,3.275a9.546,9.546,0,0,0,2.932.036,5.973,5.973,0,0,1,3.947.391,10.367,10.367,0,0,0,8.045-.078c1.194-.524,2.277-1.272,3.452-1.839,1.926-.929,4.121-.194,5.882-1.341a5.014,5.014,0,0,0,2-2.733C114.468,340.8,112.865,338.738,111.462,337.023Z" fill="#1a1818"/>
        </g>
      </g>
      <g id="Group_1033" data-name="Group 1033" transform="translate(-641.899 417)">
        <g id="Group_1010" data-name="Group 1010">
          <path id="Path_899" data-name="Path 899" d="M865.447,217.1a32.924,32.924,0,0,1-6.788-1.439,30.41,30.41,0,0,1-5.431-2.359,23.9,23.9,0,0,1-4.445-3.153V185.455h-.214a25.321,25.321,0,0,0,2.753-4.307,7.944,7.944,0,1,0,4.149-15.138,6.147,6.147,0,0,1,2.711-2.636c1.31-.5,2.8-1.365,2.826-2.769a13.719,13.719,0,0,1-.116-1.453c.177-1.42,2.1-1.778,3.013-2.883,1.27-1.542.193-3.946.893-5.816.457-1.222,1.677-2.278,1.419-3.556a2.661,2.661,0,0,0-1.688-1.729,19.369,19.369,0,0,1-2.331-.934c-.771-.458-1.358-1.182-2.138-1.623-1.583-.9-3.631-.47-5.276-1.246-1.456-.687-2.342-2.187-3.634-3.148a5.793,5.793,0,0,0-4.124-1.089c-1.342.166-2.682.806-3.994.474-1.479-.374-2.472-1.891-3.962-2.223-2.644-.588-4.769,2.78-7.475,2.665-.558-.024-1.1-.2-1.662-.2-2.907-.012-3.7,4.717-6.7,3.754a8.606,8.606,0,0,0-1-.373,2.488,2.488,0,0,0-1.528.342,12.927,12.927,0,0,0-4.547,4.083c-1.033,1.359-1.259,3.127-2.391,4.423-.514.588-1.181,1.03-1.687,1.625a5.149,5.149,0,0,0-1.032,3.984,9.684,9.684,0,0,0,1.57,3.9c.859,1.342.786,2.252.79,3.852a6.031,6.031,0,0,0,.756,2.534c-.047,0-.094,0-.141,0a7.944,7.944,0,1,0,4.022,14.795,18.52,18.52,0,0,0,3.155,4.7v24.691a24.481,24.481,0,0,1-5.159,3.537,30.951,30.951,0,0,1-5.487,2.217c-.271.081-.544.157-.821.232-.076.021-.153.04-.23.06-.2.054-.408.1-.614.155l-.273.065c-.2.046-.393.089-.591.132l-.293.062c-.185.038-.373.073-.561.108-.337.063-.676.122-1.019.175l-.127.019c-.2.029-.39.056-.587.082l-.183.024q-.359.045-.721.083c-.3.052-.593.1-.886.16l-.188.035c-.271.052-.541.1-.807.159l-.057.011-.057.012q-.531.111-1.048.229l-.1.021q-.523.121-1.031.25l-.121.03c-.332.085-.658.173-.981.263l-.133.037c-.318.089-.631.182-.94.276l-.138.042q-.459.143-.9.292l-.134.045q-.445.151-.878.309l-.123.045c-.289.107-.575.217-.856.328l-.108.044q-.426.171-.839.349l-.085.037c-.281.123-.558.247-.83.375l-.055.026q-.422.2-.828.4l-.014.007q-.837.425-1.615.884l-.024.014c-.25.147-.494.3-.734.45l-.051.032c-.233.148-.462.3-.687.453l-.065.045c-.221.151-.437.3-.65.461l-.071.052q-.315.232-.618.472l-.071.056c-.2.16-.4.321-.591.485l-.067.057c-.193.165-.383.333-.569.5l-.057.053c-.188.172-.371.346-.551.523l-.044.043c-.183.181-.363.364-.538.549l-.024.025q-.549.582-1.047,1.192l0,0q-.243.3-.475.6l-.027.035q-.222.294-.434.594l-.041.058c-.137.2-.271.393-.4.592l-.047.072c-.128.2-.252.4-.373.6l-.05.081c-.12.2-.236.4-.35.6l-.047.086c-.113.2-.223.407-.329.613l-.044.085q-.159.312-.311.628l-.037.078c-.1.215-.2.431-.295.649l-.028.064q-.145.336-.282.677l-.016.04q-.141.354-.273.714H889.527C886.466,225.725,879.471,219.5,865.447,217.1Z" fill="#fff"/>
        </g>
        <g id="Group_1032" data-name="Group 1032">
          <g id="Group_1011" data-name="Group 1011">
            <path id="Path_900" data-name="Path 900" d="M832.513,176.958a.274.274,0,0,1-.2-.081c-2.25-2.257-3.1-3.681-2.686-4.481.3-.569,1.129-.732,2.6-.508v-7.362a.276.276,0,1,1,.552,0v7.688a.276.276,0,0,1-.324.272c-1.864-.332-2.259.005-2.343.165-.128.245-.132,1.109,2.587,3.836a.276.276,0,0,1-.2.471Z" fill="#1a1818"/>
          </g>
          <g id="Group_1012" data-name="Group 1012">
            <path id="Path_901" data-name="Path 901" d="M834.484,180.556a6.011,6.011,0,0,1-2.067-.416.276.276,0,0,1,.192-.518,3.944,3.944,0,0,0,3.229.07,4.523,4.523,0,0,0,1.977-3.079.276.276,0,0,1,.535.138,5.035,5.035,0,0,1-2.256,3.431A3.431,3.431,0,0,1,834.484,180.556Z" fill="#1a1818"/>
          </g>
          <g id="Group_1013" data-name="Group 1013">
            <ellipse id="Ellipse_70" data-name="Ellipse 70" cx="1.006" cy="1.676" rx="1.006" ry="1.676" transform="translate(840.159 166.566)" fill="#1a1818"/>
          </g>
          <g id="Group_1014" data-name="Group 1014">
            <ellipse id="Ellipse_71" data-name="Ellipse 71" cx="1.006" cy="1.676" rx="1.006" ry="1.676" transform="translate(824.112 166.728)" fill="#1a1818"/>
          </g>
          <g id="Group_1015" data-name="Group 1015">
            <path id="Path_902" data-name="Path 902" d="M826.484,165.224a4.764,4.764,0,0,0,2.192-.688,1.644,1.644,0,0,0,.783-1.777,2.053,2.053,0,0,0-1.479-1.165,6.454,6.454,0,0,0-2.088-.106,11.454,11.454,0,0,0-3.3.62c-1.236.476-3.93,2.709-1.98,3.827.72.413,1.524-.028,2.234-.215A23.731,23.731,0,0,1,826.484,165.224Z" fill="#fff" stroke="#161615" stroke-miterlimit="10" stroke-width="0.5"/>
          </g>
          <g id="Group_1016" data-name="Group 1016">
            <path id="Path_903" data-name="Path 903" d="M840.409,165.062a4.76,4.76,0,0,1-2.191-.688,1.644,1.644,0,0,1-.784-1.777,2.056,2.056,0,0,1,1.479-1.165,6.455,6.455,0,0,1,2.088-.106,11.448,11.448,0,0,1,3.3.62c1.237.476,3.931,2.709,1.981,3.827-.721.413-1.524-.028-2.235-.215A23.715,23.715,0,0,0,840.409,165.062Z" fill="#fff" stroke="#161615" stroke-miterlimit="10" stroke-width="0.5"/>
          </g>
          <g id="Group_1017" data-name="Group 1017">
            <path id="Path_904" data-name="Path 904" d="M822.729,168.588a.291.291,0,0,1-.082-.012.277.277,0,0,1-.182-.346,3.453,3.453,0,0,1,2.454-2.3.276.276,0,1,1,.129.537,2.892,2.892,0,0,0-2.055,1.929A.277.277,0,0,1,822.729,168.588Z" fill="#1a1818"/>
          </g>
          <g id="Group_1018" data-name="Group 1018">
            <path id="Path_905" data-name="Path 905" d="M843.471,167.73a.276.276,0,0,1-.255-.169,2.809,2.809,0,0,0-2.012-1.629.276.276,0,0,1,.1-.543,3.331,3.331,0,0,1,2.418,1.958.276.276,0,0,1-.148.361A.269.269,0,0,1,843.471,167.73Z" fill="#1a1818"/>
          </g>
          <g id="Group_1019" data-name="Group 1019">
            <path id="Path_906" data-name="Path 906" d="M889.527,234.1H780.456c2.915-7.981,9.405-14.012,22.14-16.639q.945-.2,1.938-.365,1.2-.123,2.346-.327a33.26,33.26,0,0,0,3.674-.87c3.272,8.329,12.783,14.354,24.006,14.354a29.779,29.779,0,0,0,10.4-1.84,26.956,26.956,0,0,0,3.936-1.831,21.589,21.589,0,0,0,9.764-10.925,32.924,32.924,0,0,0,6.788,1.439C879.471,219.5,886.466,225.725,889.527,234.1Z" fill="#1a1818"/>
          </g>
          <g id="Group_1020" data-name="Group 1020">
            <path id="Path_907" data-name="Path 907" d="M853.227,213.575a.274.274,0,0,1-.134-.035,24.091,24.091,0,0,1-4.5-3.19.276.276,0,0,1-.09-.2V185.455a.276.276,0,0,1,.552,0v24.568a23.687,23.687,0,0,0,4.3,3.035.276.276,0,0,1-.135.517Z" fill="#1a1818"/>
          </g>
          <g id="Group_1021" data-name="Group 1021">
            <path id="Path_908" data-name="Path 908" d="M816.041,213.959a.276.276,0,0,1-.128-.521,24.479,24.479,0,0,0,5.011-3.415V185.455a.276.276,0,0,1,.552,0v24.691a.274.274,0,0,1-.09.2,24.931,24.931,0,0,1-5.218,3.578A.277.277,0,0,1,816.041,213.959Z" fill="#1a1818"/>
          </g>
          <g id="Group_1022" data-name="Group 1022">
            <path id="Path_909" data-name="Path 909" d="M834.561,230.53a29.068,29.068,0,0,1-15.129-4.094A21.6,21.6,0,0,1,810.3,216a.277.277,0,0,1,.178-.366,30.7,30.7,0,0,0,5.438-2.2.277.277,0,0,1,.384.142c2.56,6.318,9.9,10.564,18.264,10.564,8.459,0,16.029-4.5,18.408-10.941a.276.276,0,0,1,.393-.145,30.111,30.111,0,0,0,5.383,2.338.272.272,0,0,1,.163.143.278.278,0,0,1,.01.217,21.762,21.762,0,0,1-9.107,10.6A29.024,29.024,0,0,1,834.561,230.53Zm-23.638-14.453c3.428,8.327,12.882,13.9,23.638,13.9,10.9,0,20.4-5.673,23.736-14.147a30.765,30.765,0,0,1-4.925-2.136,16.5,16.5,0,0,1-6.912,7.813,22.948,22.948,0,0,1-11.9,3.189c-8.464,0-15.916-4.259-18.66-10.63A31.276,31.276,0,0,1,810.923,216.077Z" fill="#1a1818"/>
          </g>
          <g id="Group_1023" data-name="Group 1023">
            <path id="Path_910" data-name="Path 910" d="M835.428,193.666h-.135c-4.59-.05-9.4-2.749-14.3-8.022a18.782,18.782,0,0,1-3.2-4.77,22.251,22.251,0,0,1-1.389-3.823,26.48,26.48,0,0,1-.85-6.752V148.272a.277.277,0,0,1,.276-.277h38.1a.276.276,0,0,1,.276.277V170.3a24.094,24.094,0,0,1-1.083,7.124,24.99,24.99,0,0,1-1.558,3.851,25.8,25.8,0,0,1-2.783,4.354C844.568,190.962,840.074,193.666,835.428,193.666Zm-19.319-45.118V170.3a25.909,25.909,0,0,0,.832,6.61,21.683,21.683,0,0,0,1.354,3.728,18.249,18.249,0,0,0,3.108,4.632c4.788,5.156,9.464,7.8,13.9,7.845h.128c4.47,0,8.818-2.633,12.925-7.829a25.02,25.02,0,0,0,2.723-4.26,24.364,24.364,0,0,0,1.524-3.765,23.53,23.53,0,0,0,1.059-6.961v-21.75Z" fill="#1a1818"/>
          </g>
          <g id="Group_1024" data-name="Group 1024">
            <path id="Path_911" data-name="Path 911" d="M814.023,182.125A8.22,8.22,0,1,1,815.9,165.9a.275.275,0,0,1,.213.268V170.3a25.909,25.909,0,0,0,.832,6.61,21.683,21.683,0,0,0,1.354,3.728.277.277,0,0,1-.11.357A8.206,8.206,0,0,1,814.023,182.125Zm0-15.889a7.668,7.668,0,1,0,3.664,14.4,22.418,22.418,0,0,1-1.28-3.59,26.48,26.48,0,0,1-.85-6.752V166.39A7.7,7.7,0,0,0,814.023,166.236Z" fill="#1a1818"/>
          </g>
          <g id="Group_1025" data-name="Group 1025">
            <path id="Path_912" data-name="Path 912" d="M854.586,182.125a8.133,8.133,0,0,1-3.378-.725.277.277,0,0,1-.132-.376,24.457,24.457,0,0,0,1.523-3.765,23.53,23.53,0,0,0,1.059-6.961v-4.312a.276.276,0,0,1,.253-.275c.216-.018.443-.027.675-.027a8.22,8.22,0,0,1,0,16.441ZM851.7,181.01a7.6,7.6,0,0,0,2.887.562,7.668,7.668,0,0,0,0-15.336c-.128,0-.253,0-.376.009V170.3a24.094,24.094,0,0,1-1.083,7.124A24.928,24.928,0,0,1,851.7,181.01Z" fill="#1a1818"/>
          </g>
          <g id="Group_1026" data-name="Group 1026">
            <path id="Path_913" data-name="Path 913" d="M835.3,193.391c-5.431.923-10.5,1.4-14.1,0v-7.936c4.845,5.218,9.552,7.884,14.1,7.934Z" fill="#1a1818"/>
          </g>
          <g id="Group_1027" data-name="Group 1027">
            <path id="Path_914" data-name="Path 914" d="M889.527,234.377H780.456a.276.276,0,0,1-.259-.371c3.415-9.35,11.36-14.969,24.29-17.181l.019,0a32.707,32.707,0,0,0,5.969-1.188.276.276,0,0,1,.336.164c3.331,8.481,12.875,14.178,23.75,14.178,11.015,0,20.6-5.793,23.84-14.416a.276.276,0,0,1,.344-.165,32.668,32.668,0,0,0,6.731,1.427l.018,0c12.929,2.211,20.876,7.831,24.292,17.181a.276.276,0,0,1-.259.371Zm-108.673-.553H889.129c-3.417-8.922-11.181-14.307-23.719-16.453a33.255,33.255,0,0,1-6.587-1.37,21.838,21.838,0,0,1-9.012,10.36,29.989,29.989,0,0,1-30.379.075,21.661,21.661,0,0,1-9.041-10.2,33.335,33.335,0,0,1-5.819,1.135C792.032,219.518,784.269,224.9,780.854,233.824Z" fill="#1a1818"/>
          </g>
          <g id="Group_1028" data-name="Group 1028">
            <path id="Path_915" data-name="Path 915" d="M853.227,213.575a.274.274,0,0,1-.134-.035,24.091,24.091,0,0,1-4.5-3.19.276.276,0,0,1-.09-.2V185.455a.276.276,0,0,1,.552,0v24.568a23.687,23.687,0,0,0,4.3,3.035.276.276,0,0,1-.135.517Z" fill="#1a1818"/>
          </g>
          <g id="Group_1029" data-name="Group 1029">
            <path id="Path_916" data-name="Path 916" d="M835.428,193.666h-.135c-4.59-.05-9.4-2.749-14.3-8.022a18.782,18.782,0,0,1-3.2-4.77,22.251,22.251,0,0,1-1.389-3.823,26.48,26.48,0,0,1-.85-6.752V148.272a.277.277,0,0,1,.276-.277h38.1a.276.276,0,0,1,.276.277V170.3a24.094,24.094,0,0,1-1.083,7.124,24.99,24.99,0,0,1-1.558,3.851,25.8,25.8,0,0,1-2.783,4.354C844.568,190.962,840.074,193.666,835.428,193.666Zm-19.319-45.118V170.3a25.909,25.909,0,0,0,.832,6.61,21.683,21.683,0,0,0,1.354,3.728,18.249,18.249,0,0,0,3.108,4.632c4.788,5.156,9.464,7.8,13.9,7.845h.128c4.47,0,8.818-2.633,12.925-7.829a25.02,25.02,0,0,0,2.723-4.26,24.364,24.364,0,0,0,1.524-3.765,23.53,23.53,0,0,0,1.059-6.961v-21.75Z" fill="#1a1818"/>
          </g>
          <g id="Group_1030" data-name="Group 1030">
            <path id="Path_917" data-name="Path 917" d="M889.527,234.377H780.456a.276.276,0,0,1-.259-.371c3.415-9.35,11.36-14.969,24.29-17.181l.019,0a32.707,32.707,0,0,0,5.969-1.188.276.276,0,0,1,.336.164c3.331,8.481,12.875,14.178,23.75,14.178,11.015,0,20.6-5.793,23.84-14.416a.276.276,0,0,1,.344-.165,32.668,32.668,0,0,0,6.731,1.427l.018,0c12.929,2.211,20.876,7.831,24.292,17.181a.276.276,0,0,1-.259.371Zm-108.673-.553H889.129c-3.417-8.922-11.181-14.307-23.719-16.453a33.255,33.255,0,0,1-6.587-1.37,21.838,21.838,0,0,1-9.012,10.36,29.989,29.989,0,0,1-30.379.075,21.661,21.661,0,0,1-9.041-10.2,33.335,33.335,0,0,1-5.819,1.135C792.032,219.518,784.269,224.9,780.854,233.824Z" fill="#1a1818"/>
          </g>
          <g id="Group_1031" data-name="Group 1031">
            <path id="Path_918" data-name="Path 918" d="M815.729,172.1c1.436.73,3.471-1.66,2.963-3.547-.259-.962-1.064-1.75-1.137-2.744-.1-1.3,1.075-2.358,1.266-3.644.168-1.133-.444-2.215-.794-3.306-.439-1.364.132-3.681,1.521-4.4,1.706-.883,2.042,2.16,3.1,2.793,1.657.993,3.817-.988,5.632-.33.961.348,1.525,1.339,2.375,1.9,1.987,1.32,4.627-.03,7.008.12a12.554,12.554,0,0,1,3.247.847,11.723,11.723,0,0,0,4.749.831c1.542-.131,2.11-.865,3.193-1.614,1.161-.8,1.727.148,1.8,1.289.035.54-.187,1.053-.166,1.606a5.264,5.264,0,0,1-.424,2.917,3.925,3.925,0,0,0,.367,3.679,5.5,5.5,0,0,1,.607.9c.485,1.1-.295,2.639.577,3.47a1.918,1.918,0,0,0,2.727-.238,2.39,2.39,0,0,0,.67-2.011,9.4,9.4,0,0,0-.314-1.023c-.6-2.047,1.524-5.466,3.488-6.224,1.31-.5,2.8-1.365,2.826-2.769a13.719,13.719,0,0,1-.116-1.453c.177-1.42,2.1-1.778,3.013-2.883,1.27-1.542.193-3.946.893-5.816.457-1.222,1.677-2.278,1.419-3.556a2.661,2.661,0,0,0-1.688-1.729,19.369,19.369,0,0,1-2.331-.934c-.771-.458-1.358-1.182-2.138-1.623-1.583-.9-3.631-.47-5.276-1.246-1.456-.687-2.342-2.187-3.634-3.148a5.793,5.793,0,0,0-4.124-1.089c-1.342.166-2.682.806-3.994.474-1.479-.374-2.472-1.891-3.962-2.223-2.644-.588-4.769,2.78-7.475,2.665-.558-.024-1.1-.2-1.662-.2-2.907-.012-3.7,4.717-6.7,3.754a8.606,8.606,0,0,0-1-.373,2.488,2.488,0,0,0-1.528.342,12.927,12.927,0,0,0-4.547,4.083c-1.033,1.359-1.259,3.127-2.391,4.423-.514.588-1.181,1.03-1.687,1.625a5.149,5.149,0,0,0-1.032,3.984,9.684,9.684,0,0,0,1.57,3.9c.859,1.342.785,2.252.79,3.852,0,1.418.873,2.484,1.252,3.789.354,1.22-.266,2.705.211,3.837A1.957,1.957,0,0,0,815.729,172.1Z" fill="#fff" stroke="#161615" stroke-miterlimit="10" stroke-width="1"/>
          </g>
        </g>
      </g>
      <g id="Group_1103" data-name="Group 1103" transform="translate(-640.781 416)">
        <g id="Group_1052" data-name="Group 1052">
          <path id="Path_934" data-name="Path 934" d="M1003.311,234.752c-2.989-9.309-9.948-14.907-21.289-17.114a25.826,25.826,0,0,1-5.926-1.43,25.049,25.049,0,0,1-4.738-2.342l0,0-.566-.358a22.34,22.34,0,0,1-3.751-2.725V191.937c.037-.032.09-.075.15-.123a12.515,12.515,0,0,0,2.654-2.948l7.075-2.739v-1.4a7.286,7.286,0,0,0,.669-.427l.37,1.431,4.89-1.893c1.269-9.509-1.111-14.21-4.439-20.267-6.746-12.273-9.848-20.354-22.425-17.244-17.383-2.614-19.4,5.909-25.034,20.435-1.707,4.4-4.437,7.182-3.794,12.291a10.387,10.387,0,0,0,6.98,8.54,17.872,17.872,0,0,0,2.284.6v5.332l0,.015a1.361,1.361,0,1,0,.318,0l0-.015v-5.271a21.245,21.245,0,0,0,3.694.331,16.509,16.509,0,0,0,1.661,1.833c.3.3.569.559.795.825.273.321.463.524.563.625v18.918a26.25,26.25,0,0,1-4.939,3.464h0a25.16,25.16,0,0,1-4.789,2.2,25.851,25.851,0,0,1-5.267,1.192c-11.33,2.205-18.289,7.8-21.276,17.112a.162.162,0,0,0,.023.145.164.164,0,0,0,.131.067h95.819a.162.162,0,0,0,.154-.212Z" fill="#fff"/>
        </g>
        <g id="Group_1053" data-name="Group 1053">
          <ellipse id="Ellipse_74" data-name="Ellipse 74" cx="1.006" cy="1.676" rx="1.006" ry="1.676" transform="translate(962.273 171.847)" fill="#1a1818"/>
        </g>
        <g id="Group_1054" data-name="Group 1054">
          <path id="Path_935" data-name="Path 935" d="M971.269,214.276a.268.268,0,0,1-.148-.043l-.564-.356a22.06,22.06,0,0,1-3.879-2.839.277.277,0,0,1-.077-.191v-18.98a.276.276,0,0,1,.553,0v18.867a22.62,22.62,0,0,0,3.7,2.676l.565.357a.276.276,0,0,1-.148.509Z" fill="#1a1818"/>
        </g>
        <g id="Group_1055" data-name="Group 1055">
          <path id="Path_936" data-name="Path 936" d="M938.6,214.66a.276.276,0,0,1-.142-.513,26.537,26.537,0,0,0,4.884-3.413V191.8a.276.276,0,1,1,.552,0v19.051a.277.277,0,0,1-.077.191,26.083,26.083,0,0,1-5.077,3.584A.273.273,0,0,1,938.6,214.66Z" fill="#1a1818"/>
        </g>
        <g id="Group_1056" data-name="Group 1056">
          <path id="Path_937" data-name="Path 937" d="M955.8,199.147a9.906,9.906,0,0,1-5.815-2.124c-.486-.352-1-.711-1.552-1.09-1.19-.825-2.421-1.677-3.445-2.548-.551-.467-1.076-.934-1.56-1.388-.1-.093-.331-.341-.624-.685-.223-.262-.485-.519-.788-.818a14.193,14.193,0,0,1-3.266-4.506,5.328,5.328,0,0,1-.224-.577c-1.155-3.46-1.923-13.521-1.955-13.947v-.016l-.267-14.172a.277.277,0,0,1,.271-.281h.005a.276.276,0,0,1,.276.271l.267,14.164c.026.332.808,10.45,1.928,13.806a4.752,4.752,0,0,0,.2.518,13.535,13.535,0,0,0,3.153,4.346c.3.295.583.574.821.854.3.347.51.573.582.64.477.447.995.908,1.54,1.37,1,.853,2.222,1.7,3.4,2.515.55.381,1.07.741,1.561,1.1,3.932,2.848,7.813,2.657,11.535-.567.406-.352.826-.705,1.271-1.079a37.268,37.268,0,0,0,3.556-3.248,2.31,2.31,0,0,1,.24-.209,14.323,14.323,0,0,0,4.274-6.107c.018-.043.037-.093.055-.144.992-2.706,2.2-13.386,2.249-13.819l.008-.454.259-13.683a.276.276,0,0,1,.276-.271h.005a.276.276,0,0,1,.271.281l-.267,14.149,0,.026c-.05.454-1.25,11.151-2.279,13.958-.019.056-.042.113-.063.165a14.865,14.865,0,0,1-4.438,6.328c-.074.06-.158.129-.178.15a37.656,37.656,0,0,1-3.611,3.3c-.443.372-.861.724-1.264,1.073A9.779,9.779,0,0,1,955.8,199.147Z" fill="#1a1818"/>
        </g>
        <g id="Group_1057" data-name="Group 1057">
          <path id="Path_938" data-name="Path 938" d="M1003.216,234.8H907.4a22.582,22.582,0,0,1,9.753-12.777,27.17,27.17,0,0,1,3.311-1.752,35.355,35.355,0,0,1,6.065-2.032q.982-.241,2.022-.442.652-.078,1.289-.185a26.036,26.036,0,0,0,4-1.013A25.527,25.527,0,0,0,937,215.285c.574-.283,1.126-.585,1.655-.9l1.656-.019,6.632-.078,3.309-.039,6.676-.079,3.311-.039,6.674-.078,3.311-.039,1.1-.013a25.226,25.226,0,0,0,4.772,2.36q.635.235,1.293.44a25.732,25.732,0,0,0,3.311.8c.447.08.9.146,1.359.2a40.42,40.42,0,0,1,5.273,1.379,31.42,31.42,0,0,1,3.309,1.32A22.741,22.741,0,0,1,1003.216,234.8Z" fill="#1a1818"/>
        </g>
        <g id="Group_1058" data-name="Group 1058">
          <path id="Path_939" data-name="Path 939" d="M954.127,181.987a.277.277,0,0,1-.189-.075c-1.747-1.648-2.322-2.5-2.12-3.134.175-.553.878-.784,2.033-.964v-6.86a.276.276,0,0,1,.553,0v7.1a.276.276,0,0,1-.237.273c-.51.073-1.7.244-1.823.619-.172.543,1.443,2.065,1.973,2.565a.276.276,0,0,1-.19.477Z" fill="#1a1818"/>
        </g>
        <g id="Group_1059" data-name="Group 1059">
          <path id="Path_940" data-name="Path 940" d="M973.255,185.8a7.568,7.568,0,0,1-1.819-.22.276.276,0,0,1-.192-.363c.99-2.7,2.2-13.383,2.247-13.816l.008-.454a.273.273,0,0,1,.089-.2.28.28,0,0,1,.206-.072,7.572,7.572,0,0,1-.539,15.124Zm-1.392-.69a7.02,7.02,0,1,0,2.183-13.856l0,.169,0,.026C973.992,171.89,972.867,181.919,971.863,185.112Z" fill="#1a1818"/>
        </g>
        <g id="Group_1060" data-name="Group 1060">
          <path id="Path_941" data-name="Path 941" d="M961.123,173.961a.284.284,0,0,1-.134-.034.277.277,0,0,1-.107-.376,3.8,3.8,0,0,1,1.779-1.926,3.192,3.192,0,0,1,2.361.189c.165.064.329.134.493.2a5.566,5.566,0,0,0,1.534.485.276.276,0,1,1-.06.549,6.028,6.028,0,0,1-1.689-.525c-.159-.068-.319-.135-.479-.2a2.7,2.7,0,0,0-1.961-.188,3.381,3.381,0,0,0-1.495,1.679A.277.277,0,0,1,961.123,173.961Z" fill="#1a1818"/>
        </g>
        <g id="Group_1061" data-name="Group 1061">
          <ellipse id="Ellipse_75" data-name="Ellipse 75" cx="1.006" cy="1.676" rx="1.006" ry="1.676" transform="translate(945.38 171.847)" fill="#1a1818"/>
        </g>
        <g id="Group_1062" data-name="Group 1062">
          <path id="Path_942" data-name="Path 942" d="M948.542,173.961a.277.277,0,0,1-.242-.142,3.38,3.38,0,0,0-1.495-1.679,2.7,2.7,0,0,0-1.961.188c-.16.063-.32.13-.479.2a6.028,6.028,0,0,1-1.689.525.276.276,0,1,1-.06-.549,5.567,5.567,0,0,0,1.534-.485c.164-.069.328-.139.493-.2a3.192,3.192,0,0,1,2.361-.189,3.8,3.8,0,0,1,1.779,1.926.277.277,0,0,1-.107.376A.284.284,0,0,1,948.542,173.961Z" fill="#1a1818"/>
        </g>
        <g id="Group_1063" data-name="Group 1063">
          <path id="Path_943" data-name="Path 943" d="M956.063,188.072a4.247,4.247,0,0,1-1.972-.508c-.679-.354-1.46-.867-1.483-1.7-.028-1,1.079-1.383,1.741-1.614l.122-.043c.645-.229,1.308-.445,1.95-.654.323-.106.646-.211.969-.319l.02-.007h0a3.834,3.834,0,0,1,1.311-.246,1.72,1.72,0,0,1,1.326.61,1.231,1.231,0,0,1,.231.95,5.314,5.314,0,0,1-1.9,2.731A3.8,3.8,0,0,1,956.063,188.072Zm1.521-4.318-.019.007q-.486.162-.973.32c-.638.208-1.3.423-1.936.65l-.125.043c-.731.256-1.387.53-1.371,1.078s.642.938,1.186,1.222a3.358,3.358,0,0,0,3.7-.239,4.849,4.849,0,0,0,1.683-2.363.688.688,0,0,0-.12-.538,1.188,1.188,0,0,0-.906-.4A3.407,3.407,0,0,0,957.584,183.754Z" fill="#1a1818"/>
        </g>
        <g id="Group_1064" data-name="Group 1064">
          <path id="Path_944" data-name="Path 944" d="M948.441,169.336a6.491,6.491,0,0,0,2.044.681,1.67,1.67,0,0,0,1.748-.986,1.831,1.831,0,0,0-.8-1.856c-1.362-1.069-3.276-1.04-4.986-.765a15.144,15.144,0,0,0-3.583.988c-.413.178-2.931,1.5-1.557,1.531a15.813,15.813,0,0,0,1.772-.431,9.235,9.235,0,0,1,1.836-.041A11.06,11.06,0,0,1,948.441,169.336Z" fill="#1a1818"/>
        </g>
        <g id="Group_1065" data-name="Group 1065">
          <path id="Path_945" data-name="Path 945" d="M961.775,169.336a6.491,6.491,0,0,1-2.044.681,1.67,1.67,0,0,1-1.748-.986,1.831,1.831,0,0,1,.8-1.856c1.362-1.069,3.276-1.04,4.986-.765a15.144,15.144,0,0,1,3.583.988c.413.178,2.931,1.5,1.557,1.531a15.813,15.813,0,0,1-1.772-.431,9.235,9.235,0,0,0-1.836-.041A11.06,11.06,0,0,0,961.775,169.336Z" fill="#1a1818"/>
        </g>
        <g id="Group_1066" data-name="Group 1066">
          <path id="Path_946" data-name="Path 946" d="M982.847,183.833l-4.89,1.893-1.039-4.016v4.417l-10.178,3.94c3.76-8.555,4-19.251,2.575-30.672l-2.3,6.509h-4.3l-.828-5.793-1.434,5.793h-5.145l-.759-5.405-.881,5.405H941.42l-.994-7.171c-.11,2.008-.175,4.016-.239,6.026-.055,1.735.431,3.513.182,5.236a4.2,4.2,0,0,1-2.6,3.148c.416,6.313,1.025,10.531,2.989,15.435a20.421,20.421,0,0,1-6.619-.99,10.387,10.387,0,0,1-6.98-8.54c-.643-5.109,2.087-7.888,3.794-12.291,5.632-14.526,7.651-23.049,25.034-20.435,12.577-3.11,15.679,4.971,22.425,17.244C981.736,169.623,984.116,174.324,982.847,183.833Z" fill="#1a1818"/>
        </g>
        <g id="Group_1067" data-name="Group 1067">
          <path id="Path_947" data-name="Path 947" d="M938.79,185.324a7.3,7.3,0,1,1-1.951-14.385l.01.5S937.633,181.856,938.79,185.324Z" fill="#fff"/>
        </g>
        <g id="Group_1068" data-name="Group 1068">
          <path id="Path_948" data-name="Path 948" d="M920.463,220.273V234.8h-3.311V222.025A27.17,27.17,0,0,1,920.463,220.273Z" fill="#fff"/>
        </g>
        <g id="Group_1069" data-name="Group 1069">
          <path id="Path_949" data-name="Path 949" d="M929.839,217.614V234.8h-3.311V218.241q.982-.241,2.022-.442Q929.2,217.721,929.839,217.614Z" fill="#fff"/>
        </g>
        <g id="Group_1070" data-name="Group 1070">
          <path id="Path_950" data-name="Path 950" d="M940.315,214.365V234.8H937V215.285c.574-.283,1.126-.585,1.655-.9Z" fill="#fff"/>
        </g>
        <g id="Group_1071" data-name="Group 1071">
          <path id="Path_951" data-name="Path 951" d="M950.256,214.248V234.8h-3.309V214.287Z" fill="#fff"/>
        </g>
        <g id="Group_1072" data-name="Group 1072">
          <path id="Path_952" data-name="Path 952" d="M970.228,214.013V234.8h-3.31V214.052Z" fill="#fff"/>
        </g>
        <g id="Group_1073" data-name="Group 1073">
          <path id="Path_953" data-name="Path 953" d="M960.243,214.13V234.8h-3.31V214.169Z" fill="#fff"/>
        </g>
        <g id="Group_1074" data-name="Group 1074">
          <path id="Path_954" data-name="Path 954" d="M980.7,217.6v17.2h-3.311v-18A25.732,25.732,0,0,0,980.7,217.6Z" fill="#fff"/>
        </g>
        <g id="Group_1075" data-name="Group 1075">
          <path id="Path_955" data-name="Path 955" d="M990.645,220.5v14.3h-3.309V219.178A31.42,31.42,0,0,1,990.645,220.5Z" fill="#fff"/>
        </g>
        <g id="Group_1076" data-name="Group 1076">
          <path id="Path_956" data-name="Path 956" d="M1003.157,235.078H907.338a.276.276,0,0,1-.263-.361c3-9.352,9.989-14.975,21.363-17.189l.02,0a25.675,25.675,0,0,0,5.232-1.185,25.126,25.126,0,0,0,4.768-2.193.279.279,0,0,1,.138-.039l32.669-.384a.33.33,0,0,1,.152.043,24.823,24.823,0,0,0,4.719,2.334,25.693,25.693,0,0,0,5.9,1.424l.02,0c11.373,2.214,18.361,7.836,21.364,17.189a.276.276,0,0,1-.263.361Zm-95.437-.552h95.056c-3-8.925-9.812-14.31-20.816-16.454a26.225,26.225,0,0,1-6.016-1.453,25.494,25.494,0,0,1-4.755-2.341l-32.512.382a25.707,25.707,0,0,1-4.809,2.2,26.221,26.221,0,0,1-5.335,1.209C917.529,220.217,910.716,225.6,907.72,234.526Z" fill="#1a1818"/>
        </g>
        <g id="Group_1077" data-name="Group 1077">
          <ellipse id="Ellipse_76" data-name="Ellipse 76" cx="1.006" cy="1.676" rx="1.006" ry="1.676" transform="translate(962.273 171.847)" fill="#1a1818"/>
        </g>
        <g id="Group_1078" data-name="Group 1078">
          <path id="Path_957" data-name="Path 957" d="M971.269,214.276a.268.268,0,0,1-.148-.043l-.564-.356a22.06,22.06,0,0,1-3.879-2.839.277.277,0,0,1-.077-.191v-18.98a.276.276,0,0,1,.553,0v18.867a22.62,22.62,0,0,0,3.7,2.676l.565.357a.276.276,0,0,1-.148.509Z" fill="#1a1818"/>
        </g>
        <g id="Group_1079" data-name="Group 1079">
          <path id="Path_958" data-name="Path 958" d="M938.6,214.66a.276.276,0,0,1-.142-.513,26.537,26.537,0,0,0,4.884-3.413V191.8a.276.276,0,1,1,.552,0v19.051a.277.277,0,0,1-.077.191,26.083,26.083,0,0,1-5.077,3.584A.273.273,0,0,1,938.6,214.66Z" fill="#1a1818"/>
        </g>
        <g id="Group_1080" data-name="Group 1080">
          <path id="Path_959" data-name="Path 959" d="M955.8,199.147a9.906,9.906,0,0,1-5.815-2.124c-.486-.352-1-.711-1.552-1.09-1.19-.825-2.421-1.677-3.445-2.548-.551-.467-1.076-.934-1.56-1.388-.1-.093-.331-.341-.624-.685-.223-.262-.485-.519-.788-.818a14.193,14.193,0,0,1-3.266-4.506,5.328,5.328,0,0,1-.224-.577c-1.155-3.46-1.923-13.521-1.955-13.947v-.016l-.267-14.172a.277.277,0,0,1,.271-.281h.005a.276.276,0,0,1,.276.271l.267,14.164c.026.332.808,10.45,1.928,13.806a4.752,4.752,0,0,0,.2.518,13.535,13.535,0,0,0,3.153,4.346c.3.295.583.574.821.854.3.347.51.573.582.64.477.447.995.908,1.54,1.37,1,.853,2.222,1.7,3.4,2.515.55.381,1.07.741,1.561,1.1,3.932,2.848,7.813,2.657,11.535-.567.406-.352.826-.705,1.271-1.079a37.268,37.268,0,0,0,3.556-3.248,2.31,2.31,0,0,1,.24-.209,14.323,14.323,0,0,0,4.274-6.107c.018-.043.037-.093.055-.144.992-2.706,2.2-13.386,2.249-13.819l.008-.454.259-13.683a.276.276,0,0,1,.276-.271h.005a.276.276,0,0,1,.271.281l-.267,14.149,0,.026c-.05.454-1.25,11.151-2.279,13.958-.019.056-.042.113-.063.165a14.865,14.865,0,0,1-4.438,6.328c-.074.06-.158.129-.178.15a37.656,37.656,0,0,1-3.611,3.3c-.443.372-.861.724-1.264,1.073A9.779,9.779,0,0,1,955.8,199.147Z" fill="#1a1818"/>
        </g>
        <g id="Group_1081" data-name="Group 1081">
          <path id="Path_960" data-name="Path 960" d="M1003.216,234.8H907.4a22.582,22.582,0,0,1,9.753-12.777,27.17,27.17,0,0,1,3.311-1.752,35.355,35.355,0,0,1,6.065-2.032q.982-.241,2.022-.442.652-.078,1.289-.185a26.036,26.036,0,0,0,4-1.013A25.527,25.527,0,0,0,937,215.285c.574-.283,1.126-.585,1.655-.9l1.656-.019,6.632-.078,3.309-.039,6.676-.079,3.311-.039,6.674-.078,3.311-.039,1.1-.013a25.226,25.226,0,0,0,4.772,2.36q.635.235,1.293.44a25.732,25.732,0,0,0,3.311.8c.447.08.9.146,1.359.2a40.42,40.42,0,0,1,5.273,1.379,31.42,31.42,0,0,1,3.309,1.32A22.741,22.741,0,0,1,1003.216,234.8Z" fill="#1a1818"/>
        </g>
        <g id="Group_1082" data-name="Group 1082">
          <path id="Path_961" data-name="Path 961" d="M954.127,181.987a.277.277,0,0,1-.189-.075c-1.747-1.648-2.322-2.5-2.12-3.134.175-.553.878-.784,2.033-.964v-6.86a.276.276,0,0,1,.553,0v7.1a.276.276,0,0,1-.237.273c-.51.073-1.7.244-1.823.619-.172.543,1.443,2.065,1.973,2.565a.276.276,0,0,1-.19.477Z" fill="#1a1818"/>
        </g>
        <g id="Group_1083" data-name="Group 1083">
          <path id="Path_962" data-name="Path 962" d="M973.255,185.8a7.568,7.568,0,0,1-1.819-.22.276.276,0,0,1-.192-.363c.99-2.7,2.2-13.383,2.247-13.816l.008-.454a.273.273,0,0,1,.089-.2.28.28,0,0,1,.206-.072,7.572,7.572,0,0,1-.539,15.124Zm-1.392-.69a7.02,7.02,0,1,0,2.183-13.856l0,.169,0,.026C973.992,171.89,972.867,181.919,971.863,185.112Z" fill="#1a1818"/>
        </g>
        <g id="Group_1084" data-name="Group 1084">
          <path id="Path_963" data-name="Path 963" d="M961.123,173.961a.284.284,0,0,1-.134-.034.277.277,0,0,1-.107-.376,3.8,3.8,0,0,1,1.779-1.926,3.192,3.192,0,0,1,2.361.189c.165.064.329.134.493.2a5.566,5.566,0,0,0,1.534.485.276.276,0,1,1-.06.549,6.028,6.028,0,0,1-1.689-.525c-.159-.068-.319-.135-.479-.2a2.7,2.7,0,0,0-1.961-.188,3.381,3.381,0,0,0-1.495,1.679A.277.277,0,0,1,961.123,173.961Z" fill="#1a1818"/>
        </g>
        <g id="Group_1085" data-name="Group 1085">
          <ellipse id="Ellipse_77" data-name="Ellipse 77" cx="1.006" cy="1.676" rx="1.006" ry="1.676" transform="translate(945.38 171.847)" fill="#1a1818"/>
        </g>
        <g id="Group_1086" data-name="Group 1086">
          <path id="Path_964" data-name="Path 964" d="M948.542,173.961a.277.277,0,0,1-.242-.142,3.38,3.38,0,0,0-1.495-1.679,2.7,2.7,0,0,0-1.961.188c-.16.063-.32.13-.479.2a6.028,6.028,0,0,1-1.689.525.276.276,0,1,1-.06-.549,5.567,5.567,0,0,0,1.534-.485c.164-.069.328-.139.493-.2a3.192,3.192,0,0,1,2.361-.189,3.8,3.8,0,0,1,1.779,1.926.277.277,0,0,1-.107.376A.284.284,0,0,1,948.542,173.961Z" fill="#1a1818"/>
        </g>
        <g id="Group_1087" data-name="Group 1087">
          <path id="Path_965" data-name="Path 965" d="M956.063,188.072a4.247,4.247,0,0,1-1.972-.508c-.679-.354-1.46-.867-1.483-1.7-.028-1,1.079-1.383,1.741-1.614l.122-.043c.645-.229,1.308-.445,1.95-.654.323-.106.646-.211.969-.319l.02-.007h0a3.834,3.834,0,0,1,1.311-.246,1.72,1.72,0,0,1,1.326.61,1.231,1.231,0,0,1,.231.95,5.314,5.314,0,0,1-1.9,2.731A3.8,3.8,0,0,1,956.063,188.072Zm1.521-4.318-.019.007q-.486.162-.973.32c-.638.208-1.3.423-1.936.65l-.125.043c-.731.256-1.387.53-1.371,1.078s.642.938,1.186,1.222a3.358,3.358,0,0,0,3.7-.239,4.849,4.849,0,0,0,1.683-2.363.688.688,0,0,0-.12-.538,1.188,1.188,0,0,0-.906-.4A3.407,3.407,0,0,0,957.584,183.754Z" fill="#1a1818"/>
        </g>
        <g id="Group_1088" data-name="Group 1088">
          <path id="Path_966" data-name="Path 966" d="M948.441,169.336a6.491,6.491,0,0,0,2.044.681,1.67,1.67,0,0,0,1.748-.986,1.831,1.831,0,0,0-.8-1.856c-1.362-1.069-3.276-1.04-4.986-.765a15.144,15.144,0,0,0-3.583.988c-.413.178-2.931,1.5-1.557,1.531a15.813,15.813,0,0,0,1.772-.431,9.235,9.235,0,0,1,1.836-.041A11.06,11.06,0,0,1,948.441,169.336Z" fill="#1a1818"/>
        </g>
        <g id="Group_1089" data-name="Group 1089">
          <path id="Path_967" data-name="Path 967" d="M961.775,169.336a6.491,6.491,0,0,1-2.044.681,1.67,1.67,0,0,1-1.748-.986,1.831,1.831,0,0,1,.8-1.856c1.362-1.069,3.276-1.04,4.986-.765a15.144,15.144,0,0,1,3.583.988c.413.178,2.931,1.5,1.557,1.531a15.813,15.813,0,0,1-1.772-.431,9.235,9.235,0,0,0-1.836-.041A11.06,11.06,0,0,0,961.775,169.336Z" fill="#1a1818"/>
        </g>
        <g id="Group_1090" data-name="Group 1090">
          <path id="Path_968" data-name="Path 968" d="M982.847,183.833l-4.89,1.893-1.039-4.016v4.417l-10.178,3.94c3.76-8.555,4-19.251,2.575-30.672l-2.3,6.509h-4.3l-.828-5.793-1.434,5.793h-5.145l-.759-5.405-.881,5.405H941.42l-.994-7.171c-.11,2.008-.175,4.016-.239,6.026-.055,1.735.431,3.513.182,5.236a4.2,4.2,0,0,1-2.6,3.148c.416,6.313,1.025,10.531,2.989,15.435a20.421,20.421,0,0,1-6.619-.99,10.387,10.387,0,0,1-6.98-8.54c-.643-5.109,2.087-7.888,3.794-12.291,5.632-14.526,7.651-23.049,25.034-20.435,12.577-3.11,15.679,4.971,22.425,17.244C981.736,169.623,984.116,174.324,982.847,183.833Z" fill="#1a1818"/>
        </g>
        <g id="Group_1091" data-name="Group 1091">
          <path id="Path_969" data-name="Path 969" d="M938.79,185.324a7.3,7.3,0,1,1-1.951-14.385l.01.5S937.633,181.856,938.79,185.324Z" fill="#fff"/>
        </g>
        <g id="Group_1092" data-name="Group 1092">
          <path id="Path_970" data-name="Path 970" d="M920.463,220.273V234.8h-3.311V222.025A27.17,27.17,0,0,1,920.463,220.273Z" fill="#fff"/>
        </g>
        <g id="Group_1093" data-name="Group 1093">
          <path id="Path_971" data-name="Path 971" d="M929.839,217.614V234.8h-3.311V218.241q.982-.241,2.022-.442Q929.2,217.721,929.839,217.614Z" fill="#fff"/>
        </g>
        <g id="Group_1094" data-name="Group 1094">
          <path id="Path_972" data-name="Path 972" d="M940.315,214.365V234.8H937V215.285c.574-.283,1.126-.585,1.655-.9Z" fill="#fff"/>
        </g>
        <g id="Group_1095" data-name="Group 1095">
          <path id="Path_973" data-name="Path 973" d="M950.256,214.248V234.8h-3.309V214.287Z" fill="#fff"/>
        </g>
        <g id="Group_1096" data-name="Group 1096">
          <path id="Path_974" data-name="Path 974" d="M970.228,214.013V234.8h-3.31V214.052Z" fill="#fff"/>
        </g>
        <g id="Group_1097" data-name="Group 1097">
          <path id="Path_975" data-name="Path 975" d="M960.243,214.13V234.8h-3.31V214.169Z" fill="#fff"/>
        </g>
        <g id="Group_1098" data-name="Group 1098">
          <path id="Path_976" data-name="Path 976" d="M980.7,217.6v17.2h-3.311v-18A25.732,25.732,0,0,0,980.7,217.6Z" fill="#fff"/>
        </g>
        <g id="Group_1099" data-name="Group 1099">
          <path id="Path_977" data-name="Path 977" d="M990.645,220.5v14.3h-3.309V219.178A31.42,31.42,0,0,1,990.645,220.5Z" fill="#fff"/>
        </g>
        <g id="Group_1100" data-name="Group 1100">
          <path id="Path_978" data-name="Path 978" d="M1003.157,235.078H907.338a.276.276,0,0,1-.263-.361c3-9.352,9.989-14.975,21.363-17.189l.02,0a25.675,25.675,0,0,0,5.232-1.185,25.126,25.126,0,0,0,4.768-2.193.279.279,0,0,1,.138-.039l32.669-.384a.33.33,0,0,1,.152.043,24.823,24.823,0,0,0,4.719,2.334,25.693,25.693,0,0,0,5.9,1.424l.02,0c11.373,2.214,18.361,7.836,21.364,17.189a.276.276,0,0,1-.263.361Zm-95.437-.552h95.056c-3-8.925-9.812-14.31-20.816-16.454a26.225,26.225,0,0,1-6.016-1.453,25.494,25.494,0,0,1-4.755-2.341l-32.512.382a25.707,25.707,0,0,1-4.809,2.2,26.221,26.221,0,0,1-5.335,1.209C917.529,220.217,910.716,225.6,907.72,234.526Z" fill="#1a1818"/>
        </g>
        <g id="Group_1101" data-name="Group 1101">
          <path id="Path_979" data-name="Path 979" d="M936.581,193.8a.277.277,0,0,1-.276-.277V183.462a.276.276,0,1,1,.552,0V193.52A.276.276,0,0,1,936.581,193.8Z" fill="#1a1818"/>
        </g>
        <g id="Group_1102" data-name="Group 1102">
          <path id="Path_980" data-name="Path 980" d="M936.581,196.361a1.475,1.475,0,1,1,1.475-1.475A1.477,1.477,0,0,1,936.581,196.361Zm0-2.4a.923.923,0,1,0,.923.923A.924.924,0,0,0,936.581,193.963Z" fill="#1a1818"/>
        </g>
      </g>
    </g>
    <path id="Path_740" data-name="Path 740" d="M840.329,310.843c-1.4-.16-2.665,1.6-2.952,4.1-.015.128-.014.247-.024.373-.052-.066-.1-.134-.153-.2a6.812,6.812,0,0,0-2.414-1.865,1.9,1.9,0,0,0-2.8,2.389,6.821,6.821,0,0,0,1.466,2.678,7.94,7.94,0,0,0,1.117,1.075c-.584.578-.863,1.174-.7,1.674.359,1.082,2.648,1.3,5.111.478s4.169-2.357,3.811-3.438a1.363,1.363,0,0,0-.948-.786,7.787,7.787,0,0,0,.429-1.812h0C842.561,313.01,841.725,311,840.329,310.843Zm-6.091,6.809a5.875,5.875,0,0,1-1.248-2.256c-.144-.582-.092-1.047.141-1.247a.523.523,0,0,1,.175-.1,1.639,1.639,0,0,1,1.079.15,5.875,5.875,0,0,1,2.032,1.584h0a6.213,6.213,0,0,1,1.125,1.887,9.385,9.385,0,0,0-2.14,1.043A6.727,6.727,0,0,1,834.238,317.652Zm7.011-2.26a6.6,6.6,0,0,1-.445,1.752,8.025,8.025,0,0,0-2.247.238,6.1,6.1,0,0,1-.155-2.317c.2-1.7.937-2.956,1.573-3.168a.538.538,0,0,1,.239-.027C840.883,311.946,841.469,313.469,841.249,315.392Z" transform="translate(-6208.281 -1047.097)" fill="#040405" style="mix-blend-mode: overlay;isolation: isolate"/>
  </g>
</svg>
