<?xml version="1.0" encoding="UTF-8"?>
<svg width="342px" height="102px" viewBox="0 0 342 102" version="1.1" xmlns="http://www.w3.org/2000/svg" xmlns:xlink="http://www.w3.org/1999/xlink">
    <title>People</title>
    <g id="Page-1" stroke="none" stroke-width="1" fill="none" fill-rule="evenodd">
        <g id="People" transform="translate(0.000000, 1.000000)">
            <rect id="Rectangle" fill="#84CFC9" x="0" y="0" width="342" height="101"></rect>
            <g id="Group_1217" style="mix-blend-mode: overlay;" transform="translate(0.552000, 0.170000)" fill-rule="nonzero">
                <g id="Group_933" transform="translate(0.000000, 3.682000)">
                    <g id="Group_917" fill="#FFFFFF">
                        <path d="M96.62,94.754 C95.275227,90.277491 92.5915115,86.3203193 88.93,83.415 C88.885,81.601 87.608,79.973 86.462,78.573 C84.572,76.264 81.862,74.256 81.521,71.292 C81.4854889,69.5397293 81.8443349,67.8018892 82.571,66.207 C83.1569743,64.8389646 83.3711998,63.3404215 83.192,61.863 C82.677,59.258 80.047,57.498 79.419,54.917 C78.473,51.029 82.387,47.432 82.201,43.435 C82.076,40.761 80.156,38.542 79.287,36.01 C77.639,31.21 79.906,25.816 78.68,20.89 C78.1272049,18.6901565 76.9078745,16.7149879 75.189,15.235 C73.889,14.122 72.289,13.273 71.409,11.808 C70.8874982,10.7070854 70.471311,9.55930585 70.166,8.38 C69.595,6.829 68.314,6.128 67.301,4.956 C66.2986084,3.6302866 65.0323046,2.52673982 63.582,1.715 C61.7785627,0.844467531 59.7028,0.727528219 57.813,1.39 C57.0774134,1.74254022 56.292405,1.98094269 55.485,2.097 C54.8661013,2.07132638 54.2526105,1.97058898 53.658,1.797 C51.3853797,1.3886881 49.0414681,1.77275073 47.018,2.885 C44.9841138,4.06272856 43.1869107,5.60832319 41.718,7.443 C35.8555103,6.46082636 30.1654873,9.94830107 28.38,15.618 C27.731,17.68 27.22,19.78 26.561,21.825 C25.82,24.125 24.114,26.03 23.693,28.44 C23.5284956,29.7785524 23.5961545,31.1354518 23.893,32.451 C21.0660362,34.6225707 20.2316049,38.5240665 21.923,41.662 C20.790833,43.0744266 20.0033466,44.7312296 19.623,46.501 C19.095,49.848 21.023,53.552 19.388,56.521 C18.531,58.078 16.888,59.006 15.643,60.279 C12.973,63.017 12.358,67.179 12.635,70.994 C12.756,72.663 12.997,74.451 12.19,75.917 C11.3260238,77.1274518 10.1785526,78.1077122 8.848,78.772 C7.53931502,79.5052568 6.46911547,80.5994083 5.765,81.924 C5.223325,83.0801042 5.33126064,84.4361407 6.049,85.492 C3.56065437,88.1225476 1.71483277,91.2932673 0.656,94.756 C0.648060909,94.780388 0.652021134,94.807095 0.667,94.828 C0.682528249,94.8488365 0.707013869,94.8610004 0.733,94.8610004 L96.552,94.8610004 C96.5776741,94.8610004 96.6017734,94.8486052 96.6169563,94.8279013 C96.6326381,94.8071974 96.6366075,94.7805214 96.629,94.756 L96.62,94.754 Z" id="Path_818"></path>
                    </g>
                    <g id="Group_918" transform="translate(55.000000, 31.000000)" fill="#1A1818">
                        <ellipse id="Ellipse_60" cx="1.665" cy="2.175" rx="1.006" ry="1.676"></ellipse>
                    </g>
                    <g id="Group_919" transform="translate(60.000000, 51.000000)" fill="#1A1818">
                        <path d="M4.654,23.2530021 C4.60158441,23.2530021 4.55024939,23.238096 4.506,23.21 C3.06567622,22.3051182 1.73773774,21.23263 0.55,20.015 C0.5006786,19.9632313 0.473115423,19.8945023 0.473,19.823 L0.473,0.843 C0.473,0.690569409 0.596569409,0.567 0.749,0.567 C0.901430591,0.567 1.025,0.690569409 1.025,0.843 L1.025,19.711 C2.16325958,20.8641957 3.4310067,21.8819503 4.803,22.744 C4.90680354,22.8099077 4.95448909,22.9365346 4.91994476,23.0545418 C4.88540042,23.1725489 4.77695844,23.2534725 4.654,23.2530021 L4.654,23.2530021 Z" id="Path_819"></path>
                    </g>
                    <g id="Group_920" transform="translate(31.000000, 51.000000)" fill="#1A1818">
                        <path d="M0.985,23.6370071 C0.860227001,23.6375641 0.750593681,23.5543464 0.717585155,23.4340175 C0.684576629,23.3136885 0.736403517,23.1861792 0.844,23.123 C2.45156866,22.1800232 3.93049099,21.0331862 5.244,19.711 L5.244,0.772 C5.244,0.619293267 5.36779327,0.4955 5.5205,0.4955 C5.67320673,0.4955 5.797,0.619293267 5.797,0.772 L5.797,19.823 C5.79692695,19.8947022 5.76895283,19.9635615 5.719,20.015 C4.3538201,21.4066547 2.81041214,22.6114544 1.129,23.598 C1.0854499,23.6238773 1.03565681,23.6373629 0.985,23.6370071 L0.985,23.6370071 Z" id="Path_820"></path>
                    </g>
                    <g id="Group_921" transform="translate(28.000000, 16.000000)" fill="#1A1818">
                        <path d="M21.113,43.12 C18.7608969,43.1187499 16.4688835,42.3770206 14.562,41 C12.79,39.716 11.218,38.492 9.889,37.361 C9.339,36.895 8.813,36.428 8.328,35.974 C8.228,35.88 7.998,35.633 7.704,35.289 C6.02144586,33.271274 4.60455912,31.04613 3.488,28.668 C2.00640251,25.6331543 1.2258345,22.3041205 1.204,18.927 L1.147,15.099 L0.879,0.928 C0.884758306,0.78129363 1.00398331,0.664563844 1.15077865,0.661909317 C1.29757399,0.65925479 1.42094136,0.771597734 1.432,0.918 L1.7,15.09 L1.757,18.925 C1.77984118,22.221894 2.5429587,25.4715512 3.99,28.434 C5.08420269,30.7690769 6.47427979,32.9536758 8.126,34.934 C8.426,35.282 8.636,35.508 8.707,35.575 C9.185,36.022 9.707,36.483 10.248,36.944 C11.566,38.066 13.127,39.281 14.887,40.556 C18.8666481,43.4612707 24.3270893,43.2259176 28.042,39.989 C29.6266314,38.6373479 31.1292955,37.1924529 32.542,35.662 L32.636,35.562 C34.5258542,33.509057 36.0238833,31.1274619 37.056,28.535 C38.2939665,25.4639494 39.0518403,22.2206408 39.303,18.919 L39.359,15.072 L39.627,0.921 C39.6297264,0.770525568 39.7525009,0.649999996 39.903,0.649999996 L39.908,0.649999996 C39.9812037,0.651314137 40.0508856,0.681660663 40.1017105,0.734361037 C40.1525354,0.787061411 40.1803382,0.857796785 40.1790462,0.931 L39.912,15.081 L39.855,18.936 L39.855,18.955 C39.6002521,22.3167866 38.8288627,25.6192236 37.568,28.746 C36.5091701,31.4025822 34.9728343,33.8428243 33.035,35.946 C32.998,35.984 32.97,36.013 32.953,36.032 C31.5232101,37.5769159 30.0028629,39.0354875 28.4,40.4 C26.4972717,42.04285 24.0963985,42.9965058 21.585,43.107 C21.429,43.117 21.271,43.12 21.113,43.12 Z" id="Path_821"></path>
                    </g>
                    <g id="Group_922" transform="translate(0.000000, 73.000000)" fill="#1A1818">
                        <path d="M96.543,22.054 L0.724,22.054 C0.635873226,22.054 0.553030539,22.0119736 0.50104419,21.9408136 C0.449057841,21.8696535 0.434178801,21.7779461 0.461,21.694 C3.461,12.341 10.45,6.718 21.824,4.504 L21.844,4.504 C23.6246365,4.2930251 25.3782313,3.89585198 27.076,3.319 C28.7373472,2.75640876 30.335358,2.02175278 31.844,1.127 C31.914842,1.08424281 32.0012122,1.07578957 32.079,1.104 C32.1561883,1.13256398 32.2169001,1.19364158 32.245,1.271 C34.492,7.584 40.926,11.825 48.255,11.825 C55.668,11.825 62.303,7.33 64.391,0.895 C64.4172513,0.813640269 64.4797229,0.749038008 64.5601568,0.720073963 C64.6405907,0.691109917 64.7299063,0.701054022 64.802,0.747 C66.2881749,1.68917369 67.870007,2.47120678 69.521,3.08 C71.424566,3.78588158 73.4050206,4.26387605 75.421,4.504 L75.441,4.504 C86.815,6.718 93.803,12.341 96.806,21.694 C96.8328212,21.7779461 96.8179422,21.8696535 96.7659558,21.9408136 C96.7139695,22.0119736 96.6311268,22.054 96.543,22.054 L96.543,22.054 Z M1.1,21.5 L96.156,21.5 C93.156,12.575 86.344,7.191 75.341,5.046 C73.2873264,4.80270106 71.2696414,4.31732882 69.33,3.6 C67.7522927,3.01814344 66.2362017,2.28120127 64.804,1.4 C63.6502657,4.56604942 61.528083,7.28797178 58.739,9.179 C55.651484,11.2878673 51.9939087,12.404258 48.255,12.379 C40.814,12.379 34.263,8.13 31.84,1.771 C30.3826515,2.61001326 28.8466579,3.30432524 27.254,3.844 C25.5228205,4.43239236 23.7347077,4.83760856 21.919,5.053 C10.915,7.193 4.1,12.578 1.1,21.5 Z" id="Path_822"></path>
                    </g>
                    <g id="Group_923" transform="translate(20.000000, 30.000000)" fill="#1A1818">
                        <path d="M8.326,15.686 C5.5208239,15.682844 2.95355057,14.1093945 1.67752992,11.6112363 C0.401509274,9.11307812 0.631568568,6.11079424 2.27331469,3.83621897 C3.9150608,1.56164371 6.69209396,0.397718197 9.465,0.822 C9.59800939,0.842881611 9.69674068,0.956380408 9.699,1.091 L9.756,4.925 C9.77884118,8.22189398 10.5419587,11.4715512 11.989,14.434 C12.0511772,14.5668602 11.9989959,14.7251581 11.87,14.795 C10.7801966,15.3796547 9.56272648,15.6857398 8.326,15.686 L8.326,15.686 Z M8.326,1.286 C5.47261661,1.28646602 2.91180743,3.03753976 1.87619645,5.69635657 C0.840585466,8.35517339 1.54233972,11.3770178 3.6436757,13.3073505 C5.74501168,15.2376831 8.81542579,15.681034 11.377,14.424 C9.96462381,11.4550522 9.22275435,8.21172046 9.204,4.924 L9.15,1.334 C8.87645533,1.3028319 8.60131203,1.28780587 8.326,1.289 L8.326,1.286 Z" id="Path_823"></path>
                    </g>
                    <g id="Group_924" transform="translate(45.000000, 31.000000)" fill="#1A1818">
                        <path d="M2.513,11.532 C2.44273171,11.5320649 2.3751042,11.5052286 2.324,11.457 C0.635,9.865 -0.052,8.666 0.224,7.792 C0.424,7.16 1.083,6.754 2.235,6.552 L2.235,0.5 C2.235,0.347569409 2.35856941,0.224 2.511,0.224 C2.66343059,0.224 2.787,0.347569409 2.787,0.5 L2.787,6.789 C2.78688526,6.92627628 2.68589893,7.04260231 2.55,7.062 C1.497,7.213 0.891,7.515 0.75,7.962 C0.609,8.409 0.835,9.299 2.701,11.062 C2.78352457,11.1396553 2.81019867,11.2598618 2.7682662,11.3651343 C2.72633374,11.4704069 2.62431601,11.5393525 2.511,11.5390013 L2.513,11.532 Z" id="Path_824"></path>
                    </g>
                    <g id="Group_925" transform="translate(42.000000, 46.000000)" fill="#1A1818">
                        <path d="M6.413,1.674 C4.55502068,1.65620179 2.71230166,1.33636034 0.957,0.727 C0.812301416,0.67867507 0.734175124,0.522198602 0.782500035,0.377500012 C0.830824946,0.232801421 0.987301403,0.154675108 1.132,0.203 C4.43639425,1.42450661 8.06860575,1.42450661 11.373,0.203 C11.5157656,0.149152251 11.6751522,0.221234408 11.729,0.364000008 C11.7828477,0.506765608 11.7107656,0.666152228 11.568,0.72 C9.92190436,1.34857391 8.17502481,1.67185676 6.413,1.674 Z" id="Path_825"></path>
                    </g>
                    <g id="Group_926" transform="translate(43.000000, 44.000000)" fill="#1A1818">
                        <path d="M5.305,5.753 C3.705,5.753 2.097,4.779 0.522,2.858 C0.47391949,2.79808632 0.45226157,2.7212007 0.462,2.645 C0.472681366,2.56912505 0.51431451,2.50106391 0.577,2.457 L1.91,1.519 C2.90071107,0.819593224 4.20521567,0.751897488 5.263,1.345 L5.356,1.294 C6.43780421,0.702020099 7.76506602,0.79297657 8.756,1.527 L10.01,2.461 C10.0707914,2.50547206 10.1105946,2.57300831 10.1200535,2.64773373 C10.1295125,2.72245915 10.1077928,2.7977831 10.06,2.856 C8.504,4.775 6.906,5.749 5.31,5.756 L5.305,5.753 Z M1.141,2.736 C2.541,4.372 3.941,5.201 5.305,5.201 L5.314,5.201 C6.675,5.201 8.067,4.366 9.452,2.73 L8.431,1.97 C7.61251688,1.36290355 6.5154771,1.28791898 5.622,1.778 L5.391,1.905 C5.3030445,1.95298542 5.19607223,1.94992907 5.111,1.897 C4.22312789,1.33759071 3.08600437,1.36677806 2.228,1.971 L1.141,2.736 Z" id="Path_826"></path>
                    </g>
                    <g id="Group_927" transform="translate(53.000000, 31.000000)" fill="#1A1818">
                        <path d="M1.189,2.53100385 C1.13532071,2.5312862 1.08276563,2.51562409 1.038,2.486 C0.910434742,2.40259645 0.8746199,2.23158058 0.958,2.104 C1.5026212,1.14611961 2.42338528,0.459988986 3.497,0.212 C4.6327987,0.0630552368 5.77979275,0.38859754 6.668,1.112 C6.79171174,1.201194 6.81969392,1.3737882 6.73049995,1.49749996 C6.64130597,1.62121172 6.46871178,1.64919394 6.345,1.56 C5.57838811,0.92566984 4.58478884,0.634242979 3.597,0.754 C2.67288579,0.976741884 1.88374271,1.57521466 1.42,2.405 C1.36913629,2.48322567 1.28230703,2.53058709 1.189,2.53100385 Z" id="Path_827"></path>
                    </g>
                    <g id="Group_928" transform="translate(38.000000, 31.000000)" fill="#1A1818">
                        <ellipse id="Ellipse_61" cx="1.846" cy="2.175" rx="1.006" ry="1.676"></ellipse>
                    </g>
                    <g id="Group_929" transform="translate(36.000000, 31.000000)" fill="#1A1818">
                        <path d="M6.321,2.531 C6.22807531,2.53103673 6.14132663,2.48446338 6.09,2.407 C5.62625729,1.57721466 4.83711421,0.978741884 3.913,0.756 C2.92521116,0.636242979 1.93161189,0.92766984 1.165,1.562 C1.08497251,1.61969842 0.980242314,1.63031979 0.890260276,1.58986315 C0.800278238,1.54940651 0.738714775,1.46401817 0.728760254,1.36586312 C0.718805732,1.26770807 0.761972481,1.17169838 0.842,1.114 C1.73015132,0.390490128 2.87719246,0.0649344597 4.013,0.214 C5.08661472,0.461988986 6.0073788,1.14811961 6.552,2.106 C6.6353801,2.23358058 6.59956526,2.40459645 6.472,2.488 C6.42701226,2.51691899 6.37447363,2.53188032 6.321,2.531 Z" id="Path_828"></path>
                    </g>
                    <g id="Group_930" transform="translate(51.000000, 27.000000)" fill="#1A1818">
                        <path d="M5.342,2.962 C6.95778313,2.79074247 8.59152237,2.9530953 10.142,3.439 C10.4767463,3.60094034 10.8628888,3.62006702 11.212,3.492 C11.5772268,3.22250301 11.6742696,2.71770621 11.435,2.332 C11.1889316,1.96660702 10.8413123,1.68121162 10.435,1.511 C7.88418158,0.182741201 4.96014436,-0.247057041 2.135,0.291 C1.042,0.51 -0.65,1.578 0.551,2.765 C1.667,3.87 4.012,3.1 5.342,2.962 Z" id="Path_829"></path>
                    </g>
                    <g id="Group_931" transform="translate(33.000000, 27.000000)" fill="#1A1818">
                        <path d="M6.669,2.962 C5.0532165,2.79085669 3.41950048,2.95320722 1.869,3.439 C1.53425366,3.60094034 1.14811119,3.62006702 0.799,3.492 C0.434209115,3.22222836 0.337237045,2.71779966 0.576,2.332 C0.822199209,1.96672598 1.1697789,1.68136306 1.576,1.511 C4.12674527,0.182515193 7.05086066,-0.24729454 9.876,0.291 C10.97,0.51 12.661,1.578 11.46,2.765 C10.344,3.87 8,3.1 6.669,2.962 Z" id="Path_830"></path>
                    </g>
                    <g id="Group_932" transform="translate(5.000000, 0.000000)" fill="#1A1818">
                        <path d="M81.462,78.023 C79.572,75.714 76.862,73.706 76.521,70.742 C76.4854889,68.9897293 76.8443349,67.2518892 77.571,65.657 C78.1569743,64.2889646 78.3711998,62.7904215 78.192,61.313 C77.677,58.713 75.047,56.948 74.419,54.367 C73.473,50.479 77.387,46.882 77.201,42.885 C77.076,40.211 75.156,37.992 74.287,35.46 C72.639,30.66 74.906,25.266 73.68,20.34 C73.1272049,18.1401565 71.9078745,16.1649879 70.189,14.685 C68.889,13.572 67.289,12.723 66.409,11.258 C65.8874927,10.1570877 65.4713052,9.00930762 65.166,7.83 C64.595,6.279 63.314,5.578 62.301,4.406 C61.2986084,3.0802866 60.0323046,1.97673982 58.582,1.165 C56.7785627,0.294467531 54.7028,0.177528219 52.813,0.84 C52.0774134,1.19254022 51.292405,1.43094269 50.485,1.547 C49.8661003,1.52133622 49.2526083,1.42059863 48.658,1.247 C46.3853797,0.838688099 44.0414681,1.22275073 42.018,2.335 C39.9841138,3.51272856 38.1869107,5.05832319 36.718,6.893 C30.8555103,5.91082636 25.1654873,9.39830107 23.38,15.068 C22.731,17.13 22.22,19.23 21.561,21.275 C20.82,23.57 19.114,25.475 18.693,27.89 C18.33,29.972 19.02,32.076 19.24,34.178 C19.4576086,36.3038031 18.8793439,38.4347958 17.617,40.159 C16.308,41.923 14.959,43.781 14.617,45.951 C14.089,49.298 16.017,53.002 14.382,55.971 C13.525,57.528 11.882,58.456 10.637,59.729 C7.967,62.467 7.352,66.629 7.629,70.444 C7.75,72.113 7.991,73.901 7.184,75.367 C6.32002379,76.5774518 5.17255261,77.5577122 3.842,78.222 C2.5332804,78.9552116 1.46306951,80.0493746 0.759,81.374 C0.0713201337,82.74838 0.391080815,84.4131852 1.539,85.435 C2.18302855,85.8387508 2.90831966,86.0951979 3.663,86.186 C5.66174236,86.7263378 7.75407075,86.8256312 9.795,86.477 C11.255,86.115 12.679,85.284 14.161,85.537 C15.601,85.783 16.691,86.998 18.085,87.437 C20.016,88.046 22.062,87.063 23.797,86.02 C24.6295482,85.4076662 25.4977448,84.8453419 26.397,84.336 C27.262,83.951 28.231,83.964 29.115,83.61 C31.1245552,82.8605075 32.5564662,81.0632149 32.838,78.937 C33.06,76.375 31.428,73.91 31.702,71.353 C31.878,69.705 32.827,68.238 33.189,66.621 C33.912,63.398 32.24,60.087 32.489,56.794 C32.626,54.982 33.341,53.248 33.435,51.433 C33.582,48.589 32.06,46.283 31.324,43.666 C30.673,41.348 28.689,39.087 29.052,36.547 C29.482,33.537 33.067,31.731 33.48,28.718 C33.73,26.889 32.732,24.952 33.404,23.232 C33.9560223,22.125433 34.8857045,21.2528584 36.025,20.772 C37.1564825,20.2984954 38.2126532,19.6620978 39.16,18.883 C40.1175436,18.0633809 40.4360308,16.7191063 39.948,15.557 C40.5883909,17.6472041 42.2822313,19.2456757 44.406,19.764 C45.597,20.064 46.901,20.021 47.964,20.634 C50.902,22.334 49.779,27.334 52.378,29.512 C53.863,30.758 56.178,30.701 57.541,32.082 C59.236,33.803 58.527,36.707 57.371,38.828 C56.215,40.949 54.665,43.141 55.015,45.528 C55.249,47.128 56.332,48.603 56.109,50.201 C55.922,51.535 54.877,52.558 54.209,53.725 C52.7709428,56.2057825 52.5171242,59.1995218 53.517,61.887 C54.2984315,63.3893212 54.8233264,65.0116623 55.07,66.687 C55.22,69.815 52.735,72.615 52.87,75.744 C52.982,78.38 54.952,80.833 54.441,83.422 C54.0775318,84.3820048 53.8288064,85.3816056 53.7,86.4 C53.78,88.211 55.718,89.374 57.506,89.675 C58.475647,89.8379267 59.464645,89.8500699 60.438,89.711 C61.7597964,89.3879482 63.1522768,89.5258909 64.385,90.102 C66.9678255,91.1600501 69.8681747,91.1319299 72.43,90.024 C73.624,89.5 74.707,88.752 75.882,88.185 C77.808,87.256 80.003,87.991 81.764,86.844 C82.7274621,86.192531 83.4344826,85.2263875 83.764,84.111 C84.468,81.8 82.865,79.738 81.462,78.023 Z" id="Path_831"></path>
                    </g>
                </g>
                <g id="Group_1033" transform="translate(115.101000, 0.000000)">
                    <g id="Group_1010" fill="#FFFFFF">
                        <path d="M85.447,82.1 C83.1399629,81.8607706 80.8646634,81.3784258 78.659,80.661 C76.7762401,80.0532056 74.9572865,79.2631279 73.228,78.302 C71.6309624,77.4239163 70.1396029,76.3660409 68.783,75.149 L68.783,50.455 L68.569,50.455 C69.6296009,49.115873 70.5519664,47.6728553 71.322,46.148 C74.1801852,47.4347419 77.527789,46.9205184 79.8680022,44.8352535 C82.2082154,42.7499886 83.1034667,39.4835836 82.1534638,36.4965413 C81.2034608,33.5094989 78.5858344,31.3603342 75.471,31.01 C76.0752553,29.8683138 77.023815,28.945996 78.182,28.374 C79.492,27.874 80.982,27.009 81.008,25.605 C80.9436126,25.1230645 80.9048913,24.6380467 80.892,24.152 C81.069,22.732 82.992,22.374 83.905,21.269 C85.175,19.727 84.098,17.323 84.798,15.453 C85.255,14.231 86.475,13.175 86.217,11.897 C85.96353,11.0836958 85.3359883,10.4409117 84.529,10.168 C83.7326148,9.90741583 82.9539788,9.59542698 82.198,9.234 C81.427,8.776 80.84,8.052 80.06,7.611 C78.477,6.711 76.429,7.141 74.784,6.365 C73.328,5.678 72.442,4.178 71.15,3.217 C69.9638648,2.3427122 68.4891378,1.95328987 67.026,2.128 C65.684,2.294 64.344,2.934 63.032,2.602 C61.553,2.228 60.56,0.711 59.07,0.379 C56.426,-0.209 54.301,3.159 51.595,3.044 C51.037,3.02 50.495,2.844 49.933,2.844 C47.026,2.832 46.233,7.561 43.233,6.598 C42.9077049,6.45309682 42.5737295,6.32852399 42.233,6.225 C41.7001333,6.17157927 41.1642518,6.29152132 40.705,6.567 C38.8847919,7.54503017 37.3255581,8.94515141 36.158,10.65 C35.125,12.009 34.899,13.777 33.767,15.073 C33.253,15.661 32.586,16.103 32.08,16.698 C31.1971603,17.8248119 30.8232493,19.2682822 31.048,20.682 C31.2794273,22.0812839 31.8153892,23.4126541 32.618,24.582 C33.477,25.924 33.404,26.834 33.408,28.434 C33.4694394,29.3241926 33.7276453,30.1896606 34.164,30.968 C34.117,30.968 34.07,30.968 34.023,30.968 C30.6764683,30.9682906 27.6889989,33.0657961 26.552132,36.2133044 C25.4152651,39.3608126 26.3728347,42.8832498 28.9467594,45.0219846 C31.520684,47.1607194 35.1589113,47.4570385 38.045,45.763 C38.8496082,47.4820839 39.9137019,49.0672632 41.2,50.463 L41.2,75.154 C39.6386484,76.5487464 37.9048328,77.7374469 36.041,78.691 C34.2870105,79.6035613 32.4496138,80.3459539 30.554,80.908 C30.283,80.989 30.01,81.065 29.733,81.14 C29.657,81.161 29.58,81.18 29.503,81.2 C29.303,81.254 29.095,81.3 28.889,81.355 L28.616,81.42 C28.416,81.466 28.223,81.509 28.025,81.552 L27.732,81.614 C27.547,81.652 27.359,81.687 27.171,81.722 C26.834,81.785 26.495,81.844 26.152,81.897 L26.025,81.916 C25.825,81.945 25.635,81.972 25.438,81.998 L25.255,82.022 C25.0156667,82.052 24.7753333,82.0796667 24.534,82.105 C24.234,82.157 23.941,82.205 23.648,82.265 L23.46,82.3 C23.189,82.352 22.919,82.4 22.653,82.459 L22.596,82.47 L22.539,82.482 C22.185,82.556 21.8356667,82.6323333 21.491,82.711 L21.391,82.732 C21.0423333,82.8126667 20.6986667,82.896 20.36,82.982 L20.239,83.012 C19.907,83.097 19.581,83.185 19.258,83.275 L19.125,83.312 C18.807,83.401 18.494,83.494 18.185,83.588 L18.047,83.63 C17.741,83.7253333 17.441,83.8226667 17.147,83.922 L17.013,83.967 C16.7163333,84.0676667 16.4236667,84.1706667 16.135,84.276 L16.012,84.321 C15.723,84.428 15.437,84.538 15.156,84.649 L15.048,84.693 C14.764,84.807 14.4843333,84.9233333 14.209,85.042 L14.124,85.079 C13.843,85.202 13.566,85.326 13.294,85.454 L13.239,85.48 C12.9576667,85.6133333 12.6816667,85.7466667 12.411,85.88 L12.397,85.887 C11.839,86.1703333 11.3006667,86.465 10.782,86.771 L10.758,86.785 C10.508,86.932 10.264,87.085 10.024,87.235 L9.973,87.267 C9.74,87.415 9.511,87.567 9.286,87.72 L9.221,87.765 C9,87.916 8.784,88.065 8.571,88.226 L8.5,88.278 C8.29,88.4326667 8.084,88.59 7.882,88.75 L7.811,88.806 C7.611,88.966 7.411,89.127 7.22,89.291 L7.153,89.348 C6.96,89.513 6.77,89.681 6.584,89.848 L6.527,89.901 C6.339,90.073 6.156,90.247 5.976,90.424 L5.932,90.467 C5.749,90.648 5.569,90.831 5.394,91.016 L5.37,91.041 C5.004,91.429 4.655,91.8263333 4.323,92.233 L4.323,92.233 C4.161,92.433 4.00266667,92.633 3.848,92.833 L3.821,92.868 C3.673,93.064 3.52833333,93.262 3.387,93.462 L3.346,93.52 C3.209,93.72 3.075,93.913 2.946,94.112 L2.899,94.184 C2.771,94.384 2.647,94.584 2.526,94.784 L2.476,94.865 C2.356,95.065 2.24,95.265 2.126,95.465 L2.079,95.551 C1.966,95.751 1.856,95.958 1.75,96.164 L1.706,96.249 C1.6,96.457 1.49633333,96.6663333 1.395,96.877 L1.358,96.955 C1.258,97.17 1.158,97.386 1.063,97.604 L1.035,97.668 C0.938333333,97.892 0.844333333,98.1176667 0.753,98.345 L0.737,98.385 C0.643,98.621 0.552,98.859 0.464,99.099 L109.527,99.099 C106.466,90.725 99.471,84.5 85.447,82.1 Z" id="Path_899"></path>
                    </g>
                    <g id="Group_1032">
                        <g id="Group_1011" transform="translate(49.000000, 29.000000)" fill="#1A1818">
                            <path d="M3.513,12.9580544 C3.43806055,12.9594921 3.36578142,12.9302191 3.313,12.877 C1.063,10.62 0.213,9.196 0.627,8.396 C0.927,7.827 1.756,7.664 3.227,7.888 L3.227,0.526 C3.227,0.373569409 3.35056941,0.25 3.503,0.25 C3.65543059,0.25 3.779,0.373569409 3.779,0.526 L3.779,8.214 C3.77906092,8.29563262 3.7429816,8.37310455 3.68045988,8.42559192 C3.61793816,8.47807929 3.53538864,8.500197 3.455,8.486 C1.591,8.154 1.196,8.491 1.112,8.651 C0.984,8.896 0.98,9.76 3.699,12.487 C3.77847155,12.5665702 3.80171767,12.6864013 3.75776275,12.7899152 C3.71380783,12.893429 3.61144313,12.9599222 3.499,12.9580544 L3.513,12.9580544 Z" id="Path_900"></path>
                        </g>
                        <g id="Group_1012" transform="translate(52.000000, 41.000000)" fill="#1A1818">
                            <path d="M2.484,4.556 C1.77587169,4.54019856 1.07610906,4.39936583 0.417,4.14 C0.273958294,4.08698063 0.200980748,3.92804175 0.254000074,3.78500003 C0.307019399,3.64195831 0.465958263,3.56898072 0.609,3.622 C1.62599833,4.10517431 2.80101793,4.13064702 3.838,3.692 C4.90126233,2.98994072 5.61909439,1.87198173 5.815,0.613 C5.85310765,0.465263829 6.00376383,0.376392352 6.1515,0.4145 C6.29923617,0.452607648 6.38810765,0.603263829 6.35,0.751 C6.11970625,2.16328243 5.29937622,3.41086769 4.094,4.182 C3.59582949,4.43600382 3.04312548,4.56439593 2.484,4.556 L2.484,4.556 Z" id="Path_901"></path>
                        </g>
                        <g id="Group_1013" transform="translate(60.000000, 31.000000)" fill="#1A1818">
                            <ellipse id="Ellipse_70" cx="1.165" cy="2.242" rx="1.006" ry="1.676"></ellipse>
                        </g>
                        <g id="Group_1014" transform="translate(44.000000, 31.000000)" fill="#1A1818">
                            <ellipse id="Ellipse_71" cx="1.118" cy="2.404" rx="1.006" ry="1.676"></ellipse>
                        </g>
                        <g id="Group_1015" transform="translate(39.000000, 26.000000)" fill="#FFFFFF" stroke="#161615" stroke-width="0.5">
                            <path d="M7.484,4.224 C8.25985172,4.17692048 9.01240013,3.94071915 9.676,3.536 C10.2963148,3.17755237 10.613077,2.45866811 10.459,1.759 C10.1836163,1.15417576 9.6325,0.720064509 8.98,0.594 C8.29438647,0.445422247 7.58913537,0.409619269 6.892,0.488 C5.76751587,0.53143678 4.6555709,0.740347653 3.592,1.108 C2.356,1.584 -0.338,3.817 1.612,4.935 C2.332,5.348 3.136,4.907 3.846,4.72 C5.04403753,4.4609622 6.26034373,4.29513266 7.484,4.224 L7.484,4.224 Z" id="Path_902"></path>
                        </g>
                        <g id="Group_1016" transform="translate(57.000000, 26.000000)" fill="#FFFFFF" stroke="#161615" stroke-width="0.5">
                            <path d="M3.409,4.062 C2.63346163,4.01492013 1.88123739,3.77871279 1.218,3.374 C0.597302145,3.01584683 0.280106671,2.29689739 0.434,1.597 C0.709788478,0.992493615 1.26071419,0.558532522 1.913,0.432 C2.59861588,0.283439989 3.30386409,0.247637158 4.001,0.326 C5.12549394,0.3693497 6.23745157,0.578262952 7.301,0.946 C8.538,1.422 11.232,3.655 9.282,4.773 C8.561,5.186 7.758,4.745 7.047,4.558 C5.8489736,4.29889896 4.63266247,4.13306875 3.409,4.062 L3.409,4.062 Z" id="Path_903"></path>
                        </g>
                        <g id="Group_1017" transform="translate(42.000000, 30.000000)" fill="#1A1818">
                            <path d="M0.729,3.58800024 C0.701234149,3.58793252 0.673620864,3.58389155 0.647,3.576 C0.50140962,3.5304571 0.420043787,3.37577261 0.465,3.23 C0.829102891,2.08984192 1.75766767,1.21954893 2.919,0.93 C3.06728846,0.894377634 3.21637763,0.985711545 3.252,1.134 C3.28762237,1.28228846 3.19628846,1.43137763 3.048,1.467 C2.07481954,1.71010137 1.29711062,2.44012595 0.993,3.396 C0.956063625,3.51056227 0.849369363,3.58815809 0.729,3.58800024 Z" id="Path_904"></path>
                        </g>
                        <g id="Group_1018" transform="translate(60.000000, 30.000000)" fill="#1A1818">
                            <path d="M3.471,2.73000062 C3.35969958,2.7302358 3.25914892,2.66359634 3.216,2.561 C2.85043354,1.72290001 2.09982244,1.11517363 1.204,0.932 C1.10700239,0.914136721 1.02690285,0.845882762 0.993874103,0.75294873 C0.960845353,0.660014698 0.979905245,0.556519482 1.0438741,0.48144873 C1.10784296,0.406377977 1.20700239,0.371136721 1.304,0.389 C2.38402411,0.60201906 3.28905706,1.33487866 3.722,2.347 C3.7807496,2.48755671 3.71450769,2.64913326 3.574,2.708 C3.54145174,2.72204873 3.50644758,2.72952535 3.471,2.73000062 Z" id="Path_905"></path>
                        </g>
                        <g id="Group_1019" transform="translate(0.000000, 80.000000)" fill="#1A1818">
                            <path d="M109.527,19.1 L0.456,19.1 C3.371,11.119 9.861,5.088 22.596,2.461 C23.226,2.32766667 23.872,2.206 24.534,2.096 C25.334,2.014 26.116,1.905 26.88,1.769 C28.1201521,1.54880076 29.3467946,1.25833288 30.554,0.899 C33.826,9.228 43.337,15.253 54.56,15.253 C58.1086081,15.2642258 61.6306562,14.6410942 64.96,13.413 C66.319091,12.9094744 67.6353581,12.2971561 68.896,11.582 C73.3247269,9.18991731 76.7784272,5.32555063 78.66,0.657 C80.8656634,1.37442582 83.1409629,1.85677055 85.448,2.096 C99.471,4.5 106.466,10.725 109.527,19.1 Z" id="Path_906"></path>
                        </g>
                        <g id="Group_1020" transform="translate(68.000000, 50.000000)" fill="#1A1818">
                            <path d="M5.227,28.5750004 C5.18007315,28.5750004 5.13393255,28.562949 5.093,28.54 C3.47581296,27.6524636 1.96591837,26.5821161 0.593,25.35 C0.536663197,25.2986261 0.504087679,25.226236 0.503,25.15 L0.503,0.455 C0.503,0.302569409 0.626569409,0.179 0.779,0.179 C0.931430591,0.179 1.055,0.302569409 1.055,0.455 L1.055,25.023 C2.37113899,26.1912616 3.81337312,27.2092106 5.355,28.058 C5.46480714,28.11929 5.51930081,28.2470577 5.487529,28.3687319 C5.4557572,28.4904062 5.34575382,28.5750004 5.22,28.5750004 L5.227,28.5750004 Z" id="Path_907"></path>
                        </g>
                        <g id="Group_1021" transform="translate(35.000000, 50.000000)" fill="#1A1818">
                            <path d="M1.041,28.9590015 C0.913592467,28.959423 0.802452056,28.8725802 0.772054181,28.7488514 C0.741656307,28.6251225 0.799901408,28.4966649 0.913,28.438 C2.71841813,27.5117564 4.40166359,26.3646235 5.924,25.023 L5.924,0.455 C5.924,0.302569409 6.04756941,0.179 6.2,0.179 C6.35243059,0.179 6.476,0.302569409 6.476,0.455 L6.476,25.146 C6.47515286,25.2222893 6.44253616,25.2947708 6.386,25.346 C4.80567401,26.7554233 3.05222466,27.9577694 1.168,28.924 C1.12909718,28.9457097 1.08553194,28.9577159 1.041,28.9590015 L1.041,28.9590015 Z" id="Path_908"></path>
                        </g>
                        <g id="Group_1022" transform="translate(30.000000, 78.000000)" fill="#1A1818">
                            <path d="M24.561,17.53 C19.2382761,17.5762834 14.0050316,16.1601354 9.432,13.436 C5.32372098,11.0555779 2.11424777,7.38780935 0.3,3 C0.271873922,2.92801298 0.27510172,2.84754882 0.308903624,2.77804602 C0.342705528,2.70854323 0.404007423,2.65632275 0.478,2.634 C2.35673456,2.07592713 4.17771212,1.33923153 5.916,0.434 C5.98519942,0.398201512 6.06627542,0.393200354 6.13934994,0.4202227 C6.21242445,0.447245047 6.27074041,0.503792188 6.3,0.576 C8.86,6.894 16.2,11.14 24.564,11.14 C33.023,11.14 40.593,6.64 42.972,0.199 C43.0000431,0.123527576 43.0596442,0.0640632353 43.1351808,0.0361934893 C43.2107174,0.00832374317 43.2946578,0.0148274906 43.365,0.054 C45.0789233,1.00675434 46.8818177,1.78980604 48.748,2.392 C48.8198057,2.41501288 48.8788365,2.46680061 48.911,2.535 C48.9436258,2.6029835 48.947235,2.68130402 48.921,2.752 C47.1332387,7.19045802 43.9324639,10.9159673 39.814,13.352 C35.2144262,16.1297212 29.9340522,17.576086 24.561,17.53 L24.561,17.53 Z M0.923,3.077 C4.351,11.404 13.805,16.977 24.561,16.977 C35.461,16.977 44.961,11.304 48.297,2.83 C46.5962315,2.26286268 44.9482928,1.54814249 43.372,0.694 C41.9735435,3.97728591 39.5482918,6.71867655 36.46,8.507 C32.8581601,10.6348079 28.7431915,11.7375504 24.56,11.696 C16.096,11.696 8.644,7.437 5.9,1.066 C4.30169689,1.87772554 2.63656562,2.55053627 0.923,3.077 Z" id="Path_909"></path>
                        </g>
                        <g id="Group_1023" transform="translate(35.000000, 13.000000)" fill="#1A1818">
                            <path d="M20.428,45.666 L20.293,45.666 C15.703,45.616 10.893,42.917 5.993,37.644 C4.68807607,36.2274742 3.60879119,34.6186652 2.793,32.874 C2.21425187,31.6447466 1.74930978,30.3650679 1.404,29.051 C0.831434423,26.8462611 0.545742387,24.576858 0.553826001,22.299 L0.553826001,0.272 C0.553826001,0.119406799 0.677407794,-0.00444912202 0.83,-0.005 L38.93,-0.005 C39.0033733,-0.005 39.073727,0.0242152375 39.1255159,0.076191761 C39.1773048,0.128168284 39.2060018,0.198627139 39.2060018,0.272 L39.2060018,22.3 C39.2041472,24.7155289 38.8390652,27.1170466 38.123,29.424 C37.7114471,30.7486825 37.1903136,32.0367987 36.565,33.275 C35.7853797,34.8158106 34.8530378,36.2744583 33.782,37.629 C29.568,42.962 25.074,45.666 20.428,45.666 Z M1.10882132,0.548 L1.10882132,22.3 C1.10071829,24.529957 1.3803629,26.7516528 1.941,28.91 C2.27749208,30.1914228 2.73072106,31.4393088 3.295,32.638 C4.08751054,34.3321473 5.13575332,35.8943933 6.403,37.27 C11.191,42.426 15.867,45.07 20.303,45.115 L20.431,45.115 C24.901,45.115 29.249,42.482 33.356,37.286 C34.4051797,35.9615864 35.3175031,34.534301 36.079,33.026 C36.6909081,31.815606 37.200679,30.5562308 37.603,29.261 C38.3031341,27.0069144 38.6601301,24.6603148 38.662,22.3 L38.662,0.55 L1.10882132,0.548 Z" id="Path_910"></path>
                        </g>
                        <g id="Group_1024" transform="translate(25.000000, 30.000000)" fill="#1A1818">
                            <path d="M9.023,17.1250066 C5.86183579,17.1214222 2.98279679,15.3053835 1.61794325,12.4540423 C0.253089709,9.6027011 0.644268805,6.22130481 2.62407877,3.75689323 C4.60388874,1.29248165 7.82151431,0.181739717 10.9,0.9 C11.0247265,0.928863271 11.1130374,1.03997741 11.113,1.168 L11.113,5.3 C11.1047183,7.52995699 11.3843629,9.75165276 11.945,11.91 C12.2814921,13.1914228 12.7347211,14.4393088 13.299,15.638 C13.3601635,15.767541 13.3124641,15.922347 13.189,15.995 C11.9260594,16.7366961 10.4876257,17.1268617 9.023,17.1250066 L9.023,17.1250066 Z M9.023,1.23599651 C5.82127646,1.23295707 2.9546813,3.21952909 1.83335891,6.2184754 C0.712036514,9.21742172 1.57205159,12.5973936 3.99034287,14.6957049 C6.40863414,16.7940162 9.87609446,17.168923 12.687,15.636 C12.1591977,14.4778383 11.7309838,13.2768323 11.407,12.046 C10.8344344,9.84126106 10.5487424,7.57185797 10.557,5.294 L10.557,1.39 C10.0521063,1.28747689 9.53819767,1.23599651 9.023,1.23599651 L9.023,1.23599651 Z" id="Path_911"></path>
                        </g>
                        <g id="Group_1025" transform="translate(71.000000, 30.000000)" fill="#1A1818">
                            <path d="M3.586,17.1250278 C2.42107176,17.1280466 1.26908269,16.8808021 0.208,16.4 C0.139714131,16.3686523 0.0870925233,16.3109092 0.0622036558,16.2400136 C0.0373147883,16.169118 0.0422942397,16.0911532 0.076,16.024 C0.687172657,14.8133954 1.19659534,13.5540544 1.599,12.259 C2.29913411,10.0049144 2.65613009,7.6583148 2.658,5.298 L2.658,0.986 C2.6580208,0.842501514 2.76800064,0.722958206 2.911,0.711 C3.127,0.693 3.354,0.684 3.586,0.684 C8.12605679,0.684 11.8065,4.36444321 11.8065,8.9045 C11.8065,13.4445568 8.12605679,17.1250278 3.586,17.1250278 L3.586,17.1250278 Z M0.7,16.01 C1.61655799,16.3835336 2.59725257,16.5744413 3.587,16.5720231 C7.82191946,16.5720231 11.255,13.1389195 11.255,8.904 C11.255,4.66908054 7.82191946,1.236 3.587,1.236 C3.459,1.236 3.334,1.236 3.211,1.245 L3.211,5.3 C3.20914715,7.71552888 2.84406521,10.1170466 2.128,12.424 C1.74539761,13.6544442 1.26796677,14.8533707 0.7,16.01 L0.7,16.01 Z" id="Path_912"></path>
                        </g>
                        <g id="Group_1026" transform="translate(41.000000, 50.000000)" fill="#1A1818">
                            <path d="M14.3,8.391 C8.869,9.314 3.8,9.791 0.2,8.391 L0.2,0.455 C5.045,5.673 9.752,8.339 14.3,8.389 L14.3,8.391 Z" id="Path_913"></path>
                        </g>
                        <g id="Group_1027" transform="translate(0.000000, 80.000000)" fill="#1A1818">
                            <path d="M109.527,19.377 L0.456,19.377 C0.365861539,19.377 0.281424043,19.3328987 0.229826657,19.2589889 C0.178229271,19.1850792 0.165974066,19.0906306 0.197,19.006 C3.612,9.656 11.557,4.037 24.487,1.825 L24.506,1.825 C26.5282658,1.61538031 28.5265815,1.2176589 30.475,0.637 C30.6126101,0.595927524 30.7587227,0.667244375 30.811,0.801 C34.142,9.282 43.686,14.979 54.561,14.979 C65.576,14.979 75.161,9.186 78.401,0.563 C78.4530751,0.424841904 78.604658,0.352134982 78.745,0.398 C80.9321785,1.10928213 83.1883563,1.58760119 85.476,1.825 L85.494,1.825 C98.423,4.036 106.37,9.656 109.786,19.006 C109.817026,19.0906306 109.804771,19.1850792 109.753173,19.2589889 C109.701576,19.3328987 109.617138,19.377 109.527,19.377 L109.527,19.377 Z M0.854,18.824 L109.129,18.824 C105.712,9.902 97.948,4.517 85.41,2.371 C83.1736653,2.13818608 80.9667069,1.6791709 78.823,1.001 C77.0110669,5.33349172 73.850786,8.96648221 69.811,11.361 C60.4473795,16.8926071 48.8228191,16.921306 39.432,11.436 C35.3992608,9.09745285 32.2285629,5.52029113 30.391,1.236 C28.4888934,1.78641045 26.5415271,2.16624561 24.572,2.371 C12.032,4.518 4.269,9.9 0.854,18.824 Z" id="Path_914"></path>
                        </g>
                        <g id="Group_1028" transform="translate(68.000000, 50.000000)" fill="#1A1818">
                            <path d="M5.227,28.5750004 C5.18007315,28.5750004 5.13393255,28.562949 5.093,28.54 C3.47581296,27.6524636 1.96591837,26.5821161 0.593,25.35 C0.536663197,25.2986261 0.504087679,25.226236 0.503,25.15 L0.503,0.455 C0.503,0.302569409 0.626569409,0.179 0.779,0.179 C0.931430591,0.179 1.055,0.302569409 1.055,0.455 L1.055,25.023 C2.37113899,26.1912616 3.81337312,27.2092106 5.355,28.058 C5.46480714,28.11929 5.51930081,28.2470577 5.487529,28.3687319 C5.4557572,28.4904062 5.34575382,28.5750004 5.22,28.5750004 L5.227,28.5750004 Z" id="Path_915"></path>
                        </g>
                        <g id="Group_1029" transform="translate(35.000000, 13.000000)" fill="#1A1818">
                            <path d="M20.428,45.666 L20.293,45.666 C15.703,45.616 10.893,42.917 5.993,37.644 C4.68807607,36.2274742 3.60879119,34.6186652 2.793,32.874 C2.21425187,31.6447466 1.74930978,30.3650679 1.404,29.051 C0.831434423,26.8462611 0.545742387,24.576858 0.553826001,22.299 L0.553826001,0.272 C0.553826001,0.119406799 0.677407794,-0.00444912202 0.83,-0.005 L38.93,-0.005 C39.0033733,-0.005 39.073727,0.0242152375 39.1255159,0.076191761 C39.1773048,0.128168284 39.2060018,0.198627139 39.2060018,0.272 L39.2060018,22.3 C39.2041472,24.7155289 38.8390652,27.1170466 38.123,29.424 C37.7114471,30.7486825 37.1903136,32.0367987 36.565,33.275 C35.7853797,34.8158106 34.8530378,36.2744583 33.782,37.629 C29.568,42.962 25.074,45.666 20.428,45.666 Z M1.10882132,0.548 L1.10882132,22.3 C1.10071829,24.529957 1.3803629,26.7516528 1.941,28.91 C2.27749208,30.1914228 2.73072106,31.4393088 3.295,32.638 C4.08751054,34.3321473 5.13575332,35.8943933 6.403,37.27 C11.191,42.426 15.867,45.07 20.303,45.115 L20.431,45.115 C24.901,45.115 29.249,42.482 33.356,37.286 C34.4051797,35.9615864 35.3175031,34.534301 36.079,33.026 C36.6909081,31.815606 37.200679,30.5562308 37.603,29.261 C38.3031341,27.0069144 38.6601301,24.6603148 38.662,22.3 L38.662,0.55 L1.10882132,0.548 Z" id="Path_916"></path>
                        </g>
                        <g id="Group_1030" transform="translate(0.000000, 80.000000)" fill="#1A1818">
                            <path d="M109.527,19.377 L0.456,19.377 C0.365861539,19.377 0.281424043,19.3328987 0.229826657,19.2589889 C0.178229271,19.1850792 0.165974066,19.0906306 0.197,19.006 C3.612,9.656 11.557,4.037 24.487,1.825 L24.506,1.825 C26.5282658,1.61538031 28.5265815,1.2176589 30.475,0.637 C30.6126101,0.595927524 30.7587227,0.667244375 30.811,0.801 C34.142,9.282 43.686,14.979 54.561,14.979 C65.576,14.979 75.161,9.186 78.401,0.563 C78.4530751,0.424841904 78.604658,0.352134982 78.745,0.398 C80.9321785,1.10928213 83.1883563,1.58760119 85.476,1.825 L85.494,1.825 C98.423,4.036 106.37,9.656 109.786,19.006 C109.817026,19.0906306 109.804771,19.1850792 109.753173,19.2589889 C109.701576,19.3328987 109.617138,19.377 109.527,19.377 L109.527,19.377 Z M0.854,18.824 L109.129,18.824 C105.712,9.902 97.948,4.517 85.41,2.371 C83.1736653,2.13818608 80.9667069,1.6791709 78.823,1.001 C77.0110669,5.33349172 73.850786,8.96648221 69.811,11.361 C60.4473795,16.8926071 48.8228191,16.921306 39.432,11.436 C35.3992608,9.09745285 32.2285629,5.52029113 30.391,1.236 C28.4888934,1.78641045 26.5415271,2.16624561 24.572,2.371 C12.032,4.518 4.269,9.9 0.854,18.824 Z" id="Path_917"></path>
                        </g>
                        <g id="Group_1031" transform="translate(30.000000, 0.000000)" fill="#FFFFFF" stroke="#161615">
                            <path d="M5.729,37.1 C7.165,37.83 9.2,35.44 8.692,33.553 C8.433,32.591 7.628,31.803 7.555,30.809 C7.455,29.509 8.63,28.451 8.821,27.165 C8.989,26.032 8.377,24.95 8.027,23.859 C7.588,22.495 8.159,20.178 9.548,19.459 C11.254,18.576 11.59,21.619 12.648,22.252 C14.305,23.245 16.465,21.264 18.28,21.922 C19.241,22.27 19.805,23.261 20.655,23.822 C22.642,25.142 25.282,23.792 27.663,23.942 C28.7783601,24.0777568 29.870447,24.3626345 30.91,24.789 C32.4183289,25.3920333 34.0355227,25.6750167 35.659,25.62 C37.201,25.489 37.769,24.755 38.852,24.006 C40.013,23.206 40.579,24.154 40.652,25.295 C40.687,25.835 40.465,26.348 40.486,26.901 C40.6253419,27.8938707 40.4782406,28.9058859 40.062,29.818 C39.5629149,31.0287653 39.7005694,32.408686 40.429,33.497 C40.660517,33.7762493 40.8638405,34.0777174 41.036,34.397 C41.521,35.497 40.741,37.036 41.613,37.867 C42.004234,38.2016255 42.5135665,38.3649227 43.0264357,38.3201619 C43.5393048,38.275401 44.0126486,38.0263404 44.34,37.629 C44.8646329,37.0997761 45.1123922,36.3561284 45.01,35.618 C44.9248439,35.2713141 44.8200074,34.9297608 44.696,34.595 C44.096,32.548 46.22,29.129 48.184,28.371 C49.494,27.871 50.984,27.006 51.01,25.602 C50.9456126,25.1200645 50.9068913,24.6350467 50.894,24.149 C51.071,22.729 52.994,22.371 53.907,21.266 C55.177,19.724 54.1,17.32 54.8,15.45 C55.257,14.228 56.477,13.172 56.219,11.894 C55.96553,11.0806958 55.3379883,10.4379117 54.531,10.165 C53.7346148,9.90441583 52.9559788,9.59242698 52.2,9.231 C51.429,8.773 50.842,8.049 50.062,7.608 C48.479,6.708 46.431,7.138 44.786,6.362 C43.33,5.675 42.444,4.175 41.152,3.214 C39.9658648,2.3397122 38.4911378,1.95028987 37.028,2.125 C35.686,2.291 34.346,2.931 33.034,2.599 C31.555,2.225 30.562,0.708 29.072,0.376 C26.428,-0.212 24.303,3.156 21.597,3.041 C21.039,3.017 20.497,2.841 19.935,2.841 C17.028,2.829 16.235,7.558 13.235,6.595 C12.9097049,6.45009682 12.5757295,6.32552399 12.235,6.222 C11.7021333,6.16857927 11.1662518,6.28852132 10.707,6.564 C8.88679185,7.54203017 7.32755814,8.94215141 6.16,10.647 C5.127,12.006 4.901,13.774 3.769,15.07 C3.255,15.658 2.588,16.1 2.082,16.695 C1.1991603,17.8218119 0.82524932,19.2652822 1.05,20.679 C1.28142731,22.0782839 1.81738918,23.4096541 2.62,24.579 C3.479,25.921 3.405,26.831 3.41,28.431 C3.41,29.849 4.283,30.915 4.662,32.22 C5.016,33.44 4.396,34.925 4.873,36.057 C5.02566909,36.4951482 5.32904633,36.8648006 5.729,37.1 L5.729,37.1 Z" id="Path_918"></path>
                        </g>
                    </g>
                </g>
                <g id="Group_1103" transform="translate(243.219000, 9.000000)">
                    <g id="Group_1052" fill="#FFFFFF">
                        <path d="M96.311,89.752 C93.322,80.443 86.363,74.845 75.022,72.638 C72.9971391,72.3969561 71.0079516,71.9169463 69.096,71.208 C67.4384967,70.5966 65.8503253,69.8115646 64.358,68.866 L64.358,68.866 L63.792,68.508 C62.45054,67.7322204 61.1934386,66.8189702 60.041,65.783 L60.041,46.937 C60.078,46.905 60.131,46.862 60.191,46.814 C61.226761,45.9786722 62.1226784,44.9835084 62.845,43.866 L69.92,41.127 L69.92,39.727 C70.1505922,39.596927 70.3739235,39.4543822 70.589,39.3 L70.959,40.731 L75.849,38.838 C77.118,29.329 74.738,24.628 71.41,18.571 C64.664,6.298 61.562,-1.783 48.985,1.327 C31.602,-1.287 29.585,7.236 23.951,21.762 C22.244,26.162 19.514,28.944 20.157,34.053 C20.6552763,38.0018806 23.3662822,41.3187847 27.137,42.593 C27.8842729,42.8431352 28.6472714,43.0435726 29.421,43.193 L29.421,48.525 L29.421,48.54 C28.7052081,48.6241996 28.1791598,49.2518246 28.2213319,49.9713169 C28.2635039,50.6908091 28.8592729,51.2526804 29.58,51.2526804 C30.3007271,51.2526804 30.8964961,50.6908091 30.9386681,49.9713169 C30.9808402,49.2518246 30.4547919,48.6241996 29.739,48.54 L29.739,48.525 L29.739,43.254 C30.95833,43.4718066 32.194372,43.5825618 33.433,43.585 C33.9400487,44.2366779 34.4952735,44.8493974 35.094,45.418 C35.394,45.718 35.663,45.977 35.889,46.243 C36.162,46.564 36.352,46.767 36.452,46.868 L36.452,65.786 C34.9442585,67.126635 33.2869838,68.2889755 31.513,69.25 L31.513,69.25 C29.9980842,70.1489607 28.3929475,70.8863382 26.724,71.45 C25.0147627,72.0301234 23.2494667,72.429636 21.457,72.642 C10.127,74.847 3.168,80.442 0.181,89.754 C0.165068633,89.8032327 0.173129921,89.8571139 0.204,89.899 C0.234635528,89.940768 0.283202824,89.966 0.335,89.966 L96.154,89.966 C96.2058297,89.966 96.2545166,89.941144 96.2849778,89.8992103 C96.3159104,89.8572766 96.3239968,89.8032993 96.308,89.754 L96.311,89.752 Z" id="Path_934"></path>
                    </g>
                    <g id="Group_1053" transform="translate(55.000000, 26.000000)" fill="#1A1818">
                        <ellipse id="Ellipse_74" cx="1.279" cy="2.523" rx="1.006" ry="1.676"></ellipse>
                    </g>
                    <g id="Group_1054" transform="translate(59.000000, 46.000000)" fill="#1A1818">
                        <path d="M5.269,23.2760106 C5.21652055,23.276467 5.1650589,23.2615153 5.121,23.233 L4.557,22.877 C3.16444805,22.0747863 1.86372797,21.1228027 0.678,20.038 C0.628741022,19.9865948 0.601166787,19.9181963 0.601,19.847 L0.601,0.867 C0.601,0.714293267 0.724793267,0.5905 0.8775,0.5905 C1.03020673,0.5905 1.154,0.714293267 1.154,0.867 L1.154,19.734 C2.29391172,20.7485213 3.53355975,21.6450884 4.854,22.41 L5.419,22.767 C5.52264516,22.8328091 5.57036005,22.9591697 5.53608151,23.07706 C5.50180297,23.1949504 5.3937728,23.2760106 5.271,23.2760106 L5.269,23.2760106 Z" id="Path_935"></path>
                    </g>
                    <g id="Group_1055" transform="translate(31.000000, 46.000000)" fill="#1A1818">
                        <path d="M0.6,23.6601131 C0.47572017,23.6601131 0.366601886,23.5774057 0.333447477,23.4576295 C0.300293068,23.3378534 0.351280984,23.2106914 0.458,23.147 C2.20896305,22.1962878 3.84728743,21.0514064 5.342,19.734 L5.342,0.8 C5.342,0.647569409 5.46556941,0.524 5.618,0.524 C5.77043059,0.524 5.894,0.647569409 5.894,0.8 L5.894,19.851 C5.89383321,19.9221963 5.86625898,19.9905948 5.817,20.042 C4.27354432,21.4347271 2.56911608,22.6379319 0.74,23.626 C0.697219582,23.6496646 0.648869216,23.6614069 0.6,23.6601131 Z" id="Path_936"></path>
                    </g>
                    <g id="Group_1056" transform="translate(29.000000, 11.000000)" fill="#1A1818">
                        <path d="M19.8,43.147 C17.6845292,43.0784174 15.6466428,42.3340544 13.985,41.023 C13.499,40.671 12.985,40.312 12.433,39.933 C11.243,39.108 10.012,38.256 8.988,37.385 C8.437,36.918 7.912,36.451 7.428,35.997 C7.328,35.904 7.097,35.656 6.804,35.312 C6.581,35.05 6.319,34.793 6.016,34.494 C4.64064458,33.2222441 3.53064363,31.6908098 2.75,29.988 C2.66421528,29.8001699 2.58942244,29.6075115 2.526,29.411 C1.371,25.951 0.603,15.89 0.571,15.464 L0.571,15.448 L0.303969571,1.276 C0.301766239,1.12377738 0.422796358,0.998281207 0.575,0.994999996 L0.58,0.994999996 C0.730499128,0.994999996 0.853273569,1.11552557 0.856,1.266 L1.123,15.43 C1.149,15.762 1.931,25.88 3.051,29.236 C3.10751304,29.4124174 3.17429368,29.5853792 3.251,29.754 C4.00123142,31.3986863 5.07332253,32.8764243 6.404,34.1 C6.704,34.395 6.987,34.674 7.225,34.954 C7.525,35.301 7.735,35.527 7.807,35.594 C8.284,36.041 8.802,36.502 9.347,36.964 C10.347,37.817 11.569,38.664 12.747,39.479 C13.297,39.86 13.817,40.22 14.308,40.579 C18.24,43.427 22.121,43.236 25.843,40.012 C26.249,39.66 26.669,39.307 27.114,38.933 C28.3681223,37.9281352 29.5559352,36.8432037 30.67,35.685 C30.7451002,35.6098989 30.8252905,35.5400665 30.91,35.476 C32.848686,33.8532229 34.3232903,31.7462017 35.184,29.369 C35.202,29.326 35.221,29.276 35.239,29.225 C36.231,26.519 37.439,15.839 37.488,15.406 L37.496,14.952 L37.755,1.269 C37.7577264,1.11852557 37.8805009,0.997975302 38.031,0.998 L38.036,0.998 C38.1092037,0.999314137 38.1788856,1.02966066 38.2297105,1.08236104 C38.2805354,1.13506141 38.3083382,1.20579678 38.3070462,1.279 L38.04,15.428 L38.04,15.454 C37.99,15.908 36.79,26.605 35.761,29.412 C35.742,29.468 35.719,29.525 35.698,29.577 C34.8025173,32.040755 33.2714268,34.2238872 31.26,35.905 C31.186,35.965 31.102,36.034 31.082,36.055 C29.9511297,37.2321021 28.7449185,38.3344274 27.471,39.355 C27.028,39.727 26.61,40.079 26.207,40.428 C24.4770532,42.0893981 22.1968464,43.0570713 19.8,43.147 Z" id="Path_937"></path>
                    </g>
                    <g id="Group_1057" transform="translate(0.000000, 69.000000)" fill="#1A1818">
                        <path d="M96.216,20.8 L0.4,20.8 C1.97387237,15.4889518 5.44494246,10.9416471 10.153,8.023 C11.215046,7.36352292 12.3213413,6.778132 13.464,6.271 C15.4201173,5.41180466 17.4500894,4.73168868 19.529,4.239 C20.1836667,4.07833333 20.8576667,3.931 21.551,3.797 C21.9856667,3.745 22.4153333,3.68333333 22.84,3.612 C24.1980331,3.38068716 25.5355658,3.04195701 26.84,2.599 C27.921541,2.23218085 28.9772462,1.79319457 30,1.285 C30.574,1.002 31.126,0.7 31.655,0.385 L33.311,0.366 L39.943,0.288 L43.252,0.249 L49.928,0.17 L53.239,0.131 L59.913,0.053 L63.224,0.014 L64.324,0.001 C65.8269728,0.953781178 67.4265447,1.74485193 69.096,2.361 C69.5193333,2.51766667 69.9503333,2.66433333 70.389,2.801 C71.4737859,3.14050316 72.5798753,3.40775521 73.7,3.601 C74.147,3.681 74.6,3.747 75.059,3.801 C76.8456913,4.14150399 78.6073619,4.60221777 80.332,5.18 C81.4590771,5.55706356 82.5638525,5.99777179 83.641,6.5 C89.7226705,9.19769269 94.3179578,14.4233474 96.216,20.8 L96.216,20.8 Z" id="Path_938"></path>
                    </g>
                    <g id="Group_1058" transform="translate(44.000000, 25.000000)" fill="#1A1818">
                        <path d="M3.127,11.987 C3.05677032,11.9868632 2.98921439,11.9600553 2.938,11.912 C1.191,10.264 0.616,9.412 0.818,8.778 C0.993,8.225 1.696,7.994 2.851,7.814 L2.851,0.954 C2.851,0.801293267 2.97479327,0.6775 3.1275,0.6775 C3.28020673,0.6775 3.404,0.801293267 3.404,0.954 L3.404,8.054 C3.40388526,8.19127628 3.30289893,8.30760231 3.167,8.327 C2.657,8.4 1.467,8.571 1.344,8.946 C1.172,9.489 2.787,11.011 3.317,11.511 C3.39952457,11.5886553 3.42619867,11.7088618 3.3842662,11.8141343 C3.34233374,11.9194069 3.24031601,11.9883525 3.127,11.9880013 L3.127,11.987 Z" id="Path_939"></path>
                    </g>
                    <g id="Group_1059" transform="translate(64.000000, 25.000000)" fill="#1A1818">
                        <path d="M2.255,15.8000037 C1.64199439,15.8006066 1.03118567,15.7267319 0.436,15.58 C0.360012042,15.5609735 0.295688351,15.5105539 0.259063243,15.4413095 C0.222438134,15.3720652 0.216962034,15.2905196 0.244,15.217 C1.234,12.517 2.444,1.834 2.491,1.401 L2.499,0.947 C2.49946876,0.8708371 2.53173319,0.798332766 2.588,0.747 C2.64410382,0.696128571 2.71842189,0.670153321 2.794,0.675 C6.85597515,0.970759345 9.95637606,4.42654866 9.81132133,8.49669298 C9.66626659,12.5668373 6.32772409,15.7931509 2.255,15.799 L2.255,15.8000037 Z M0.863,15.11 C3.39219606,15.6212416 5.99798872,14.7037408 7.64893572,12.7206687 C9.29988271,10.7375967 9.72982468,8.00865678 8.76857911,5.61403621 C7.80733354,3.21941564 5.60986877,1.54516601 3.046,1.254 L3.046,1.423 L3.046,1.449 C2.992,1.89 1.867,11.919 0.863,15.112 L0.863,15.11 Z" id="Path_940"></path>
                    </g>
                    <g id="Group_1060" transform="translate(53.000000, 26.000000)" fill="#1A1818">
                        <path d="M1.123,2.961 C1.07621465,2.9608771 1.03018427,2.94919775 0.989,2.927 C0.855890319,2.85250635 0.808056048,2.68441583 0.882,2.551 C1.22772605,1.71827582 1.85828445,1.03561394 2.661,0.625 C3.44311437,0.382875028 4.28836337,0.450537909 5.022,0.814 C5.187,0.878 5.351,0.948 5.515,1.014 C6.00014693,1.24910361 6.51687695,1.41247653 7.049,1.499 C7.14706942,1.50971795 7.23197134,1.57194116 7.27172403,1.66223075 C7.31147671,1.75252034 7.30004077,1.85715917 7.24172402,1.93673079 C7.18340727,2.01630241 7.08706942,2.05871799 6.989,2.048 C6.40324887,1.95699787 5.83412398,1.78009404 5.3,1.523 C5.141,1.455 4.981,1.388 4.821,1.323 C4.2143399,1.01559293 3.51401519,0.948453184 2.86,1.135 C2.18473882,1.50775423 1.65722831,2.1001891 1.365,2.814 C1.31736304,2.90364149 1.22450845,2.9600449 1.123,2.961 Z" id="Path_941"></path>
                    </g>
                    <g id="Group_1061" transform="translate(38.000000, 26.000000)" fill="#1A1818">
                        <ellipse id="Ellipse_75" cx="1.386" cy="2.523" rx="1.006" ry="1.676"></ellipse>
                    </g>
                    <g id="Group_1062" transform="translate(35.000000, 26.000000)" fill="#1A1818">
                        <path d="M6.542,2.961 C6.44155375,2.96104496 6.34895394,2.90670954 6.3,2.819 C6.00784092,2.10514589 5.48031211,1.51269045 4.805,1.14 C4.15098481,0.953453184 3.4506601,1.02059293 2.844,1.328 C2.684,1.391 2.524,1.458 2.365,1.528 C1.83087602,1.78509404 1.26175113,1.96199787 0.676,2.053 C0.577930583,2.06371799 0.481592726,2.02130241 0.423275976,1.94173079 C0.364959227,1.86215917 0.353523289,1.75752034 0.393275972,1.66723075 C0.433028655,1.57694116 0.517930578,1.51471795 0.616,1.504 C1.14811977,1.41746274 1.66484783,1.25409044 2.15,1.019 C2.314,0.95 2.478,0.88 2.643,0.819 C3.37663663,0.455537909 4.22188563,0.387875028 5.004,0.63 C5.80671555,1.04061394 6.43727395,1.72327582 6.783,2.556 C6.85694395,2.68941583 6.80910968,2.85750635 6.676,2.932 C6.63437193,2.9524649 6.58836472,2.96242169 6.542,2.961 L6.542,2.961 Z" id="Path_942"></path>
                    </g>
                    <g id="Group_1063" transform="translate(45.000000, 37.000000)" fill="#1A1818">
                        <path d="M4.063,6.072 C3.37419635,6.06509576 2.69740905,5.89075096 2.091,5.564 C1.412,5.21 0.631,4.697 0.608,3.864 C0.58,2.864 1.687,2.481 2.349,2.25 L2.471,2.207 C3.116,1.978 3.779,1.762 4.421,1.553 C4.744,1.447 5.067,1.342 5.39,1.234 L5.41,1.227 L5.41,1.227 C5.82926929,1.06902799 6.27298308,0.985768192 6.721,0.980957511 C7.23163658,0.977414524 7.71746574,1.20091059 8.047,1.591 C8.25184137,1.8622005 8.33544443,2.20602263 8.278,2.541 C7.95330164,3.63123258 7.28731793,4.58849653 6.378,5.272 C5.71578106,5.78686712 4.90181301,6.06815197 4.063,6.072 L4.063,6.072 Z M5.584,1.754 L5.565,1.761 C5.241,1.869 4.91666667,1.97566667 4.592,2.081 C3.954,2.289 3.292,2.504 2.656,2.731 L2.531,2.774 C1.8,3.03 1.144,3.304 1.16,3.852 C1.176,4.4 1.802,4.79 2.346,5.074 C3.51552012,5.7441529 4.97241566,5.65004532 6.046,4.835 C6.83499989,4.23754109 7.4222908,3.41296091 7.729,2.472 C7.76572798,2.28377987 7.72223177,2.08877186 7.609,1.934 C7.37962413,1.67514141 7.04882799,1.52909455 6.703,1.534 C6.32028868,1.54394215 5.94199019,1.61831719 5.584,1.754 L5.584,1.754 Z" id="Path_943"></path>
                    </g>
                    <g id="Group_1064" transform="translate(33.000000, 21.000000)" fill="#1A1818">
                        <path d="M8.441,3.336 C9.07964092,3.67527691 9.77048833,3.90544672 10.485,4.017 C11.2221998,4.11413544 11.9348192,3.71216591 12.233,3.031 C12.3628532,2.30786077 12.0478838,1.5771319 11.433,1.175 C10.071,0.106 8.157,0.135 6.447,0.41 C5.21663034,0.590968252 4.01323627,0.922800052 2.864,1.398 C2.451,1.576 -0.067,2.898 1.307,2.929 C1.90546605,2.81954116 2.49711636,2.67563525 3.079,2.498 C3.68811765,2.42336545 4.30315787,2.40963089 4.915,2.457 C6.13075814,2.5535895 7.32216941,2.85059758 8.441,3.336 L8.441,3.336 Z" id="Path_944"></path>
                    </g>
                    <g id="Group_1065" transform="translate(50.000000, 21.000000)" fill="#1A1818">
                        <path d="M4.775,3.336 C4.13635908,3.67527691 3.44551167,3.90544672 2.731,4.017 C1.99380022,4.11413544 1.28118083,3.71216591 0.983,3.031 C0.853146836,2.30786077 1.16811617,1.5771319 1.783,1.175 C3.145,0.106 5.059,0.135 6.769,0.41 C7.99936966,0.590968252 9.20276373,0.922800052 10.352,1.398 C10.765,1.576 13.283,2.898 11.909,2.929 C11.3105339,2.81954116 10.7188836,2.67563525 10.137,2.498 C9.52788235,2.42336545 8.91284213,2.40963089 8.301,2.457 C7.08524186,2.5535895 5.89383059,2.85059758 4.775,3.336 L4.775,3.336 Z" id="Path_945"></path>
                    </g>
                    <g id="Group_1066" transform="translate(20.000000, 0.000000)" fill="#1A1818">
                        <path d="M55.847,38.833 L50.957,40.726 L49.918,36.71 L49.918,41.127 L39.74,45.067 C43.5,36.512 43.74,25.816 42.315,14.395 L40.015,20.904 L35.715,20.904 L34.887,15.111 L33.453,20.904 L28.308,20.904 L27.549,15.499 L26.668,20.904 L14.42,20.904 L13.426,13.733 C13.316,15.741 13.251,17.749 13.187,19.759 C13.132,21.494 13.618,23.272 13.369,24.995 C13.1049902,26.4233269 12.1217094,27.6138531 10.769,28.143 C11.185,34.456 11.794,38.674 13.758,43.578 C11.5122363,43.6142494 9.27587602,43.2797583 7.139,42.588 C3.36828223,41.3137847 0.657276333,37.9968806 0.159,34.048 C-0.484,28.939 2.246,26.16 3.953,21.757 C9.585,7.231 11.604,-1.292 28.987,1.322 C41.564,-1.788 44.666,6.293 51.412,18.566 C54.736,24.623 57.116,29.324 55.847,38.833 Z" id="Path_946"></path>
                    </g>
                    <g id="Group_1067" transform="translate(22.000000, 25.000000)" fill="#FFFFFF">
                        <path d="M9.79,15.324 C7.07645427,15.9928743 4.21918865,15.0537822 2.43154865,12.9055116 C0.643908646,10.757241 0.23969193,7.77689379 1.39055021,5.23008234 C2.54140849,2.68327089 5.0453231,1.01705589 7.839,0.939 L7.849,1.439 C7.849,1.439 8.633,11.856 9.79,15.324 Z" id="Path_947"></path>
                    </g>
                    <g id="Group_1068" transform="translate(10.000000, 75.000000)" fill="#FFFFFF">
                        <path d="M3.463,0.273 L3.463,14.8 L0.152,14.8 L0.152,2.025 C1.21404601,1.36552292 2.32034131,0.780131997 3.463,0.273 L3.463,0.273 Z" id="Path_948"></path>
                    </g>
                    <g id="Group_1069" transform="translate(19.000000, 72.000000)" fill="#FFFFFF">
                        <path d="M3.839,0.614 L3.839,17.8 L0.528,17.8 L0.528,1.241 C1.18266667,1.08033333 1.85666667,0.933 2.55,0.799 C2.98333333,0.747 3.413,0.685333333 3.839,0.614 Z" id="Path_949"></path>
                    </g>
                    <g id="Group_1070" transform="translate(30.000000, 69.000000)" fill="#FFFFFF">
                        <path d="M3.315,0.365 L3.315,20.8 L0,20.8 L0,1.285 C0.574,1.002 1.126,0.7 1.655,0.385 L3.315,0.365 Z" id="Path_950"></path>
                    </g>
                    <g id="Group_1071" transform="translate(39.000000, 69.000000)" fill="#FFFFFF">
                        <polygon id="Path_951" points="4.256 0.248 4.256 20.8 0.947 20.8 0.947 0.287"></polygon>
                    </g>
                    <g id="Group_1072" transform="translate(59.000000, 69.000000)" fill="#FFFFFF">
                        <polygon id="Path_952" points="4.228 0.013 4.228 20.8 0.918 20.8 0.918 0.052"></polygon>
                    </g>
                    <g id="Group_1073" transform="translate(49.000000, 69.000000)" fill="#FFFFFF">
                        <polygon id="Path_953" points="4.243 0.13 4.243 20.8 0.933 20.8 0.933 0.169"></polygon>
                    </g>
                    <g id="Group_1074" transform="translate(70.000000, 71.000000)" fill="#FFFFFF">
                        <path d="M3.7,1.6 L3.7,18.8 L0.389,18.8 L0.389,0.8 C1.47378589,1.13950316 2.57987533,1.40675521 3.7,1.6 L3.7,1.6 Z" id="Path_954"></path>
                    </g>
                    <g id="Group_1075" transform="translate(80.000000, 74.000000)" fill="#FFFFFF">
                        <path d="M3.645,1.5 L3.645,15.8 L0.336,15.8 L0.336,0.178 C1.46311981,0.555716491 2.56789596,0.997092758 3.645,1.5 L3.645,1.5 Z" id="Path_955"></path>
                    </g>
                    <g id="Group_1076" transform="translate(0.000000, 68.000000)" fill="#1A1818">
                        <path d="M96.157,22.0780003 L0.338,22.0780003 C0.249631425,22.0780003 0.166542406,22.0359435 0.114507649,21.9645194 C0.0615829981,21.8930952 0.0477849096,21.8010735 0.075,21.717 C3.075,12.365 10.064,6.742 21.438,4.528 L21.458,4.528 C23.2385941,4.31677862 24.9921633,3.91961128 26.69,3.343 C28.3515283,2.7804439 29.9495767,2.0454355 31.458,1.15 C31.4998162,1.1251982 31.5473877,1.1117541 31.596,1.111 L64.265,0.727 C64.3184007,0.72881652 64.3705616,0.743572588 64.417,0.77 C65.9028175,1.71307883 67.484712,2.49547801 69.136,3.104 C71.0394974,3.81010652 73.0199791,4.28810751 75.036,4.528 L75.056,4.528 C86.429,6.742 93.417,12.364 96.42,21.717 C96.4472151,21.8010735 96.433417,21.8930952 96.3804924,21.9645194 C96.3284576,22.0359435 96.2453686,22.0780003 96.157,22.0780003 L96.157,22.0780003 Z M0.72,21.526 L95.776,21.526 C92.776,12.601 85.964,7.216 74.96,5.072 C72.9043454,4.82681857 70.8849535,4.33908976 68.944,3.619 C67.2819714,3.0059888 65.688362,2.22141682 64.189,1.278 L31.677,1.66 C30.1538921,2.55670297 28.5423673,3.2939362 26.868,3.86 C25.1366829,4.44790475 23.3486217,4.85310924 21.533,5.069 C10.529,7.217 3.716,12.6 0.72,21.526 Z" id="Path_956"></path>
                    </g>
                    <g id="Group_1077" transform="translate(55.000000, 26.000000)" fill="#1A1818">
                        <ellipse id="Ellipse_76" cx="1.279" cy="2.523" rx="1.006" ry="1.676"></ellipse>
                    </g>
                    <g id="Group_1078" transform="translate(59.000000, 46.000000)" fill="#1A1818">
                        <path d="M5.269,23.2760106 C5.21652055,23.276467 5.1650589,23.2615153 5.121,23.233 L4.557,22.877 C3.16444805,22.0747863 1.86372797,21.1228027 0.678,20.038 C0.628741022,19.9865948 0.601166787,19.9181963 0.601,19.847 L0.601,0.867 C0.601,0.714293267 0.724793267,0.5905 0.8775,0.5905 C1.03020673,0.5905 1.154,0.714293267 1.154,0.867 L1.154,19.734 C2.29391172,20.7485213 3.53355975,21.6450884 4.854,22.41 L5.419,22.767 C5.52264516,22.8328091 5.57036005,22.9591697 5.53608151,23.07706 C5.50180297,23.1949504 5.3937728,23.2760106 5.271,23.2760106 L5.269,23.2760106 Z" id="Path_957"></path>
                    </g>
                    <g id="Group_1079" transform="translate(31.000000, 46.000000)" fill="#1A1818">
                        <path d="M0.6,23.6601131 C0.47572017,23.6601131 0.366601886,23.5774057 0.333447477,23.4576295 C0.300293068,23.3378534 0.351280984,23.2106914 0.458,23.147 C2.20896305,22.1962878 3.84728743,21.0514064 5.342,19.734 L5.342,0.8 C5.342,0.647569409 5.46556941,0.524 5.618,0.524 C5.77043059,0.524 5.894,0.647569409 5.894,0.8 L5.894,19.851 C5.89383321,19.9221963 5.86625898,19.9905948 5.817,20.042 C4.27354432,21.4347271 2.56911608,22.6379319 0.74,23.626 C0.697219582,23.6496646 0.648869216,23.6614069 0.6,23.6601131 Z" id="Path_958"></path>
                    </g>
                    <g id="Group_1080" transform="translate(29.000000, 11.000000)" fill="#1A1818">
                        <path d="M19.8,43.147 C17.6845292,43.0784174 15.6466428,42.3340544 13.985,41.023 C13.499,40.671 12.985,40.312 12.433,39.933 C11.243,39.108 10.012,38.256 8.988,37.385 C8.437,36.918 7.912,36.451 7.428,35.997 C7.328,35.904 7.097,35.656 6.804,35.312 C6.581,35.05 6.319,34.793 6.016,34.494 C4.64064458,33.2222441 3.53064363,31.6908098 2.75,29.988 C2.66421528,29.8001699 2.58942244,29.6075115 2.526,29.411 C1.371,25.951 0.603,15.89 0.571,15.464 L0.571,15.448 L0.303969571,1.276 C0.301766239,1.12377738 0.422796358,0.998281207 0.575,0.994999996 L0.58,0.994999996 C0.730499128,0.994999996 0.853273569,1.11552557 0.856,1.266 L1.123,15.43 C1.149,15.762 1.931,25.88 3.051,29.236 C3.10751304,29.4124174 3.17429368,29.5853792 3.251,29.754 C4.00123142,31.3986863 5.07332253,32.8764243 6.404,34.1 C6.704,34.395 6.987,34.674 7.225,34.954 C7.525,35.301 7.735,35.527 7.807,35.594 C8.284,36.041 8.802,36.502 9.347,36.964 C10.347,37.817 11.569,38.664 12.747,39.479 C13.297,39.86 13.817,40.22 14.308,40.579 C18.24,43.427 22.121,43.236 25.843,40.012 C26.249,39.66 26.669,39.307 27.114,38.933 C28.3681223,37.9281352 29.5559352,36.8432037 30.67,35.685 C30.7451002,35.6098989 30.8252905,35.5400665 30.91,35.476 C32.848686,33.8532229 34.3232903,31.7462017 35.184,29.369 C35.202,29.326 35.221,29.276 35.239,29.225 C36.231,26.519 37.439,15.839 37.488,15.406 L37.496,14.952 L37.755,1.269 C37.7577264,1.11852557 37.8805009,0.997975302 38.031,0.998 L38.036,0.998 C38.1092037,0.999314137 38.1788856,1.02966066 38.2297105,1.08236104 C38.2805354,1.13506141 38.3083382,1.20579678 38.3070462,1.279 L38.04,15.428 L38.04,15.454 C37.99,15.908 36.79,26.605 35.761,29.412 C35.742,29.468 35.719,29.525 35.698,29.577 C34.8025173,32.040755 33.2714268,34.2238872 31.26,35.905 C31.186,35.965 31.102,36.034 31.082,36.055 C29.9511297,37.2321021 28.7449185,38.3344274 27.471,39.355 C27.028,39.727 26.61,40.079 26.207,40.428 C24.4770532,42.0893981 22.1968464,43.0570713 19.8,43.147 Z" id="Path_959"></path>
                    </g>
                    <g id="Group_1081" transform="translate(0.000000, 69.000000)" fill="#1A1818">
                        <path d="M96.216,20.8 L0.4,20.8 C1.97387237,15.4889518 5.44494246,10.9416471 10.153,8.023 C11.215046,7.36352292 12.3213413,6.778132 13.464,6.271 C15.4201173,5.41180466 17.4500894,4.73168868 19.529,4.239 C20.1836667,4.07833333 20.8576667,3.931 21.551,3.797 C21.9856667,3.745 22.4153333,3.68333333 22.84,3.612 C24.1980331,3.38068716 25.5355658,3.04195701 26.84,2.599 C27.921541,2.23218085 28.9772462,1.79319457 30,1.285 C30.574,1.002 31.126,0.7 31.655,0.385 L33.311,0.366 L39.943,0.288 L43.252,0.249 L49.928,0.17 L53.239,0.131 L59.913,0.053 L63.224,0.014 L64.324,0.001 C65.8269728,0.953781178 67.4265447,1.74485193 69.096,2.361 C69.5193333,2.51766667 69.9503333,2.66433333 70.389,2.801 C71.4737859,3.14050316 72.5798753,3.40775521 73.7,3.601 C74.147,3.681 74.6,3.747 75.059,3.801 C76.8456913,4.14150399 78.6073619,4.60221777 80.332,5.18 C81.4590771,5.55706356 82.5638525,5.99777179 83.641,6.5 C89.7226705,9.19769269 94.3179578,14.4233474 96.216,20.8 L96.216,20.8 Z" id="Path_960"></path>
                    </g>
                    <g id="Group_1082" transform="translate(44.000000, 25.000000)" fill="#1A1818">
                        <path d="M3.127,11.987 C3.05677032,11.9868632 2.98921439,11.9600553 2.938,11.912 C1.191,10.264 0.616,9.412 0.818,8.778 C0.993,8.225 1.696,7.994 2.851,7.814 L2.851,0.954 C2.851,0.801293267 2.97479327,0.6775 3.1275,0.6775 C3.28020673,0.6775 3.404,0.801293267 3.404,0.954 L3.404,8.054 C3.40388526,8.19127628 3.30289893,8.30760231 3.167,8.327 C2.657,8.4 1.467,8.571 1.344,8.946 C1.172,9.489 2.787,11.011 3.317,11.511 C3.39952457,11.5886553 3.42619867,11.7088618 3.3842662,11.8141343 C3.34233374,11.9194069 3.24031601,11.9883525 3.127,11.9880013 L3.127,11.987 Z" id="Path_961"></path>
                    </g>
                    <g id="Group_1083" transform="translate(64.000000, 25.000000)" fill="#1A1818">
                        <path d="M2.255,15.8000037 C1.64199439,15.8006066 1.03118567,15.7267319 0.436,15.58 C0.360012042,15.5609735 0.295688351,15.5105539 0.259063243,15.4413095 C0.222438134,15.3720652 0.216962034,15.2905196 0.244,15.217 C1.234,12.517 2.444,1.834 2.491,1.401 L2.499,0.947 C2.49946876,0.8708371 2.53173319,0.798332766 2.588,0.747 C2.64410382,0.696128571 2.71842189,0.670153321 2.794,0.675 C6.85597515,0.970759345 9.95637606,4.42654866 9.81132133,8.49669298 C9.66626659,12.5668373 6.32772409,15.7931509 2.255,15.799 L2.255,15.8000037 Z M0.863,15.11 C3.39219606,15.6212416 5.99798872,14.7037408 7.64893572,12.7206687 C9.29988271,10.7375967 9.72982468,8.00865678 8.76857911,5.61403621 C7.80733354,3.21941564 5.60986877,1.54516601 3.046,1.254 L3.046,1.423 L3.046,1.449 C2.992,1.89 1.867,11.919 0.863,15.112 L0.863,15.11 Z" id="Path_962"></path>
                    </g>
                    <g id="Group_1084" transform="translate(53.000000, 26.000000)" fill="#1A1818">
                        <path d="M1.123,2.961 C1.07621465,2.9608771 1.03018427,2.94919775 0.989,2.927 C0.855890319,2.85250635 0.808056048,2.68441583 0.882,2.551 C1.22772605,1.71827582 1.85828445,1.03561394 2.661,0.625 C3.44311437,0.382875028 4.28836337,0.450537909 5.022,0.814 C5.187,0.878 5.351,0.948 5.515,1.014 C6.00014693,1.24910361 6.51687695,1.41247653 7.049,1.499 C7.14706942,1.50971795 7.23197134,1.57194116 7.27172403,1.66223075 C7.31147671,1.75252034 7.30004077,1.85715917 7.24172402,1.93673079 C7.18340727,2.01630241 7.08706942,2.05871799 6.989,2.048 C6.40324887,1.95699787 5.83412398,1.78009404 5.3,1.523 C5.141,1.455 4.981,1.388 4.821,1.323 C4.2143399,1.01559293 3.51401519,0.948453184 2.86,1.135 C2.18473882,1.50775423 1.65722831,2.1001891 1.365,2.814 C1.31736304,2.90364149 1.22450845,2.9600449 1.123,2.961 Z" id="Path_963"></path>
                    </g>
                    <g id="Group_1085" transform="translate(38.000000, 26.000000)" fill="#1A1818">
                        <ellipse id="Ellipse_77" cx="1.386" cy="2.523" rx="1.006" ry="1.676"></ellipse>
                    </g>
                    <g id="Group_1086" transform="translate(35.000000, 26.000000)" fill="#1A1818">
                        <path d="M6.542,2.961 C6.44155375,2.96104496 6.34895394,2.90670954 6.3,2.819 C6.00784092,2.10514589 5.48031211,1.51269045 4.805,1.14 C4.15098481,0.953453184 3.4506601,1.02059293 2.844,1.328 C2.684,1.391 2.524,1.458 2.365,1.528 C1.83087602,1.78509404 1.26175113,1.96199787 0.676,2.053 C0.577930583,2.06371799 0.481592726,2.02130241 0.423275976,1.94173079 C0.364959227,1.86215917 0.353523289,1.75752034 0.393275972,1.66723075 C0.433028655,1.57694116 0.517930578,1.51471795 0.616,1.504 C1.14811977,1.41746274 1.66484783,1.25409044 2.15,1.019 C2.314,0.95 2.478,0.88 2.643,0.819 C3.37663663,0.455537909 4.22188563,0.387875028 5.004,0.63 C5.80671555,1.04061394 6.43727395,1.72327582 6.783,2.556 C6.85694395,2.68941583 6.80910968,2.85750635 6.676,2.932 C6.63437193,2.9524649 6.58836472,2.96242169 6.542,2.961 L6.542,2.961 Z" id="Path_964"></path>
                    </g>
                    <g id="Group_1087" transform="translate(45.000000, 37.000000)" fill="#1A1818">
                        <path d="M4.063,6.072 C3.37419635,6.06509576 2.69740905,5.89075096 2.091,5.564 C1.412,5.21 0.631,4.697 0.608,3.864 C0.58,2.864 1.687,2.481 2.349,2.25 L2.471,2.207 C3.116,1.978 3.779,1.762 4.421,1.553 C4.744,1.447 5.067,1.342 5.39,1.234 L5.41,1.227 L5.41,1.227 C5.82926929,1.06902799 6.27298308,0.985768192 6.721,0.980957511 C7.23163658,0.977414524 7.71746574,1.20091059 8.047,1.591 C8.25184137,1.8622005 8.33544443,2.20602263 8.278,2.541 C7.95330164,3.63123258 7.28731793,4.58849653 6.378,5.272 C5.71578106,5.78686712 4.90181301,6.06815197 4.063,6.072 L4.063,6.072 Z M5.584,1.754 L5.565,1.761 C5.241,1.869 4.91666667,1.97566667 4.592,2.081 C3.954,2.289 3.292,2.504 2.656,2.731 L2.531,2.774 C1.8,3.03 1.144,3.304 1.16,3.852 C1.176,4.4 1.802,4.79 2.346,5.074 C3.51552012,5.7441529 4.97241566,5.65004532 6.046,4.835 C6.83499989,4.23754109 7.4222908,3.41296091 7.729,2.472 C7.76572798,2.28377987 7.72223177,2.08877186 7.609,1.934 C7.37962413,1.67514141 7.04882799,1.52909455 6.703,1.534 C6.32028868,1.54394215 5.94199019,1.61831719 5.584,1.754 L5.584,1.754 Z" id="Path_965"></path>
                    </g>
                    <g id="Group_1088" transform="translate(33.000000, 21.000000)" fill="#1A1818">
                        <path d="M8.441,3.336 C9.07964092,3.67527691 9.77048833,3.90544672 10.485,4.017 C11.2221998,4.11413544 11.9348192,3.71216591 12.233,3.031 C12.3628532,2.30786077 12.0478838,1.5771319 11.433,1.175 C10.071,0.106 8.157,0.135 6.447,0.41 C5.21663034,0.590968252 4.01323627,0.922800052 2.864,1.398 C2.451,1.576 -0.067,2.898 1.307,2.929 C1.90546605,2.81954116 2.49711636,2.67563525 3.079,2.498 C3.68811765,2.42336545 4.30315787,2.40963089 4.915,2.457 C6.13075814,2.5535895 7.32216941,2.85059758 8.441,3.336 L8.441,3.336 Z" id="Path_966"></path>
                    </g>
                    <g id="Group_1089" transform="translate(50.000000, 21.000000)" fill="#1A1818">
                        <path d="M4.775,3.336 C4.13635908,3.67527691 3.44551167,3.90544672 2.731,4.017 C1.99380022,4.11413544 1.28118083,3.71216591 0.983,3.031 C0.853146836,2.30786077 1.16811617,1.5771319 1.783,1.175 C3.145,0.106 5.059,0.135 6.769,0.41 C7.99936966,0.590968252 9.20276373,0.922800052 10.352,1.398 C10.765,1.576 13.283,2.898 11.909,2.929 C11.3105339,2.81954116 10.7188836,2.67563525 10.137,2.498 C9.52788235,2.42336545 8.91284213,2.40963089 8.301,2.457 C7.08524186,2.5535895 5.89383059,2.85059758 4.775,3.336 L4.775,3.336 Z" id="Path_967"></path>
                    </g>
                    <g id="Group_1090" transform="translate(20.000000, 0.000000)" fill="#1A1818">
                        <path d="M55.847,38.833 L50.957,40.726 L49.918,36.71 L49.918,41.127 L39.74,45.067 C43.5,36.512 43.74,25.816 42.315,14.395 L40.015,20.904 L35.715,20.904 L34.887,15.111 L33.453,20.904 L28.308,20.904 L27.549,15.499 L26.668,20.904 L14.42,20.904 L13.426,13.733 C13.316,15.741 13.251,17.749 13.187,19.759 C13.132,21.494 13.618,23.272 13.369,24.995 C13.1049902,26.4233269 12.1217094,27.6138531 10.769,28.143 C11.185,34.456 11.794,38.674 13.758,43.578 C11.5122363,43.6142494 9.27587602,43.2797583 7.139,42.588 C3.36828223,41.3137847 0.657276333,37.9968806 0.159,34.048 C-0.484,28.939 2.246,26.16 3.953,21.757 C9.585,7.231 11.604,-1.292 28.987,1.322 C41.564,-1.788 44.666,6.293 51.412,18.566 C54.736,24.623 57.116,29.324 55.847,38.833 Z" id="Path_968"></path>
                    </g>
                    <g id="Group_1091" transform="translate(22.000000, 25.000000)" fill="#FFFFFF">
                        <path d="M9.79,15.324 C7.07645427,15.9928743 4.21918865,15.0537822 2.43154865,12.9055116 C0.643908646,10.757241 0.23969193,7.77689379 1.39055021,5.23008234 C2.54140849,2.68327089 5.0453231,1.01705589 7.839,0.939 L7.849,1.439 C7.849,1.439 8.633,11.856 9.79,15.324 Z" id="Path_969"></path>
                    </g>
                    <g id="Group_1092" transform="translate(10.000000, 75.000000)" fill="#FFFFFF">
                        <path d="M3.463,0.273 L3.463,14.8 L0.152,14.8 L0.152,2.025 C1.21404601,1.36552292 2.32034131,0.780131997 3.463,0.273 L3.463,0.273 Z" id="Path_970"></path>
                    </g>
                    <g id="Group_1093" transform="translate(19.000000, 72.000000)" fill="#FFFFFF">
                        <path d="M3.839,0.614 L3.839,17.8 L0.528,17.8 L0.528,1.241 C1.18266667,1.08033333 1.85666667,0.933 2.55,0.799 C2.98333333,0.747 3.413,0.685333333 3.839,0.614 Z" id="Path_971"></path>
                    </g>
                    <g id="Group_1094" transform="translate(30.000000, 69.000000)" fill="#FFFFFF">
                        <path d="M3.315,0.365 L3.315,20.8 L0,20.8 L0,1.285 C0.574,1.002 1.126,0.7 1.655,0.385 L3.315,0.365 Z" id="Path_972"></path>
                    </g>
                    <g id="Group_1095" transform="translate(39.000000, 69.000000)" fill="#FFFFFF">
                        <polygon id="Path_973" points="4.256 0.248 4.256 20.8 0.947 20.8 0.947 0.287"></polygon>
                    </g>
                    <g id="Group_1096" transform="translate(59.000000, 69.000000)" fill="#FFFFFF">
                        <polygon id="Path_974" points="4.228 0.013 4.228 20.8 0.918 20.8 0.918 0.052"></polygon>
                    </g>
                    <g id="Group_1097" transform="translate(49.000000, 69.000000)" fill="#FFFFFF">
                        <polygon id="Path_975" points="4.243 0.13 4.243 20.8 0.933 20.8 0.933 0.169"></polygon>
                    </g>
                    <g id="Group_1098" transform="translate(70.000000, 71.000000)" fill="#FFFFFF">
                        <path d="M3.7,1.6 L3.7,18.8 L0.389,18.8 L0.389,0.8 C1.47378589,1.13950316 2.57987533,1.40675521 3.7,1.6 L3.7,1.6 Z" id="Path_976"></path>
                    </g>
                    <g id="Group_1099" transform="translate(80.000000, 74.000000)" fill="#FFFFFF">
                        <path d="M3.645,1.5 L3.645,15.8 L0.336,15.8 L0.336,0.178 C1.46311981,0.555716491 2.56789596,0.997092758 3.645,1.5 L3.645,1.5 Z" id="Path_977"></path>
                    </g>
                    <g id="Group_1100" transform="translate(0.000000, 68.000000)" fill="#1A1818">
                        <path d="M96.157,22.0780003 L0.338,22.0780003 C0.249631425,22.0780003 0.166542406,22.0359435 0.114507649,21.9645194 C0.0615829981,21.8930952 0.0477849096,21.8010735 0.075,21.717 C3.075,12.365 10.064,6.742 21.438,4.528 L21.458,4.528 C23.2385941,4.31677862 24.9921633,3.91961128 26.69,3.343 C28.3515283,2.7804439 29.9495767,2.0454355 31.458,1.15 C31.4998162,1.1251982 31.5473877,1.1117541 31.596,1.111 L64.265,0.727 C64.3184007,0.72881652 64.3705616,0.743572588 64.417,0.77 C65.9028175,1.71307883 67.484712,2.49547801 69.136,3.104 C71.0394974,3.81010652 73.0199791,4.28810751 75.036,4.528 L75.056,4.528 C86.429,6.742 93.417,12.364 96.42,21.717 C96.4472151,21.8010735 96.433417,21.8930952 96.3804924,21.9645194 C96.3284576,22.0359435 96.2453686,22.0780003 96.157,22.0780003 L96.157,22.0780003 Z M0.72,21.526 L95.776,21.526 C92.776,12.601 85.964,7.216 74.96,5.072 C72.9043454,4.82681857 70.8849535,4.33908976 68.944,3.619 C67.2819714,3.0059888 65.688362,2.22141682 64.189,1.278 L31.677,1.66 C30.1538921,2.55670297 28.5423673,3.2939362 26.868,3.86 C25.1366829,4.44790475 23.3486217,4.85310924 21.533,5.069 C10.529,7.217 3.716,12.6 0.72,21.526 Z" id="Path_978"></path>
                    </g>
                    <g id="Group_1101" transform="translate(29.000000, 38.000000)" fill="#1A1818">
                        <path d="M0.581,10.8 C0.428407794,10.7994491 0.304999006,10.6755932 0.305,10.523 L0.305,0.462 C0.305,0.309569409 0.428569409,0.186 0.581,0.186 C0.733430591,0.186 0.857,0.309569409 0.857,0.462 L0.857,10.52 C0.858070987,10.5938903 0.829465987,10.665124 0.777589411,10.7177524 C0.725712836,10.7703808 0.654898096,10.8 0.581,10.8 Z" id="Path_979"></path>
                    </g>
                    <g id="Group_1102" transform="translate(28.000000, 48.000000)" fill="#1A1818">
                        <path d="M1.581,3.361 C0.766379994,3.361 0.106,2.70062001 0.106,1.886 C0.106,1.07137999 0.766379994,0.411 1.581,0.411 C2.39562001,0.411 3.056,1.07137999 3.056,1.886 C3.05489829,2.70016323 2.39516323,3.35989829 1.581,3.361 L1.581,3.361 Z M1.581,0.961 C1.07124118,0.961 0.658,1.37424118 0.658,1.884 C0.658,2.39375882 1.07124118,2.807 1.581,2.807 C2.09075882,2.807 2.504,2.39375882 2.504,1.884 C2.5023485,1.37525086 2.08975152,0.963547917 1.581,0.963 L1.581,0.961 Z" id="Path_980"></path>
                    </g>
                </g>
            </g>
            <path d="M238.881,19.013 C237.481,18.853 236.216,20.613 235.929,23.113 C235.914,23.241 235.915,23.36 235.905,23.486 C235.853,23.42 235.805,23.352 235.752,23.286 C235.098665,22.4898394 234.273306,21.852186 233.338,21.421 C232.62862,20.9218493 231.671251,20.9664902 231.011398,21.5294863 C230.351544,22.0924825 230.156747,23.030887 230.538,23.81 C230.81805,24.8019663 231.31927,25.717565 232.004,26.488 C232.340376,26.881911 232.714493,27.2419601 233.121,27.563 C232.537,28.141 232.258,28.737 232.421,29.237 C232.78,30.319 235.069,30.537 237.532,29.715 C239.995,28.893 241.701,27.358 241.343,26.277 C241.170116,25.8790452 240.818092,25.5871767 240.395,25.491 C240.609962,24.9063334 240.753991,24.297985 240.824,23.679 L240.824,23.679 C241.113,21.18 240.277,19.17 238.881,19.013 Z M232.79,25.822 C232.212092,25.1716806 231.785829,24.4011287 231.542,23.566 C231.398,22.984 231.45,22.519 231.683,22.319 C231.734298,22.2746352 231.793735,22.2406713 231.858,22.219 C232.224249,22.1445135 232.604956,22.1974385 232.937,22.369 C233.723192,22.7401463 234.417212,23.2811541 234.969,23.953 L234.969,23.953 C235.453112,24.5101803 235.834067,25.1491676 236.094,25.84 C235.339285,26.0954167 234.620167,26.4459024 233.954,26.883 C233.525794,26.5761315 233.135117,26.2200247 232.79,25.822 L232.79,25.822 Z M239.801,23.562 C239.733721,24.1636452 239.583984,24.7531731 239.356,25.314 C238.599524,25.286962 237.843027,25.3670894 237.109,25.552 C236.909446,24.7967169 236.856826,24.0101333 236.954,23.235 C237.154,21.535 237.891,20.279 238.527,20.067 C238.603608,20.0400791 238.685317,20.0308484 238.766,20.04 C239.435,20.116 240.021,21.639 239.801,23.562 L239.801,23.562 Z" id="Path_740" fill="#040405" fill-rule="nonzero" style="mix-blend-mode: overlay;"></path>
        </g>
    </g>
</svg>