<svg xmlns="http://www.w3.org/2000/svg" width="184" height="52.041" viewBox="0 0 184 52.041"><g transform="translate(-743.055 -89.352)"><g transform="translate(859.018 95.994)"><path d="M1027.478,121.153v-8.643h-1.591v-2.272h1.591v-.959c0-2.254,1.119-3.729,3.48-3.729a6.263,6.263,0,0,1,1.4.129v2.386a3.912,3.912,0,0,0-.638-.052c-.891,0-1.225.328-1.225,1.495v.731h1.909v2.272H1030.5v8.643Z" transform="translate(-1025.887 -105.551)" fill="#fff"/><path d="M1053.151,124.715a24.6,24.6,0,0,0,.147,2.82h-2.886a4.423,4.423,0,0,1-.153-1.067c-.4.613-1.138,1.32-3.068,1.32a3.374,3.374,0,0,1-3.742-3.423c0-2.486,2-3.633,5.2-3.633h1.558v-.667c0-.776-.279-1.539-1.68-1.539-1.276,0-1.555.542-1.694,1.333h-2.873c.164-1.94,1.363-3.509,4.681-3.491,2.924.019,4.515,1.161,4.515,3.759Zm-2.945-2.148h-1.231c-1.821,0-2.5.556-2.5,1.608a1.4,1.4,0,0,0,1.571,1.456c1.92,0,2.156-1.335,2.156-2.777Z" transform="translate(-1036.248 -111.933)" fill="#fff"/><path d="M1073.757,119.434c0-.944,0-1.879-.021-2.813h2.889c.04.266.1.876.117,1.3a3.4,3.4,0,0,1,3.033-1.554,2.883,2.883,0,0,1,2.816,1.661,3.787,3.787,0,0,1,3.363-1.661c1.9,0,3.459,1.169,3.459,4.007v7.16h-2.948v-6.792c0-.986-.357-1.95-1.595-1.95-1.284,0-1.785.828-1.785,2.5v6.239h-2.964v-6.678c0-1.131-.278-2.045-1.568-2.045-1.229,0-1.811.756-1.811,2.628v6.1h-2.985Z" transform="translate(-1054.117 -111.933)" fill="#fff"/><path d="M1118.587,116.985h3.022V127.9h-3.022Z" transform="translate(-1080.579 -112.297)" fill="#fff"/><path d="M1132.428,121.457V106.065h3.022v15.392Z" transform="translate(-1088.745 -105.854)" fill="#fff"/><path d="M1146.869,116.985c1.127,3.766,2.111,7.127,2.284,8.135h.021c.236-1.1.875-3.547,2.179-8.135h3.008l-3.667,11.229c-1.043,3.139-1.914,4.076-4.535,4.076-.268,0-.892-.021-1.415-.082V129.78c.2.024.537.045.782.045a1.907,1.907,0,0,0,2.078-1.592l-3.972-11.248Z" transform="translate(-1095.355 -112.297)" fill="#fff"/></g><g transform="translate(859.483 114.681)"><path d="M1037.071,169.164a4.541,4.541,0,0,1-4.907,3.779c-3.4,0-5.143-2.351-5.143-5.631,0-3.223,1.966-5.789,5.288-5.789,3.681,0,4.7,2.64,4.762,3.875h-2.95a1.706,1.706,0,0,0-1.87-1.51c-1.381,0-2.164,1.211-2.164,3.327,0,2.324.828,3.383,2.151,3.383a1.857,1.857,0,0,0,1.864-1.433Z" transform="translate(-1027.021 -157.262)" fill="#fff"/><path d="M1064.726,167.213c0,3.3-1.976,5.731-5.434,5.731-3.385,0-5.36-2.415-5.36-5.673,0-3.368,2.037-5.747,5.5-5.747C1062.648,161.524,1064.726,163.791,1064.726,167.213Zm-7.727.021c0,2.1.9,3.346,2.36,3.346,1.479,0,2.3-1.246,2.3-3.327,0-2.284-.838-3.364-2.343-3.364C1057.915,163.889,1057,164.926,1057,167.234Z" transform="translate(-1042.899 -157.262)" fill="#fff"/><path d="M1093.875,169.884c0,1.052,0,2.2.021,3.171h-2.962c-.042-.293-.063-.877-.081-1.259a3.113,3.113,0,0,1-3.005,1.512c-2.224,0-3.644-1.351-3.644-4.058v-7.109h3.019v6.5c0,1.205.373,2.2,1.681,2.2,1.378,0,1.948-.734,1.948-2.9v-5.809h3.022Z" transform="translate(-1060.759 -157.626)" fill="#fff"/><path d="M1113.474,164.526c0-.928,0-1.943-.021-2.75h2.926a12.9,12.9,0,0,1,.117,1.391,3.33,3.33,0,0,1,3.166-1.644c2.192,0,3.617,1.481,3.617,4.224v6.943h-3.022v-6.607c0-1.227-.409-2.116-1.742-2.116-1.284,0-2.019.714-2.019,2.641v6.082h-3.022Z" transform="translate(-1078.015 -157.262)" fill="#fff"/><path d="M1151.564,169.164a4.542,4.542,0,0,1-4.907,3.779c-3.4,0-5.143-2.351-5.143-5.631,0-3.223,1.966-5.789,5.288-5.789,3.68,0,4.7,2.64,4.762,3.875h-2.95a1.706,1.706,0,0,0-1.871-1.51c-1.381,0-2.163,1.211-2.163,3.327,0,2.324.828,3.383,2.151,3.383a1.856,1.856,0,0,0,1.864-1.433Z" transform="translate(-1094.571 -157.262)" fill="#fff"/><path d="M1170.618,162.049h3.021v10.914h-3.021Z" transform="translate(-1111.743 -157.572)" fill="#fff"/><path d="M1184.459,166.52V151.129h3.022V166.52Z" transform="translate(-1119.908 -151.129)" fill="#fff"/></g><g transform="translate(743.055 104.379)"><path d="M860.176,147.62a6.737,6.737,0,0,0,.782-2.133,10.086,10.086,0,0,0,.18-1.945v-6.348a5.025,5.025,0,0,0-.345-1.877,4.192,4.192,0,0,0-1.016-1.5,4.426,4.426,0,0,0-1.565-.949,5.7,5.7,0,0,0-1.93-.317h-1.835v2.774h1.835a2.13,2.13,0,0,1,1.658.667c.216.278.347.533.347,1.714,0,.326.009.645.015.879v.014c.007.269.014.546.006.674l-.008.135-.134.015c-.111.013-.323.032-.545.053-.744.069-1.986.185-2.667.319a5.909,5.909,0,0,0-3.328,1.678,4.77,4.77,0,0,0-1.194,3.344,6.681,6.681,0,0,0,.324,2.129,4.705,4.705,0,0,0,1,1.71,4.816,4.816,0,0,0,3.653,1.459,5.977,5.977,0,0,0,2.97-.706A4.851,4.851,0,0,0,860.176,147.62Zm-1.889-4.334a5.368,5.368,0,0,1-.752,3.18,2.338,2.338,0,0,1-2.043.873,2.114,2.114,0,0,1-1.624-.6,2.709,2.709,0,0,1-.585-1.867,2.177,2.177,0,0,1,.493-1.625,3.408,3.408,0,0,1,1.895-.832,9.247,9.247,0,0,1,1.684-.133c.353,0,.64.014.78.022l.152.009Z" transform="translate(-806.407 -129.864)" fill="#fff"/><path d="M766.555,129.276a1.8,1.8,0,0,0-1.365-.549,2.2,2.2,0,0,0-1.094.262,1.814,1.814,0,0,0-.674.668,2.461,2.461,0,0,0-.287.78,3.61,3.61,0,0,0-.065.7v2.187a1.875,1.875,0,0,0,.129.7,1.582,1.582,0,0,0,.385.569,1.668,1.668,0,0,0,.59.358,2.105,2.105,0,0,0,.713.118h.776v-1.244h-.776a.6.6,0,0,1-.457-.174c-.048-.062-.089-.115-.089-.5,0-.11,0-.216-.005-.307,0-.051,0-.106,0-.15l.107-.01c.259-.024.691-.064.934-.112a2.176,2.176,0,0,0,1.225-.622,1.785,1.785,0,0,0,.449-1.25,2.437,2.437,0,0,0-.119-.779A1.759,1.759,0,0,0,766.555,129.276Zm-2.214,2.146v-.2a1.723,1.723,0,0,1,.23-1.009.666.666,0,0,1,.589-.243.591.591,0,0,1,.454.161.794.794,0,0,1,.164.545.6.6,0,0,1-.132.462,1.065,1.065,0,0,1-.575.244A3.527,3.527,0,0,1,764.341,131.423Z" transform="translate(-754.864 -127.609)" fill="#fff"/><path d="M784.9,148.354a5,5,0,0,0,.962-1.656,5.472,5.472,0,0,0,.307-1.816,4.966,4.966,0,0,0-.441-2.131,4.349,4.349,0,0,0-1.17-1.491,9.932,9.932,0,0,0-2.92-1.5l-.181-.068c-1.923-.731-2.706-1.153-2.706-2.406a2,2,0,0,1,2.157-2.1l1.781,0,.048-2.638h-1.834a5.664,5.664,0,0,0-2.067.352,4.616,4.616,0,0,0-1.676,1.117,4.539,4.539,0,0,0-.868,1.363,4.7,4.7,0,0,0-.39,1.791,5.021,5.021,0,0,0,.434,2.13,4.344,4.344,0,0,0,1.158,1.493,10.017,10.017,0,0,0,2.981,1.537,8.276,8.276,0,0,1,2.141,1.036,1.769,1.769,0,0,1,.7,1.545,2.189,2.189,0,0,1-2.369,2.328l-2.057.012v2.761h2.069a5.653,5.653,0,0,0,2.279-.449A4.7,4.7,0,0,0,784.9,148.354Z" transform="translate(-762.437 -129.862)" fill="#fff"/><path d="M814.917,135.051h.291c.767,0,1.681.388,1.681,2.237v12.448h2.852V137.288a6.351,6.351,0,0,0-.3-2.009,4.31,4.31,0,0,0-4.376-3.011,5.409,5.409,0,0,0-1.331.161,4.474,4.474,0,0,0-1.184.484,4.035,4.035,0,0,0-.627.459l-.107.1-.107-.1a3.985,3.985,0,0,0-.627-.459,4.466,4.466,0,0,0-1.184-.484,5.408,5.408,0,0,0-1.331-.161,4.895,4.895,0,0,0-2.447.6,4.107,4.107,0,0,0-.709.508l-.1.093-.107-.09c-.05-.042-.1-.084-.155-.124a3.864,3.864,0,0,0-1.629-.759,8.783,8.783,0,0,0-1.454-.1v2.693a5.389,5.389,0,0,1,.858.128,1.67,1.67,0,0,1,.725.5c.2.256.33.5.345,1.5v12.522h2.852V137.288c0-1.849.914-2.237,1.681-2.237h.291c.767,0,1.682.388,1.682,2.237v12.448h2.844V137.288C813.235,135.439,814.149,135.051,814.917,135.051Z" transform="translate(-777.807 -129.699)" fill="#fff"/><path d="M887.522,135.318l.129,0,1.733.031v-2.793h-1.718a4.527,4.527,0,0,0-3.441,1.38,4.434,4.434,0,0,0-.936,1.611,6.267,6.267,0,0,0-.3,2v12.365h2.852V137.54C885.839,135.7,886.754,135.318,887.522,135.318Z" transform="translate(-825.614 -129.867)" fill="#fff"/><path d="M931.8,148.354a4.988,4.988,0,0,0,.962-1.656,5.458,5.458,0,0,0,.308-1.816,4.966,4.966,0,0,0-.44-2.131,4.359,4.359,0,0,0-1.17-1.491,10.184,10.184,0,0,0-3.01-1.538c-2.031-.768-2.8-1.178-2.8-2.441a1.96,1.96,0,0,1,2.158-2.059l1.78-.039.048-2.638H927.8a5.661,5.661,0,0,0-2.067.352,4.617,4.617,0,0,0-1.676,1.117,4.555,4.555,0,0,0-.868,1.363,4.7,4.7,0,0,0-.39,1.791,5.019,5.019,0,0,0,.435,2.13,4.349,4.349,0,0,0,1.157,1.493,10.02,10.02,0,0,0,2.981,1.536,8.293,8.293,0,0,1,2.142,1.036,1.769,1.769,0,0,1,.7,1.545,2.189,2.189,0,0,1-2.369,2.328l-2.057.012v2.761h2.069a5.654,5.654,0,0,0,2.28-.449A4.71,4.71,0,0,0,931.8,148.354Z" transform="translate(-849.103 -129.862)" fill="#fff"/><path d="M905.91,144.735h0a4.512,4.512,0,0,0,3.44,1.389h1.835v-2.811c-.2,0-1.419.028-1.981.028-.767,0-1.682-.388-1.682-2.237V131.52h.162c.281,0,.851,0,.866,0l1.636-.038v-2.8l-.416.014c-.619.02-.684.022-.935.023-.615,0-1.338-.2-1.361-1.8V126h-2.805v15.1a6.35,6.35,0,0,0,.3,2.009A4.466,4.466,0,0,0,905.91,144.735Z" transform="translate(-838.408 -126.001)" fill="#fff"/><path d="M744.761,132.33c-.289,0-.435-.211-.435-.627v-3.158l.214,0,.7-.016v-1.254l-.275.009c-.225.007-.249.008-.335.009-.152,0-.318-.035-.324-.478v-.457h-1.255V131.7a2.33,2.33,0,0,0,.112.738,1.629,1.629,0,0,0,1.645,1.136h.776v-1.26l-.138,0S744.973,132.33,744.761,132.33Z" transform="translate(-743.055 -126.21)" fill="#fff"/><path d="M754.885,129.1a1.776,1.776,0,0,0-.958-.594l-1.06-.294a.512.512,0,0,1-.131-.046.81.81,0,0,1-.026-.245V126.35h-1.223v7.227h1.223V129.4l.186.052.253.07.359.1c.337.1.489.274.494.567v3.388h1.233v-3.4A1.824,1.824,0,0,0,754.885,129.1Z" transform="translate(-748.029 -126.207)" fill="#fff"/></g><path d="M999.715,102.83V89.352l-8.687,9.012v13.153h10.9V102.83Z" transform="translate(-146.302 0)" fill="#fff"/><path d="M966.194,102.83V89.352l-8.687,9.012v13.153h10.869V102.83Z" transform="translate(-126.525 0)" fill="#fff"/><path d="M968.376,162.22H957.507v8.687h2.215v13.478l8.687-9.012V162.22Z" transform="translate(-126.525 -42.991)" fill="#fff"/><path d="M993.291,162.22h-2.182v8.687h2.182v13.478l8.687-9.012V162.22Z" transform="translate(-146.35 -42.991)" fill="#fff"/></g></svg>