<svg xmlns="http://www.w3.org/2000/svg" width="22" height="22" viewBox="0 0 22 22"><g transform="translate(-8 -158)"><g transform="translate(-740.919 -379.584)"><path d="M761.115,556.152l-.913-1.758a5.6,5.6,0,0,1-.8-.058l-1.153,1.6-2.552-1.279.6-1.888a5.63,5.63,0,0,1-.521-.605l-1.949.318-.9-2.71,1.76-.912a5.27,5.27,0,0,1,.058-.8l-1.609-1.157,1.287-2.55,1.883.6a5.5,5.5,0,0,1,.606-.522l-.317-1.953,2.709-.9.912,1.757a4.6,4.6,0,0,1,.8.057l1.153-1.607,2.554,1.284-.6,1.886a5.386,5.386,0,0,1,.522.606l1.957-.32.9,2.712-1.757.912a5.849,5.849,0,0,1-.057.8l1.6,1.159L766,553.377l-1.884-.6a5.387,5.387,0,0,1-.606.522l.315,1.955Zm-.312-2.795.812,1.565,1.072-.357-.28-1.742.273-.179a4.384,4.384,0,0,0,.9-.779l.218-.248,1.681.535.51-1.015-1.425-1.028.064-.32a4.672,4.672,0,0,0,.086-1.193l-.02-.327,1.565-.812-.355-1.075-1.744.284-.179-.276a4.608,4.608,0,0,0-.78-.906l-.245-.218.532-1.677-1.013-.509-1.026,1.429-.322-.065a4.442,4.442,0,0,0-1.193-.085l-.328.02-.813-1.566-1.074.357.282,1.741-.275.179a4.393,4.393,0,0,0-.9.778l-.218.249-1.681-.535-.51,1.011,1.434,1.03-.069.323a4.21,4.21,0,0,0-.085,1.183l.025.333-1.573.814.358,1.074,1.739-.282.18.275a4.5,4.5,0,0,0,.779.906l.244.217-.531,1.679,1.011.507,1.029-1.432.322.068a4.631,4.631,0,0,0,1.194.088Z" transform="translate(0)" fill="#00a395"/></g><g transform="translate(8 158)" fill="none" stroke="#00a395" stroke-width="1"><circle cx="11" cy="11" r="11" stroke="none"/><circle cx="11" cy="11" r="10.5" fill="none"/></g></g></svg>