<svg xmlns="http://www.w3.org/2000/svg" width="22" height="22" viewBox="0 0 22 22"><g transform="translate(-8 -121)"><path d="M442.93,123.289a2.224,2.224,0,0,1,2.221,2.221v2.621a.341.341,0,0,0,.681,0V125.51a2.9,2.9,0,0,0-2.258-2.825c.037-.028.078-.05.113-.081a2.867,2.867,0,1,0-4.472-1.064,3.644,3.644,0,0,0-4.339,0,2.85,2.85,0,1,0-4.369,1.149,2.9,2.9,0,0,0-2.248,2.822v2.621a.341.341,0,1,0,.681,0V125.51a2.223,2.223,0,0,1,2.221-2.221h2.191c.071,0,.139.014.208.021a3.644,3.644,0,0,0,1.414,4.25,3.759,3.759,0,0,0-3.147,3.7c.348.661.681,0,.681,0a3.078,3.078,0,0,1,3.075-3.075h2.922a3.078,3.078,0,0,1,3.075,3.075c0,1.075.6.244.681,0a3.759,3.759,0,0,0-3.156-3.7,3.642,3.642,0,0,0,1.425-4.249c.069-.007.136-.021.207-.021Zm-10.843-.688a2.174,2.174,0,0,1,.168-4.341c.058,0,.116,0,.174.007a2.174,2.174,0,1,1-.342,4.334Zm5.344,4.905h-.7a3.008,3.008,0,0,1,.314-6c.079,0,.158,0,.239.009a3.012,3.012,0,0,1,.147,5.991Zm2.751-5.661a2.174,2.174,0,0,1,1.65-3.585c.058,0,.116,0,.174.007a2.174,2.174,0,1,1-1.824,3.578Z" transform="translate(-418.261 10.16)" fill="#a39393"/><g transform="translate(8 121)" fill="none" stroke="#a39393" stroke-width="1"><circle cx="11" cy="11" r="11" stroke="none"/><circle cx="11" cy="11" r="10.5" fill="none"/></g></g></svg>