<svg xmlns="http://www.w3.org/2000/svg" width="291.833" height="148.125" viewBox="0 0 291.833 148.125">
  <g id="Group_1337" data-name="Group 1337" transform="translate(-449.405 -173)">
    <g id="Group_437" data-name="Group 437" transform="translate(-39.596 83.287)" style="isolation: isolate">
      <g id="Group_826" data-name="Group 826" transform="translate(512.915 118.277)">
        <g id="Group_7" data-name="Group 7" transform="translate(0.195)">
          <path id="Path_16" data-name="Path 16" d="M114.865,350.852a22.84,22.84,0,0,0-7.678-11.321c-.045-1.811-1.32-3.436-2.464-4.834-1.887-2.305-4.588-4.31-4.933-7.269a11.674,11.674,0,0,1,1.048-5.077,8.436,8.436,0,0,0,.62-4.337c-.514-2.6-3.14-4.358-3.767-6.935-.944-3.882,2.963-7.473,2.777-11.463-.125-2.67-2.042-4.885-2.909-7.413-1.645-4.794.618-10.177-.606-15.1a10.978,10.978,0,0,0-3.485-5.646c-1.3-1.111-2.891-1.959-3.774-3.421a19.283,19.283,0,0,1-1.241-3.422c-.57-1.548-1.849-2.248-2.86-3.418a12.006,12.006,0,0,0-3.713-3.236,7.524,7.524,0,0,0-5.76-.324,8.017,8.017,0,0,1-2.324.706,7.64,7.64,0,0,1-1.824-.3,10.066,10.066,0,0,0-6.629,1.086,18.931,18.931,0,0,0-5.294,4.551,11.9,11.9,0,0,0-13.316,8.162c-.648,2.059-1.158,4.155-1.816,6.2-.74,2.291-2.443,4.2-2.863,6.6a11.706,11.706,0,0,0,.2,4,7.256,7.256,0,0,0-1.967,9.2,11.632,11.632,0,0,0-2.3,4.831c-.527,3.342,1.4,7.04-.235,10-.856,1.554-2.5,2.481-3.739,3.752-2.666,2.734-3.28,6.89-3,10.7.121,1.666.361,3.451-.444,4.915a9.09,9.09,0,0,1-3.337,2.85,7.808,7.808,0,0,0-3.078,3.147,3.611,3.611,0,0,0,.284,3.562,23.429,23.429,0,0,0-5.384,9.249.08.08,0,0,0,.011.072.082.082,0,0,0,.066.033h95.664a.081.081,0,0,0,.077-.1Z" transform="translate(-19.043 -257.216)" fill="#fff"/>
        </g>
        <g id="Group_8" data-name="Group 8" transform="translate(64.485 29.724)">
          <path id="Path_17" data-name="Path 17" d="M86.958,301.912a7.406,7.406,0,0,1-3.37-.8.276.276,0,0,1-.13-.351,32.244,32.244,0,0,0,2.242-9.6l.056-3.841a.276.276,0,0,1,.24-.27,7.192,7.192,0,0,1,.961-.062,7.462,7.462,0,1,1,0,14.925Zm-2.892-1.183a6.915,6.915,0,0,0,9.8-6.279,6.919,6.919,0,0,0-6.911-6.912c-.222,0-.44.01-.653.03l-.053,3.608v.019A32.882,32.882,0,0,1,84.066,300.729Z" transform="translate(-83.438 -286.987)" fill="#1a1818"/>
        </g>
        <g id="Group_96" data-name="Group 96" transform="translate(55.121 30.485)">
          <ellipse id="Ellipse_11" data-name="Ellipse 11" cx="1.004" cy="1.673" rx="1.004" ry="1.673" fill="#1a1818"/>
        </g>
        <g id="Group_97" data-name="Group 97" transform="translate(59.928 50.52)">
          <path id="Path_92" data-name="Path 92" d="M83.047,330.466a.276.276,0,0,1-.148-.043,21.482,21.482,0,0,1-3.95-3.19.279.279,0,0,1-.077-.192V308.093a.276.276,0,1,1,.551,0V326.93a20.992,20.992,0,0,0,3.772,3.028.276.276,0,0,1-.149.508Z" transform="translate(-78.873 -307.817)" fill="#1a1818"/>
        </g>
        <g id="Group_98" data-name="Group 98" transform="translate(31.21 50.449)">
          <path id="Path_93" data-name="Path 93" d="M50.385,330.849a.276.276,0,0,1-.141-.513,21.591,21.591,0,0,0,4.39-3.406V308.022a.276.276,0,0,1,.552,0v19.02a.276.276,0,0,1-.078.192,22.054,22.054,0,0,1-4.583,3.577A.277.277,0,0,1,50.385,330.849Z" transform="translate(-50.109 -307.746)" fill="#1a1818"/>
        </g>
        <g id="Group_99" data-name="Group 99" transform="translate(28.385 15.657)">
          <path id="Path_94" data-name="Path 94" d="M67.48,315.3a11.185,11.185,0,0,1-6.54-2.117c-1.769-1.282-3.339-2.5-4.665-3.633-.549-.465-1.074-.931-1.558-1.385-.1-.094-.329-.34-.623-.684a30.682,30.682,0,0,1-4.209-6.61,22.5,22.5,0,0,1-2.28-9.725l-.057-3.822-.268-14.148a.276.276,0,0,1,.552-.01l.267,14.149.057,3.829a21.977,21.977,0,0,0,2.229,9.494,30.015,30.015,0,0,0,4.129,6.485c.3.347.509.573.58.64.477.446,1,.907,1.539,1.367,1.316,1.12,2.874,2.333,4.631,3.606a10.536,10.536,0,0,0,13.134-.566,52.336,52.336,0,0,0,4.5-4.32l.094-.1a22.823,22.823,0,0,0,4.413-7.016,32.213,32.213,0,0,0,2.243-9.6L85.7,287.3l.268-14.128a.276.276,0,0,1,.276-.271h0a.275.275,0,0,1,.271.281L86.251,287.3l-.057,3.849v.019a32.756,32.756,0,0,1-2.283,9.775,23.386,23.386,0,0,1-4.526,7.188c-.037.038-.065.067-.082.086a53.039,53.039,0,0,1-4.545,4.367,11.162,11.162,0,0,1-6.8,2.7C67.8,315.3,67.638,315.3,67.48,315.3Z" transform="translate(-47.279 -272.897)" fill="#1a1818"/>
        </g>
        <g id="Group_100" data-name="Group 100" transform="translate(0 72.617)">
          <path id="Path_95" data-name="Path 95" d="M114.787,351.269H19.124a.275.275,0,0,1-.263-.359c3-9.338,9.973-14.952,21.328-17.162l.02,0a25.6,25.6,0,0,0,5.224-1.183,25.139,25.139,0,0,0,4.76-2.188.273.273,0,0,1,.235-.023.279.279,0,0,1,.166.167c2.243,6.3,8.667,10.537,15.984,10.537,7.4,0,14.025-4.488,16.11-10.912a.275.275,0,0,1,.41-.148,24.86,24.86,0,0,0,4.711,2.329,25.673,25.673,0,0,0,5.89,1.422l.02,0c11.356,2.21,18.332,7.824,21.33,17.162a.275.275,0,0,1-.263.359ZM19.5,350.718h94.9c-2.993-8.911-9.8-14.286-20.781-16.427a26.181,26.181,0,0,1-6.006-1.451,25.382,25.382,0,0,1-4.519-2.2,16,16,0,0,1-6.055,7.766,18.338,18.338,0,0,1-10.467,3.194c-7.429,0-13.969-4.242-16.388-10.591a25.719,25.719,0,0,1-4.579,2.07,26.112,26.112,0,0,1-5.326,1.207C29.3,336.432,22.5,341.809,19.5,350.718Z" transform="translate(-18.848 -329.951)" fill="#1a1818"/>
        </g>
        <g id="Group_101" data-name="Group 101" transform="translate(20.371 29.724)">
          <path id="Path_96" data-name="Path 96" d="M46.714,301.912a7.462,7.462,0,1,1,1.137-14.84.276.276,0,0,1,.234.269l.057,3.828a21.977,21.977,0,0,0,2.229,9.494.277.277,0,0,1-.119.36A7.487,7.487,0,0,1,46.714,301.912Zm0-14.374a6.911,6.911,0,1,0,3.046,13.117,22.376,22.376,0,0,1-2.169-9.485l-.054-3.584A7,7,0,0,0,46.714,287.538Z" transform="translate(-39.252 -286.987)" fill="#1a1818"/>
        </g>
        <g id="Group_102" data-name="Group 102" transform="translate(44.646 30.209)">
          <path id="Path_97" data-name="Path 97" d="M65.909,298.764a.275.275,0,0,1-.189-.075c-1.686-1.589-2.372-2.787-2.095-3.659.2-.631.858-1.036,2.008-1.238v-6.043a.276.276,0,0,1,.551,0v6.279a.275.275,0,0,1-.237.273c-1.051.151-1.656.452-1.8.9s.085,1.335,1.948,3.091a.276.276,0,0,1-.19.476Z" transform="translate(-63.566 -287.473)" fill="#1a1818"/>
        </g>
        <g id="Group_103" data-name="Group 103" transform="translate(42.252 45.15)">
          <path id="Path_98" data-name="Path 98" d="M66.8,303.922a17.108,17.108,0,0,1-5.447-.946.276.276,0,0,1,.175-.523,14.744,14.744,0,0,0,10.224,0,.276.276,0,0,1,.195.516A14.478,14.478,0,0,1,66.8,303.922Z" transform="translate(-61.168 -302.439)" fill="#1a1818"/>
        </g>
        <g id="Group_104" data-name="Group 104" transform="translate(42.942 43.868)">
          <path id="Path_99" data-name="Path 99" d="M66.7,306c-1.6,0-3.2-.972-4.775-2.89a.282.282,0,0,1-.06-.213.276.276,0,0,1,.115-.188l1.331-.937a3.141,3.141,0,0,1,3.348-.174l.093-.051a3.157,3.157,0,0,1,3.4.233l1.252.933a.274.274,0,0,1,.05.394C69.9,305.019,68.3,305.991,66.707,306Zm-4.157-3.012c1.4,1.633,2.8,2.461,4.157,2.461h.009c1.359,0,2.749-.834,4.131-2.467l-1.019-.759a2.6,2.6,0,0,0-2.8-.192l-.231.127a.277.277,0,0,1-.28-.008,2.593,2.593,0,0,0-2.878.074Z" transform="translate(-61.86 -301.154)" fill="#1a1818"/>
        </g>
        <g id="Group_105" data-name="Group 105" transform="translate(53.379 30.146)">
          <path id="Path_100" data-name="Path 100" d="M72.589,289.777a.271.271,0,0,1-.151-.045.276.276,0,0,1-.08-.381,3.934,3.934,0,0,1,2.535-1.889,4.157,4.157,0,0,1,3.166.9.276.276,0,0,1-.322.447,3.62,3.62,0,0,0-2.744-.8,3.4,3.4,0,0,0-2.173,1.648A.276.276,0,0,1,72.589,289.777Z" transform="translate(-72.313 -287.41)" fill="#1a1818"/>
        </g>
        <g id="Group_106" data-name="Group 106" transform="translate(38.329 30.485)">
          <ellipse id="Ellipse_12" data-name="Ellipse 12" cx="1.004" cy="1.673" rx="1.004" ry="1.673" fill="#1a1818"/>
        </g>
        <g id="Group_107" data-name="Group 107" transform="translate(36.22 30.146)">
          <path id="Path_101" data-name="Path 101" d="M60.712,289.777a.276.276,0,0,1-.231-.124,3.4,3.4,0,0,0-2.173-1.648,3.62,3.62,0,0,0-2.744.8.276.276,0,1,1-.322-.447,4.156,4.156,0,0,1,3.166-.9,3.934,3.934,0,0,1,2.535,1.889.276.276,0,0,1-.08.381A.271.271,0,0,1,60.712,289.777Z" transform="translate(-55.127 -287.41)" fill="#1a1818"/>
        </g>
        <g id="Group_108" data-name="Group 108" transform="translate(50.607 26.051)">
          <path id="Path_102" data-name="Path 102" d="M74.734,286.207a11.849,11.849,0,0,1,4.792.476,1.37,1.37,0,0,0,1.068.053.87.87,0,0,0,.223-1.158,2.253,2.253,0,0,0-1-.82,12.77,12.77,0,0,0-8.291-1.218c-1.091.219-2.78,1.285-1.581,2.47C71.065,287.114,73.406,286.348,74.734,286.207Z" transform="translate(-69.537 -283.308)" fill="#1a1818"/>
        </g>
        <g id="Group_109" data-name="Group 109" transform="translate(32.952 26.051)">
          <path id="Path_103" data-name="Path 103" d="M58.059,286.207a11.852,11.852,0,0,0-4.792.476,1.37,1.37,0,0,1-1.068.053.871.871,0,0,1-.223-1.158,2.256,2.256,0,0,1,1-.82,12.767,12.767,0,0,1,8.29-1.218c1.092.219,2.78,1.285,1.581,2.47C61.728,287.114,59.387,286.348,58.059,286.207Z" transform="translate(-51.853 -283.308)" fill="#1a1818"/>
        </g>
        <g id="Group_110" data-name="Group 110" transform="translate(4.962)">
          <path id="Path_104" data-name="Path 104" d="M104.731,334.7c-1.887-2.305-4.588-4.31-4.933-7.269a11.674,11.674,0,0,1,1.048-5.077,8.436,8.436,0,0,0,.62-4.337c-.514-2.6-3.14-4.358-3.767-6.935-.944-3.882,2.963-7.473,2.777-11.463-.125-2.67-2.042-4.885-2.909-7.413-1.645-4.794.618-10.177-.606-15.1a10.978,10.978,0,0,0-3.485-5.646c-1.3-1.111-2.891-1.959-3.774-3.421a19.283,19.283,0,0,1-1.241-3.422c-.57-1.548-1.849-2.248-2.86-3.418a12.006,12.006,0,0,0-3.713-3.236,7.524,7.524,0,0,0-5.76-.324,8.017,8.017,0,0,1-2.324.706,7.64,7.64,0,0,1-1.824-.3,10.066,10.066,0,0,0-6.629,1.086,18.931,18.931,0,0,0-5.294,4.551,11.9,11.9,0,0,0-13.316,8.162c-.648,2.059-1.158,4.155-1.816,6.2-.74,2.291-2.443,4.2-2.863,6.6-.362,2.079.326,4.179.546,6.278a8.622,8.622,0,0,1-1.62,5.971c-1.307,1.761-2.654,3.616-3,5.783-.527,3.342,1.4,7.04-.235,10-.856,1.554-2.5,2.481-3.739,3.752-2.666,2.734-3.28,6.89-3,10.7.121,1.666.361,3.451-.444,4.915a9.09,9.09,0,0,1-3.337,2.85,7.808,7.808,0,0,0-3.078,3.147,3.4,3.4,0,0,0,.779,4.054,5.152,5.152,0,0,0,2.121.75,14.26,14.26,0,0,0,6.122.291c1.458-.361,2.879-1.191,4.359-.938,1.438.246,2.526,1.459,3.918,1.9,1.928.608,3.971-.373,5.7-1.415A26.049,26.049,0,0,1,49.749,341c.864-.384,1.831-.371,2.714-.725a5.789,5.789,0,0,0,3.717-4.665c.222-2.558-1.408-5.019-1.134-7.572.176-1.645,1.123-3.11,1.485-4.724.722-3.218-.947-6.523-.7-9.811.137-1.809.851-3.54.944-5.352.147-2.839-1.373-5.142-2.108-7.754-.65-2.314-2.631-4.572-2.268-7.107.429-3.005,4.008-4.808,4.421-7.816.25-1.826-.747-3.76-.076-5.477a5.171,5.171,0,0,1,2.617-2.456,12.56,12.56,0,0,0,3.13-1.886,2.9,2.9,0,0,0,.787-3.321,6.188,6.188,0,0,0,4.451,4.2c1.189.3,2.491.257,3.552.869,2.933,1.693,1.812,6.687,4.407,8.864,1.483,1.244,3.8,1.187,5.155,2.566,1.692,1.718.984,4.618-.17,6.735s-2.7,4.306-2.352,6.693c.234,1.593,1.315,3.07,1.092,4.665-.187,1.332-1.23,2.353-1.9,3.518a9.586,9.586,0,0,0-.691,8.149,15.175,15.175,0,0,1,1.55,4.788c.15,3.123-2.331,5.918-2.2,9.042.112,2.632,2.079,5.081,1.568,7.666a13.007,13.007,0,0,0-.727,2.981c.08,1.808,2.015,2.969,3.8,3.27a9.532,9.532,0,0,0,2.927.036,5.963,5.963,0,0,1,3.941.39,10.35,10.35,0,0,0,8.032-.078c1.192-.523,2.273-1.27,3.446-1.836,1.923-.928,4.114-.194,5.872-1.339a5.006,5.006,0,0,0,1.992-2.729C107.732,338.463,106.131,336.41,104.731,334.7Z" transform="translate(-23.818 -257.216)" fill="#1a1818"/>
        </g>
      </g>
      <g id="Group_187" data-name="Group 187" transform="translate(619.759 111.784)">
        <path id="Path_171" data-name="Path 171" d="M863.109,236.6a32.874,32.874,0,0,1-6.777-1.437,30.363,30.363,0,0,1-5.422-2.355,23.863,23.863,0,0,1-4.438-3.148V205.012h-.214a25.285,25.285,0,0,0,2.749-4.3,7.931,7.931,0,1,0,4.142-15.114,6.138,6.138,0,0,1,2.707-2.632c1.308-.5,2.8-1.363,2.821-2.764a13.68,13.68,0,0,1-.116-1.451c.177-1.418,2.1-1.775,3.008-2.878,1.268-1.539.193-3.94.892-5.808.456-1.219,1.674-2.273,1.417-3.549a2.657,2.657,0,0,0-1.685-1.726,19.338,19.338,0,0,1-2.327-.933c-.77-.457-1.356-1.18-2.135-1.62-1.58-.895-3.625-.469-5.268-1.244-1.453-.686-2.338-2.183-3.628-3.143a5.784,5.784,0,0,0-4.117-1.087c-1.34.166-2.678.8-3.988.473-1.477-.374-2.468-1.888-3.956-2.219-2.64-.587-4.761,2.775-7.463,2.661-.557-.024-1.1-.2-1.659-.2-2.9-.012-3.693,4.709-6.689,3.748a8.6,8.6,0,0,0-1-.372,2.484,2.484,0,0,0-1.526.341,12.905,12.905,0,0,0-4.54,4.076c-1.031,1.357-1.257,3.122-2.387,4.416-.513.587-1.179,1.028-1.684,1.622a5.14,5.14,0,0,0-1.03,3.978,9.668,9.668,0,0,0,1.568,3.893c.858,1.34.785,2.248.789,3.846a6.022,6.022,0,0,0,.755,2.53c-.047,0-.094,0-.141,0a7.931,7.931,0,1,0,4.015,14.771,18.486,18.486,0,0,0,3.15,4.692v24.651a24.437,24.437,0,0,1-5.151,3.531,30.9,30.9,0,0,1-5.478,2.213c-.271.081-.543.157-.82.232-.076.021-.153.04-.23.06-.2.054-.407.1-.613.155l-.273.065c-.2.046-.392.089-.59.131-.1.021-.194.043-.293.063-.185.038-.372.073-.56.108-.336.063-.675.122-1.017.175l-.127.019c-.195.029-.389.056-.586.082l-.183.024q-.358.045-.72.083c-.3.052-.592.1-.885.16l-.188.035c-.271.052-.54.1-.806.159l-.057.011-.057.012q-.53.111-1.046.229l-.1.021c-.349.081-.691.164-1.029.25l-.121.03c-.331.085-.657.173-.979.263l-.133.037c-.318.089-.63.182-.938.276l-.138.042c-.306.095-.606.192-.9.292l-.134.045q-.445.151-.877.309l-.123.045c-.289.107-.574.217-.855.327l-.108.044q-.425.171-.838.348l-.085.037c-.281.123-.557.247-.829.374l-.055.026q-.421.2-.827.4l-.014.007q-.836.424-1.612.883l-.024.014c-.25.147-.493.3-.733.449l-.051.032c-.233.148-.461.3-.686.452l-.065.045q-.331.226-.649.46l-.071.052q-.314.232-.617.471l-.071.056c-.2.16-.4.32-.59.484l-.067.057c-.193.165-.382.332-.568.5l-.057.053c-.188.172-.37.345-.55.522l-.044.043c-.183.181-.362.363-.537.548l-.024.025q-.548.581-1.045,1.19l0,0q-.243.3-.474.6l-.027.035q-.222.294-.433.593l-.041.058c-.137.195-.271.392-.4.591l-.047.072c-.128.2-.252.394-.372.594l-.05.081c-.12.2-.236.4-.349.6l-.047.086c-.113.2-.223.406-.328.612l-.044.085q-.159.311-.31.627l-.037.078c-.1.215-.2.43-.295.648l-.028.064q-.145.335-.282.676l-.016.04q-.141.353-.272.712H887.15C884.094,245.217,877.111,239,863.109,236.6Z" transform="translate(-778.256 -154.948)" fill="#fff"/>
      </g>
      <g id="Group_209" data-name="Group 209" transform="translate(619.484 111.784)">
        <g id="Group_188" data-name="Group 188" transform="translate(49.269 28.892)">
          <path id="Path_172" data-name="Path 172" d="M830.308,196.575a.274.274,0,0,1-.195-.081c-2.246-2.253-3.1-3.675-2.682-4.474.3-.568,1.127-.731,2.6-.507v-7.35a.276.276,0,1,1,.551,0v7.676a.276.276,0,0,1-.323.272c-1.861-.331-2.255.005-2.339.165-.128.245-.132,1.107,2.583,3.83a.276.276,0,0,1-.2.47Z" transform="translate(-827.329 -183.887)" fill="#1a1818"/>
        </g>
        <g id="Group_189" data-name="Group 189" transform="translate(51.972 41.029)">
          <path id="Path_173" data-name="Path 173" d="M832.28,200.187a6,6,0,0,1-2.064-.415.276.276,0,1,1,.192-.517,3.938,3.938,0,0,0,3.224.07,4.516,4.516,0,0,0,1.974-3.074.276.276,0,0,1,.534.138,5.027,5.027,0,0,1-2.252,3.425A3.425,3.425,0,0,1,832.28,200.187Z" transform="translate(-830.037 -196.044)" fill="#1a1818"/>
        </g>
        <g id="Group_190" data-name="Group 190" transform="translate(59.882 31.206)">
          <ellipse id="Ellipse_21" data-name="Ellipse 21" cx="1.004" cy="1.673" rx="1.004" ry="1.673" fill="#1a1818"/>
        </g>
        <g id="Group_191" data-name="Group 191" transform="translate(43.86 31.367)">
          <ellipse id="Ellipse_22" data-name="Ellipse 22" cx="1.004" cy="1.673" rx="1.004" ry="1.673" fill="#1a1818"/>
        </g>
        <g id="Group_192" data-name="Group 192" transform="translate(39.682 26.101)">
          <path id="Path_174" data-name="Path 174" d="M824.273,184.856a4.756,4.756,0,0,0,2.189-.687,1.641,1.641,0,0,0,.782-1.774,2.049,2.049,0,0,0-1.477-1.163,6.444,6.444,0,0,0-2.085-.106,11.438,11.438,0,0,0-3.293.619c-1.234.475-3.924,2.7-1.977,3.821.719.412,1.521-.028,2.23-.215A23.694,23.694,0,0,1,824.273,184.856Z" transform="translate(-817.727 -181.091)" fill="#fff" stroke="#161615" stroke-miterlimit="10" stroke-width="0.5"/>
        </g>
        <g id="Group_193" data-name="Group 193" transform="translate(57.102 25.939)">
          <path id="Path_175" data-name="Path 175" d="M838.2,184.694a4.753,4.753,0,0,1-2.187-.687,1.642,1.642,0,0,1-.783-1.774,2.053,2.053,0,0,1,1.477-1.163,6.445,6.445,0,0,1,2.085-.106,11.43,11.43,0,0,1,3.293.619c1.235.475,3.925,2.7,1.978,3.821-.72.412-1.522-.028-2.231-.215A23.682,23.682,0,0,0,838.2,184.694Z" transform="translate(-835.175 -180.929)" fill="#fff" stroke="#161615" stroke-miterlimit="10" stroke-width="0.5"/>
        </g>
        <g id="Group_194" data-name="Group 194" transform="translate(42.204 30.56)">
          <path id="Path_176" data-name="Path 176" d="M820.529,188.222a.26.26,0,0,1-.082-.013.275.275,0,0,1-.182-.344,3.448,3.448,0,0,1,2.45-2.3.276.276,0,1,1,.129.536,2.887,2.887,0,0,0-2.052,1.926A.276.276,0,0,1,820.529,188.222Z" transform="translate(-820.253 -185.558)" fill="#1a1818"/>
        </g>
        <g id="Group_195" data-name="Group 195" transform="translate(60.701 30.026)">
          <path id="Path_177" data-name="Path 177" d="M841.267,187.364a.276.276,0,0,1-.255-.169A2.8,2.8,0,0,0,839,185.569a.276.276,0,0,1,.1-.542,3.326,3.326,0,0,1,2.414,1.955.275.275,0,0,1-.148.36A.269.269,0,0,1,841.267,187.364Z" transform="translate(-838.78 -185.023)" fill="#1a1818"/>
        </g>
        <g id="Group_196" data-name="Group 196" transform="translate(0.275 80.218)">
          <path id="Path_178" data-name="Path 178" d="M887.15,253.708H778.256c2.91-7.967,9.39-13.988,22.1-16.611q.944-.195,1.935-.364,1.193-.123,2.342-.326a33.2,33.2,0,0,0,3.668-.869c3.267,8.316,12.762,14.331,23.967,14.331a29.733,29.733,0,0,0,10.382-1.837,26.922,26.922,0,0,0,3.93-1.828,21.555,21.555,0,0,0,9.748-10.907,32.874,32.874,0,0,0,6.777,1.437C877.111,239.128,884.094,245.347,887.15,253.708Z" transform="translate(-778.256 -235.296)" fill="#1a1818"/>
        </g>
        <g id="Group_197" data-name="Group 197" transform="translate(68.216 49.788)">
          <path id="Path_179" data-name="Path 179" d="M851.019,233.167a.273.273,0,0,1-.134-.035,24.052,24.052,0,0,1-4.489-3.185.275.275,0,0,1-.09-.2V205.093a.276.276,0,1,1,.551,0v24.528a23.649,23.649,0,0,0,4.3,3.03.275.275,0,0,1-.135.516Z" transform="translate(-846.307 -204.817)" fill="#1a1818"/>
        </g>
        <g id="Group_198" data-name="Group 198" transform="translate(35.527 49.788)">
          <path id="Path_180" data-name="Path 180" d="M813.841,233.55a.276.276,0,0,1-.128-.52,24.439,24.439,0,0,0,5-3.409V205.093a.276.276,0,1,1,.551,0v24.651a.275.275,0,0,1-.09.2,24.889,24.889,0,0,1-5.21,3.572A.275.275,0,0,1,813.841,233.55Z" transform="translate(-813.564 -204.817)" fill="#1a1818"/>
        </g>
        <g id="Group_199" data-name="Group 199" transform="translate(30.049 77.587)">
          <path id="Path_181" data-name="Path 181" d="M832.322,250.14a29.022,29.022,0,0,1-15.1-4.087,21.559,21.559,0,0,1-9.12-10.418.277.277,0,0,1,.178-.365,30.656,30.656,0,0,0,5.429-2.193.275.275,0,0,1,.223-.014.279.279,0,0,1,.161.155c2.556,6.309,9.884,10.548,18.234,10.548,8.445,0,16-4.492,18.378-10.923a.275.275,0,0,1,.392-.145,30.06,30.06,0,0,0,5.374,2.334.271.271,0,0,1,.163.143.277.277,0,0,1,.01.217,21.726,21.726,0,0,1-9.092,10.588A28.976,28.976,0,0,1,832.322,250.14Zm-23.6-14.43c3.422,8.314,12.861,13.878,23.6,13.878,10.882,0,20.362-5.664,23.7-14.124a30.725,30.725,0,0,1-4.917-2.133,16.466,16.466,0,0,1-6.9,7.8,22.9,22.9,0,0,1-11.88,3.185c-8.45,0-15.89-4.252-18.63-10.613A31.223,31.223,0,0,1,808.722,235.71Z" transform="translate(-808.078 -232.661)" fill="#1a1818"/>
        </g>
        <g id="Group_200" data-name="Group 200" transform="translate(35.32 12.664)">
          <path id="Path_182" data-name="Path 182" d="M833.2,213.23h-.135c-4.583-.051-9.385-2.745-14.272-8.009a18.752,18.752,0,0,1-3.2-4.762,22.219,22.219,0,0,1-1.387-3.817,26.44,26.44,0,0,1-.849-6.741V167.91a.276.276,0,0,1,.276-.277h38.039a.276.276,0,0,1,.275.277V189.9a24.054,24.054,0,0,1-1.081,7.112,24.948,24.948,0,0,1-1.555,3.845,25.771,25.771,0,0,1-2.779,4.347C842.321,210.529,837.834,213.23,833.2,213.23Zm-19.288-45.045V189.9a25.865,25.865,0,0,0,.831,6.6,21.637,21.637,0,0,0,1.352,3.722,18.213,18.213,0,0,0,3.1,4.624c4.78,5.148,9.449,7.783,13.873,7.832h.128c4.463,0,8.8-2.629,12.9-7.816a24.972,24.972,0,0,0,2.719-4.253,24.325,24.325,0,0,0,1.521-3.759,23.491,23.491,0,0,0,1.057-6.95V168.185Z" transform="translate(-813.357 -167.633)" fill="#1a1818"/>
        </g>
        <g id="Group_201" data-name="Group 201" transform="translate(25.582 30.325)">
          <path id="Path_183" data-name="Path 183" d="M811.81,201.736a8.207,8.207,0,1,1,1.87-16.2.276.276,0,0,1,.213.269v4.124a25.865,25.865,0,0,0,.831,6.6,21.646,21.646,0,0,0,1.352,3.722.275.275,0,0,1-.11.355A8.185,8.185,0,0,1,811.81,201.736Zm0-15.863a7.656,7.656,0,1,0,3.658,14.381,22.388,22.388,0,0,1-1.278-3.584,26.44,26.44,0,0,1-.849-6.741v-3.9A7.683,7.683,0,0,0,811.81,185.873Z" transform="translate(-803.604 -185.322)" fill="#1a1818"/>
        </g>
        <g id="Group_202" data-name="Group 202" transform="translate(70.751 30.325)">
          <path id="Path_184" data-name="Path 184" d="M852.38,201.736a8.12,8.12,0,0,1-3.372-.724.277.277,0,0,1-.146-.16.275.275,0,0,1,.014-.216,24.4,24.4,0,0,0,1.521-3.759,23.491,23.491,0,0,0,1.057-6.95v-4.305a.275.275,0,0,1,.253-.275c.216-.018.442-.027.674-.027a8.207,8.207,0,0,1,0,16.414Zm-2.882-1.113a7.585,7.585,0,0,0,2.882.561,7.656,7.656,0,0,0,0-15.311c-.128,0-.253,0-.375.009v4.046a24.057,24.057,0,0,1-1.081,7.112A24.888,24.888,0,0,1,849.5,200.623Z" transform="translate(-848.846 -185.322)" fill="#1a1818"/>
        </g>
        <g id="Group_203" data-name="Group 203" transform="translate(40.953 50.064)">
          <path id="Path_185" data-name="Path 185" d="M833.075,213.016c-5.422.922-10.488,1.395-14.075,0v-7.923c4.837,5.21,9.537,7.871,14.073,7.921Z" transform="translate(-819 -205.093)" fill="#1a1818"/>
        </g>
        <g id="Group_204" data-name="Group 204" transform="translate(0 79.942)">
          <path id="Path_186" data-name="Path 186" d="M887.15,253.984H778.256a.276.276,0,0,1-.259-.37c3.409-9.335,11.342-14.945,24.251-17.153l.019,0a32.654,32.654,0,0,0,5.959-1.186.275.275,0,0,1,.335.164c3.326,8.466,12.854,14.155,23.712,14.155,11,0,20.562-5.784,23.8-14.393a.276.276,0,0,1,.344-.165,32.747,32.747,0,0,0,6.72,1.425l.018,0c12.908,2.207,20.842,7.818,24.253,17.153a.276.276,0,0,1-.259.37Zm-108.5-.552h108.1c-3.411-8.908-11.163-14.284-23.68-16.426a33.2,33.2,0,0,1-6.576-1.368,21.8,21.8,0,0,1-9,10.343,29.94,29.94,0,0,1-30.33.075,21.625,21.625,0,0,1-9.026-10.183,33.28,33.28,0,0,1-5.81,1.133C789.813,239.149,782.062,244.525,778.653,253.432Z" transform="translate(-777.98 -235.02)" fill="#1a1818"/>
        </g>
        <g id="Group_205" data-name="Group 205" transform="translate(68.216 49.788)">
          <path id="Path_187" data-name="Path 187" d="M851.019,233.167a.273.273,0,0,1-.134-.035,24.052,24.052,0,0,1-4.489-3.185.275.275,0,0,1-.09-.2V205.093a.276.276,0,1,1,.551,0v24.528a23.649,23.649,0,0,0,4.3,3.03.275.275,0,0,1-.135.516Z" transform="translate(-846.307 -204.817)" fill="#1a1818"/>
        </g>
        <g id="Group_206" data-name="Group 206" transform="translate(35.32 12.664)">
          <path id="Path_188" data-name="Path 188" d="M833.2,213.23h-.135c-4.583-.051-9.385-2.745-14.272-8.009a18.752,18.752,0,0,1-3.2-4.762,22.219,22.219,0,0,1-1.387-3.817,26.44,26.44,0,0,1-.849-6.741V167.91a.276.276,0,0,1,.276-.277h38.039a.276.276,0,0,1,.275.277V189.9a24.054,24.054,0,0,1-1.081,7.112,24.948,24.948,0,0,1-1.555,3.845,25.771,25.771,0,0,1-2.779,4.347C842.321,210.529,837.834,213.23,833.2,213.23Zm-19.288-45.045V189.9a25.865,25.865,0,0,0,.831,6.6,21.637,21.637,0,0,0,1.352,3.722,18.213,18.213,0,0,0,3.1,4.624c4.78,5.148,9.449,7.783,13.873,7.832h.128c4.463,0,8.8-2.629,12.9-7.816a24.972,24.972,0,0,0,2.719-4.253,24.325,24.325,0,0,0,1.521-3.759,23.491,23.491,0,0,0,1.057-6.95V168.185Z" transform="translate(-813.357 -167.633)" fill="#1a1818"/>
        </g>
        <g id="Group_207" data-name="Group 207" transform="translate(0 79.942)">
          <path id="Path_189" data-name="Path 189" d="M887.15,253.984H778.256a.276.276,0,0,1-.259-.37c3.409-9.335,11.342-14.945,24.251-17.153l.019,0a32.654,32.654,0,0,0,5.959-1.186.275.275,0,0,1,.335.164c3.326,8.466,12.854,14.155,23.712,14.155,11,0,20.562-5.784,23.8-14.393a.276.276,0,0,1,.344-.165,32.747,32.747,0,0,0,6.72,1.425l.018,0c12.908,2.207,20.842,7.818,24.253,17.153a.276.276,0,0,1-.259.37Zm-108.5-.552h108.1c-3.411-8.908-11.163-14.284-23.68-16.426a33.2,33.2,0,0,1-6.576-1.368,21.8,21.8,0,0,1-9,10.343,29.94,29.94,0,0,1-30.33.075,21.625,21.625,0,0,1-9.026-10.183,33.28,33.28,0,0,1-5.81,1.133C789.813,239.149,782.062,244.525,778.653,253.432Z" transform="translate(-777.98 -235.02)" fill="#1a1818"/>
        </g>
        <g id="Group_208" data-name="Group 208" transform="translate(30.767)">
          <path id="Path_190" data-name="Path 190" d="M813.521,191.677c1.434.729,3.465-1.657,2.958-3.541-.259-.96-1.062-1.747-1.135-2.74-.1-1.294,1.073-2.354,1.264-3.638.168-1.132-.443-2.211-.793-3.3-.438-1.362.132-3.675,1.519-4.393,1.7-.882,2.039,2.157,3.093,2.788,1.654.991,3.811-.986,5.623-.329.959.347,1.523,1.337,2.371,1.9,1.984,1.318,4.62-.03,7,.12a12.533,12.533,0,0,1,3.242.846,11.7,11.7,0,0,0,4.741.83c1.54-.131,2.107-.864,3.188-1.611,1.159-.8,1.724.148,1.8,1.287.035.539-.187,1.051-.166,1.6a5.254,5.254,0,0,1-.423,2.912,3.919,3.919,0,0,0,.366,3.673,5.523,5.523,0,0,1,.606.9c.484,1.1-.294,2.636.576,3.465a1.915,1.915,0,0,0,2.723-.238,2.386,2.386,0,0,0,.669-2.008,9.4,9.4,0,0,0-.313-1.021c-.6-2.044,1.521-5.457,3.482-6.214,1.308-.5,2.8-1.363,2.821-2.764a13.712,13.712,0,0,1-.116-1.451c.177-1.418,2.1-1.775,3.008-2.878,1.268-1.539.193-3.94.891-5.808.456-1.219,1.674-2.273,1.417-3.549a2.657,2.657,0,0,0-1.685-1.726,19.333,19.333,0,0,1-2.327-.933c-.77-.457-1.356-1.18-2.135-1.62-1.58-.895-3.625-.469-5.267-1.244-1.454-.686-2.338-2.183-3.628-3.143a5.784,5.784,0,0,0-4.117-1.087c-1.34.166-2.678.8-3.988.473-1.477-.374-2.468-1.888-3.956-2.219-2.64-.587-4.761,2.775-7.463,2.661-.557-.024-1.1-.2-1.659-.2-2.9-.012-3.693,4.709-6.689,3.748a8.594,8.594,0,0,0-1-.372,2.484,2.484,0,0,0-1.526.341,12.906,12.906,0,0,0-4.54,4.076c-1.031,1.357-1.257,3.122-2.387,4.416-.513.587-1.179,1.028-1.684,1.622a5.14,5.14,0,0,0-1.03,3.978,9.668,9.668,0,0,0,1.567,3.893c.858,1.34.784,2.248.789,3.846,0,1.416.871,2.48,1.25,3.783.353,1.218-.266,2.7.211,3.831A1.954,1.954,0,0,0,813.521,191.677Z" transform="translate(-808.797 -154.948)" fill="#fff" stroke="#161615" stroke-miterlimit="10" stroke-width="1"/>
        </g>
      </g>
    </g>
    <g id="Group_737" data-name="Group 737" transform="translate(-260.595 -730.127)">
      <g id="Group_736" data-name="Group 736" transform="translate(710 903.126)">
        <path id="Path_651" data-name="Path 651" d="M725.258,908.143V888L712.275,901.47v19.656h16.294V908.143Z" transform="translate(-691.735 -888.002)" fill="#a39393"/>
        <path id="Path_652" data-name="Path 652" d="M702.983,908.143V888L690,901.47v19.656h16.244V908.143Z" transform="translate(-690 -888.002)" fill="#a39393"/>
      </g>
    </g>
    <g id="Group_827" data-name="Group 827" transform="translate(704.405 288)">
      <g id="Group_736-2" data-name="Group 736" transform="translate(0 0)">
        <path id="Path_651-2" data-name="Path 651" d="M715.586,900.985v20.142l12.983-13.468V888H712.275v12.983Z" transform="translate(-712.275 -888.002)" fill="#00a395"/>
        <path id="Path_652-2" data-name="Path 652" d="M693.261,900.985v20.142l12.983-13.468V888H690v12.983Z" transform="translate(-669.411 -888.002)" fill="#00a395"/>
      </g>
    </g>
  </g>
</svg>
