<svg xmlns="http://www.w3.org/2000/svg" width="35.815" height="24.851" viewBox="0 0 35.815 24.851"><g transform="translate(0 0)"><path d="M14.669,1.09,14.208.571C14.052.4,13.59.039,13.772,0a3.8,3.8,0,0,0-.625.235Q11.075.941,9.018,1.69A92.911,92.911,0,0,0,0,5.3c4.706-1.466,9.431-2.9,14.211-4.1l.458-.116" transform="translate(11.493 0.501)" fill="#fefefe"/><path d="M5.426,6.4,2.4,0,0,.754A14.987,14.987,0,0,0,5.426,6.4" transform="translate(3.177 9.266)" fill="#fefefe"/><path d="M6.515,1.5a.3.3,0,0,1-.133.208A55.643,55.643,0,0,0,0,6.448,84.232,84.232,0,0,1,13.012,1.655,4.857,4.857,0,0,0,11.953,0Q9.226.69,6.515,1.5" transform="translate(20.742 11.64)" fill="#fefefe"/><path d="M5.349,6.084Q6.641,7.194,7.99,8.24A15.171,15.171,0,0,0,9.545,9.412c.619.36.651.438,1.211-.021A59.822,59.822,0,0,1,19.4,3.9C15.859,5.126,12.36,6.458,8.928,7.847a.228.228,0,0,1-.321-.109L7.413,5.215a.23.23,0,0,1-.134-.024A15.345,15.345,0,0,1,1.723,0L0,.951A69.679,69.679,0,0,0,5.349,6.084" transform="translate(1.575 11.266)" fill="#fefefe"/><path d="M22.115.952a.3.3,0,0,1-.132.164c-3.738,2.173-7.734,4.13-10.99,7.02a.252.252,0,0,1-.3.03A70.756,70.756,0,0,1,1.174,0a6.9,6.9,0,0,0-.9,1C0,1.445-.155,1.517.228,2.058a10.841,10.841,0,0,0,1.736,1.59Q3.65,5.118,5.469,6.424t3.75,2.433q1.016.594,2.06,1.136c.823.427,1.34.9,2.025.178A68.82,68.82,0,0,1,25.049.012q-1.472.454-2.934.94" transform="translate(0.9 13.528)" fill="#fefefe"/><path d="M20.485.646a8.474,8.474,0,0,1-.848.371,2.37,2.37,0,0,1-1.4-.067c-.5-.2-.663-.681-1-.9-.2-.133-.612.047-1.009.163L10.715,1.83,1.341,4.585A1.855,1.855,0,0,1,0,6.723Q.6,8.067,1.2,9.409c.162.363.309.74.485,1.1l.026-.016a1.892,1.892,0,0,1,.69-.181,2.127,2.127,0,0,1,1.222.121,1.315,1.315,0,0,1,.492.366s.229.42.154.464A5.026,5.026,0,0,0,5.389,10.9l5.928-1.77L21.458,6.1a1.953,1.953,0,0,1,.771-2.424L20.871,1.329A6.408,6.408,0,0,1,20.5.688L20.485.646" transform="translate(9.489 3.801)" fill="#fefefe"/><path d="M4.807,16.981H4.8a11.667,11.667,0,0,1-.454-1.087c-.047-.122-.08-.207-.086-.219L3.74,14.563l-.007-.014q-.43-.922-.86-1.843L1.436,9.627,0,6.548C3.255,5.521,6.616,4.5,9.99,3.5,12.183,2.859,15.075,2.019,18,1.248c1.03-.27,2.246-.584,3.458-.858.424-.1.882-.2,1.351-.286.041-.008.093-.023.149-.038A1.376,1.376,0,0,1,23.283,0a.254.254,0,0,1,.061.006c.311.076.656.565.934.958.078.111.152.216.215.295A44.409,44.409,0,0,1,29.48,9.065a161.387,161.387,0,0,0-17.5,5.283c-1.819.632-4.216,1.477-6.628,2.413l-.066.029A2.885,2.885,0,0,1,4.807,16.981Zm1.7-3.938a1.362,1.362,0,0,1,1.305.831.23.23,0,0,0,.2.143.194.194,0,0,0,.057-.009l8.8-2.629,8.8-2.629a.322.322,0,0,0,.209-.191.271.271,0,0,0-.023-.244,1.428,1.428,0,0,1-.21-1.1,1.68,1.68,0,0,1,.827-1.01A.3.3,0,0,0,26.6,5.8L25.163,3.309,24.636,2.4a.2.2,0,0,0-.177-.085.2.2,0,0,0-.113.03,2.4,2.4,0,0,1-1.317.433,2.144,2.144,0,0,1-1.783-1.058.212.212,0,0,0-.173-.086.2.2,0,0,0-.057.008L8.5,5.318,4.823,6.4a.131.131,0,0,0-.035.017l-.018.01-.018.011a.222.222,0,0,0-.04.031.274.274,0,0,0-.105.31A1.174,1.174,0,0,1,4.54,7.8a1.612,1.612,0,0,1-1.106.741.3.3,0,0,0-.2.16.251.251,0,0,0-.018.218l.956,2.133.956,2.133a.219.219,0,0,0,.2.139.281.281,0,0,0,.117-.027A2.572,2.572,0,0,1,6.505,13.043Z" transform="translate(5.668 1.563)" fill="#fefefe"/><path d="M1.265.365c-2.832,1.586-.383,5.01,2.22,3.719S4.1-1.221,1.265.365" transform="translate(18.344 6.986)" fill="#4e5048"/><g transform="translate(5 0.852)"><path d="M5.328,18.12a.246.246,0,0,1-.227-.15L.024,7.089A.3.3,0,0,1,.185,6.7c1.509-.489,2.955-.935,4.306-1.349l.055-.017C9.788,3.732,15.207,2.072,20.739.717l.389-.1c.819-.2,1.747-.431,2.647-.569A2.874,2.874,0,0,1,24.183,0c.212,0,.3.1.545.4L24.734.4c.732.865,1.417,1.751,2.154,2.788a44.125,44.125,0,0,1,3.887,6.464.256.256,0,0,1-.007.227.354.354,0,0,1-.227.192A163.435,163.435,0,0,0,5.459,18.093.377.377,0,0,1,5.328,18.12ZM23.954.589a1.235,1.235,0,0,0-.341.059,1.244,1.244,0,0,1-.154.037c-.441.086-.872.181-1.349.287-1.19.269-2.365.571-3.457.857-2.307.609-4.776,1.3-8.005,2.257C7.064,5.143,3.806,6.135.689,7.118L2.52,11.042l1.029,2.2,1.385,2.97c.006.012.038.093.082.209.121.31.4,1.036.45,1.086a4.668,4.668,0,0,0,.452-.187c2.373-.926,4.626-1.724,6.708-2.45a162.578,162.578,0,0,1,17.5-5.288A47.066,47.066,0,0,0,25.12,1.831c-.065-.08-.139-.186-.216-.3-.26-.369-.616-.874-.915-.945Z" transform="translate(0.017 0.157)" fill="#4e5048"/></g><path d="M6.43,7.816A.262.262,0,0,1,6.3,7.782,15.358,15.358,0,0,1,.025,1.28a.227.227,0,0,1,0-.2A.4.4,0,0,1,.258.863L3.047,0a.4.4,0,0,1,.048,0c.158,0,.226.069.24.173a.361.361,0,0,1-.23.4L1.7,1,.674,1.318a15.409,15.409,0,0,0,5.98,5.967.216.216,0,0,1,.1.26.367.367,0,0,1-.328.271" transform="translate(2.517 8.653)" fill="#2f3f5c"/><path d="M10.792,11.076a.241.241,0,0,1-.141-.044A71.329,71.329,0,0,1,.058,1.624.211.211,0,0,1,.005,1.43a.387.387,0,0,1,.184-.26L2.26.04A.307.307,0,0,1,2.4,0a.223.223,0,0,1,.213.184.329.329,0,0,1-.158.371l-.868.473L.716,1.5C2.444,3.31,4.235,5.045,6.045,6.616c.82.713,1.68,1.424,2.628,2.169.14.111.278.224.42.341a9.187,9.187,0,0,0,1.128.837l.119.071a1.129,1.129,0,0,0,.509.226c.141,0,.29-.1.547-.309a55.5,55.5,0,0,1,8.041-5.084c.8-.444,1.595-.887,2.382-1.339a.305.305,0,0,1,.142-.042.217.217,0,0,1,.207.18.34.34,0,0,1-.152.379c-.793.453-1.6.9-2.4,1.344A48.471,48.471,0,0,0,10.99,11a.3.3,0,0,1-.2.078" transform="translate(0.869 10.655)" fill="#4e5048"/><path d="M13.6,11.983h-.006l-.073-.017A49.035,49.035,0,0,1,.052,2.386.3.3,0,0,1,.07,2.028L1.216.773,1.789.145A.322.322,0,0,1,2.024.033a.278.278,0,0,1,.254.156.25.25,0,0,1-.064.273C2.119.569,2,.682,1.882.8a4.705,4.705,0,0,0-.695.788l-.1.159c-.2.307-.269.41.051.866A6.478,6.478,0,0,0,2.368,3.8c.171.14.338.276.487.408C3.967,5.185,5.139,6.125,6.342,7c1.223.885,2.479,1.71,3.735,2.45q1.013.6,2.053,1.148c.121.062.235.127.343.19a2.121,2.121,0,0,0,.946.368.969.969,0,0,0,.7-.361A66.393,66.393,0,0,1,26.937.048.263.263,0,0,1,27.081,0a.21.21,0,0,1,.2.17.353.353,0,0,1-.147.391A66.786,66.786,0,0,0,13.8,11.9a.289.289,0,0,1-.2.082" transform="translate(0 12.869)" fill="#4e5048"/><path d="M.218,6.932A.22.22,0,0,1,.01,6.75a.338.338,0,0,1,.153-.377C4.858,3.73,10.181,2,15.329.316L16.292,0a.339.339,0,0,1,.044,0,.256.256,0,0,1,.214.088L17.7,1.4a.245.245,0,0,1,.038.272.358.358,0,0,1-.305.21.246.246,0,0,1-.189-.088l-.575-.655c-.042-.048-.109-.111-.176-.176-.2-.193-.324-.314-.307-.394l-.352.153c-.075.034-.142.063-.2.082q-2.074.693-4.134,1.431l-.688.245A67.354,67.354,0,0,0,.36,6.89a.3.3,0,0,1-.142.042" transform="translate(9.071 0)" fill="#4e5048"/><path d="M.239,7.946a.242.242,0,0,1-.232-.2A.3.3,0,0,1,.176,7.4,89.136,89.136,0,0,1,14.4,2.143,5.462,5.462,0,0,0,13.288.476a.227.227,0,0,1-.044-.26A.361.361,0,0,1,13.556,0a.258.258,0,0,1,.189.082,5.182,5.182,0,0,1,1.271,2.135.318.318,0,0,1-.029.251.329.329,0,0,1-.208.164A86.869,86.869,0,0,0,.369,7.915a.3.3,0,0,1-.13.031" transform="translate(19.335 11.209)" fill="#4e5048"/><path d="M4.838,12.437h0a.251.251,0,0,1-.225-.159,1.337,1.337,0,0,0-1.282-.815,2.535,2.535,0,0,0-1.04.248.3.3,0,0,1-.131.032.241.241,0,0,1-.228-.158L.021,7.323a.281.281,0,0,1,.018-.246A.325.325,0,0,1,.257,6.9a1.583,1.583,0,0,0,1.085-.725,1.139,1.139,0,0,0,.065-1,.313.313,0,0,1,.115-.348.3.3,0,0,1,.121-.069L17.835,0h.038A.235.235,0,0,1,18.1.1a2.126,2.126,0,0,0,1.76,1.042,2.337,2.337,0,0,0,1.3-.427.218.218,0,0,1,.126-.035.235.235,0,0,1,.2.1l.72,1.246,1.244,2.156a.323.323,0,0,1-.134.45,1.647,1.647,0,0,0-.812.993,1.393,1.393,0,0,0,.207,1.075.3.3,0,0,1,.025.266.359.359,0,0,1-.229.212L4.9,12.427l-.064.01ZM3.5,10.874a1.8,1.8,0,0,1,.783.162,1.305,1.305,0,0,1,.5.377c.011,0,.035.04.117.236a.506.506,0,0,1,.058.216,3.574,3.574,0,0,0,.821-.264l.056-.022c.084-.033.151-.06.188-.071L7.4,11.1l4.561-1.362L22.1,6.709a1.929,1.929,0,0,1,.763-2.423l-.986-1.657-.379-.655-.128-.21a3.186,3.186,0,0,1-.242-.435,1.163,1.163,0,0,0-.336.138,2.2,2.2,0,0,1-.5.207,2.817,2.817,0,0,1-.634.075,2.175,2.175,0,0,1-.785-.141,1.581,1.581,0,0,1-.657-.553l-.011-.013A1.665,1.665,0,0,0,17.869.7a.326.326,0,0,0-.175-.042,2.1,2.1,0,0,0-.551.126l-.03.009-.23.074-2.757.808-2.754.811L6.532,3.909,2,5.243A1.84,1.84,0,0,1,.657,7.381l.551,1.152.669,1.493c.067.149.129.293.19.44.087.205.186.437.293.66a1.231,1.231,0,0,1,.617-.2A3.508,3.508,0,0,1,3.5,10.874Z" transform="translate(8.84 3.172)" fill="#4e5048"/></g></svg>