<svg xmlns="http://www.w3.org/2000/svg" width="97.905" height="143.956" viewBox="0 0 97.905 143.956">
  <g id="Group_1339" data-name="Group 1339" transform="translate(11376.138 6508.898)" opacity="0.43">
    <path id="Path_14" data-name="Path 14" d="M814.025,398.548H796.083v14.34h3.657v22.247l14.34-14.876V398.548Z" transform="translate(-12169.568 -6800.077)" fill="#00a395"/>
    <path id="Path_15" data-name="Path 15" d="M853.484,398.548h-3.6v14.34h3.6v22.247l14.34-14.876V398.548Z" transform="translate(-12200.626 -6800.077)" fill="#00a395"/>
    <g id="Group_71" data-name="Group 71" transform="translate(-11324.612 -6410.135)">
      <g id="Group_40" data-name="Group 40">
        <path id="Path_42" data-name="Path 42" d="M946.244,428.3c-1.411-3.86-4.645-6.219-9.878-7.2h0c-.133-.025-.267-.049-.4-.073h-.009a13.8,13.8,0,0,1-2.841-.6,12.666,12.666,0,0,1-2.271-.987h0a10,10,0,0,1-1.808-1.274V407.781a.144.144,0,0,0-.012-.055,10.857,10.857,0,0,0,1.011-1.59,3.461,3.461,0,0,0,1.316.257,3.494,3.494,0,0,0,.079-6.988c.235-1.526.011-3.924.309-3.826a4.147,4.147,0,0,0,4.242-1.356,14.315,14.315,0,0,1-2.562-.685A3.157,3.157,0,0,0,935.5,391.8c-1.952-.106-3.7-1.168-5.4-2.13a12,12,0,0,0-5.442-1.65c-1.466-.045-4.667.458-5.344,1.722-1.869-.8-4.8.774-5.216,3.909a26.754,26.754,0,0,0-.065,5.757,3.495,3.495,0,1,0,1.808,6.576,7.956,7.956,0,0,0,1.256,1.85v10.324a10.355,10.355,0,0,1-2.108,1.435h0a12.969,12.969,0,0,1-2.3.927,13.814,13.814,0,0,1-2.52.5h-.009a19.892,19.892,0,0,0-3.919,1.056.117.117,0,0,0-.032.013,12.6,12.6,0,0,0-2.894,1.577.135.135,0,0,0-.037.024l-.007.008a9.811,9.811,0,0,0-3.4,4.6.138.138,0,0,0,.129.184h46.105a.137.137,0,0,0,.129-.184Z" transform="translate(-899.872 -388.016)" fill="#fff"/>
      </g>
      <g id="Group_41" data-name="Group 41">
        <path id="Path_43" data-name="Path 43" d="M946.244,428.3c-1.411-3.86-4.645-6.219-9.878-7.2h0c-.133-.025-.267-.049-.4-.073h-.009a13.8,13.8,0,0,1-2.841-.6,12.666,12.666,0,0,1-2.271-.987h0a10,10,0,0,1-1.808-1.274V407.781a.144.144,0,0,0-.012-.055,10.857,10.857,0,0,0,1.011-1.59,3.461,3.461,0,0,0,1.316.257,3.494,3.494,0,0,0,.079-6.988c.235-1.526.011-3.924.309-3.826a4.147,4.147,0,0,0,4.242-1.356,14.315,14.315,0,0,1-2.562-.685A3.157,3.157,0,0,0,935.5,391.8c-1.952-.106-3.7-1.168-5.4-2.13a12,12,0,0,0-5.442-1.65c-1.466-.045-4.667.458-5.344,1.722-1.869-.8-4.8.774-5.216,3.909a26.754,26.754,0,0,0-.065,5.757,3.495,3.495,0,1,0,1.808,6.576,7.956,7.956,0,0,0,1.256,1.85v10.324a10.355,10.355,0,0,1-2.108,1.435h0a12.969,12.969,0,0,1-2.3.927,13.814,13.814,0,0,1-2.52.5h-.009a19.892,19.892,0,0,0-3.919,1.056.117.117,0,0,0-.032.013,12.6,12.6,0,0,0-2.894,1.577.135.135,0,0,0-.037.024l-.007.008a9.811,9.811,0,0,0-3.4,4.6.138.138,0,0,0,.129.184h46.105a.137.137,0,0,0,.129-.184Z" transform="translate(-899.872 -388.016)" fill="#fff"/>
      </g>
      <g id="Group_42" data-name="Group 42" transform="translate(25.374 11.78)">
        <ellipse id="Ellipse_7" data-name="Ellipse 7" cx="0.425" cy="0.708" rx="0.425" ry="0.708" fill="#1a1818"/>
      </g>
      <g id="Group_43" data-name="Group 43" transform="translate(18.591 11.848)">
        <ellipse id="Ellipse_8" data-name="Ellipse 8" cx="0.425" cy="0.708" rx="0.425" ry="0.708" fill="#1a1818"/>
      </g>
      <g id="Group_44" data-name="Group 44" transform="translate(23.852 9.253)">
        <path id="Path_44" data-name="Path 44" d="M957.8,411.771a2.354,2.354,0,0,1-1.084-.34.813.813,0,0,1-.388-.879,1.016,1.016,0,0,1,.732-.577,3.2,3.2,0,0,1,1.033-.052,5.648,5.648,0,0,1,1.631.306c.612.235,1.944,1.34.979,1.893-.356.2-.754-.014-1.1-.107A11.77,11.77,0,0,0,957.8,411.771Z" transform="translate(-956.299 -409.906)" fill="#1a1818"/>
      </g>
      <g id="Group_45" data-name="Group 45" transform="translate(16.825 9.253)">
        <path id="Path_45" data-name="Path 45" d="M942.918,411.771a2.353,2.353,0,0,0,1.084-.34.814.814,0,0,0,.388-.879,1.017,1.017,0,0,0-.732-.577,3.2,3.2,0,0,0-1.033-.052,5.654,5.654,0,0,0-1.632.306c-.611.235-1.944,1.34-.979,1.893.356.2.754-.014,1.105-.107A11.764,11.764,0,0,1,942.918,411.771Z" transform="translate(-939.675 -409.906)" fill="#1a1818"/>
      </g>
      <g id="Group_46" data-name="Group 46" transform="translate(28.903 19.647)">
        <path id="Path_46" data-name="Path 46" d="M970.243,446.5a.114.114,0,0,1-.057-.015,10.186,10.186,0,0,1-1.9-1.348.118.118,0,0,1-.038-.086V434.613a.117.117,0,0,1,.234,0V445a9.984,9.984,0,0,0,1.819,1.283.117.117,0,0,1-.057.219Z" transform="translate(-968.247 -434.496)" fill="#1a1818"/>
      </g>
      <g id="Group_47" data-name="Group 47" transform="translate(15.062 19.647)">
        <path id="Path_47" data-name="Path 47" d="M935.622,446.662a.117.117,0,0,1-.054-.22A10.326,10.326,0,0,0,937.686,445V434.613a.117.117,0,0,1,.234,0V445.05a.118.118,0,0,1-.038.086,10.551,10.551,0,0,1-2.206,1.512A.118.118,0,0,1,935.622,446.662Z" transform="translate(-935.505 -434.496)" fill="#1a1818"/>
      </g>
      <g id="Group_48" data-name="Group 48" transform="translate(14.975 3.929)">
        <path id="Path_48" data-name="Path 48" d="M943.642,416.617h-.118c-2.813-.029-3.829-1.126-5.673-3.117l-.158-.171-.095-.1a7.952,7.952,0,0,1-1.354-2.017,9.4,9.4,0,0,1-.587-1.616,11.193,11.193,0,0,1-.359-2.854v-9.311a.117.117,0,0,1,.117-.117H951.52a.117.117,0,0,1,.117.117v9.311a10.2,10.2,0,0,1-.458,3.011,10.6,10.6,0,0,1-.659,1.628,10.869,10.869,0,0,1-1.176,1.84l-.01.012-.074.094-.028.035-.052.065c-1.639,2.066-2.622,3.147-5.362,3.19h-.176Zm-8.111-19.072v9.194a10.95,10.95,0,0,0,.352,2.794,9.178,9.178,0,0,0,.572,1.576,7.711,7.711,0,0,0,1.314,1.958l.1.1.159.171c1.858,2.007,2.791,3.014,5.5,3.041h.229l.114,0h.016c2.584-.058,3.487-1.054,5.111-3.1l.051-.063.029-.037.073-.093.01-.013a10.623,10.623,0,0,0,1.151-1.8,10.322,10.322,0,0,0,.644-1.592,9.961,9.961,0,0,0,.448-2.942v-9.194Z" transform="translate(-935.298 -397.312)" fill="#1a1818"/>
      </g>
      <g id="Group_49" data-name="Group 49" transform="translate(23.319 22.998)">
        <path id="Path_49" data-name="Path 49" d="M955.155,442.658a.117.117,0,0,1,0-.234l.109,0h.005a.117.117,0,1,1,.008.233h-.005l-.111,0h0Z" transform="translate(-955.038 -442.422)" fill="#1a1818"/>
      </g>
      <g id="Group_50" data-name="Group 50" transform="translate(10.852 11.407)">
        <path id="Path_50" data-name="Path 50" d="M929.019,421.951a3.475,3.475,0,1,1,.792-6.859.117.117,0,0,1,.09.114v1.746a10.947,10.947,0,0,0,.352,2.794,9.184,9.184,0,0,0,.572,1.576.116.116,0,0,1-.046.151A3.466,3.466,0,0,1,929.019,421.951Zm0-6.716a3.241,3.241,0,1,0,1.549,6.089,9.451,9.451,0,0,1-.541-1.517,11.194,11.194,0,0,1-.359-2.854V415.3A3.256,3.256,0,0,0,929.019,415.234Z" transform="translate(-925.544 -415.001)" fill="#1a1818"/>
      </g>
      <g id="Group_51" data-name="Group 51" transform="translate(29.976 11.407)">
        <path id="Path_51" data-name="Path 51" d="M972.283,421.951a3.437,3.437,0,0,1-1.428-.306.117.117,0,0,1-.056-.159,10.32,10.32,0,0,0,.644-1.592,9.955,9.955,0,0,0,.448-2.942v-1.823a.117.117,0,0,1,.107-.116c.091-.008.187-.011.285-.011a3.475,3.475,0,0,1,0,6.95Zm-1.22-.471a3.21,3.21,0,0,0,1.22.238,3.241,3.241,0,0,0,0-6.483c-.054,0-.107,0-.159,0v1.713a10.2,10.2,0,0,1-.458,3.011A10.582,10.582,0,0,1,971.063,421.479Z" transform="translate(-970.786 -415.001)" fill="#1a1818"/>
      </g>
      <g id="Group_52" data-name="Group 52" transform="translate(17.418 19.939)">
        <path id="Path_52" data-name="Path 52" d="M947.037,438.54c-2.3.391-4.441.591-5.959,0v-3.354c2.048,2.206,3.864,3.157,5.785,3.178Z" transform="translate(-941.078 -435.186)" fill="#1a1818"/>
      </g>
      <g id="Group_53" data-name="Group 53" transform="translate(0.02 31.417)">
        <path id="Path_53" data-name="Path 53" d="M946.143,471.367H900.037a.117.117,0,0,1-.11-.157c1.443-3.952,4.8-6.328,10.268-7.263h.008a13.845,13.845,0,0,0,2.523-.5,12.952,12.952,0,0,0,2.3-.929.117.117,0,0,1,.162.06c1.083,2.671,4.185,4.466,7.72,4.466,3.576,0,6.776-1.9,7.781-4.625a.117.117,0,0,1,.167-.061,12.739,12.739,0,0,0,2.275.988,13.875,13.875,0,0,0,2.846.6h.007c5.466.935,8.825,3.31,10.269,7.263a.117.117,0,0,1-.11.157Zm-45.937-.234h45.769c-1.444-3.771-4.726-6.048-10.026-6.955a14.045,14.045,0,0,1-2.89-.613,12.986,12.986,0,0,1-2.2-.941,6.972,6.972,0,0,1-2.922,3.3,9.694,9.694,0,0,1-5.03,1.348c-3.578,0-6.728-1.8-7.887-4.493a13.256,13.256,0,0,1-2.227.887,14.066,14.066,0,0,1-2.562.51C904.931,465.086,901.649,467.361,900.206,471.133Z" transform="translate(-899.92 -462.34)" fill="#1a1818"/>
      </g>
      <g id="Group_54" data-name="Group 54" transform="translate(14.022)">
        <path id="Path_54" data-name="Path 54" d="M948.381,396.957a.411.411,0,0,0-.583-.377,6.66,6.66,0,0,1-3.344.31,29.3,29.3,0,0,1-7.035-1.648,6.324,6.324,0,0,1-1.295-.6.367.367,0,0,0-.572.3,20.107,20.107,0,0,1-.635,4.529c-.108.416-.262,1.416-.828,1.455-1.538.1-.958-6.406-.842-7.274.416-3.135,3.347-4.709,5.216-3.909.677-1.264,3.878-1.767,5.344-1.722a12,12,0,0,1,5.442,1.65c1.7.963,3.451,2.025,5.4,2.13a3.157,3.157,0,0,1-2.091,1.739,14.311,14.311,0,0,0,2.562.685,4.147,4.147,0,0,1-4.241,1.356c-.471-.155.368,5.965-1.391,4.932-.468-.275-.715-1.334-.837-1.826A7.188,7.188,0,0,1,948.381,396.957Z" transform="translate(-933.044 -388.016)" fill="#1a1818"/>
      </g>
      <g id="Group_55" data-name="Group 55" transform="translate(21.049 11.087)">
        <path id="Path_55" data-name="Path 55" d="M951.1,419.235a.117.117,0,0,1-.067-.021c-1.029-.722-1.421-1.152-1.351-1.483s.583-.458,1.3-.6v-2.765a.117.117,0,1,1,.233,0v2.861a.116.116,0,0,1-.093.114c-.6.122-1.171.237-1.214.442s.38.628,1.258,1.244a.117.117,0,0,1-.067.212Z" transform="translate(-949.669 -414.245)" fill="#1a1818"/>
      </g>
      <g id="Group_56" data-name="Group 56" transform="translate(21.923 15.986)">
        <path id="Path_56" data-name="Path 56" d="M953.03,428.2a1.638,1.638,0,0,1-.587-.1,1.1,1.1,0,0,1-.69-.628.554.554,0,0,1,.132-.509,2.5,2.5,0,0,1,1.083-.635c.084-.033.167-.064.246-.1s.145-.065.229-.105.15-.072.231-.107l.047.107-.047-.107a1.151,1.151,0,0,1,1.018-.1.724.724,0,0,1,.3.511,1.325,1.325,0,0,1-.53,1.27A2.352,2.352,0,0,1,953.03,428.2Zm1.335-2.135a1.638,1.638,0,0,0-.6.168c-.078.035-.154.071-.225.1-.087.041-.169.081-.241.11s-.165.065-.251.1a2.333,2.333,0,0,0-.985.565.329.329,0,0,0-.087.3.9.9,0,0,0,.549.469,1.962,1.962,0,0,0,1.792-.365,1.1,1.1,0,0,0,.448-1.05.513.513,0,0,0-.2-.351A.377.377,0,0,0,954.365,426.068Z" transform="translate(-951.736 -425.834)" fill="#1a1818"/>
      </g>
      <g id="Group_57" data-name="Group 57" transform="translate(23.319 23)">
        <path id="Path_57" data-name="Path 57" d="M955.155,442.661a.117.117,0,0,1,0-.234h.057a.117.117,0,0,1,0,.234Z" transform="translate(-955.038 -442.426)" fill="#1a1818"/>
      </g>
      <g id="Group_58" data-name="Group 58" transform="translate(17.715 11.723)">
        <path id="Path_58" data-name="Path 58" d="M941.9,416.278a.117.117,0,0,1-.05-.222,3.305,3.305,0,0,1,2.568-.088.117.117,0,1,1-.085.218,3.068,3.068,0,0,0-2.383.081A.116.116,0,0,1,941.9,416.278Z" transform="translate(-941.78 -415.75)" fill="#1a1818"/>
      </g>
      <g id="Group_59" data-name="Group 59" transform="translate(24.445 11.723)">
        <path id="Path_59" data-name="Path 59" d="M957.818,416.278a.117.117,0,0,1-.05-.222,3.305,3.305,0,0,1,2.568-.088.117.117,0,0,1-.085.218,3.068,3.068,0,0,0-2.383.081A.117.117,0,0,1,957.818,416.278Z" transform="translate(-957.702 -415.75)" fill="#1a1818"/>
      </g>
      <g id="Group_60" data-name="Group 60" transform="translate(21.986 16.485)">
        <path id="Path_60" data-name="Path 60" d="M952,428.362a.117.117,0,0,1-.041-.226l2.966-1.113a.117.117,0,0,1,.082.219l-2.967,1.113A.117.117,0,0,1,952,428.362Z" transform="translate(-951.884 -427.015)" fill="#1a1818"/>
      </g>
      <g id="Group_61" data-name="Group 61" transform="translate(3.388 35.657)">
        <path id="Path_61" data-name="Path 61" d="M912.236,477.157a.117.117,0,0,1-.086-.038c-1.289-1.395-2.752-2.969-4.232-4.553a.117.117,0,0,1,.17-.159c1.48,1.583,2.944,3.158,4.233,4.553a.116.116,0,0,1-.006.165A.118.118,0,0,1,912.236,477.157Z" transform="translate(-907.887 -472.37)" fill="#1a1818"/>
      </g>
      <g id="Group_62" data-name="Group 62" transform="translate(1.213 37.891)">
        <path id="Path_62" data-name="Path 62" d="M905.008,480.208a.116.116,0,0,1-.086-.038c-.744-.805-1.467-1.586-2.149-2.319a.117.117,0,1,1,.171-.159c.682.733,1.406,1.514,2.15,2.319a.117.117,0,0,1-.086.2Z" transform="translate(-902.742 -477.655)" fill="#1a1818"/>
      </g>
      <g id="Group_63" data-name="Group 63" transform="translate(6.291 34.076)">
        <path id="Path_63" data-name="Path 63" d="M920.585,475a.116.116,0,0,1-.086-.038c-1.746-1.889-3.775-4.068-5.713-6.134a.117.117,0,1,1,.17-.16c1.939,2.067,3.968,4.246,5.715,6.135a.117.117,0,0,1-.086.2Z" transform="translate(-914.754 -468.629)" fill="#1a1818"/>
      </g>
      <g id="Group_64" data-name="Group 64" transform="translate(9.612 33.131)">
        <path id="Path_64" data-name="Path 64" d="M929.328,473.707a.116.116,0,0,1-.086-.038c-1.953-2.115-4.3-4.629-6.6-7.078a.117.117,0,0,1,.17-.16c2.3,2.45,4.647,4.964,6.6,7.08a.117.117,0,0,1-.086.2Z" transform="translate(-922.611 -466.394)" fill="#1a1818"/>
      </g>
      <g id="Group_65" data-name="Group 65" transform="translate(13.262 32.351)">
        <path id="Path_65" data-name="Path 65" d="M938.7,472.641a.116.116,0,0,1-.086-.038c-2.168-2.347-4.84-5.211-7.334-7.859a.117.117,0,0,1,.17-.16c2.494,2.648,5.168,5.513,7.335,7.86a.117.117,0,0,1-.085.2Z" transform="translate(-931.245 -464.548)" fill="#1a1818"/>
      </g>
      <g id="Group_66" data-name="Group 66" transform="translate(21.437 36.016)">
        <path id="Path_66" data-name="Path 66" d="M954.6,477.647a.117.117,0,0,1-.086-.038c-1.164-1.259-2.475-2.67-3.9-4.194a.117.117,0,1,1,.17-.159c1.422,1.523,2.733,2.935,3.9,4.195a.116.116,0,0,1-.006.165A.118.118,0,0,1,954.6,477.647Z" transform="translate(-950.586 -473.219)" fill="#1a1818"/>
      </g>
      <g id="Group_67" data-name="Group 67" transform="translate(25.581 35.759)">
        <path id="Path_67" data-name="Path 67" d="M964.643,477.3a.116.116,0,0,1-.086-.038c-1.243-1.346-2.634-2.843-4.136-4.45a.117.117,0,0,1,.171-.16c1.5,1.608,2.894,3.106,4.137,4.452a.117.117,0,0,1-.086.2Z" transform="translate(-960.39 -472.612)" fill="#1a1818"/>
      </g>
      <g id="Group_68" data-name="Group 68" transform="translate(28.486 34.368)">
        <path id="Path_68" data-name="Path 68" d="M972.817,475.4a.117.117,0,0,1-.086-.038c-1.6-1.736-3.484-3.756-5.44-5.842a.117.117,0,0,1,.17-.16c1.956,2.087,3.837,4.107,5.441,5.844a.117.117,0,0,1-.086.2Z" transform="translate(-967.26 -469.319)" fill="#1a1818"/>
      </g>
      <g id="Group_69" data-name="Group 69" transform="translate(30.568 31.919)">
        <path id="Path_69" data-name="Path 69" d="M980.045,472.051a.117.117,0,0,1-.086-.038c-2.258-2.445-5.152-5.545-7.741-8.291a.117.117,0,1,1,.17-.16c2.589,2.747,5.484,5.847,7.743,8.292a.117.117,0,0,1-.086.2Z" transform="translate(-972.186 -463.526)" fill="#1a1818"/>
      </g>
      <g id="Group_70" data-name="Group 70" transform="translate(36.345 33.095)">
        <path id="Path_70" data-name="Path 70" d="M992.6,473.657a.117.117,0,0,1-.086-.038c-1.962-2.125-4.318-4.652-6.634-7.115a.117.117,0,0,1,.17-.16c2.316,2.464,4.672,4.991,6.635,7.116a.117.117,0,0,1-.086.2Z" transform="translate(-985.853 -466.308)" fill="#1a1818"/>
      </g>
    </g>
    <g id="Group_187" data-name="Group 187" transform="translate(-11376.021 -6508.656)">
      <path id="Path_171" data-name="Path 171" d="M814.183,189.52a13.919,13.919,0,0,1-2.869-.608,12.854,12.854,0,0,1-2.3-1,10.1,10.1,0,0,1-1.879-1.333V176.145h-.091a10.7,10.7,0,0,0,1.164-1.821,3.358,3.358,0,1,0,1.754-6.4,2.6,2.6,0,0,1,1.146-1.114c.554-.213,1.185-.577,1.195-1.17a5.817,5.817,0,0,1-.049-.614c.075-.6.889-.752,1.274-1.219.537-.652.082-1.668.378-2.459.193-.516.709-.963.6-1.5a1.125,1.125,0,0,0-.714-.731,8.184,8.184,0,0,1-.985-.395c-.326-.194-.574-.5-.9-.686-.669-.379-1.535-.2-2.23-.527-.615-.29-.99-.924-1.536-1.331a2.449,2.449,0,0,0-1.743-.46,4.681,4.681,0,0,1-1.688.2c-.625-.159-1.045-.8-1.675-.94-1.118-.249-2.016,1.175-3.16,1.127-.236-.01-.466-.085-.7-.086-1.229-.005-1.564,1.994-2.832,1.587a3.645,3.645,0,0,0-.423-.158,1.051,1.051,0,0,0-.646.145,5.464,5.464,0,0,0-1.922,1.726c-.437.574-.532,1.322-1.011,1.87-.217.249-.5.435-.713.687a2.176,2.176,0,0,0-.436,1.684,4.094,4.094,0,0,0,.664,1.648,2.519,2.519,0,0,1,.334,1.628,2.55,2.55,0,0,0,.32,1.071l-.06,0a3.358,3.358,0,1,0,1.7,6.254,7.826,7.826,0,0,0,1.334,1.987v10.437a10.351,10.351,0,0,1-2.181,1.5,13.083,13.083,0,0,1-2.319.937c-.115.034-.23.066-.347.1l-.1.025c-.086.023-.172.044-.26.066l-.115.027c-.083.019-.166.038-.25.055l-.124.027c-.078.016-.158.031-.237.046-.143.027-.286.052-.431.074l-.054.008-.248.035-.077.01q-.152.019-.3.035l-.375.068-.079.015c-.115.022-.229.044-.341.067l-.024,0-.024.005q-.224.047-.443.1l-.041.009q-.221.051-.436.106l-.051.013c-.14.036-.278.073-.415.111l-.056.016c-.135.038-.267.077-.4.117l-.058.018q-.194.06-.382.123l-.057.019q-.188.064-.371.131l-.052.019q-.183.068-.362.139l-.046.019c-.12.048-.238.1-.355.148l-.036.016c-.119.052-.236.1-.351.159l-.023.011q-.178.084-.35.171l-.006,0q-.354.179-.683.374l-.01.006c-.106.062-.209.126-.31.19l-.022.014c-.1.063-.2.127-.29.191l-.028.019c-.093.064-.185.129-.275.195l-.03.022q-.133.1-.261.2l-.03.024c-.085.068-.168.136-.25.205l-.028.024c-.082.07-.162.141-.24.212l-.024.022c-.079.073-.157.146-.233.221l-.019.018q-.116.115-.227.232l-.01.011q-.232.246-.443.5l0,0q-.1.126-.2.254l-.011.015q-.094.124-.183.251l-.017.025c-.058.082-.115.166-.17.25l-.02.03c-.054.083-.106.167-.158.252l-.021.034c-.051.084-.1.169-.148.254l-.02.036c-.048.085-.094.172-.139.259l-.019.036q-.067.132-.132.265l-.016.033c-.043.091-.084.182-.125.274l-.012.027q-.062.142-.119.286l-.007.017q-.06.15-.115.3h46.106C823.068,193.168,820.111,190.534,814.183,189.52Z" transform="translate(-778.256 -154.948)" fill="#fff"/>
    </g>
    <g id="Group_209" data-name="Group 209" transform="translate(-11376.138 -6508.656)">
      <g id="Group_188" data-name="Group 188" transform="translate(20.861 12.233)">
        <path id="Path_172" data-name="Path 172" d="M828.591,189.259a.116.116,0,0,1-.083-.034c-.951-.954-1.312-1.556-1.135-1.894.126-.241.477-.309,1.1-.215V184a.117.117,0,1,1,.233,0v3.25a.117.117,0,0,1-.137.115c-.788-.14-.955,0-.99.07-.054.1-.056.469,1.094,1.622a.117.117,0,0,1-.083.2Z" transform="translate(-827.33 -183.887)" fill="#1a1818"/>
      </g>
      <g id="Group_189" data-name="Group 189" transform="translate(22.005 17.372)">
        <path id="Path_173" data-name="Path 173" d="M830.987,197.8a2.541,2.541,0,0,1-.874-.176.117.117,0,1,1,.081-.219,1.667,1.667,0,0,0,1.365.03,1.911,1.911,0,0,0,.836-1.3.117.117,0,0,1,.226.058,2.128,2.128,0,0,1-.954,1.45A1.451,1.451,0,0,1,830.987,197.8Z" transform="translate(-830.037 -196.044)" fill="#1a1818"/>
      </g>
      <g id="Group_190" data-name="Group 190" transform="translate(25.354 13.212)">
        <ellipse id="Ellipse_21" data-name="Ellipse 21" cx="0.425" cy="0.708" rx="0.425" ry="0.708" fill="#1a1818"/>
      </g>
      <g id="Group_191" data-name="Group 191" transform="translate(18.57 13.281)">
        <ellipse id="Ellipse_22" data-name="Ellipse 22" cx="0.425" cy="0.708" rx="0.425" ry="0.708" fill="#1a1818"/>
      </g>
      <g id="Group_192" data-name="Group 192" transform="translate(16.801 11.051)">
        <path id="Path_174" data-name="Path 174" d="M820.5,182.685a2.014,2.014,0,0,0,.927-.291.7.7,0,0,0,.331-.751.868.868,0,0,0-.625-.492,2.73,2.73,0,0,0-.883-.045,4.841,4.841,0,0,0-1.394.262c-.522.2-1.661,1.145-.837,1.618.3.175.644-.012.944-.091A10.029,10.029,0,0,1,820.5,182.685Z" transform="translate(-817.727 -181.091)" fill="#fff" stroke="#161615" stroke-miterlimit="10" stroke-width="0.5"/>
      </g>
      <g id="Group_193" data-name="Group 193" transform="translate(24.177 10.983)">
        <path id="Path_175" data-name="Path 175" d="M836.457,182.523a2.012,2.012,0,0,1-.926-.291.7.7,0,0,1-.331-.751.869.869,0,0,1,.625-.492,2.729,2.729,0,0,1,.883-.045,4.839,4.839,0,0,1,1.394.262c.523.2,1.662,1.145.837,1.618-.3.175-.644-.012-.945-.091A10.027,10.027,0,0,0,836.457,182.523Z" transform="translate(-835.175 -180.929)" fill="#fff" stroke="#161615" stroke-miterlimit="10" stroke-width="0.5"/>
      </g>
      <g id="Group_194" data-name="Group 194" transform="translate(17.869 12.939)">
        <path id="Path_176" data-name="Path 176" d="M820.37,186.686a.11.11,0,0,1-.035-.005.117.117,0,0,1-.077-.146,1.46,1.46,0,0,1,1.037-.974.117.117,0,1,1,.055.227,1.222,1.222,0,0,0-.869.815A.117.117,0,0,1,820.37,186.686Z" transform="translate(-820.253 -185.558)" fill="#1a1818"/>
      </g>
      <g id="Group_195" data-name="Group 195" transform="translate(25.701 12.713)">
        <path id="Path_177" data-name="Path 177" d="M839.833,186.014a.117.117,0,0,1-.108-.071,1.187,1.187,0,0,0-.85-.689.117.117,0,0,1,.044-.23,1.408,1.408,0,0,1,1.022.828.116.116,0,0,1-.063.153A.114.114,0,0,1,839.833,186.014Z" transform="translate(-838.78 -185.023)" fill="#1a1818"/>
      </g>
      <g id="Group_196" data-name="Group 196" transform="translate(0.117 33.964)">
        <path id="Path_178" data-name="Path 178" d="M824.362,243.092H778.256c1.232-3.373,3.976-5.923,9.359-7.033q.4-.082.819-.154.505-.052.992-.138a14.059,14.059,0,0,0,1.553-.368c1.383,3.521,5.4,6.068,10.148,6.068a12.588,12.588,0,0,0,4.4-.778,11.4,11.4,0,0,0,1.664-.774,9.126,9.126,0,0,0,4.127-4.618,13.923,13.923,0,0,0,2.869.608C820.111,236.918,823.068,239.551,824.362,243.092Z" transform="translate(-778.256 -235.296)" fill="#1a1818"/>
      </g>
      <g id="Group_197" data-name="Group 197" transform="translate(28.883 21.08)">
        <path id="Path_179" data-name="Path 179" d="M848.3,216.82a.116.116,0,0,1-.057-.015,10.179,10.179,0,0,1-1.9-1.348.117.117,0,0,1-.038-.086V204.934a.117.117,0,0,1,.233,0v10.385a10.01,10.01,0,0,0,1.819,1.283.117.117,0,0,1-.057.219Z" transform="translate(-846.307 -204.817)" fill="#1a1818"/>
      </g>
      <g id="Group_198" data-name="Group 198" transform="translate(15.042 21.08)">
        <path id="Path_180" data-name="Path 180" d="M813.681,216.983a.117.117,0,0,1-.054-.22,10.349,10.349,0,0,0,2.118-1.444V204.934a.117.117,0,1,1,.233,0v10.437a.117.117,0,0,1-.038.086,10.542,10.542,0,0,1-2.206,1.512A.117.117,0,0,1,813.681,216.983Z" transform="translate(-813.564 -204.817)" fill="#1a1818"/>
      </g>
      <g id="Group_199" data-name="Group 199" transform="translate(12.723 32.85)">
        <path id="Path_181" data-name="Path 181" d="M818.343,240.061a12.287,12.287,0,0,1-6.4-1.731,9.129,9.129,0,0,1-3.862-4.411.117.117,0,0,1,0-.094.116.116,0,0,1,.071-.061,12.974,12.974,0,0,0,2.3-.929.116.116,0,0,1,.094-.006.118.118,0,0,1,.068.066c1.082,2.671,4.185,4.466,7.72,4.466,3.576,0,6.776-1.9,7.781-4.625a.117.117,0,0,1,.166-.061,12.732,12.732,0,0,0,2.275.988.115.115,0,0,1,.069.06.117.117,0,0,1,0,.092,9.2,9.2,0,0,1-3.85,4.483A12.268,12.268,0,0,1,818.343,240.061Zm-9.992-6.109c1.449,3.52,5.445,5.876,9.992,5.876,4.608,0,8.621-2.4,10.034-5.98a13.013,13.013,0,0,1-2.082-.9,6.971,6.971,0,0,1-2.922,3.3,9.7,9.7,0,0,1-5.03,1.348c-3.578,0-6.728-1.8-7.888-4.493A13.223,13.223,0,0,1,808.351,233.952Z" transform="translate(-808.078 -232.661)" fill="#1a1818"/>
      </g>
      <g id="Group_200" data-name="Group 200" transform="translate(14.954 5.362)">
        <path id="Path_182" data-name="Path 182" d="M821.757,186.939H821.7c-1.94-.022-3.974-1.162-6.043-3.391a7.944,7.944,0,0,1-1.354-2.016,9.412,9.412,0,0,1-.587-1.616,11.193,11.193,0,0,1-.359-2.854V167.75a.117.117,0,0,1,.117-.117h16.106a.117.117,0,0,1,.117.117v9.311a10.18,10.18,0,0,1-.458,3.011,10.562,10.562,0,0,1-.658,1.628,10.9,10.9,0,0,1-1.177,1.84C825.62,185.8,823.721,186.939,821.757,186.939Zm-8.166-19.072v9.194a10.949,10.949,0,0,0,.352,2.794,9.143,9.143,0,0,0,.572,1.576,7.714,7.714,0,0,0,1.314,1.958c2.024,2.18,4,3.3,5.874,3.316h.054c1.89,0,3.727-1.113,5.464-3.309a10.571,10.571,0,0,0,1.151-1.8,10.275,10.275,0,0,0,.644-1.592,9.944,9.944,0,0,0,.448-2.943v-9.194Z" transform="translate(-813.357 -167.633)" fill="#1a1818"/>
      </g>
      <g id="Group_201" data-name="Group 201" transform="translate(10.832 12.839)">
        <path id="Path_183" data-name="Path 183" d="M807.078,192.272a3.475,3.475,0,1,1,.792-6.859.117.117,0,0,1,.09.114v1.746a10.952,10.952,0,0,0,.352,2.794,9.169,9.169,0,0,0,.572,1.576.116.116,0,0,1-.046.15A3.466,3.466,0,0,1,807.078,192.272Zm0-6.716a3.241,3.241,0,1,0,1.549,6.089,9.46,9.46,0,0,1-.541-1.518,11.188,11.188,0,0,1-.359-2.854V185.62A3.253,3.253,0,0,0,807.078,185.555Z" transform="translate(-803.604 -185.322)" fill="#1a1818"/>
      </g>
      <g id="Group_202" data-name="Group 202" transform="translate(29.956 12.839)">
        <path id="Path_184" data-name="Path 184" d="M850.343,192.272a3.438,3.438,0,0,1-1.428-.306.117.117,0,0,1-.062-.068.116.116,0,0,1,.006-.091,10.34,10.34,0,0,0,.644-1.592,9.944,9.944,0,0,0,.448-2.943V185.45a.117.117,0,0,1,.107-.116c.091-.008.187-.011.285-.011a3.475,3.475,0,0,1,0,6.95Zm-1.22-.471a3.211,3.211,0,0,0,1.22.238,3.241,3.241,0,0,0,0-6.483q-.081,0-.159,0v1.713a10.186,10.186,0,0,1-.458,3.011A10.537,10.537,0,0,1,849.122,191.8Z" transform="translate(-848.846 -185.322)" fill="#1a1818"/>
      </g>
      <g id="Group_203" data-name="Group 203" transform="translate(17.34 21.197)">
        <path id="Path_185" data-name="Path 185" d="M824.959,208.448c-2.3.39-4.441.591-5.959,0v-3.355c2.048,2.206,4.038,3.333,5.959,3.354Z" transform="translate(-819 -205.093)" fill="#1a1818"/>
      </g>
      <g id="Group_204" data-name="Group 204" transform="translate(0 33.848)">
        <path id="Path_186" data-name="Path 186" d="M824.2,243.05H778.1a.117.117,0,0,1-.109-.157c1.444-3.952,4.8-6.328,10.268-7.263h.008a13.828,13.828,0,0,0,2.523-.5.117.117,0,0,1,.142.069c1.408,3.585,5.442,5.993,10.039,5.993,4.656,0,8.706-2.449,10.077-6.094a.117.117,0,0,1,.145-.07,13.866,13.866,0,0,0,2.845.6h.008c5.465.935,8.825,3.31,10.269,7.263a.117.117,0,0,1-.109.157Zm-45.937-.234h45.769c-1.444-3.771-4.726-6.048-10.026-6.955a14.057,14.057,0,0,1-2.784-.579,9.232,9.232,0,0,1-3.809,4.379,12.676,12.676,0,0,1-12.842.032,9.156,9.156,0,0,1-3.822-4.312,14.091,14.091,0,0,1-2.46.48C782.99,236.768,779.709,239.044,778.265,242.816Z" transform="translate(-777.98 -235.02)" fill="#1a1818"/>
      </g>
      <g id="Group_205" data-name="Group 205" transform="translate(28.883 21.08)">
        <path id="Path_187" data-name="Path 187" d="M848.3,216.82a.116.116,0,0,1-.057-.015,10.179,10.179,0,0,1-1.9-1.348.117.117,0,0,1-.038-.086V204.934a.117.117,0,0,1,.233,0v10.385a10.01,10.01,0,0,0,1.819,1.283.117.117,0,0,1-.057.219Z" transform="translate(-846.307 -204.817)" fill="#1a1818"/>
      </g>
      <g id="Group_206" data-name="Group 206" transform="translate(14.954 5.362)">
        <path id="Path_188" data-name="Path 188" d="M821.757,186.939H821.7c-1.94-.022-3.974-1.162-6.043-3.391a7.944,7.944,0,0,1-1.354-2.016,9.412,9.412,0,0,1-.587-1.616,11.193,11.193,0,0,1-.359-2.854V167.75a.117.117,0,0,1,.117-.117h16.106a.117.117,0,0,1,.117.117v9.311a10.18,10.18,0,0,1-.458,3.011,10.562,10.562,0,0,1-.658,1.628,10.9,10.9,0,0,1-1.177,1.84C825.62,185.8,823.721,186.939,821.757,186.939Zm-8.166-19.072v9.194a10.949,10.949,0,0,0,.352,2.794,9.143,9.143,0,0,0,.572,1.576,7.714,7.714,0,0,0,1.314,1.958c2.024,2.18,4,3.3,5.874,3.316h.054c1.89,0,3.727-1.113,5.464-3.309a10.571,10.571,0,0,0,1.151-1.8,10.275,10.275,0,0,0,.644-1.592,9.944,9.944,0,0,0,.448-2.943v-9.194Z" transform="translate(-813.357 -167.633)" fill="#1a1818"/>
      </g>
      <g id="Group_207" data-name="Group 207" transform="translate(0 33.848)">
        <path id="Path_189" data-name="Path 189" d="M824.2,243.05H778.1a.117.117,0,0,1-.109-.157c1.444-3.952,4.8-6.328,10.268-7.263h.008a13.828,13.828,0,0,0,2.523-.5.117.117,0,0,1,.142.069c1.408,3.585,5.442,5.993,10.039,5.993,4.656,0,8.706-2.449,10.077-6.094a.117.117,0,0,1,.145-.07,13.866,13.866,0,0,0,2.845.6h.008c5.465.935,8.825,3.31,10.269,7.263a.117.117,0,0,1-.109.157Zm-45.937-.234h45.769c-1.444-3.771-4.726-6.048-10.026-6.955a14.057,14.057,0,0,1-2.784-.579,9.232,9.232,0,0,1-3.809,4.379,12.676,12.676,0,0,1-12.842.032,9.156,9.156,0,0,1-3.822-4.312,14.091,14.091,0,0,1-2.46.48C782.99,236.768,779.709,239.044,778.265,242.816Z" transform="translate(-777.98 -235.02)" fill="#1a1818"/>
      </g>
      <g id="Group_208" data-name="Group 208" transform="translate(13.027)">
        <path id="Path_190" data-name="Path 190" d="M810.8,170.5c.607.309,1.467-.7,1.252-1.5-.109-.407-.45-.74-.481-1.16-.041-.548.454-1,.535-1.54a3.21,3.21,0,0,0-.336-1.4,1.729,1.729,0,0,1,.643-1.86c.721-.373.863.913,1.309,1.181.7.42,1.614-.418,2.381-.139.406.147.645.566,1,.805.84.558,1.956-.013,2.962.051a5.308,5.308,0,0,1,1.373.358,4.955,4.955,0,0,0,2.007.351,2.435,2.435,0,0,0,1.35-.682c.491-.339.73.063.761.545.015.228-.079.445-.07.679a2.225,2.225,0,0,1-.179,1.233,1.659,1.659,0,0,0,.155,1.555,2.336,2.336,0,0,1,.257.38c.205.466-.125,1.116.244,1.467a.811.811,0,0,0,1.153-.1,1.011,1.011,0,0,0,.283-.85,3.994,3.994,0,0,0-.133-.432,2.726,2.726,0,0,1,1.474-2.631c.554-.213,1.185-.577,1.195-1.17a5.817,5.817,0,0,1-.049-.614c.075-.6.889-.752,1.274-1.219.537-.652.082-1.668.377-2.459.193-.516.709-.963.6-1.5a1.125,1.125,0,0,0-.714-.731,8.189,8.189,0,0,1-.985-.395c-.326-.194-.574-.5-.9-.686-.669-.379-1.535-.2-2.23-.527-.615-.29-.99-.924-1.536-1.331a2.449,2.449,0,0,0-1.743-.46,4.68,4.68,0,0,1-1.688.2c-.625-.159-1.045-.8-1.675-.94-1.118-.249-2.016,1.175-3.16,1.127-.236-.01-.466-.085-.7-.086-1.229-.005-1.564,1.994-2.832,1.587a3.628,3.628,0,0,0-.423-.158,1.052,1.052,0,0,0-.646.145,5.465,5.465,0,0,0-1.922,1.726c-.437.574-.532,1.322-1.011,1.87-.217.249-.5.435-.713.687a2.177,2.177,0,0,0-.436,1.684,4.09,4.09,0,0,0,.664,1.648,2.523,2.523,0,0,1,.334,1.628,5.765,5.765,0,0,0,.529,1.6c.15.516-.113,1.143.089,1.622A.827.827,0,0,0,810.8,170.5Z" transform="translate(-808.797 -154.948)" fill="#fff" stroke="#161615" stroke-miterlimit="10" stroke-width="0.5"/>
      </g>
    </g>
    <g id="Group_278" data-name="Group 278" transform="translate(-11322.504 -6504.284)">
      <g id="Group_227" data-name="Group 227" transform="translate(0.048)">
        <path id="Path_206" data-name="Path 206" d="M945.614,202.955c-1.264-3.935-4.205-6.3-9-7.234a10.918,10.918,0,0,1-2.505-.6,10.564,10.564,0,0,1-2-.99h0l-.239-.151a9.442,9.442,0,0,1-1.586-1.152v-7.966l.063-.052a5.293,5.293,0,0,0,1.122-1.246l2.991-1.158v-.594a3.179,3.179,0,0,0,.283-.18l.156.6,2.067-.8c.536-4.02-.47-6.007-1.876-8.567-2.852-5.188-4.163-8.6-9.479-7.289-7.348-1.1-8.2,2.5-10.582,8.638-.722,1.861-1.875,3.036-1.6,5.2a4.391,4.391,0,0,0,2.951,3.61,7.551,7.551,0,0,0,.966.254v2.26a.575.575,0,1,0,.134,0V183.3a8.979,8.979,0,0,0,1.562.14,6.982,6.982,0,0,0,.7.775c.129.127.24.236.336.349.115.136.2.221.238.264v8a11.1,11.1,0,0,1-2.088,1.464h0a10.635,10.635,0,0,1-2.024.931,10.926,10.926,0,0,1-2.226.5c-4.789.932-7.731,3.3-8.994,7.233a.069.069,0,0,0,.01.061.069.069,0,0,0,.055.028h40.5a.069.069,0,0,0,.065-.09Z" transform="translate(-904.976 -165.292)" fill="#fff"/>
      </g>
      <g id="Group_228" data-name="Group 228" transform="translate(23.338 11.072)">
        <ellipse id="Ellipse_25" data-name="Ellipse 25" cx="0.425" cy="0.708" rx="0.425" ry="0.708" fill="#1a1818"/>
      </g>
      <g id="Group_229" data-name="Group 229" transform="translate(25.168 19.418)">
        <path id="Path_207" data-name="Path 207" d="M966.374,220.818a.113.113,0,0,1-.062-.018l-.238-.15a9.321,9.321,0,0,1-1.64-1.2.117.117,0,0,1-.033-.081v-8.023a.117.117,0,0,1,.234,0v7.975a9.562,9.562,0,0,0,1.563,1.131l.239.151a.117.117,0,0,1-.063.215Z" transform="translate(-964.401 -211.229)" fill="#1a1818"/>
      </g>
      <g id="Group_230" data-name="Group 230" transform="translate(13.215 19.388)">
        <path id="Path_208" data-name="Path 208" d="M936.24,220.939a.117.117,0,0,1-.06-.217,11.219,11.219,0,0,0,2.065-1.443v-8.005a.117.117,0,1,1,.233,0v8.053a.117.117,0,0,1-.032.081,11.027,11.027,0,0,1-2.146,1.515A.115.115,0,0,1,936.24,220.939Z" transform="translate(-936.123 -211.157)" fill="#1a1818"/>
      </g>
      <g id="Group_231" data-name="Group 231" transform="translate(12.361 4.794)">
        <path id="Path_209" data-name="Path 209" d="M942.347,194.451a4.188,4.188,0,0,1-2.458-.9c-.205-.149-.424-.3-.656-.461-.5-.349-1.023-.709-1.456-1.077-.233-.2-.455-.395-.659-.587-.042-.039-.14-.144-.264-.29-.094-.111-.2-.22-.333-.346a6,6,0,0,1-1.381-1.9,2.259,2.259,0,0,1-.095-.244,39.389,39.389,0,0,1-.826-5.9v-.007l-.113-5.991a.117.117,0,0,1,.115-.119h0a.116.116,0,0,1,.117.115l.113,5.987a40.069,40.069,0,0,0,.815,5.836,1.986,1.986,0,0,0,.085.219,5.723,5.723,0,0,0,1.333,1.837c.127.125.247.243.347.361.125.147.216.242.246.271.2.189.421.384.651.579.424.361.939.718,1.438,1.063.232.161.452.313.66.464a3.575,3.575,0,0,0,4.876-.24c.172-.149.349-.3.537-.456a15.757,15.757,0,0,0,1.5-1.373.967.967,0,0,1,.1-.088,6.055,6.055,0,0,0,1.807-2.582c.008-.018.016-.039.023-.061a48.105,48.105,0,0,0,.951-5.841l0-.192.109-5.784a.117.117,0,0,1,.117-.115h0a.117.117,0,0,1,.115.119l-.113,5.981v.011a47.232,47.232,0,0,1-.963,5.9c-.008.024-.018.048-.027.07a6.285,6.285,0,0,1-1.876,2.675c-.031.025-.067.055-.075.063a15.928,15.928,0,0,1-1.526,1.4c-.187.157-.364.306-.534.454A4.134,4.134,0,0,1,942.347,194.451Z" transform="translate(-934.105 -176.633)" fill="#1a1818"/>
      </g>
      <g id="Group_232" data-name="Group 232" transform="translate(0.143 28.891)">
        <path id="Path_210" data-name="Path 210" d="M945.7,242.431H905.2a9.546,9.546,0,0,1,4.123-5.4,11.492,11.492,0,0,1,1.4-.741,14.948,14.948,0,0,1,2.564-.859q.415-.1.855-.187.276-.033.545-.078a11.007,11.007,0,0,0,1.691-.428,10.8,10.8,0,0,0,1.338-.556c.243-.12.476-.247.7-.381l.7-.008,2.8-.033,1.4-.016,2.822-.033,1.4-.016,2.821-.033,1.4-.016.465-.005a10.665,10.665,0,0,0,2.017,1q.268.1.547.186a10.885,10.885,0,0,0,1.4.338c.189.034.381.062.574.085a17.149,17.149,0,0,1,2.229.583,13.375,13.375,0,0,1,1.4.558A9.613,9.613,0,0,1,945.7,242.431Z" transform="translate(-905.199 -233.638)" fill="#1a1818"/>
      </g>
      <g id="Group_233" data-name="Group 233" transform="translate(18.903 10.578)">
        <path id="Path_211" data-name="Path 211" d="M950.572,195.1a.117.117,0,0,1-.08-.032c-.738-.7-.981-1.055-.9-1.325.074-.234.371-.331.859-.408v-2.9a.117.117,0,1,1,.234,0v3a.117.117,0,0,1-.1.115c-.216.031-.72.1-.77.262-.073.23.61.873.834,1.084a.117.117,0,0,1-.08.2Z" transform="translate(-949.579 -190.315)" fill="#1a1818"/>
      </g>
      <g id="Group_234" data-name="Group 234" transform="translate(27.123 10.578)">
        <path id="Path_212" data-name="Path 212" d="M969.884,196.709a3.2,3.2,0,0,1-.769-.093.117.117,0,0,1-.081-.153,48.17,48.17,0,0,0,.95-5.84l0-.192a.116.116,0,0,1,.038-.084.118.118,0,0,1,.087-.03,3.2,3.2,0,0,1-.228,6.393Zm-.589-.292a2.967,2.967,0,1,0,.923-5.857v.082A51.721,51.721,0,0,1,969.3,196.417Z" transform="translate(-969.027 -190.315)" fill="#1a1818"/>
      </g>
      <g id="Group_235" data-name="Group 235" transform="translate(22.736 10.915)">
        <path id="Path_213" data-name="Path 213" d="M958.764,192.164a.12.12,0,0,1-.057-.014.117.117,0,0,1-.045-.159,1.606,1.606,0,0,1,.752-.814,1.349,1.349,0,0,1,1,.08c.07.027.139.057.208.086a2.352,2.352,0,0,0,.648.205.117.117,0,1,1-.025.232,2.549,2.549,0,0,1-.714-.222c-.067-.029-.135-.057-.2-.084a1.14,1.14,0,0,0-.829-.079,1.43,1.43,0,0,0-.632.71A.117.117,0,0,1,958.764,192.164Z" transform="translate(-958.647 -191.113)" fill="#1a1818"/>
      </g>
      <g id="Group_236" data-name="Group 236" transform="translate(16.198 11.072)">
        <ellipse id="Ellipse_26" data-name="Ellipse 26" cx="0.425" cy="0.708" rx="0.425" ry="0.708" fill="#1a1818"/>
      </g>
      <g id="Group_237" data-name="Group 237" transform="translate(14.925 10.915)">
        <path id="Path_214" data-name="Path 214" d="M942.779,192.164a.117.117,0,0,1-.1-.06,1.431,1.431,0,0,0-.632-.71,1.141,1.141,0,0,0-.829.079c-.068.027-.135.055-.2.084a2.546,2.546,0,0,1-.714.222.117.117,0,1,1-.025-.232,2.351,2.351,0,0,0,.648-.205c.069-.029.139-.059.208-.086a1.35,1.35,0,0,1,1-.08,1.607,1.607,0,0,1,.752.814.117.117,0,0,1-.045.159A.12.12,0,0,1,942.779,192.164Z" transform="translate(-940.169 -191.113)" fill="#1a1818"/>
      </g>
      <g id="Group_238" data-name="Group 238" transform="translate(19.253 15.78)">
        <path id="Path_215" data-name="Path 215" d="M951.868,204.772a1.8,1.8,0,0,1-.834-.215c-.287-.15-.617-.366-.627-.717-.012-.421.456-.585.736-.682l.052-.018c.273-.1.553-.188.824-.277l.41-.134.008,0h0a1.611,1.611,0,0,1,.554-.1.726.726,0,0,1,.561.258.521.521,0,0,1,.1.4,2.248,2.248,0,0,1-.8,1.154A1.608,1.608,0,0,1,951.868,204.772Zm.643-1.825-.008,0-.411.135c-.27.088-.549.179-.818.275l-.053.018c-.309.108-.586.224-.58.456s.271.4.5.517a1.42,1.42,0,0,0,1.565-.1,2.05,2.05,0,0,0,.711-1,.291.291,0,0,0-.051-.227.5.5,0,0,0-.383-.168A1.44,1.44,0,0,0,952.511,202.947Z" transform="translate(-950.407 -202.621)" fill="#1a1818"/>
      </g>
      <g id="Group_239" data-name="Group 239" transform="translate(14.304 8.706)">
        <path id="Path_216" data-name="Path 216" d="M941.887,187.191a2.745,2.745,0,0,0,.864.288.706.706,0,0,0,.739-.417.774.774,0,0,0-.339-.785,2.7,2.7,0,0,0-2.108-.323,6.4,6.4,0,0,0-1.515.418c-.175.075-1.239.635-.658.647a6.583,6.583,0,0,0,.749-.182,3.9,3.9,0,0,1,.776-.017A4.674,4.674,0,0,1,941.887,187.191Z" transform="translate(-938.7 -185.886)" fill="#1a1818"/>
      </g>
      <g id="Group_240" data-name="Group 240" transform="translate(21.502 8.706)">
        <path id="Path_217" data-name="Path 217" d="M957.355,187.191a2.744,2.744,0,0,1-.864.288.706.706,0,0,1-.739-.417.774.774,0,0,1,.338-.785,2.7,2.7,0,0,1,2.108-.323,6.4,6.4,0,0,1,1.515.418c.175.075,1.239.635.658.647a6.58,6.58,0,0,1-.749-.182,3.9,3.9,0,0,0-.776-.017A4.675,4.675,0,0,0,957.355,187.191Z" transform="translate(-955.729 -185.886)" fill="#1a1818"/>
      </g>
      <g id="Group_241" data-name="Group 241" transform="translate(8.453)">
        <path id="Path_218" data-name="Path 218" d="M948.441,181.431l-2.067.8-.439-1.7V182.4l-4.3,1.665c1.589-3.616,1.692-8.138,1.089-12.965l-.97,2.751h-1.82l-.35-2.449-.606,2.449H936.8l-.321-2.285-.372,2.285H930.93l-.42-3.032c-.047.849-.074,1.7-.1,2.548a20,20,0,0,1,.077,2.213,1.776,1.776,0,0,1-1.1,1.331,19.577,19.577,0,0,0,1.263,6.525,8.632,8.632,0,0,1-2.8-.418,4.391,4.391,0,0,1-2.951-3.61c-.272-2.159.882-3.334,1.6-5.2,2.381-6.14,3.234-9.743,10.582-8.638,5.316-1.315,6.628,2.1,9.479,7.289C947.971,175.424,948.978,177.411,948.441,181.431Z" transform="translate(-924.859 -165.292)" fill="#1a1818"/>
      </g>
      <g id="Group_242" data-name="Group 242" transform="translate(9.603 10.688)">
        <path id="Path_219" data-name="Path 219" d="M931.388,196.658a3.084,3.084,0,1,1-.825-6.081l0,.213A40.1,40.1,0,0,0,931.388,196.658Z" transform="translate(-927.579 -190.577)" fill="#fff"/>
      </g>
      <g id="Group_243" data-name="Group 243" transform="translate(4.265 31.543)">
        <path id="Path_220" data-name="Path 220" d="M916.352,239.911v6.142h-1.4v-5.4A11.472,11.472,0,0,1,916.352,239.911Z" transform="translate(-914.952 -239.911)" fill="#fff"/>
      </g>
      <g id="Group_244" data-name="Group 244" transform="translate(8.229 30.419)">
        <path id="Path_221" data-name="Path 221" d="M925.728,237.252v7.266h-1.4v-7q.415-.1.855-.187C925.367,237.308,925.548,237.282,925.728,237.252Z" transform="translate(-924.328 -237.252)" fill="#fff"/>
      </g>
      <g id="Group_245" data-name="Group 245" transform="translate(12.657 29.045)">
        <path id="Path_222" data-name="Path 222" d="M936.2,234v8.639h-1.4v-8.25c.243-.12.476-.247.7-.381Z" transform="translate(-934.804 -234.003)" fill="#fff"/>
      </g>
      <g id="Group_246" data-name="Group 246" transform="translate(16.86 28.996)">
        <path id="Path_223" data-name="Path 223" d="M946.146,233.886v8.688h-1.4V233.9Z" transform="translate(-944.747 -233.886)" fill="#fff"/>
      </g>
      <g id="Group_247" data-name="Group 247" transform="translate(25.302 28.896)">
        <path id="Path_224" data-name="Path 224" d="M966.117,233.651v8.788h-1.4v-8.771Z" transform="translate(-964.717 -233.651)" fill="#fff"/>
      </g>
      <g id="Group_248" data-name="Group 248" transform="translate(21.081 28.946)">
        <path id="Path_225" data-name="Path 225" d="M956.131,233.768v8.738h-1.4v-8.722Z" transform="translate(-954.732 -233.768)" fill="#fff"/>
      </g>
      <g id="Group_249" data-name="Group 249" transform="translate(29.73 30.074)">
        <path id="Path_226" data-name="Path 226" d="M976.593,236.776v7.272h-1.4v-7.61A10.877,10.877,0,0,0,976.593,236.776Z" transform="translate(-975.193 -236.438)" fill="#fff"/>
      </g>
      <g id="Group_250" data-name="Group 250" transform="translate(33.933 31.079)">
        <path id="Path_227" data-name="Path 227" d="M986.535,239.373v6.046h-1.4v-6.6A13.372,13.372,0,0,1,986.535,239.373Z" transform="translate(-985.136 -238.815)" fill="#fff"/>
      </g>
      <g id="Group_251" data-name="Group 251" transform="translate(0 28.774)">
        <path id="Path_228" data-name="Path 228" d="M945.482,242.389h-40.5a.117.117,0,0,1-.111-.153c1.269-3.953,4.223-6.33,9.031-7.266l.008,0a10.828,10.828,0,0,0,2.212-.5,10.624,10.624,0,0,0,2.016-.927.117.117,0,0,1,.058-.017l13.81-.162a.14.14,0,0,1,.064.018,10.492,10.492,0,0,0,1.995.987,10.839,10.839,0,0,0,2.494.6l.008,0c4.807.936,7.761,3.312,9.031,7.266a.117.117,0,0,1-.111.153Zm-40.342-.233h40.181c-1.268-3.773-4.148-6.049-8.8-6.955a11.084,11.084,0,0,1-2.543-.614,10.775,10.775,0,0,1-2.01-.99l-13.743.161a10.858,10.858,0,0,1-2.033.931,11.083,11.083,0,0,1-2.255.511C909.286,236.107,906.407,238.383,905.14,242.155Z" transform="translate(-904.862 -233.362)" fill="#1a1818"/>
      </g>
      <g id="Group_252" data-name="Group 252" transform="translate(23.338 11.072)">
        <ellipse id="Ellipse_27" data-name="Ellipse 27" cx="0.425" cy="0.708" rx="0.425" ry="0.708" fill="#1a1818"/>
      </g>
      <g id="Group_253" data-name="Group 253" transform="translate(25.168 19.418)">
        <path id="Path_229" data-name="Path 229" d="M966.374,220.818a.113.113,0,0,1-.062-.018l-.238-.15a9.321,9.321,0,0,1-1.64-1.2.117.117,0,0,1-.033-.081v-8.023a.117.117,0,0,1,.234,0v7.975a9.562,9.562,0,0,0,1.563,1.131l.239.151a.117.117,0,0,1-.063.215Z" transform="translate(-964.401 -211.229)" fill="#1a1818"/>
      </g>
      <g id="Group_254" data-name="Group 254" transform="translate(13.215 19.388)">
        <path id="Path_230" data-name="Path 230" d="M936.24,220.939a.117.117,0,0,1-.06-.217,11.219,11.219,0,0,0,2.065-1.443v-8.005a.117.117,0,1,1,.233,0v8.053a.117.117,0,0,1-.032.081,11.027,11.027,0,0,1-2.146,1.515A.115.115,0,0,1,936.24,220.939Z" transform="translate(-936.123 -211.157)" fill="#1a1818"/>
      </g>
      <g id="Group_255" data-name="Group 255" transform="translate(12.361 4.794)">
        <path id="Path_231" data-name="Path 231" d="M942.347,194.451a4.188,4.188,0,0,1-2.458-.9c-.205-.149-.424-.3-.656-.461-.5-.349-1.023-.709-1.456-1.077-.233-.2-.455-.395-.659-.587-.042-.039-.14-.144-.264-.29-.094-.111-.2-.22-.333-.346a6,6,0,0,1-1.381-1.9,2.259,2.259,0,0,1-.095-.244,39.389,39.389,0,0,1-.826-5.9v-.007l-.113-5.991a.117.117,0,0,1,.115-.119h0a.116.116,0,0,1,.117.115l.113,5.987a40.069,40.069,0,0,0,.815,5.836,1.986,1.986,0,0,0,.085.219,5.723,5.723,0,0,0,1.333,1.837c.127.125.247.243.347.361.125.147.216.242.246.271.2.189.421.384.651.579.424.361.939.718,1.438,1.063.232.161.452.313.66.464a3.575,3.575,0,0,0,4.876-.24c.172-.149.349-.3.537-.456a15.757,15.757,0,0,0,1.5-1.373.967.967,0,0,1,.1-.088,6.055,6.055,0,0,0,1.807-2.582c.008-.018.016-.039.023-.061a48.105,48.105,0,0,0,.951-5.841l0-.192.109-5.784a.117.117,0,0,1,.117-.115h0a.117.117,0,0,1,.115.119l-.113,5.981v.011a47.232,47.232,0,0,1-.963,5.9c-.008.024-.018.048-.027.07a6.285,6.285,0,0,1-1.876,2.675c-.031.025-.067.055-.075.063a15.928,15.928,0,0,1-1.526,1.4c-.187.157-.364.306-.534.454A4.134,4.134,0,0,1,942.347,194.451Z" transform="translate(-934.105 -176.633)" fill="#1a1818"/>
      </g>
      <g id="Group_256" data-name="Group 256" transform="translate(0.143 28.891)">
        <path id="Path_232" data-name="Path 232" d="M945.7,242.431H905.2a9.546,9.546,0,0,1,4.123-5.4,11.492,11.492,0,0,1,1.4-.741,14.948,14.948,0,0,1,2.564-.859q.415-.1.855-.187.276-.033.545-.078a11.007,11.007,0,0,0,1.691-.428,10.8,10.8,0,0,0,1.338-.556c.243-.12.476-.247.7-.381l.7-.008,2.8-.033,1.4-.016,2.822-.033,1.4-.016,2.821-.033,1.4-.016.465-.005a10.665,10.665,0,0,0,2.017,1q.268.1.547.186a10.885,10.885,0,0,0,1.4.338c.189.034.381.062.574.085a17.149,17.149,0,0,1,2.229.583,13.375,13.375,0,0,1,1.4.558A9.613,9.613,0,0,1,945.7,242.431Z" transform="translate(-905.199 -233.638)" fill="#1a1818"/>
      </g>
      <g id="Group_257" data-name="Group 257" transform="translate(18.903 10.578)">
        <path id="Path_233" data-name="Path 233" d="M950.572,195.1a.117.117,0,0,1-.08-.032c-.738-.7-.981-1.055-.9-1.325.074-.234.371-.331.859-.408v-2.9a.117.117,0,1,1,.234,0v3a.117.117,0,0,1-.1.115c-.216.031-.72.1-.77.262-.073.23.61.873.834,1.084a.117.117,0,0,1-.08.2Z" transform="translate(-949.579 -190.315)" fill="#1a1818"/>
      </g>
      <g id="Group_258" data-name="Group 258" transform="translate(27.123 10.578)">
        <path id="Path_234" data-name="Path 234" d="M969.884,196.709a3.2,3.2,0,0,1-.769-.093.117.117,0,0,1-.081-.153,48.17,48.17,0,0,0,.95-5.84l0-.192a.116.116,0,0,1,.038-.084.118.118,0,0,1,.087-.03,3.2,3.2,0,0,1-.228,6.393Zm-.589-.292a2.967,2.967,0,1,0,.923-5.857v.082A51.721,51.721,0,0,1,969.3,196.417Z" transform="translate(-969.027 -190.315)" fill="#1a1818"/>
      </g>
      <g id="Group_259" data-name="Group 259" transform="translate(22.736 10.915)">
        <path id="Path_235" data-name="Path 235" d="M958.764,192.164a.12.12,0,0,1-.057-.014.117.117,0,0,1-.045-.159,1.606,1.606,0,0,1,.752-.814,1.349,1.349,0,0,1,1,.08c.07.027.139.057.208.086a2.352,2.352,0,0,0,.648.205.117.117,0,1,1-.025.232,2.549,2.549,0,0,1-.714-.222c-.067-.029-.135-.057-.2-.084a1.14,1.14,0,0,0-.829-.079,1.43,1.43,0,0,0-.632.71A.117.117,0,0,1,958.764,192.164Z" transform="translate(-958.647 -191.113)" fill="#1a1818"/>
      </g>
      <g id="Group_260" data-name="Group 260" transform="translate(16.198 11.072)">
        <ellipse id="Ellipse_28" data-name="Ellipse 28" cx="0.425" cy="0.708" rx="0.425" ry="0.708" fill="#1a1818"/>
      </g>
      <g id="Group_261" data-name="Group 261" transform="translate(14.925 10.915)">
        <path id="Path_236" data-name="Path 236" d="M942.779,192.164a.117.117,0,0,1-.1-.06,1.431,1.431,0,0,0-.632-.71,1.141,1.141,0,0,0-.829.079c-.068.027-.135.055-.2.084a2.546,2.546,0,0,1-.714.222.117.117,0,1,1-.025-.232,2.351,2.351,0,0,0,.648-.205c.069-.029.139-.059.208-.086a1.35,1.35,0,0,1,1-.08,1.607,1.607,0,0,1,.752.814.117.117,0,0,1-.045.159A.12.12,0,0,1,942.779,192.164Z" transform="translate(-940.169 -191.113)" fill="#1a1818"/>
      </g>
      <g id="Group_262" data-name="Group 262" transform="translate(19.253 15.78)">
        <path id="Path_237" data-name="Path 237" d="M951.868,204.772a1.8,1.8,0,0,1-.834-.215c-.287-.15-.617-.366-.627-.717-.012-.421.456-.585.736-.682l.052-.018c.273-.1.553-.188.824-.277l.41-.134.008,0h0a1.611,1.611,0,0,1,.554-.1.726.726,0,0,1,.561.258.521.521,0,0,1,.1.4,2.248,2.248,0,0,1-.8,1.154A1.608,1.608,0,0,1,951.868,204.772Zm.643-1.825-.008,0-.411.135c-.27.088-.549.179-.818.275l-.053.018c-.309.108-.586.224-.58.456s.271.4.5.517a1.42,1.42,0,0,0,1.565-.1,2.05,2.05,0,0,0,.711-1,.291.291,0,0,0-.051-.227.5.5,0,0,0-.383-.168A1.44,1.44,0,0,0,952.511,202.947Z" transform="translate(-950.407 -202.621)" fill="#1a1818"/>
      </g>
      <g id="Group_263" data-name="Group 263" transform="translate(14.304 8.706)">
        <path id="Path_238" data-name="Path 238" d="M941.887,187.191a2.745,2.745,0,0,0,.864.288.706.706,0,0,0,.739-.417.774.774,0,0,0-.339-.785,2.7,2.7,0,0,0-2.108-.323,6.4,6.4,0,0,0-1.515.418c-.175.075-1.239.635-.658.647a6.583,6.583,0,0,0,.749-.182,3.9,3.9,0,0,1,.776-.017A4.674,4.674,0,0,1,941.887,187.191Z" transform="translate(-938.7 -185.886)" fill="#1a1818"/>
      </g>
      <g id="Group_264" data-name="Group 264" transform="translate(21.502 8.706)">
        <path id="Path_239" data-name="Path 239" d="M957.355,187.191a2.744,2.744,0,0,1-.864.288.706.706,0,0,1-.739-.417.774.774,0,0,1,.338-.785,2.7,2.7,0,0,1,2.108-.323,6.4,6.4,0,0,1,1.515.418c.175.075,1.239.635.658.647a6.58,6.58,0,0,1-.749-.182,3.9,3.9,0,0,0-.776-.017A4.675,4.675,0,0,0,957.355,187.191Z" transform="translate(-955.729 -185.886)" fill="#1a1818"/>
      </g>
      <g id="Group_265" data-name="Group 265" transform="translate(8.453)">
        <path id="Path_240" data-name="Path 240" d="M948.441,181.431l-2.067.8-.439-1.7V182.4l-4.3,1.665c1.589-3.616,1.692-8.138,1.089-12.965l-.97,2.751h-1.82l-.35-2.449-.606,2.449H936.8l-.321-2.285-.372,2.285H930.93l-.42-3.032c-.047.849-.074,1.7-.1,2.548a20,20,0,0,1,.077,2.213,1.776,1.776,0,0,1-1.1,1.331,19.577,19.577,0,0,0,1.263,6.525,8.632,8.632,0,0,1-2.8-.418,4.391,4.391,0,0,1-2.951-3.61c-.272-2.159.882-3.334,1.6-5.2,2.381-6.14,3.234-9.743,10.582-8.638,5.316-1.315,6.628,2.1,9.479,7.289C947.971,175.424,948.978,177.411,948.441,181.431Z" transform="translate(-924.859 -165.292)" fill="#1a1818"/>
      </g>
      <g id="Group_266" data-name="Group 266" transform="translate(9.603 10.688)">
        <path id="Path_241" data-name="Path 241" d="M931.388,196.658a3.084,3.084,0,1,1-.825-6.081l0,.213A40.1,40.1,0,0,0,931.388,196.658Z" transform="translate(-927.579 -190.577)" fill="#fff"/>
      </g>
      <g id="Group_267" data-name="Group 267" transform="translate(4.265 31.543)">
        <path id="Path_242" data-name="Path 242" d="M916.352,239.911v6.142h-1.4v-5.4A11.472,11.472,0,0,1,916.352,239.911Z" transform="translate(-914.952 -239.911)" fill="#fff"/>
      </g>
      <g id="Group_268" data-name="Group 268" transform="translate(8.229 30.419)">
        <path id="Path_243" data-name="Path 243" d="M925.728,237.252v7.266h-1.4v-7q.415-.1.855-.187C925.367,237.308,925.548,237.282,925.728,237.252Z" transform="translate(-924.328 -237.252)" fill="#fff"/>
      </g>
      <g id="Group_269" data-name="Group 269" transform="translate(12.657 29.045)">
        <path id="Path_244" data-name="Path 244" d="M936.2,234v8.639h-1.4v-8.25c.243-.12.476-.247.7-.381Z" transform="translate(-934.804 -234.003)" fill="#fff"/>
      </g>
      <g id="Group_270" data-name="Group 270" transform="translate(16.86 28.996)">
        <path id="Path_245" data-name="Path 245" d="M946.146,233.886v8.688h-1.4V233.9Z" transform="translate(-944.747 -233.886)" fill="#fff"/>
      </g>
      <g id="Group_271" data-name="Group 271" transform="translate(25.302 28.896)">
        <path id="Path_246" data-name="Path 246" d="M966.117,233.651v8.788h-1.4v-8.771Z" transform="translate(-964.717 -233.651)" fill="#fff"/>
      </g>
      <g id="Group_272" data-name="Group 272" transform="translate(21.081 28.946)">
        <path id="Path_247" data-name="Path 247" d="M956.131,233.768v8.738h-1.4v-8.722Z" transform="translate(-954.732 -233.768)" fill="#fff"/>
      </g>
      <g id="Group_273" data-name="Group 273" transform="translate(29.73 30.074)">
        <path id="Path_248" data-name="Path 248" d="M976.593,236.776v7.272h-1.4v-7.61A10.877,10.877,0,0,0,976.593,236.776Z" transform="translate(-975.193 -236.438)" fill="#fff"/>
      </g>
      <g id="Group_274" data-name="Group 274" transform="translate(33.933 31.079)">
        <path id="Path_249" data-name="Path 249" d="M986.535,239.373v6.046h-1.4v-6.6A13.372,13.372,0,0,1,986.535,239.373Z" transform="translate(-985.136 -238.815)" fill="#fff"/>
      </g>
      <g id="Group_275" data-name="Group 275" transform="translate(0 28.774)">
        <path id="Path_250" data-name="Path 250" d="M945.482,242.389h-40.5a.117.117,0,0,1-.111-.153c1.269-3.953,4.223-6.33,9.031-7.266l.008,0a10.828,10.828,0,0,0,2.212-.5,10.624,10.624,0,0,0,2.016-.927.117.117,0,0,1,.058-.017l13.81-.162a.14.14,0,0,1,.064.018,10.492,10.492,0,0,0,1.995.987,10.839,10.839,0,0,0,2.494.6l.008,0c4.807.936,7.761,3.312,9.031,7.266a.117.117,0,0,1-.111.153Zm-40.342-.233h40.181c-1.268-3.773-4.148-6.049-8.8-6.955a11.084,11.084,0,0,1-2.543-.614,10.775,10.775,0,0,1-2.01-.99l-13.743.161a10.858,10.858,0,0,1-2.033.931,11.083,11.083,0,0,1-2.255.511C909.286,236.107,906.407,238.383,905.14,242.155Z" transform="translate(-904.862 -233.362)" fill="#1a1818"/>
      </g>
      <g id="Group_276" data-name="Group 276" transform="translate(12.361 15.865)">
        <path id="Path_251" data-name="Path 251" d="M934.222,207.309a.117.117,0,0,1-.117-.117v-4.252a.117.117,0,0,1,.233,0v4.252A.117.117,0,0,1,934.222,207.309Z" transform="translate(-934.105 -202.824)" fill="#1a1818"/>
      </g>
      <g id="Group_277" data-name="Group 277" transform="translate(11.855 20.188)">
        <path id="Path_252" data-name="Path 252" d="M933.53,214.3a.624.624,0,1,1,.624-.624A.624.624,0,0,1,933.53,214.3Zm0-1.014a.39.39,0,1,0,.39.39A.391.391,0,0,0,933.53,213.282Z" transform="translate(-932.906 -213.049)" fill="#1a1818"/>
      </g>
    </g>
    <g id="Group_412" data-name="Group 412" transform="translate(-11373.208 -6455.153)">
      <g id="Group_366" data-name="Group 366" transform="translate(0.048)">
        <path id="Path_325" data-name="Path 325" d="M825.664,319.181c-1.263-3.935-4.205-6.3-9-7.235a10.9,10.9,0,0,1-2.505-.6,10.562,10.562,0,0,1-2-.99h0l-.239-.151a9.427,9.427,0,0,1-1.586-1.152v-7.966l.063-.052a5.286,5.286,0,0,0,1.122-1.246l2.991-1.158v-.594a3.341,3.341,0,0,0,.282-.18l.156.6,2.068-.8c.536-4.02-.47-6.007-1.877-8.567-2.852-5.188-4.163-8.6-9.479-7.29-7.348-1.1-8.2,2.5-10.582,8.638-.722,1.862-1.875,3.036-1.6,5.2a4.391,4.391,0,0,0,2.951,3.61,7.622,7.622,0,0,0,.966.254l.137.025a8.985,8.985,0,0,0,1.562.14,6.946,6.946,0,0,0,.7.774c.129.127.241.237.336.349.115.136.2.221.238.264v8a11.135,11.135,0,0,1-2.088,1.464h0a10.663,10.663,0,0,1-2.024.931,10.874,10.874,0,0,1-2.227.5c-4.789.932-7.731,3.3-8.994,7.234a.069.069,0,0,0,.065.09h40.5a.068.068,0,0,0,.055-.028A.067.067,0,0,0,825.664,319.181Z" transform="translate(-785.026 -281.518)" fill="#fff"/>
      </g>
      <g id="Group_367" data-name="Group 367" transform="translate(23.339 11.072)">
        <ellipse id="Ellipse_41" data-name="Ellipse 41" cx="0.425" cy="0.708" rx="0.425" ry="0.708" fill="#1a1818"/>
      </g>
      <g id="Group_368" data-name="Group 368" transform="translate(25.168 19.418)">
        <path id="Path_326" data-name="Path 326" d="M846.424,337.045a.117.117,0,0,1-.063-.018l-.238-.151a9.331,9.331,0,0,1-1.639-1.2.116.116,0,0,1-.033-.081v-8.023a.117.117,0,1,1,.234,0v7.975a9.584,9.584,0,0,0,1.563,1.131l.239.151a.117.117,0,0,1-.063.215Z" transform="translate(-844.451 -327.455)" fill="#1a1818"/>
      </g>
      <g id="Group_369" data-name="Group 369" transform="translate(13.215 19.388)">
        <path id="Path_327" data-name="Path 327" d="M816.29,337.166a.117.117,0,0,1-.06-.217,11.2,11.2,0,0,0,2.064-1.442V327.5a.117.117,0,1,1,.233,0v8.054a.115.115,0,0,1-.033.081,11.007,11.007,0,0,1-2.146,1.515A.112.112,0,0,1,816.29,337.166Z" transform="translate(-816.173 -327.384)" fill="#1a1818"/>
      </g>
      <g id="Group_370" data-name="Group 370" transform="translate(12.361 4.794)">
        <path id="Path_328" data-name="Path 328" d="M822.4,310.677a4.186,4.186,0,0,1-2.458-.9c-.206-.149-.424-.3-.656-.461-.5-.348-1.023-.709-1.456-1.077-.233-.2-.455-.4-.66-.587-.042-.04-.14-.145-.264-.29-.094-.111-.2-.22-.333-.346a6.006,6.006,0,0,1-1.381-1.9,2.263,2.263,0,0,1-.095-.244,39.354,39.354,0,0,1-.826-5.9v-.006l-.113-5.991a.117.117,0,0,1,.115-.119h0a.117.117,0,0,1,.117.115l.113,5.987a39.98,39.98,0,0,0,.815,5.836,2.143,2.143,0,0,0,.085.219,5.727,5.727,0,0,0,1.333,1.837c.126.125.246.242.347.361.125.147.216.242.246.271.2.189.421.384.651.579.424.361.939.718,1.438,1.063.232.161.452.314.66.464a3.575,3.575,0,0,0,4.876-.239c.172-.149.349-.3.537-.456a15.744,15.744,0,0,0,1.5-1.373.976.976,0,0,1,.1-.088,6.064,6.064,0,0,0,1.807-2.582c.007-.018.016-.039.023-.061a48.109,48.109,0,0,0,.95-5.842l0-.191.109-5.784a.117.117,0,0,1,.117-.115h0a.117.117,0,0,1,.115.119l-.113,5.981v.011a47.252,47.252,0,0,1-.963,5.9c-.008.023-.018.048-.027.07a6.284,6.284,0,0,1-1.876,2.675c-.031.025-.067.054-.075.063a15.909,15.909,0,0,1-1.526,1.4c-.187.157-.364.306-.534.454A4.133,4.133,0,0,1,822.4,310.677Z" transform="translate(-814.155 -292.859)" fill="#1a1818"/>
      </g>
      <g id="Group_371" data-name="Group 371" transform="translate(0.143 28.891)">
        <path id="Path_329" data-name="Path 329" d="M825.752,358.658h-40.5a9.547,9.547,0,0,1,4.123-5.4,11.567,11.567,0,0,1,1.4-.74,14.928,14.928,0,0,1,2.564-.859q.415-.1.855-.187.275-.033.544-.078a10.961,10.961,0,0,0,1.691-.428,10.809,10.809,0,0,0,1.337-.556q.364-.18.7-.381l.7-.008,2.8-.033,1.4-.016,2.822-.034,1.4-.016,2.821-.033,1.4-.017.465-.005a10.632,10.632,0,0,0,2.017,1c.179.066.361.129.547.186a10.945,10.945,0,0,0,1.4.338c.189.033.381.062.574.084a17.163,17.163,0,0,1,2.229.583,13.379,13.379,0,0,1,1.4.558A9.612,9.612,0,0,1,825.752,358.658Z" transform="translate(-785.249 -349.865)" fill="#1a1818"/>
      </g>
      <g id="Group_372" data-name="Group 372" transform="translate(18.903 10.578)">
        <path id="Path_330" data-name="Path 330" d="M830.622,311.323a.116.116,0,0,1-.08-.032c-.738-.7-.982-1.056-.9-1.324.074-.234.371-.331.859-.407v-2.9a.117.117,0,0,1,.234,0v3a.117.117,0,0,1-.1.116c-.216.031-.72.1-.771.262-.072.229.61.872.834,1.084a.117.117,0,0,1-.08.2Z" transform="translate(-829.629 -306.542)" fill="#1a1818"/>
      </g>
      <g id="Group_373" data-name="Group 373" transform="translate(27.123 10.578)">
        <path id="Path_331" data-name="Path 331" d="M849.934,312.936a3.2,3.2,0,0,1-.769-.093.117.117,0,0,1-.081-.154,48.158,48.158,0,0,0,.95-5.84l0-.191a.116.116,0,0,1,.125-.115,3.2,3.2,0,0,1-.228,6.393Zm-.588-.292a2.968,2.968,0,1,0,.923-5.858v.083A51.57,51.57,0,0,1,849.346,312.644Z" transform="translate(-849.077 -306.542)" fill="#1a1818"/>
      </g>
      <g id="Group_374" data-name="Group 374" transform="translate(22.736 10.915)">
        <path id="Path_332" data-name="Path 332" d="M838.814,308.391a.117.117,0,0,1-.1-.173,1.609,1.609,0,0,1,.752-.814,1.35,1.35,0,0,1,1,.08c.07.027.139.056.209.086a2.346,2.346,0,0,0,.648.205.117.117,0,0,1-.025.232,2.558,2.558,0,0,1-.714-.222c-.067-.029-.134-.057-.2-.084a1.14,1.14,0,0,0-.829-.079,1.43,1.43,0,0,0-.632.71A.117.117,0,0,1,838.814,308.391Z" transform="translate(-838.697 -307.34)" fill="#1a1818"/>
      </g>
      <g id="Group_375" data-name="Group 375" transform="translate(16.198 11.072)">
        <ellipse id="Ellipse_42" data-name="Ellipse 42" cx="0.425" cy="0.708" rx="0.425" ry="0.708" fill="#1a1818"/>
      </g>
      <g id="Group_376" data-name="Group 376" transform="translate(14.925 10.915)">
        <path id="Path_333" data-name="Path 333" d="M822.829,308.391a.117.117,0,0,1-.1-.06,1.429,1.429,0,0,0-.632-.71,1.141,1.141,0,0,0-.829.079c-.068.027-.135.055-.2.084a2.555,2.555,0,0,1-.714.222.117.117,0,1,1-.025-.232,2.35,2.35,0,0,0,.648-.205c.069-.03.139-.059.208-.086a1.35,1.35,0,0,1,1-.08,1.609,1.609,0,0,1,.752.814.117.117,0,0,1-.046.159A.115.115,0,0,1,822.829,308.391Z" transform="translate(-820.219 -307.34)" fill="#1a1818"/>
      </g>
      <g id="Group_377" data-name="Group 377" transform="translate(14.304 8.706)">
        <path id="Path_334" data-name="Path 334" d="M821.938,303.418a2.737,2.737,0,0,0,.864.287.706.706,0,0,0,.739-.416.774.774,0,0,0-.338-.785,2.706,2.706,0,0,0-2.108-.323,6.392,6.392,0,0,0-1.514.418c-.175.075-1.239.635-.659.647a6.562,6.562,0,0,0,.749-.182,3.9,3.9,0,0,1,.776-.017A4.675,4.675,0,0,1,821.938,303.418Z" transform="translate(-818.75 -302.113)" fill="#1a1818"/>
      </g>
      <g id="Group_378" data-name="Group 378" transform="translate(21.502 8.706)">
        <path id="Path_335" data-name="Path 335" d="M837.4,303.418a2.733,2.733,0,0,1-.864.287.706.706,0,0,1-.739-.416.773.773,0,0,1,.339-.785,2.7,2.7,0,0,1,2.108-.323,6.4,6.4,0,0,1,1.515.418c.175.075,1.239.635.658.647a6.544,6.544,0,0,1-.749-.182,3.907,3.907,0,0,0-.776-.017A4.679,4.679,0,0,0,837.4,303.418Z" transform="translate(-835.779 -302.113)" fill="#1a1818"/>
      </g>
      <g id="Group_379" data-name="Group 379" transform="translate(8.453)">
        <path id="Path_336" data-name="Path 336" d="M828.492,297.657l-2.068.8-.439-1.7v1.867l-4.3,1.665c1.589-3.616,1.692-8.137,1.089-12.965l-.971,2.751h-1.82l-.35-2.449-.606,2.449H816.85l-.32-2.285-.373,2.285H810.98l-.42-3.032c-.047.849-.074,1.7-.1,2.548a20.015,20.015,0,0,1,.077,2.213,1.777,1.777,0,0,1-1.1,1.331,19.573,19.573,0,0,0,1.264,6.524,8.631,8.631,0,0,1-2.8-.418,4.391,4.391,0,0,1-2.951-3.61c-.271-2.16.882-3.334,1.6-5.2,2.381-6.14,3.234-9.743,10.582-8.638,5.316-1.314,6.628,2.1,9.479,7.29C828.022,291.65,829.028,293.638,828.492,297.657Z" transform="translate(-804.909 -281.518)" fill="#1a1818"/>
      </g>
      <g id="Group_380" data-name="Group 380" transform="translate(9.603 10.689)">
        <path id="Path_337" data-name="Path 337" d="M811.438,312.884a3.084,3.084,0,1,1-.825-6.08l0,.213A40.087,40.087,0,0,0,811.438,312.884Z" transform="translate(-807.629 -306.804)" fill="#fff"/>
      </g>
      <g id="Group_381" data-name="Group 381" transform="translate(4.265 31.543)">
        <path id="Path_338" data-name="Path 338" d="M796.4,356.138v6.141H795v-5.4A11.582,11.582,0,0,1,796.4,356.138Z" transform="translate(-795.002 -356.138)" fill="#fff"/>
      </g>
      <g id="Group_382" data-name="Group 382" transform="translate(8.229 30.418)">
        <path id="Path_339" data-name="Path 339" d="M805.778,353.478v7.266h-1.4v-7q.415-.1.855-.187Q805.508,353.523,805.778,353.478Z" transform="translate(-804.378 -353.478)" fill="#fff"/>
      </g>
      <g id="Group_383" data-name="Group 383" transform="translate(12.657 29.045)">
        <path id="Path_340" data-name="Path 340" d="M816.254,350.23v8.639h-1.4v-8.25q.364-.18.7-.381Z" transform="translate(-814.854 -350.23)" fill="#fff"/>
      </g>
      <g id="Group_384" data-name="Group 384" transform="translate(16.86 28.996)">
        <path id="Path_341" data-name="Path 341" d="M826.2,350.113V358.8h-1.4v-8.672Z" transform="translate(-824.797 -350.113)" fill="#fff"/>
      </g>
      <g id="Group_385" data-name="Group 385" transform="translate(25.302 28.897)">
        <path id="Path_342" data-name="Path 342" d="M846.167,349.878v8.788h-1.4v-8.771Z" transform="translate(-844.767 -349.878)" fill="#fff"/>
      </g>
      <g id="Group_386" data-name="Group 386" transform="translate(21.081 28.946)">
        <path id="Path_343" data-name="Path 343" d="M836.182,349.995v8.738h-1.4v-8.722Z" transform="translate(-834.782 -349.995)" fill="#fff"/>
      </g>
      <g id="Group_387" data-name="Group 387" transform="translate(29.73 30.075)">
        <path id="Path_344" data-name="Path 344" d="M856.643,353v7.271h-1.4v-7.609A10.953,10.953,0,0,0,856.643,353Z" transform="translate(-855.243 -352.665)" fill="#fff"/>
      </g>
      <g id="Group_388" data-name="Group 388" transform="translate(33.933 31.079)">
        <path id="Path_345" data-name="Path 345" d="M866.585,355.6v6.046h-1.4v-6.6A13.379,13.379,0,0,1,866.585,355.6Z" transform="translate(-865.186 -355.042)" fill="#fff"/>
      </g>
      <g id="Group_389" data-name="Group 389" transform="translate(0 28.774)">
        <path id="Path_346" data-name="Path 346" d="M825.532,358.616h-40.5a.117.117,0,0,1-.111-.153c1.268-3.953,4.222-6.33,9.03-7.266h.009a10.813,10.813,0,0,0,2.212-.5,10.6,10.6,0,0,0,2.015-.927.12.12,0,0,1,.058-.016l13.81-.162a.134.134,0,0,1,.064.018,10.469,10.469,0,0,0,1.995.986,10.831,10.831,0,0,0,2.494.6h.008c4.808.936,7.762,3.313,9.031,7.266a.117.117,0,0,1-.111.153Zm-40.342-.234h40.181c-1.267-3.772-4.148-6.049-8.8-6.955a11.115,11.115,0,0,1-2.543-.614,10.759,10.759,0,0,1-2.009-.99l-13.744.162a10.891,10.891,0,0,1-2.033.931,11.084,11.084,0,0,1-2.255.512C789.336,352.334,786.456,354.61,785.19,358.382Z" transform="translate(-784.912 -349.589)" fill="#1a1818"/>
      </g>
      <g id="Group_390" data-name="Group 390" transform="translate(23.339 11.072)">
        <ellipse id="Ellipse_43" data-name="Ellipse 43" cx="0.425" cy="0.708" rx="0.425" ry="0.708" fill="#1a1818"/>
      </g>
      <g id="Group_391" data-name="Group 391" transform="translate(25.168 19.418)">
        <path id="Path_347" data-name="Path 347" d="M846.424,337.045a.117.117,0,0,1-.063-.018l-.238-.151a9.331,9.331,0,0,1-1.639-1.2.116.116,0,0,1-.033-.081v-8.023a.117.117,0,1,1,.234,0v7.975a9.584,9.584,0,0,0,1.563,1.131l.239.151a.117.117,0,0,1-.063.215Z" transform="translate(-844.451 -327.455)" fill="#1a1818"/>
      </g>
      <g id="Group_392" data-name="Group 392" transform="translate(13.215 19.388)">
        <path id="Path_348" data-name="Path 348" d="M816.29,337.166a.117.117,0,0,1-.06-.217,11.2,11.2,0,0,0,2.064-1.442V327.5a.117.117,0,1,1,.233,0v8.054a.115.115,0,0,1-.033.081,11.007,11.007,0,0,1-2.146,1.515A.112.112,0,0,1,816.29,337.166Z" transform="translate(-816.173 -327.384)" fill="#1a1818"/>
      </g>
      <g id="Group_393" data-name="Group 393" transform="translate(12.361 4.794)">
        <path id="Path_349" data-name="Path 349" d="M822.4,310.677a4.186,4.186,0,0,1-2.458-.9c-.206-.149-.424-.3-.656-.461-.5-.348-1.023-.709-1.456-1.077-.233-.2-.455-.4-.66-.587-.042-.04-.14-.145-.264-.29-.094-.111-.2-.22-.333-.346a6.006,6.006,0,0,1-1.381-1.9,2.263,2.263,0,0,1-.095-.244,39.354,39.354,0,0,1-.826-5.9v-.006l-.113-5.991a.117.117,0,0,1,.115-.119h0a.117.117,0,0,1,.117.115l.113,5.987a39.98,39.98,0,0,0,.815,5.836,2.143,2.143,0,0,0,.085.219,5.727,5.727,0,0,0,1.333,1.837c.126.125.246.242.347.361.125.147.216.242.246.271.2.189.421.384.651.579.424.361.939.718,1.438,1.063.232.161.452.314.66.464a3.575,3.575,0,0,0,4.876-.239c.172-.149.349-.3.537-.456a15.744,15.744,0,0,0,1.5-1.373.976.976,0,0,1,.1-.088,6.064,6.064,0,0,0,1.807-2.582c.007-.018.016-.039.023-.061a48.109,48.109,0,0,0,.95-5.842l0-.191.109-5.784a.117.117,0,0,1,.117-.115h0a.117.117,0,0,1,.115.119l-.113,5.981v.011a47.252,47.252,0,0,1-.963,5.9c-.008.023-.018.048-.027.07a6.284,6.284,0,0,1-1.876,2.675c-.031.025-.067.054-.075.063a15.909,15.909,0,0,1-1.526,1.4c-.187.157-.364.306-.534.454A4.133,4.133,0,0,1,822.4,310.677Z" transform="translate(-814.155 -292.859)" fill="#1a1818"/>
      </g>
      <g id="Group_394" data-name="Group 394" transform="translate(0.143 28.891)">
        <path id="Path_350" data-name="Path 350" d="M825.752,358.658h-40.5a9.547,9.547,0,0,1,4.123-5.4,11.567,11.567,0,0,1,1.4-.74,14.928,14.928,0,0,1,2.564-.859q.415-.1.855-.187.275-.033.544-.078a10.961,10.961,0,0,0,1.691-.428,10.809,10.809,0,0,0,1.337-.556q.364-.18.7-.381l.7-.008,2.8-.033,1.4-.016,2.822-.034,1.4-.016,2.821-.033,1.4-.017.465-.005a10.632,10.632,0,0,0,2.017,1c.179.066.361.129.547.186a10.945,10.945,0,0,0,1.4.338c.189.033.381.062.574.084a17.163,17.163,0,0,1,2.229.583,13.379,13.379,0,0,1,1.4.558A9.612,9.612,0,0,1,825.752,358.658Z" transform="translate(-785.249 -349.865)" fill="#1a1818"/>
      </g>
      <g id="Group_395" data-name="Group 395" transform="translate(18.903 10.578)">
        <path id="Path_351" data-name="Path 351" d="M830.622,311.323a.116.116,0,0,1-.08-.032c-.738-.7-.982-1.056-.9-1.324.074-.234.371-.331.859-.407v-2.9a.117.117,0,0,1,.234,0v3a.117.117,0,0,1-.1.116c-.216.031-.72.1-.771.262-.072.229.61.872.834,1.084a.117.117,0,0,1-.08.2Z" transform="translate(-829.629 -306.542)" fill="#1a1818"/>
      </g>
      <g id="Group_396" data-name="Group 396" transform="translate(27.123 10.578)">
        <path id="Path_352" data-name="Path 352" d="M849.934,312.936a3.2,3.2,0,0,1-.769-.093.117.117,0,0,1-.081-.154,48.158,48.158,0,0,0,.95-5.84l0-.191a.116.116,0,0,1,.125-.115,3.2,3.2,0,0,1-.228,6.393Zm-.588-.292a2.968,2.968,0,1,0,.923-5.858v.083A51.57,51.57,0,0,1,849.346,312.644Z" transform="translate(-849.077 -306.542)" fill="#1a1818"/>
      </g>
      <g id="Group_397" data-name="Group 397" transform="translate(22.736 10.915)">
        <path id="Path_353" data-name="Path 353" d="M838.814,308.391a.117.117,0,0,1-.1-.173,1.609,1.609,0,0,1,.752-.814,1.35,1.35,0,0,1,1,.08c.07.027.139.056.209.086a2.346,2.346,0,0,0,.648.205.117.117,0,0,1-.025.232,2.558,2.558,0,0,1-.714-.222c-.067-.029-.134-.057-.2-.084a1.14,1.14,0,0,0-.829-.079,1.43,1.43,0,0,0-.632.71A.117.117,0,0,1,838.814,308.391Z" transform="translate(-838.697 -307.34)" fill="#1a1818"/>
      </g>
      <g id="Group_398" data-name="Group 398" transform="translate(16.198 11.072)">
        <ellipse id="Ellipse_44" data-name="Ellipse 44" cx="0.425" cy="0.708" rx="0.425" ry="0.708" fill="#1a1818"/>
      </g>
      <g id="Group_399" data-name="Group 399" transform="translate(14.925 10.915)">
        <path id="Path_354" data-name="Path 354" d="M822.829,308.391a.117.117,0,0,1-.1-.06,1.429,1.429,0,0,0-.632-.71,1.141,1.141,0,0,0-.829.079c-.068.027-.135.055-.2.084a2.555,2.555,0,0,1-.714.222.117.117,0,1,1-.025-.232,2.35,2.35,0,0,0,.648-.205c.069-.03.139-.059.208-.086a1.35,1.35,0,0,1,1-.08,1.609,1.609,0,0,1,.752.814.117.117,0,0,1-.046.159A.115.115,0,0,1,822.829,308.391Z" transform="translate(-820.219 -307.34)" fill="#1a1818"/>
      </g>
      <g id="Group_400" data-name="Group 400" transform="translate(14.304 8.706)">
        <path id="Path_355" data-name="Path 355" d="M821.938,303.418a2.737,2.737,0,0,0,.864.287.706.706,0,0,0,.739-.416.774.774,0,0,0-.338-.785,2.706,2.706,0,0,0-2.108-.323,6.392,6.392,0,0,0-1.514.418c-.175.075-1.239.635-.659.647a6.562,6.562,0,0,0,.749-.182,3.9,3.9,0,0,1,.776-.017A4.675,4.675,0,0,1,821.938,303.418Z" transform="translate(-818.75 -302.113)" fill="#1a1818"/>
      </g>
      <g id="Group_401" data-name="Group 401" transform="translate(21.502 8.706)">
        <path id="Path_356" data-name="Path 356" d="M837.4,303.418a2.733,2.733,0,0,1-.864.287.706.706,0,0,1-.739-.416.773.773,0,0,1,.339-.785,2.7,2.7,0,0,1,2.108-.323,6.4,6.4,0,0,1,1.515.418c.175.075,1.239.635.658.647a6.544,6.544,0,0,1-.749-.182,3.907,3.907,0,0,0-.776-.017A4.679,4.679,0,0,0,837.4,303.418Z" transform="translate(-835.779 -302.113)" fill="#1a1818"/>
      </g>
      <g id="Group_402" data-name="Group 402" transform="translate(8.453)">
        <path id="Path_357" data-name="Path 357" d="M828.492,297.657l-2.068.8-.439-1.7v1.867l-4.3,1.665c1.589-3.616,1.692-8.137,1.089-12.965l-.971,2.751h-1.82l-.35-2.449-.606,2.449H816.85l-.32-2.285-.373,2.285H810.98l-.42-3.032c-.047.849-.074,1.7-.1,2.548a20.015,20.015,0,0,1,.077,2.213,1.777,1.777,0,0,1-1.1,1.331,19.573,19.573,0,0,0,1.264,6.524,8.631,8.631,0,0,1-2.8-.418,4.391,4.391,0,0,1-2.951-3.61c-.271-2.16.882-3.334,1.6-5.2,2.381-6.14,3.234-9.743,10.582-8.638,5.316-1.314,6.628,2.1,9.479,7.29C828.022,291.65,829.028,293.638,828.492,297.657Z" transform="translate(-804.909 -281.518)" fill="#fff" stroke="#161615" stroke-miterlimit="10" stroke-width="0.5"/>
      </g>
      <g id="Group_403" data-name="Group 403" transform="translate(9.603 10.689)">
        <path id="Path_358" data-name="Path 358" d="M811.438,312.884a3.084,3.084,0,1,1-.825-6.08l0,.213A40.087,40.087,0,0,0,811.438,312.884Z" transform="translate(-807.629 -306.804)" fill="#fff"/>
      </g>
      <g id="Group_404" data-name="Group 404" transform="translate(4.265 31.543)">
        <path id="Path_359" data-name="Path 359" d="M796.4,356.138v6.141H795v-5.4A11.582,11.582,0,0,1,796.4,356.138Z" transform="translate(-795.002 -356.138)" fill="#fff"/>
      </g>
      <g id="Group_405" data-name="Group 405" transform="translate(12.657 29.045)">
        <path id="Path_360" data-name="Path 360" d="M816.254,350.23v8.639h-1.4v-8.25q.364-.18.7-.381Z" transform="translate(-814.854 -350.23)" fill="#fff"/>
      </g>
      <g id="Group_406" data-name="Group 406" transform="translate(21.081 28.946)">
        <path id="Path_361" data-name="Path 361" d="M836.182,349.995v8.738h-1.4v-8.722Z" transform="translate(-834.782 -349.995)" fill="#fff"/>
      </g>
      <g id="Group_407" data-name="Group 407" transform="translate(29.73 30.075)">
        <path id="Path_362" data-name="Path 362" d="M856.643,353v7.271h-1.4v-7.609A10.953,10.953,0,0,0,856.643,353Z" transform="translate(-855.243 -352.665)" fill="#fff"/>
      </g>
      <g id="Group_408" data-name="Group 408" transform="translate(37.42 33.008)">
        <path id="Path_363" data-name="Path 363" d="M874.692,360.919l.143,3.361h-1.4V359.6C873.933,359.772,874.256,360.715,874.692,360.919Z" transform="translate(-873.436 -359.605)" fill="#fff"/>
      </g>
      <g id="Group_409" data-name="Group 409" transform="translate(0 28.774)">
        <path id="Path_364" data-name="Path 364" d="M825.532,358.616h-40.5a.117.117,0,0,1-.111-.153c1.268-3.953,4.222-6.33,9.03-7.266h.009a10.813,10.813,0,0,0,2.212-.5,10.6,10.6,0,0,0,2.015-.927.12.12,0,0,1,.058-.016l13.81-.162a.134.134,0,0,1,.064.018,10.469,10.469,0,0,0,1.995.986,10.831,10.831,0,0,0,2.494.6h.008c4.808.936,7.762,3.313,9.031,7.266a.117.117,0,0,1-.111.153Zm-40.342-.234h40.181c-1.267-3.772-4.148-6.049-8.8-6.955a11.115,11.115,0,0,1-2.543-.614,10.759,10.759,0,0,1-2.009-.99l-13.744.162a10.891,10.891,0,0,1-2.033.931,11.084,11.084,0,0,1-2.255.512C789.336,352.334,786.456,354.61,785.19,358.382Z" transform="translate(-784.912 -349.589)" fill="#1a1818"/>
      </g>
      <g id="Group_410" data-name="Group 410" transform="translate(17.83 17.382)">
        <path id="Path_365" data-name="Path 365" d="M829.478,323.267a7.233,7.233,0,0,1-2.306-.4.117.117,0,1,1,.074-.221,6.243,6.243,0,0,0,4.329,0,.117.117,0,1,1,.082.219A6.13,6.13,0,0,1,829.478,323.267Z" transform="translate(-827.092 -322.639)" fill="#1a1818"/>
      </g>
      <g id="Group_411" data-name="Group 411" transform="translate(18.122 16.839)">
        <path id="Path_366" data-name="Path 366" d="M829.832,323.4a2.75,2.75,0,0,1-2.022-1.224.117.117,0,0,1,.023-.17l.564-.4a1.33,1.33,0,0,1,1.417-.073l.039-.022a1.338,1.338,0,0,1,1.44.1l.53.395a.117.117,0,0,1,.046.079.118.118,0,0,1-.025.088,2.726,2.726,0,0,1-2.008,1.224Zm-1.761-1.275a2.447,2.447,0,0,0,1.761,1.042h0a2.427,2.427,0,0,0,1.75-1.044l-.432-.321a1.1,1.1,0,0,0-1.187-.082l-.1.054a.117.117,0,0,1-.118,0,1.1,1.1,0,0,0-1.219.031Z" transform="translate(-827.783 -321.354)" fill="#1a1818"/>
      </g>
    </g>
    <g id="Group_436" data-name="Group 436" transform="translate(-11323.174 -6457.664)">
      <g id="Group_413" data-name="Group 413">
        <path id="Path_367" data-name="Path 367" d="M947.6,315c-1.392-3.891-4.621-6.228-9.874-7.146l-.025,0a12.8,12.8,0,0,1-2.668-.577,11.881,11.881,0,0,1-2.134-.946,9.426,9.426,0,0,1-1.649-1.178V295.147a.268.268,0,0,0-.044-.147l0-.005.026-.033.07-.089.014-.018a10.93,10.93,0,0,0,1.119-1.731,3.46,3.46,0,0,0,1.316.258,3.495,3.495,0,0,0,.453-6.96,1.928,1.928,0,0,0-.258-1.427c.042.054.417-.657.443-.71a2.191,2.191,0,0,0,.178-1.092c-.008-.115-.144-.961-.345-.933,1.387-.667.508-2.793-.37-2.585.758-.489.435-2.928-1.34-2.5a1.287,1.287,0,0,0-.782-.967,1.209,1.209,0,0,0-1.223.255,1.389,1.389,0,0,0-1.185-.732,7.243,7.243,0,0,0-1.261.495,1.912,1.912,0,0,0-2.6-.25,1.806,1.806,0,0,0-2.524.328c.179-.252-1.339-.6-1.477-.6a1.94,1.94,0,0,0-1.5.71,1.577,1.577,0,0,0-2.129,1.56c-.533-.092-1.068.545-1.169,1.02a1.064,1.064,0,0,0,.344,1.011,1.425,1.425,0,0,0-.933,1.145,2.016,2.016,0,0,0,.4,1.465c-.457.263-.542,1.012-.525,1.479a2.02,2.02,0,0,0,.531,1.335,1.5,1.5,0,0,0-.213.98,3.495,3.495,0,1,0,1.974,6.564,7.934,7.934,0,0,0,1.293,1.891l.081.087.051.055a.267.267,0,0,0-.04.14v10.005a9.74,9.74,0,0,1-1.922,1.328l-.009,0a11.992,11.992,0,0,1-2.155.889,12.832,12.832,0,0,1-2.366.481l-.025,0c-5.252.917-8.481,3.254-9.873,7.146a.271.271,0,0,0,.031.244.265.265,0,0,0,.22.118h43.812a.265.265,0,0,0,.219-.116A.274.274,0,0,0,947.6,315Z" transform="translate(-903.276 -275.58)" fill="#fff"/>
      </g>
      <g id="Group_414" data-name="Group 414" transform="translate(24.387 11.206)">
        <ellipse id="Ellipse_45" data-name="Ellipse 45" cx="0.425" cy="0.708" rx="0.425" ry="0.708" fill="#1a1818"/>
      </g>
      <g id="Group_415" data-name="Group 415" transform="translate(17.604 11.275)">
        <ellipse id="Ellipse_46" data-name="Ellipse 46" cx="0.425" cy="0.708" rx="0.425" ry="0.708" fill="#1a1818"/>
      </g>
      <g id="Group_416" data-name="Group 416" transform="translate(22.866 8.68)">
        <path id="Path_368" data-name="Path 368" d="M958.869,297.978a2.359,2.359,0,0,1-1.084-.341.813.813,0,0,1-.388-.879,1.016,1.016,0,0,1,.732-.576,3.185,3.185,0,0,1,1.033-.052,5.649,5.649,0,0,1,1.631.307c.612.235,1.944,1.34.979,1.893-.356.2-.754-.014-1.1-.107A11.729,11.729,0,0,0,958.869,297.978Z" transform="translate(-957.368 -296.113)" fill="#1a1818"/>
      </g>
      <g id="Group_417" data-name="Group 417" transform="translate(15.838 8.68)">
        <path id="Path_369" data-name="Path 369" d="M943.987,297.978a2.357,2.357,0,0,0,1.084-.341.814.814,0,0,0,.388-.879,1.017,1.017,0,0,0-.732-.576,3.186,3.186,0,0,0-1.033-.052,5.651,5.651,0,0,0-1.632.307c-.611.235-1.944,1.34-.979,1.893.356.2.754-.014,1.105-.107A11.718,11.718,0,0,1,943.987,297.978Z" transform="translate(-940.744 -296.113)" fill="#1a1818"/>
      </g>
      <g id="Group_418" data-name="Group 418" transform="translate(13.988 3.356)">
        <path id="Path_370" data-name="Path 370" d="M944.71,302.825h-.118c-2.813-.028-3.829-1.125-5.673-3.117l-.158-.171-.095-.1a7.961,7.961,0,0,1-1.354-2.017,9.389,9.389,0,0,1-.587-1.616,11.188,11.188,0,0,1-.36-2.854v-9.311a.117.117,0,0,1,.117-.117h16.106a.117.117,0,0,1,.117.117v9.311a10.2,10.2,0,0,1-.458,3.011,10.6,10.6,0,0,1-.659,1.628,10.842,10.842,0,0,1-1.176,1.84l-.009.011-.075.1-.027.033-.053.067c-1.639,2.066-2.622,3.147-5.362,3.19h-.176ZM936.6,283.753v9.194a10.95,10.95,0,0,0,.352,2.795,9.176,9.176,0,0,0,.572,1.576,7.73,7.73,0,0,0,1.314,1.958l.1.1.159.171c1.858,2.007,2.791,3.014,5.5,3.042.039,0,.078,0,.117,0h.112l.114,0h.016c2.584-.059,3.487-1.054,5.111-3.1l.052-.066.027-.035.074-.093.009-.011a10.632,10.632,0,0,0,1.151-1.8,10.359,10.359,0,0,0,.644-1.592,9.964,9.964,0,0,0,.448-2.943v-9.194Z" transform="translate(-936.366 -283.52)" fill="#1a1818"/>
      </g>
      <g id="Group_419" data-name="Group 419" transform="translate(22.332 22.424)">
        <path id="Path_371" data-name="Path 371" d="M956.224,328.865a.117.117,0,0,1,0-.233l.109,0h.005a.117.117,0,1,1,.008.233h-.005l-.111,0h0Z" transform="translate(-956.107 -328.629)" fill="#1a1818"/>
      </g>
      <g id="Group_420" data-name="Group 420" transform="translate(9.865 10.833)">
        <path id="Path_372" data-name="Path 372" d="M930.088,308.158a3.475,3.475,0,1,1,.792-6.859.117.117,0,0,1,.09.114v1.746a10.952,10.952,0,0,0,.352,2.795,9.166,9.166,0,0,0,.572,1.576.117.117,0,0,1-.046.15A3.465,3.465,0,0,1,930.088,308.158Zm0-6.716a3.241,3.241,0,1,0,1.549,6.089,9.441,9.441,0,0,1-.541-1.518,11.193,11.193,0,0,1-.36-2.854v-1.652A3.245,3.245,0,0,0,930.088,301.442Z" transform="translate(-926.613 -301.208)" fill="#1a1818"/>
      </g>
      <g id="Group_421" data-name="Group 421" transform="translate(28.989 10.833)">
        <path id="Path_373" data-name="Path 373" d="M973.352,308.158a3.437,3.437,0,0,1-1.428-.306.116.116,0,0,1-.062-.067.118.118,0,0,1,.006-.092,10.31,10.31,0,0,0,.644-1.592,9.959,9.959,0,0,0,.448-2.942v-1.823a.117.117,0,0,1,.107-.116c.091-.008.187-.011.285-.011a3.475,3.475,0,0,1,0,6.95Zm-1.22-.471a3.2,3.2,0,0,0,1.22.238,3.241,3.241,0,0,0,0-6.483c-.054,0-.107,0-.159,0v1.713a10.2,10.2,0,0,1-.458,3.011A10.563,10.563,0,0,1,972.132,307.686Z" transform="translate(-971.855 -301.208)" fill="#1a1818"/>
      </g>
      <g id="Group_422" data-name="Group 422" transform="translate(16.431 19.366)">
        <path id="Path_374" data-name="Path 374" d="M948.106,324.748c-2.3.39-4.441.591-5.959,0v-3.354c2.048,2.205,3.864,3.157,5.785,3.178Z" transform="translate(-942.147 -321.394)" fill="#1a1818"/>
      </g>
      <g id="Group_423" data-name="Group 423" transform="translate(0.02 19.318)">
        <path id="Path_375" data-name="Path 375" d="M947.382,341.726H903.57a.244.244,0,0,1-.2-.109.25.25,0,0,1-.029-.225c1.39-3.884,4.614-6.217,9.858-7.133l.023,0a12.826,12.826,0,0,0,2.37-.481,12.033,12.033,0,0,0,2.16-.891l.008,0a9.764,9.764,0,0,0,1.933-1.336V321.528a.249.249,0,0,1,.247-.249.117.117,0,0,1,0,.233.015.015,0,0,0-.014.016v10.066a.116.116,0,0,1-.038.086,9.941,9.941,0,0,1-2.026,1.409l-.008,0a12.248,12.248,0,0,1-2.194.9,13.064,13.064,0,0,1-2.414.49h0c-5.156.9-8.323,3.183-9.682,6.982a.018.018,0,0,0,0,.016.012.012,0,0,0,.01.006h43.812a.01.01,0,0,0,.009-.005.02.02,0,0,0,0-.018c-1.359-3.8-4.526-6.081-9.683-6.981h0a13.081,13.081,0,0,1-2.722-.589,12.1,12.1,0,0,1-2.179-.966,9.636,9.636,0,0,1-1.74-1.252.116.116,0,0,1-.038-.086V321.528a.015.015,0,0,0-.014-.016.117.117,0,1,1,0-.233.248.248,0,0,1,.247.249v10.014a9.471,9.471,0,0,0,1.66,1.187,11.9,11.9,0,0,0,2.137.947,12.85,12.85,0,0,0,2.672.579l.023,0c5.244.916,8.469,3.249,9.859,7.132a.252.252,0,0,1-.03.227A.244.244,0,0,1,947.382,341.726Zm-9.66-7.237h0Zm-24.494,0h0Zm.02,0Z" transform="translate(-903.324 -321.279)" fill="#1a1818"/>
      </g>
      <g id="Group_424" data-name="Group 424" transform="translate(20.079 10.514)">
        <path id="Path_376" data-name="Path 376" d="M952.186,305.443a.118.118,0,0,1-.056-.014c-1-.552-1.44-1-1.34-1.357.11-.4.8-.462,1.28-.457v-3.045a.117.117,0,0,1,.233,0v3.165a.116.116,0,0,1-.121.117c-.746-.027-1.123.123-1.167.283-.023.084,0,.412,1.228,1.091a.117.117,0,0,1-.056.219Z" transform="translate(-950.775 -300.452)" fill="#1a1818"/>
      </g>
      <g id="Group_425" data-name="Group 425" transform="translate(20.518 15.931)">
        <path id="Path_377" data-name="Path 377" d="M953.3,315.442a1.829,1.829,0,0,1-.9-.213,1.1,1.1,0,0,1-.587-.725.554.554,0,0,1,.208-.484,2.5,2.5,0,0,1,1.166-.464c.089-.019.176-.038.258-.058s.154-.042.244-.069.159-.048.243-.071a1.152,1.152,0,0,1,1.022.053.725.725,0,0,1,.224.551,1.325,1.325,0,0,1-.716,1.175A2.335,2.335,0,0,1,953.3,315.442Zm1.2-1.941a2.017,2.017,0,0,0-.5.084h0c-.083.022-.163.047-.238.069-.093.028-.18.054-.256.073s-.173.039-.264.059a2.342,2.342,0,0,0-1.059.409.33.33,0,0,0-.132.285.9.9,0,0,0,.471.547,1.964,1.964,0,0,0,1.826-.09,1.1,1.1,0,0,0,.6-.97.515.515,0,0,0-.142-.378A.465.465,0,0,0,954.5,313.5Zm-.532-.029h0Z" transform="translate(-951.815 -313.267)" fill="#1a1818"/>
      </g>
      <g id="Group_426" data-name="Group 426" transform="translate(22.332 22.427)">
        <path id="Path_378" data-name="Path 378" d="M956.224,328.868a.117.117,0,1,1,0-.233h.057a.117.117,0,1,1,0,.233Z" transform="translate(-956.107 -328.634)" fill="#1a1818"/>
      </g>
      <g id="Group_427" data-name="Group 427" transform="translate(20.551 16.512)">
        <path id="Path_379" data-name="Path 379" d="M952.011,315.526a.117.117,0,0,1-.024-.231l3.1-.651a.117.117,0,1,1,.048.229l-3.1.651Z" transform="translate(-951.894 -314.641)" fill="#1a1818"/>
      </g>
      <g id="Group_428" data-name="Group 428" transform="translate(14.304 8.563)">
        <path id="Path_380" data-name="Path 380" d="M940.236,302.079a3.121,3.121,0,1,1,3.121-3.121A3.124,3.124,0,0,1,940.236,302.079Zm0-6.009a2.888,2.888,0,1,0,2.888,2.888A2.891,2.891,0,0,0,940.236,296.07Z" transform="translate(-937.115 -295.837)" fill="#1a1818"/>
      </g>
      <g id="Group_429" data-name="Group 429" transform="translate(22.534 8.563)">
        <path id="Path_381" data-name="Path 381" d="M959.705,302.079a3.121,3.121,0,1,1,3.121-3.121A3.125,3.125,0,0,1,959.705,302.079Zm0-6.009a2.888,2.888,0,1,0,2.887,2.888A2.891,2.891,0,0,0,959.705,296.07Z" transform="translate(-956.584 -295.837)" fill="#1a1818"/>
      </g>
      <g id="Group_430" data-name="Group 430" transform="translate(20.313 11.566)">
        <path id="Path_382" data-name="Path 382" d="M953.667,303.629a.115.115,0,0,1-.071-.025,1.473,1.473,0,0,0-2.073,0,.117.117,0,1,1-.153-.176,1.7,1.7,0,0,1,2.369,0,.117.117,0,0,1-.071.21Z" transform="translate(-951.329 -302.941)" fill="#1a1818"/>
      </g>
      <g id="Group_431" data-name="Group 431" transform="translate(28.543 10.833)">
        <path id="Path_383" data-name="Path 383" d="M970.916,302.475a.117.117,0,0,1-.052-.221l2.1-1.033a.117.117,0,0,1,.1.209l-2.1,1.033A.113.113,0,0,1,970.916,302.475Z" transform="translate(-970.799 -301.208)" fill="#1a1818"/>
      </g>
      <g id="Group_432" data-name="Group 432" transform="translate(13.607 11.35)">
        <path id="Path_384" data-name="Path 384" d="M936.339,303.473a.118.118,0,0,1-.085-.037l-.755-.809a.117.117,0,1,1,.17-.159l.756.809a.117.117,0,0,1-.085.2Z" transform="translate(-935.467 -302.43)" fill="#1a1818"/>
      </g>
      <g id="Group_433" data-name="Group 433" transform="translate(12.686 0)">
        <path id="Path_385" data-name="Path 385" d="M950.5,287.315a.991.991,0,0,1-.81-.691,2.932,2.932,0,0,1-.049-1.913,2.231,2.231,0,0,1-.63-2.238,2.077,2.077,0,0,1-2.25.536,2.41,2.41,0,0,1-.7-.593,1.372,1.372,0,0,1-1.133.514,1.26,1.26,0,0,1-1.034-.587,3.785,3.785,0,0,1-1,.624,1.636,1.636,0,0,1-.938.151c-.315-.062-.6-.221-.63-.541a1.083,1.083,0,0,1-.809.558,3.14,3.14,0,0,1-1.017-.039c-.361-.054-.789-.164-.9-.511a1.858,1.858,0,0,1-1.357.652,1.659,1.659,0,0,1-1.334-.482,2.951,2.951,0,0,1-.04,2.016,1.021,1.021,0,0,1-.529.627,1.971,1.971,0,0,1,.211,1.112,1.467,1.467,0,0,1-.352.979c-.638.629-1.479-.177-1.569-.82a1.719,1.719,0,0,1,.185-1.239,2.02,2.02,0,0,1-.531-1.335c-.018-.467.067-1.216.525-1.479a2.016,2.016,0,0,1-.4-1.465,1.425,1.425,0,0,1,.933-1.145,1.065,1.065,0,0,1-.344-1.011c.1-.476.636-1.112,1.169-1.02a1.576,1.576,0,0,1,2.128-1.56,1.942,1.942,0,0,1,1.5-.71c.138,0,1.656.348,1.477.6a1.806,1.806,0,0,1,2.524-.328,1.911,1.911,0,0,1,2.6.249,7.226,7.226,0,0,1,1.261-.495,1.389,1.389,0,0,1,1.185.732,1.209,1.209,0,0,1,1.223-.255,1.287,1.287,0,0,1,.782.967c1.776-.427,2.1,2.013,1.34,2.5.889-.211,1.781,1.972.318,2.61.23-.2.389.783.4.908a2.193,2.193,0,0,1-.178,1.092c-.026.054-.4.764-.443.71C951.8,285.686,951.7,287.416,950.5,287.315Z" transform="translate(-933.286 -275.58)" fill="#1a1818"/>
      </g>
      <g id="Group_434" data-name="Group 434" transform="translate(18.789 14.612)">
        <path id="Path_386" data-name="Path 386" d="M950.53,311.61a2.641,2.641,0,0,1-2.38.858.546.546,0,0,1-.368-.177.416.416,0,0,1,.084-.517,1.218,1.218,0,0,1,.5-.253c.408-.129.815-.263,1.226-.385.323-.1.64-.107.965-.215l1.737-.579a2.281,2.281,0,0,1,.955-.184.307.307,0,0,1,.227.157c.069.145-.025.312-.117.443a2.007,2.007,0,0,1-.283.34,2.223,2.223,0,0,1-1.79.364A.754.754,0,0,0,950.53,311.61Z" transform="translate(-947.724 -310.148)" fill="#1a1818"/>
      </g>
      <g id="Group_435" data-name="Group 435" transform="translate(0.137 24.644)">
        <path id="Path_387" data-name="Path 387" d="M947.647,348.827a.129.129,0,0,1-.106.057H903.73a.128.128,0,0,1-.106-.057.133.133,0,0,1-.016-.122c1.374-3.841,4.571-6.15,9.771-7.057l.008,0a12.938,12.938,0,0,0,2.395-.486,12.151,12.151,0,0,0,2.18-.9h0a9.8,9.8,0,0,0,2-1.392V333.88h11.34v4.989a9.528,9.528,0,0,0,1.719,1.236,11.963,11.963,0,0,0,2.158.957,12.913,12.913,0,0,0,2.7.584l.009,0c5.2.908,8.4,3.216,9.772,7.057A.136.136,0,0,1,947.647,348.827Z" transform="translate(-903.6 -333.88)" fill="#1a1818"/>
      </g>
    </g>
  </g>
</svg>
