<svg xmlns="http://www.w3.org/2000/svg" width="95.139" height="137.351" viewBox="0 0 95.139 137.351">
  <g id="Group_1338" data-name="Group 1338" transform="translate(11679.834 6507.005)" opacity="0.43">
    <g id="Group_7" data-name="Group 7" transform="translate(-11676.95 -6409.426)">
      <path id="Path_16" data-name="Path 16" d="M59.614,296.861a9.67,9.67,0,0,0-3.251-4.793,3.652,3.652,0,0,0-1.043-2.047c-.8-.976-1.942-1.825-2.089-3.078a4.943,4.943,0,0,1,.444-2.15,3.572,3.572,0,0,0,.263-1.836c-.218-1.1-1.329-1.845-1.595-2.936-.4-1.644,1.255-3.164,1.176-4.854-.053-1.13-.864-2.068-1.232-3.139-.7-2.03.262-4.309-.257-6.391a4.648,4.648,0,0,0-1.476-2.39,6.841,6.841,0,0,1-1.6-1.449,8.165,8.165,0,0,1-.525-1.449c-.241-.656-.783-.952-1.211-1.447a5.083,5.083,0,0,0-1.572-1.37,3.186,3.186,0,0,0-2.439-.137,3.394,3.394,0,0,1-.984.3,3.234,3.234,0,0,1-.772-.128,4.262,4.262,0,0,0-2.807.46,8.016,8.016,0,0,0-2.242,1.927,5.038,5.038,0,0,0-5.638,3.456c-.274.872-.49,1.759-.769,2.624a21.613,21.613,0,0,0-1.212,2.8,4.957,4.957,0,0,0,.083,1.7,3.072,3.072,0,0,0-.833,3.894,4.925,4.925,0,0,0-.974,2.046c-.223,1.415.591,2.981-.1,4.236-.362.658-1.058,1.05-1.583,1.589a5.826,5.826,0,0,0-1.272,4.529,3.726,3.726,0,0,1-.188,2.081,3.848,3.848,0,0,1-1.413,1.207,3.306,3.306,0,0,0-1.3,1.332,1.529,1.529,0,0,0,.12,1.508,9.92,9.92,0,0,0-2.28,3.916.034.034,0,0,0,0,.03.035.035,0,0,0,.028.014h40.5a.034.034,0,0,0,.033-.044Z" transform="translate(-19.043 -257.216)" fill="#fff"/>
    </g>
    <g id="Group_8" data-name="Group 8" transform="translate(-11649.729 -6396.842)">
      <path id="Path_17" data-name="Path 17" d="M84.928,293.306a3.136,3.136,0,0,1-1.427-.339.117.117,0,0,1-.055-.149,13.653,13.653,0,0,0,.949-4.065l.024-1.626a.117.117,0,0,1,.1-.114,3.038,3.038,0,0,1,.407-.026,3.16,3.16,0,1,1,0,6.319Zm-1.225-.5a2.9,2.9,0,0,0,1.225.268,2.926,2.926,0,0,0,0-5.852c-.094,0-.186,0-.276.013l-.022,1.528v.008A13.922,13.922,0,0,1,83.7,292.805Z" transform="translate(-83.438 -286.987)" fill="#1a1818"/>
    </g>
    <g id="Group_9" data-name="Group 9" transform="translate(-11679.717 -6460.513)">
      <path id="Path_18" data-name="Path 18" d="M48.425,170.933a13.94,13.94,0,0,1-2.869-.608,12.892,12.892,0,0,1-2.3-1A10.115,10.115,0,0,1,41.381,168V157.558h-.09a10.727,10.727,0,0,0,1.164-1.821,3.358,3.358,0,1,0,1.754-6.4,2.6,2.6,0,0,1,1.146-1.114c.553-.213,1.185-.577,1.195-1.17a5.7,5.7,0,0,1-.049-.614c.074-.6.889-.752,1.274-1.219.537-.652.082-1.668.377-2.458.193-.517.709-.963.6-1.5a1.125,1.125,0,0,0-.714-.731,8.274,8.274,0,0,1-.985-.394c-.326-.194-.574-.5-.9-.686-.669-.378-1.535-.2-2.23-.527-.615-.29-.99-.924-1.536-1.331a2.449,2.449,0,0,0-1.743-.46,4.682,4.682,0,0,1-1.688.2c-.626-.158-1.045-.8-1.675-.94-1.118-.249-2.016,1.175-3.16,1.127-.236-.01-.467-.085-.7-.086-1.229-.005-1.564,1.994-2.832,1.587a3.667,3.667,0,0,0-.423-.158,1.052,1.052,0,0,0-.646.145,5.461,5.461,0,0,0-1.922,1.726c-.437.574-.532,1.322-1.011,1.87-.218.249-.5.435-.713.687a2.178,2.178,0,0,0-.437,1.684,4.105,4.105,0,0,0,.664,1.648,2.517,2.517,0,0,1,.334,1.628,2.55,2.55,0,0,0,.32,1.071l-.06,0a3.358,3.358,0,1,0,1.7,6.254,7.817,7.817,0,0,0,1.334,1.987V168a10.34,10.34,0,0,1-2.181,1.5,13.081,13.081,0,0,1-2.319.937q-.172.051-.347.1l-.1.025c-.086.023-.172.044-.26.066l-.115.027-.25.056-.124.026-.237.046c-.142.027-.286.052-.431.074l-.053.008-.248.035-.077.01q-.152.019-.3.035L22.3,171l-.079.015c-.115.022-.229.044-.341.067l-.024,0-.024.005q-.224.047-.443.1l-.041.009q-.221.051-.436.105l-.051.013q-.211.054-.415.111l-.057.016c-.134.038-.266.077-.4.117l-.058.018c-.129.04-.257.082-.383.123l-.057.019q-.188.064-.371.131l-.052.019q-.184.068-.362.139l-.046.019q-.18.072-.355.148l-.036.016c-.119.052-.236.1-.351.158l-.023.011q-.178.084-.35.171l-.006,0q-.354.179-.683.374l-.01.006c-.106.062-.209.126-.311.19l-.021.014c-.1.063-.2.127-.291.191l-.027.019c-.093.064-.185.129-.274.195l-.03.022q-.133.1-.261.2l-.03.024q-.127.1-.25.205l-.028.024q-.122.105-.241.212l-.025.022c-.079.073-.157.146-.232.221l-.019.018c-.077.077-.153.154-.227.232l-.01.011q-.232.245-.443.5l0,0q-.1.126-.2.254l-.011.015c-.063.083-.124.167-.183.251l-.017.025c-.058.082-.115.166-.17.25l-.02.03c-.054.083-.107.167-.158.252l-.021.034c-.051.084-.1.169-.148.254l-.02.036c-.047.085-.094.172-.139.259l-.018.036q-.068.132-.131.265l-.016.033c-.043.091-.085.182-.125.274l-.012.027c-.041.095-.081.19-.12.286l-.006.017c-.04.1-.079.2-.115.3H58.6C57.31,174.581,54.352,171.947,48.425,170.933Z" transform="translate(-12.498 -136.361)" fill="#fff"/>
    </g>
    <g id="Group_39" data-name="Group 39" transform="translate(-11679.834 -6460.513)">
      <g id="Group_10" data-name="Group 10" transform="translate(20.861 12.233)">
        <path id="Path_19" data-name="Path 19" d="M62.833,170.673a.117.117,0,0,1-.083-.034c-.951-.954-1.312-1.556-1.135-1.894.126-.241.477-.309,1.1-.215v-3.112a.117.117,0,0,1,.233,0v3.25a.117.117,0,0,1-.137.115c-.788-.14-.955,0-.99.07-.054.1-.056.468,1.094,1.621a.117.117,0,0,1-.083.2Z" transform="translate(-61.571 -165.301)" fill="#1a1818"/>
      </g>
      <g id="Group_11" data-name="Group 11" transform="translate(22.005 17.372)">
        <path id="Path_20" data-name="Path 20" d="M65.229,179.211a2.539,2.539,0,0,1-.874-.176.117.117,0,1,1,.081-.219,1.667,1.667,0,0,0,1.365.03,1.915,1.915,0,0,0,.836-1.3.117.117,0,1,1,.226.058,2.129,2.129,0,0,1-.953,1.45A1.45,1.45,0,0,1,65.229,179.211Z" transform="translate(-64.279 -177.457)" fill="#1a1818"/>
      </g>
      <g id="Group_12" data-name="Group 12" transform="translate(25.354 13.212)">
        <ellipse id="Ellipse_1" data-name="Ellipse 1" cx="0.425" cy="0.708" rx="0.425" ry="0.708" fill="#1a1818"/>
      </g>
      <g id="Group_13" data-name="Group 13" transform="translate(18.57 13.281)">
        <ellipse id="Ellipse_2" data-name="Ellipse 2" cx="0.425" cy="0.708" rx="0.425" ry="0.708" fill="#1a1818"/>
      </g>
      <g id="Group_14" data-name="Group 14" transform="translate(16.802 11.051)">
        <path id="Path_21" data-name="Path 21" d="M54.741,164.1a2.012,2.012,0,0,0,.926-.291.7.7,0,0,0,.331-.751.868.868,0,0,0-.625-.492,2.741,2.741,0,0,0-.883-.045,4.842,4.842,0,0,0-1.394.262c-.522.2-1.661,1.145-.837,1.618.3.175.644-.012.944-.091A10.026,10.026,0,0,1,54.741,164.1Z" transform="translate(-51.969 -162.505)" fill="#1a1818"/>
      </g>
      <g id="Group_15" data-name="Group 15" transform="translate(24.177 10.983)">
        <path id="Path_22" data-name="Path 22" d="M70.7,163.936a2.012,2.012,0,0,1-.926-.291.7.7,0,0,1-.331-.751.868.868,0,0,1,.625-.492,2.728,2.728,0,0,1,.883-.045,4.842,4.842,0,0,1,1.394.262c.522.2,1.661,1.145.837,1.618-.3.175-.644-.012-.944-.091A10.024,10.024,0,0,0,70.7,163.936Z" transform="translate(-69.417 -162.342)" fill="#1a1818"/>
      </g>
      <g id="Group_16" data-name="Group 16" transform="translate(13.026)">
        <path id="Path_23" data-name="Path 23" d="M45.039,151.912c.607.309,1.467-.7,1.252-1.5-.109-.407-.45-.74-.481-1.16-.041-.548.454-1,.535-1.54a3.207,3.207,0,0,0-.336-1.4,1.73,1.73,0,0,1,.643-1.86c.721-.373.863.913,1.31,1.181.7.42,1.613-.418,2.381-.139.406.147.644.566,1,.805.84.558,1.956-.012,2.962.051a5.307,5.307,0,0,1,1.373.358,4.954,4.954,0,0,0,2.007.351,2.437,2.437,0,0,0,1.35-.682c.491-.339.73.063.761.545.015.228-.079.445-.07.679a2.221,2.221,0,0,1-.18,1.233,1.661,1.661,0,0,0,.155,1.555,2.3,2.3,0,0,1,.257.38c.2.466-.125,1.116.243,1.467a.81.81,0,0,0,1.153-.1,1.011,1.011,0,0,0,.284-.85,3.978,3.978,0,0,0-.133-.432,2.726,2.726,0,0,1,1.474-2.631c.553-.213,1.185-.577,1.195-1.17a5.7,5.7,0,0,1-.049-.614c.074-.6.889-.752,1.274-1.219.537-.652.082-1.668.377-2.458.193-.517.709-.963.6-1.5a1.125,1.125,0,0,0-.714-.731,8.274,8.274,0,0,1-.985-.394c-.326-.194-.574-.5-.9-.686-.669-.378-1.535-.2-2.23-.527-.615-.29-.99-.924-1.536-1.331a2.449,2.449,0,0,0-1.743-.46,4.682,4.682,0,0,1-1.688.2c-.626-.158-1.045-.8-1.675-.94-1.118-.249-2.016,1.175-3.16,1.127-.236-.01-.467-.085-.7-.086-1.229-.005-1.564,1.994-2.832,1.587a3.667,3.667,0,0,0-.423-.158,1.052,1.052,0,0,0-.646.145,5.461,5.461,0,0,0-1.922,1.726c-.437.574-.532,1.322-1.011,1.87-.218.249-.5.435-.713.687a2.178,2.178,0,0,0-.437,1.684,4.105,4.105,0,0,0,.664,1.648,2.517,2.517,0,0,1,.334,1.628,5.749,5.749,0,0,0,.53,1.6c.15.516-.112,1.143.089,1.622A.826.826,0,0,0,45.039,151.912Z" transform="translate(-43.038 -136.361)" fill="#1a1818"/>
      </g>
      <g id="Group_17" data-name="Group 17" transform="translate(17.869 12.939)">
        <path id="Path_24" data-name="Path 24" d="M54.61,168.1a.12.12,0,0,1-.034-.005.117.117,0,0,1-.077-.146,1.46,1.46,0,0,1,1.038-.974.117.117,0,1,1,.054.227,1.224,1.224,0,0,0-.869.815A.117.117,0,0,1,54.61,168.1Z" transform="translate(-54.494 -166.971)" fill="#1a1818"/>
      </g>
      <g id="Group_18" data-name="Group 18" transform="translate(25.701 12.713)">
        <path id="Path_25" data-name="Path 25" d="M74.075,167.427a.117.117,0,0,1-.108-.071,1.188,1.188,0,0,0-.85-.689.117.117,0,1,1,.044-.23,1.407,1.407,0,0,1,1.022.828.117.117,0,0,1-.062.153A.114.114,0,0,1,74.075,167.427Z" transform="translate(-73.021 -166.435)" fill="#1a1818"/>
      </g>
      <g id="Group_19" data-name="Group 19" transform="translate(0.117 33.965)">
        <path id="Path_26" data-name="Path 26" d="M58.6,224.506H12.5c1.232-3.374,3.976-5.923,9.359-7.034q.4-.082.819-.154.505-.052.992-.138a14.083,14.083,0,0,0,1.553-.368c1.383,3.521,5.4,6.068,10.148,6.068a12.584,12.584,0,0,0,4.4-.778,11.375,11.375,0,0,0,1.664-.774,9.128,9.128,0,0,0,4.128-4.618,13.938,13.938,0,0,0,2.869.608C54.352,218.332,57.31,220.965,58.6,224.506Z" transform="translate(-12.498 -216.71)" fill="#1a1818"/>
      </g>
      <g id="Group_20" data-name="Group 20" transform="translate(28.882 21.08)">
        <path id="Path_27" data-name="Path 27" d="M82.544,198.233a.115.115,0,0,1-.057-.015,10.2,10.2,0,0,1-1.9-1.348.117.117,0,0,1-.038-.086V186.347a.117.117,0,0,1,.234,0v10.386a10.032,10.032,0,0,0,1.819,1.283.117.117,0,0,1-.057.219Z" transform="translate(-80.548 -186.23)" fill="#1a1818"/>
      </g>
      <g id="Group_21" data-name="Group 21" transform="translate(15.042 21.08)">
        <path id="Path_28" data-name="Path 28" d="M47.923,198.4a.117.117,0,0,1-.054-.22,10.363,10.363,0,0,0,2.118-1.443V186.347a.117.117,0,1,1,.233,0v10.437a.117.117,0,0,1-.038.086,10.538,10.538,0,0,1-2.206,1.512A.112.112,0,0,1,47.923,198.4Z" transform="translate(-47.806 -186.23)" fill="#1a1818"/>
      </g>
      <g id="Group_22" data-name="Group 22" transform="translate(12.723 32.85)">
        <path id="Path_29" data-name="Path 29" d="M52.584,221.474a12.287,12.287,0,0,1-6.395-1.731,9.124,9.124,0,0,1-3.861-4.411.117.117,0,0,1,0-.094.118.118,0,0,1,.072-.061,12.96,12.96,0,0,0,2.3-.929.117.117,0,0,1,.095-.006.116.116,0,0,1,.068.066c1.083,2.671,4.185,4.466,7.72,4.466,3.576,0,6.776-1.9,7.781-4.625a.117.117,0,0,1,.167-.061,12.735,12.735,0,0,0,2.275.988.117.117,0,0,1,.074.152,9.2,9.2,0,0,1-3.85,4.483A12.27,12.27,0,0,1,52.584,221.474Zm-9.992-6.109c1.449,3.52,5.446,5.876,9.992,5.876,4.608,0,8.622-2.4,10.034-5.98a12.972,12.972,0,0,1-2.082-.9,6.976,6.976,0,0,1-2.922,3.3,9.7,9.7,0,0,1-5.03,1.348c-3.577,0-6.727-1.8-7.887-4.493A13.209,13.209,0,0,1,42.592,215.365Z" transform="translate(-42.32 -214.074)" fill="#1a1818"/>
      </g>
      <g id="Group_23" data-name="Group 23" transform="translate(14.954 5.362)">
        <path id="Path_30" data-name="Path 30" d="M56,168.352h-.057c-1.94-.021-3.973-1.162-6.043-3.391a7.962,7.962,0,0,1-1.354-2.016,9.4,9.4,0,0,1-.587-1.616,11.193,11.193,0,0,1-.359-2.854v-9.311a.117.117,0,0,1,.117-.117H63.821a.117.117,0,0,1,.117.117v9.311a10.185,10.185,0,0,1-.458,3.011,10.566,10.566,0,0,1-.659,1.628,10.877,10.877,0,0,1-1.176,1.84C59.862,167.209,57.963,168.352,56,168.352ZM47.832,149.28v9.194a10.949,10.949,0,0,0,.352,2.794,9.164,9.164,0,0,0,.572,1.576A7.713,7.713,0,0,0,50.07,164.8c2.024,2.179,4,3.3,5.874,3.316H56c1.889,0,3.727-1.113,5.464-3.31a10.6,10.6,0,0,0,1.151-1.8,10.341,10.341,0,0,0,.644-1.592,9.947,9.947,0,0,0,.448-2.943V149.28Z" transform="translate(-47.599 -149.046)" fill="#1a1818"/>
      </g>
      <g id="Group_24" data-name="Group 24" transform="translate(10.831 12.839)">
        <path id="Path_31" data-name="Path 31" d="M41.32,173.685a3.475,3.475,0,1,1,.792-6.859.116.116,0,0,1,.09.113v1.746a10.949,10.949,0,0,0,.352,2.794,9.163,9.163,0,0,0,.572,1.576.117.117,0,0,1-.046.151A3.47,3.47,0,0,1,41.32,173.685Zm0-6.716a3.241,3.241,0,1,0,1.549,6.089,9.435,9.435,0,0,1-.541-1.518,11.193,11.193,0,0,1-.359-2.854v-1.652A3.252,3.252,0,0,0,41.32,166.968Z" transform="translate(-37.845 -166.735)" fill="#1a1818"/>
      </g>
      <g id="Group_25" data-name="Group 25" transform="translate(29.956 12.839)">
        <path id="Path_32" data-name="Path 32" d="M84.584,173.685a3.436,3.436,0,0,1-1.427-.306.117.117,0,0,1-.056-.159,10.343,10.343,0,0,0,.644-1.592,9.947,9.947,0,0,0,.448-2.942v-1.823a.117.117,0,0,1,.107-.116c.091-.008.187-.011.285-.011a3.475,3.475,0,0,1,0,6.95Zm-1.22-.471a3.21,3.21,0,0,0,1.22.238,3.241,3.241,0,1,0,0-6.483q-.081,0-.159,0v1.713a10.185,10.185,0,0,1-.458,3.011A10.59,10.59,0,0,1,83.364,173.214Z" transform="translate(-83.087 -166.735)" fill="#1a1818"/>
      </g>
      <g id="Group_26" data-name="Group 26" transform="translate(17.34 21.197)">
        <path id="Path_33" data-name="Path 33" d="M59.2,189.861c-2.3.39-4.441.591-5.959,0v-3.355c2.048,2.206,4.038,3.333,5.959,3.354Z" transform="translate(-53.242 -186.506)" fill="#1a1818"/>
      </g>
      <g id="Group_27" data-name="Group 27" transform="translate(5.325 38.481)">
        <circle id="Ellipse_3" data-name="Ellipse 3" cx="0.918" cy="0.918" r="0.918" fill="#fff"/>
      </g>
      <g id="Group_28" data-name="Group 28" transform="translate(9.476 34.434)">
        <path id="Path_34" data-name="Path 34" d="M36.469,218.012a.918.918,0,0,1-1.831.1q.4-.082.819-.154.505-.052.992-.138A.917.917,0,0,1,36.469,218.012Z" transform="translate(-34.638 -217.821)" fill="#fff"/>
      </g>
      <g id="Group_29" data-name="Group 29" transform="translate(12.559 39.399)">
        <circle id="Ellipse_4" data-name="Ellipse 4" cx="0.918" cy="0.918" r="0.918" fill="#fff"/>
      </g>
      <g id="Group_30" data-name="Group 30" transform="translate(20.058 40.842)">
        <path id="Path_35" data-name="Path 35" d="M61.51,233.9H59.673a.918.918,0,0,1,1.837,0Z" transform="translate(-59.673 -232.98)" fill="#fff"/>
      </g>
      <g id="Group_31" data-name="Group 31" transform="translate(27.383 38.582)">
        <path id="Path_36" data-name="Path 36" d="M78.767,228.058a.918.918,0,0,1-1.767.35,11.372,11.372,0,0,0,1.664-.774A.9.9,0,0,1,78.767,228.058Z" transform="translate(-77 -227.634)" fill="#fff"/>
      </g>
      <g id="Group_32" data-name="Group 32" transform="translate(32.256 40.842)">
        <path id="Path_37" data-name="Path 37" d="M90.365,233.9H88.53a.918.918,0,1,1,1.835,0Z" transform="translate(-88.53 -232.98)" fill="#fff"/>
      </g>
      <g id="Group_33" data-name="Group 33" transform="translate(35.466 35.333)">
        <circle id="Ellipse_5" data-name="Ellipse 5" cx="0.918" cy="0.918" r="0.918" fill="#fff"/>
      </g>
      <g id="Group_34" data-name="Group 34" transform="translate(41.132 38.481)">
        <circle id="Ellipse_6" data-name="Ellipse 6" cx="0.918" cy="0.918" r="0.918" fill="#fff"/>
      </g>
      <g id="Group_35" data-name="Group 35" transform="translate(0 33.848)">
        <path id="Path_38" data-name="Path 38" d="M58.444,224.463H12.339a.116.116,0,0,1-.1-.05.118.118,0,0,1-.014-.107c1.444-3.952,4.8-6.328,10.268-7.263H22.5a13.825,13.825,0,0,0,2.524-.5.117.117,0,0,1,.142.069c1.408,3.585,5.442,5.993,10.039,5.993,4.656,0,8.706-2.449,10.078-6.094a.117.117,0,0,1,.145-.07,13.809,13.809,0,0,0,2.845.6h.008c5.465.935,8.824,3.31,10.269,7.263a.117.117,0,0,1-.109.157Zm-45.937-.234H58.276c-1.444-3.771-4.726-6.047-10.026-6.955a14.053,14.053,0,0,1-2.784-.579,9.231,9.231,0,0,1-3.809,4.379,12.676,12.676,0,0,1-12.842.032,9.154,9.154,0,0,1-3.822-4.312,14.087,14.087,0,0,1-2.46.48C17.232,218.181,13.95,220.457,12.507,224.229Z" transform="translate(-12.222 -216.433)" fill="#1a1818"/>
      </g>
      <g id="Group_36" data-name="Group 36" transform="translate(28.882 21.08)">
        <path id="Path_39" data-name="Path 39" d="M82.544,198.233a.115.115,0,0,1-.057-.015,10.2,10.2,0,0,1-1.9-1.348.117.117,0,0,1-.038-.086V186.347a.117.117,0,0,1,.234,0v10.386a10.032,10.032,0,0,0,1.819,1.283.117.117,0,0,1-.057.219Z" transform="translate(-80.548 -186.23)" fill="#1a1818"/>
      </g>
      <g id="Group_37" data-name="Group 37" transform="translate(14.954 5.362)">
        <path id="Path_40" data-name="Path 40" d="M56,168.352h-.057c-1.94-.021-3.973-1.162-6.043-3.391a7.962,7.962,0,0,1-1.354-2.016,9.4,9.4,0,0,1-.587-1.616,11.193,11.193,0,0,1-.359-2.854v-9.311a.117.117,0,0,1,.117-.117H63.821a.117.117,0,0,1,.117.117v9.311a10.185,10.185,0,0,1-.458,3.011,10.566,10.566,0,0,1-.659,1.628,10.877,10.877,0,0,1-1.176,1.84C59.862,167.209,57.963,168.352,56,168.352ZM47.832,149.28v9.194a10.949,10.949,0,0,0,.352,2.794,9.164,9.164,0,0,0,.572,1.576A7.713,7.713,0,0,0,50.07,164.8c2.024,2.179,4,3.3,5.874,3.316H56c1.889,0,3.727-1.113,5.464-3.31a10.6,10.6,0,0,0,1.151-1.8,10.341,10.341,0,0,0,.644-1.592,9.947,9.947,0,0,0,.448-2.943V149.28Z" transform="translate(-47.599 -149.046)" fill="#1a1818"/>
      </g>
      <g id="Group_38" data-name="Group 38" transform="translate(0 33.848)">
        <path id="Path_41" data-name="Path 41" d="M58.444,224.463H12.339a.116.116,0,0,1-.1-.05.118.118,0,0,1-.014-.107c1.444-3.952,4.8-6.328,10.268-7.263H22.5a13.825,13.825,0,0,0,2.524-.5.117.117,0,0,1,.142.069c1.408,3.585,5.442,5.993,10.039,5.993,4.656,0,8.706-2.449,10.078-6.094a.117.117,0,0,1,.145-.07,13.809,13.809,0,0,0,2.845.6h.008c5.465.935,8.824,3.31,10.269,7.263a.117.117,0,0,1-.109.157Zm-45.937-.234H58.276c-1.444-3.771-4.726-6.047-10.026-6.955a14.053,14.053,0,0,1-2.784-.579,9.231,9.231,0,0,1-3.809,4.379,12.676,12.676,0,0,1-12.842.032,9.154,9.154,0,0,1-3.822-4.312,14.087,14.087,0,0,1-2.46.48C17.232,218.181,13.95,220.457,12.507,224.229Z" transform="translate(-12.222 -216.433)" fill="#1a1818"/>
      </g>
    </g>
    <g id="Group_95" data-name="Group 95" transform="translate(-11629.247 -6409.474)">
      <g id="Group_72" data-name="Group 72">
        <path id="Path_71" data-name="Path 71" d="M176.223,296.526c-1.392-3.891-4.622-6.228-9.874-7.145a.127.127,0,0,0-.025,0,12.826,12.826,0,0,1-2.668-.578,11.876,11.876,0,0,1-2.134-.946,9.455,9.455,0,0,1-1.649-1.178V276.671a.269.269,0,0,0-.044-.147l0,0,.026-.033.07-.088.014-.018a10.9,10.9,0,0,0,1.119-1.73,3.46,3.46,0,0,0,1.316.257,3.494,3.494,0,0,0,.453-6.96,1.928,1.928,0,0,0-.258-1.428c.042.054.417-.656.443-.71a2.192,2.192,0,0,0,.178-1.093c-.008-.115-.144-.96-.345-.933,1.387-.667.508-2.793-.37-2.584.758-.489.435-2.929-1.34-2.5a1.287,1.287,0,0,0-.782-.967,1.209,1.209,0,0,0-1.223.255,1.388,1.388,0,0,0-1.185-.731,7.22,7.22,0,0,0-1.261.495,1.912,1.912,0,0,0-2.6-.25,1.806,1.806,0,0,0-2.524.328c.179-.252-1.339-.6-1.477-.6a1.939,1.939,0,0,0-1.5.71,1.576,1.576,0,0,0-2.128,1.56c-.533-.092-1.068.545-1.169,1.02a1.064,1.064,0,0,0,.344,1.01,1.426,1.426,0,0,0-.933,1.145,2.015,2.015,0,0,0,.4,1.465c-.457.264-.542,1.012-.525,1.479a2.02,2.02,0,0,0,.531,1.335,1.494,1.494,0,0,0-.213.98,3.495,3.495,0,1,0,1.974,6.564,7.926,7.926,0,0,0,1.293,1.891l.081.087.051.055a.268.268,0,0,0-.04.14v10.005A9.742,9.742,0,0,1,146.338,288l-.008,0a11.984,11.984,0,0,1-2.155.889,12.793,12.793,0,0,1-2.366.481.128.128,0,0,0-.025,0c-5.252.917-8.481,3.254-9.873,7.146a.272.272,0,0,0,.031.244.265.265,0,0,0,.22.117h43.812a.264.264,0,0,0,.219-.116A.274.274,0,0,0,176.223,296.526Z" transform="translate(-131.894 -257.104)" fill="#fff"/>
      </g>
      <g id="Group_73" data-name="Group 73" transform="translate(24.387 11.206)">
        <ellipse id="Ellipse_9" data-name="Ellipse 9" cx="0.425" cy="0.708" rx="0.425" ry="0.708" fill="#1a1818"/>
      </g>
      <g id="Group_74" data-name="Group 74" transform="translate(17.604 11.275)">
        <ellipse id="Ellipse_10" data-name="Ellipse 10" cx="0.425" cy="0.708" rx="0.425" ry="0.708" fill="#1a1818"/>
      </g>
      <g id="Group_75" data-name="Group 75" transform="translate(22.866 8.68)">
        <path id="Path_72" data-name="Path 72" d="M187.487,279.5a2.354,2.354,0,0,1-1.084-.34.813.813,0,0,1-.388-.879,1.016,1.016,0,0,1,.732-.577,3.2,3.2,0,0,1,1.033-.052,5.65,5.65,0,0,1,1.631.306c.612.235,1.944,1.34.979,1.893-.356.2-.754-.014-1.1-.107A11.781,11.781,0,0,0,187.487,279.5Z" transform="translate(-185.986 -277.637)" fill="#1a1818"/>
      </g>
      <g id="Group_76" data-name="Group 76" transform="translate(15.838 8.68)">
        <path id="Path_73" data-name="Path 73" d="M172.605,279.5a2.353,2.353,0,0,0,1.084-.34.814.814,0,0,0,.388-.879,1.018,1.018,0,0,0-.732-.577,3.2,3.2,0,0,0-1.033-.052,5.65,5.65,0,0,0-1.632.306c-.611.235-1.944,1.34-.979,1.893.356.2.754-.014,1.105-.107A11.768,11.768,0,0,1,172.605,279.5Z" transform="translate(-169.362 -277.637)" fill="#1a1818"/>
      </g>
      <g id="Group_77" data-name="Group 77" transform="translate(13.988 3.356)">
        <path id="Path_74" data-name="Path 74" d="M173.328,284.348h-.118c-2.814-.029-3.829-1.126-5.673-3.117l-.159-.171-.095-.1a7.951,7.951,0,0,1-1.354-2.017,9.407,9.407,0,0,1-.587-1.616,11.173,11.173,0,0,1-.36-2.854V265.16a.117.117,0,0,1,.117-.117h16.106a.117.117,0,0,1,.117.117v9.311a10.2,10.2,0,0,1-.458,3.011,10.614,10.614,0,0,1-.659,1.628,10.882,10.882,0,0,1-1.176,1.84l-.009.011-.075.095-.027.033-.053.067c-1.639,2.066-2.622,3.147-5.363,3.19h-.175Zm-8.111-19.072v9.194a10.95,10.95,0,0,0,.352,2.794,9.174,9.174,0,0,0,.572,1.576,7.7,7.7,0,0,0,1.314,1.958l.1.1.159.171c1.858,2.007,2.791,3.014,5.5,3.041.039,0,.078,0,.117,0h.112l.114,0h.016c2.584-.058,3.487-1.054,5.111-3.1l.052-.065.027-.035.074-.093.009-.012A10.6,10.6,0,0,0,180,279a10.329,10.329,0,0,0,.644-1.592,9.955,9.955,0,0,0,.448-2.942v-9.194Z" transform="translate(-164.984 -265.043)" fill="#1a1818"/>
      </g>
      <g id="Group_78" data-name="Group 78" transform="translate(22.332 22.424)">
        <path id="Path_75" data-name="Path 75" d="M184.841,310.389a.117.117,0,0,1,0-.234l.109,0h.005a.117.117,0,1,1,.008.233h-.006l-.111,0h0Z" transform="translate(-184.724 -310.153)" fill="#1a1818"/>
      </g>
      <g id="Group_79" data-name="Group 79" transform="translate(9.865 10.833)">
        <path id="Path_76" data-name="Path 76" d="M158.706,289.682a3.475,3.475,0,1,1,.792-6.859.117.117,0,0,1,.09.114v1.746a10.952,10.952,0,0,0,.352,2.794,9.179,9.179,0,0,0,.572,1.576.117.117,0,0,1-.046.15A3.466,3.466,0,0,1,158.706,289.682Zm0-6.716a3.241,3.241,0,1,0,1.549,6.089,9.434,9.434,0,0,1-.541-1.518,11.174,11.174,0,0,1-.36-2.854V283.03A3.244,3.244,0,0,0,158.706,282.965Z" transform="translate(-155.231 -282.732)" fill="#1a1818"/>
      </g>
      <g id="Group_80" data-name="Group 80" transform="translate(28.989 10.833)">
        <path id="Path_77" data-name="Path 77" d="M201.97,289.682a3.436,3.436,0,0,1-1.427-.306.117.117,0,0,1-.056-.159,10.311,10.311,0,0,0,.644-1.592,9.955,9.955,0,0,0,.448-2.942V282.86a.117.117,0,0,1,.107-.116c.091-.008.187-.011.285-.011a3.475,3.475,0,0,1,0,6.95Zm-1.22-.471a3.211,3.211,0,0,0,1.22.238,3.241,3.241,0,0,0,0-6.483c-.054,0-.107,0-.159,0v1.713a10.2,10.2,0,0,1-.458,3.011A10.573,10.573,0,0,1,200.75,289.211Z" transform="translate(-200.473 -282.732)" fill="#1a1818"/>
      </g>
      <g id="Group_81" data-name="Group 81" transform="translate(16.431 19.366)">
        <path id="Path_78" data-name="Path 78" d="M176.724,306.271c-2.3.391-4.441.591-5.959,0v-3.354c2.048,2.206,3.864,3.157,5.785,3.178Z" transform="translate(-170.765 -302.917)" fill="#1a1818"/>
      </g>
      <g id="Group_82" data-name="Group 82" transform="translate(0.02 19.317)">
        <path id="Path_79" data-name="Path 79" d="M176,323.249H132.188a.245.245,0,0,1-.2-.108.252.252,0,0,1-.029-.226c1.389-3.884,4.614-6.217,9.858-7.133l.023,0a12.791,12.791,0,0,0,2.37-.481,12.042,12.042,0,0,0,2.16-.891l.008,0a9.746,9.746,0,0,0,1.933-1.337V303.052a.249.249,0,0,1,.247-.25.117.117,0,0,1,0,.234.015.015,0,0,0-.014.016v10.066a.116.116,0,0,1-.038.086,9.946,9.946,0,0,1-2.026,1.409l-.008,0a12.251,12.251,0,0,1-2.194.9,13.065,13.065,0,0,1-2.414.49h0c-5.156.9-8.323,3.183-9.682,6.982a.019.019,0,0,0,0,.017.012.012,0,0,0,.01.006H176a.012.012,0,0,0,.009-.005.02.02,0,0,0,0-.019c-1.359-3.8-4.526-6.081-9.682-6.981h0a13.081,13.081,0,0,1-2.722-.589,12.136,12.136,0,0,1-2.179-.966,9.617,9.617,0,0,1-1.74-1.252.116.116,0,0,1-.038-.086V303.052a.015.015,0,0,0-.014-.016.117.117,0,0,1,0-.234.249.249,0,0,1,.247.25v10.014a9.45,9.45,0,0,0,1.66,1.187,11.844,11.844,0,0,0,2.137.947,12.825,12.825,0,0,0,2.672.579l.023,0c5.244.916,8.469,3.249,9.858,7.132a.253.253,0,0,1-.03.228A.243.243,0,0,1,176,323.249Zm-9.659-7.237h0Zm-24.494,0h0Zm.02,0Z" transform="translate(-131.942 -302.802)" fill="#1a1818"/>
      </g>
      <g id="Group_83" data-name="Group 83" transform="translate(20.079 10.514)">
        <path id="Path_80" data-name="Path 80" d="M180.8,286.966a.117.117,0,0,1-.056-.014c-1-.552-1.44-1-1.34-1.357.11-.4.8-.462,1.28-.457v-3.045a.117.117,0,0,1,.233,0v3.165a.117.117,0,0,1-.121.117c-.746-.027-1.123.123-1.168.282-.023.085,0,.413,1.228,1.091a.117.117,0,0,1-.056.219Z" transform="translate(-179.393 -281.976)" fill="#1a1818"/>
      </g>
      <g id="Group_84" data-name="Group 84" transform="translate(20.518 15.931)">
        <path id="Path_81" data-name="Path 81" d="M181.921,296.966a1.827,1.827,0,0,1-.9-.213,1.1,1.1,0,0,1-.588-.725.556.556,0,0,1,.208-.484,2.5,2.5,0,0,1,1.166-.464c.089-.019.175-.038.258-.057s.154-.043.243-.069.159-.048.243-.071a1.151,1.151,0,0,1,1.022.053.725.725,0,0,1,.224.551,1.325,1.325,0,0,1-.716,1.175A2.331,2.331,0,0,1,181.921,296.966Zm1.2-1.942a2.022,2.022,0,0,0-.5.084h0c-.082.022-.162.047-.238.069-.093.028-.18.054-.256.072s-.173.04-.264.059a2.33,2.33,0,0,0-1.059.409.328.328,0,0,0-.132.285.9.9,0,0,0,.471.547,1.961,1.961,0,0,0,1.826-.09,1.1,1.1,0,0,0,.6-.97.514.514,0,0,0-.142-.377A.465.465,0,0,0,183.117,295.024Zm-.532-.029h0Z" transform="translate(-180.432 -294.791)" fill="#1a1818"/>
      </g>
      <g id="Group_85" data-name="Group 85" transform="translate(22.332 22.426)">
        <path id="Path_82" data-name="Path 82" d="M184.841,310.392a.117.117,0,1,1,0-.234h.057a.117.117,0,0,1,0,.234Z" transform="translate(-184.724 -310.157)" fill="#1a1818"/>
      </g>
      <g id="Group_86" data-name="Group 86" transform="translate(20.551 16.512)">
        <path id="Path_83" data-name="Path 83" d="M180.629,297.05a.117.117,0,0,1-.024-.231l3.1-.651a.117.117,0,1,1,.048.228l-3.1.651Z" transform="translate(-180.512 -296.165)" fill="#1a1818"/>
      </g>
      <g id="Group_87" data-name="Group 87" transform="translate(14.304 8.563)">
        <path id="Path_84" data-name="Path 84" d="M168.854,283.6a3.121,3.121,0,1,1,3.121-3.121A3.124,3.124,0,0,1,168.854,283.6Zm0-6.008a2.888,2.888,0,1,0,2.888,2.888A2.891,2.891,0,0,0,168.854,277.594Z" transform="translate(-165.733 -277.361)" fill="#1a1818"/>
      </g>
      <g id="Group_88" data-name="Group 88" transform="translate(22.534 8.563)">
        <path id="Path_85" data-name="Path 85" d="M188.323,283.6a3.121,3.121,0,1,1,3.121-3.121A3.125,3.125,0,0,1,188.323,283.6Zm0-6.008a2.888,2.888,0,1,0,2.887,2.888A2.891,2.891,0,0,0,188.323,277.594Z" transform="translate(-185.202 -277.361)" fill="#1a1818"/>
      </g>
      <g id="Group_89" data-name="Group 89" transform="translate(20.313 11.566)">
        <path id="Path_86" data-name="Path 86" d="M182.285,285.153a.117.117,0,0,1-.071-.024,1.473,1.473,0,0,0-2.073,0,.117.117,0,1,1-.153-.176,1.7,1.7,0,0,1,2.369,0,.117.117,0,0,1-.071.209Z" transform="translate(-179.947 -284.465)" fill="#1a1818"/>
      </g>
      <g id="Group_90" data-name="Group 90" transform="translate(28.543 10.833)">
        <path id="Path_87" data-name="Path 87" d="M199.533,284a.117.117,0,0,1-.052-.221l2.1-1.033a.117.117,0,1,1,.1.21l-2.1,1.033A.119.119,0,0,1,199.533,284Z" transform="translate(-199.416 -282.731)" fill="#1a1818"/>
      </g>
      <g id="Group_91" data-name="Group 91" transform="translate(13.607 11.35)">
        <path id="Path_88" data-name="Path 88" d="M164.957,285a.117.117,0,0,1-.085-.037l-.755-.809a.117.117,0,1,1,.17-.16l.756.809a.117.117,0,0,1-.006.165A.115.115,0,0,1,164.957,285Z" transform="translate(-164.085 -283.954)" fill="#1a1818"/>
      </g>
      <g id="Group_92" data-name="Group 92" transform="translate(12.686)">
        <path id="Path_89" data-name="Path 89" d="M179.122,268.838a.99.99,0,0,1-.81-.69,2.931,2.931,0,0,1-.049-1.913,2.231,2.231,0,0,1-.63-2.239,2.077,2.077,0,0,1-2.25.536,2.414,2.414,0,0,1-.7-.593,1.375,1.375,0,0,1-1.133.514,1.262,1.262,0,0,1-1.034-.587,3.78,3.78,0,0,1-1,.623,1.637,1.637,0,0,1-.938.152c-.315-.062-.6-.222-.631-.542a1.082,1.082,0,0,1-.809.558,3.129,3.129,0,0,1-1.017-.039c-.361-.055-.789-.164-.9-.512a1.856,1.856,0,0,1-1.357.652,1.657,1.657,0,0,1-1.334-.482,2.951,2.951,0,0,1-.04,2.017,1.019,1.019,0,0,1-.529.627,1.97,1.97,0,0,1,.211,1.113,1.469,1.469,0,0,1-.352.979c-.638.629-1.479-.177-1.569-.82a1.718,1.718,0,0,1,.185-1.239,2.021,2.021,0,0,1-.531-1.335c-.018-.467.067-1.216.525-1.479a2.015,2.015,0,0,1-.4-1.465,1.426,1.426,0,0,1,.933-1.145,1.064,1.064,0,0,1-.344-1.01c.1-.476.636-1.112,1.169-1.02a1.576,1.576,0,0,1,2.128-1.56,1.939,1.939,0,0,1,1.5-.71c.138,0,1.656.348,1.477.6a1.806,1.806,0,0,1,2.524-.328,1.912,1.912,0,0,1,2.6.25,7.22,7.22,0,0,1,1.261-.495,1.388,1.388,0,0,1,1.185.731,1.209,1.209,0,0,1,1.223-.255,1.287,1.287,0,0,1,.782.967c1.776-.428,2.1,2.013,1.34,2.5.889-.211,1.781,1.972.318,2.61.23-.2.388.782.4.907a2.192,2.192,0,0,1-.178,1.093c-.026.054-.4.764-.443.71C180.416,267.21,180.313,268.939,179.122,268.838Z" transform="translate(-161.904 -257.104)" fill="#1a1818"/>
      </g>
      <g id="Group_93" data-name="Group 93" transform="translate(18.789 14.612)">
        <path id="Path_90" data-name="Path 90" d="M179.148,293.133a2.639,2.639,0,0,1-2.379.858.546.546,0,0,1-.368-.177.415.415,0,0,1,.084-.517,1.208,1.208,0,0,1,.5-.253c.408-.13.815-.263,1.226-.385.323-.1.64-.106.965-.215l1.736-.578a2.288,2.288,0,0,1,.955-.184.307.307,0,0,1,.227.157c.069.145-.025.312-.118.443a2,2,0,0,1-.282.34,2.225,2.225,0,0,1-1.79.364A.754.754,0,0,0,179.148,293.133Z" transform="translate(-176.342 -291.671)" fill="#1a1818"/>
      </g>
      <g id="Group_94" data-name="Group 94" transform="translate(0.137 24.644)">
        <path id="Path_91" data-name="Path 91" d="M176.265,330.351a.128.128,0,0,1-.106.057H132.347a.127.127,0,0,1-.106-.057.135.135,0,0,1-.016-.122c1.374-3.84,4.571-6.15,9.772-7.057h.008a12.945,12.945,0,0,0,2.395-.487,12.112,12.112,0,0,0,2.18-.9h0a9.841,9.841,0,0,0,2-1.392V315.4h11.34v4.988a9.5,9.5,0,0,0,1.719,1.236,12.026,12.026,0,0,0,2.158.957,12.976,12.976,0,0,0,2.7.584h.008c5.2.908,8.4,3.216,9.772,7.057A.136.136,0,0,1,176.265,330.351Z" transform="translate(-132.217 -315.404)" fill="#1a1818"/>
      </g>
    </g>
    <g id="Group_96" data-name="Group 96" transform="translate(-11653.694 -6396.52)">
      <ellipse id="Ellipse_11" data-name="Ellipse 11" cx="0.425" cy="0.708" rx="0.425" ry="0.708" fill="#1a1818"/>
    </g>
    <g id="Group_97" data-name="Group 97" transform="translate(-11651.659 -6388.037)">
      <path id="Path_92" data-name="Path 92" d="M80.64,317.407a.117.117,0,0,1-.063-.018,9.1,9.1,0,0,1-1.672-1.351.118.118,0,0,1-.033-.081v-8.023a.117.117,0,1,1,.233,0v7.976a8.889,8.889,0,0,0,1.6,1.282.117.117,0,0,1-.063.215Z" transform="translate(-78.873 -307.817)" fill="#1a1818"/>
    </g>
    <g id="Group_98" data-name="Group 98" transform="translate(-11663.818 -6388.066)">
      <path id="Path_93" data-name="Path 93" d="M50.226,317.528a.117.117,0,0,1-.06-.217,9.145,9.145,0,0,0,1.859-1.442v-8.006a.117.117,0,0,1,.234,0v8.053a.117.117,0,0,1-.033.081,9.338,9.338,0,0,1-1.94,1.515A.118.118,0,0,1,50.226,317.528Z" transform="translate(-50.109 -307.746)" fill="#1a1818"/>
    </g>
    <g id="Group_99" data-name="Group 99" transform="translate(-11665.015 -6402.798)">
      <path id="Path_94" data-name="Path 94" d="M55.832,290.851a4.736,4.736,0,0,1-2.769-.9c-.749-.543-1.414-1.06-1.975-1.538-.232-.2-.455-.394-.66-.586-.042-.04-.139-.144-.264-.29a12.991,12.991,0,0,1-1.782-2.8,9.526,9.526,0,0,1-.965-4.118l-.024-1.618-.113-5.99a.117.117,0,0,1,.234,0L47.626,279l.024,1.621a9.305,9.305,0,0,0,.944,4.02,12.707,12.707,0,0,0,1.748,2.746c.126.147.216.243.246.271.2.189.421.384.651.579.557.474,1.217.988,1.961,1.527a4.461,4.461,0,0,0,5.561-.24,22.156,22.156,0,0,0,1.9-1.829l.04-.042a9.663,9.663,0,0,0,1.868-2.97,13.64,13.64,0,0,0,.95-4.065l.024-1.626.113-5.982a.117.117,0,0,1,.117-.115h0a.117.117,0,0,1,.115.119L63.78,279l-.024,1.63v.008a13.869,13.869,0,0,1-.967,4.139,9.9,9.9,0,0,1-1.916,3.043l-.035.036a22.465,22.465,0,0,1-1.924,1.849,4.726,4.726,0,0,1-2.881,1.144C55.966,290.85,55.9,290.851,55.832,290.851Z" transform="translate(-47.279 -272.897)" fill="#1a1818"/>
    </g>
    <g id="Group_100" data-name="Group 100" transform="translate(-11677.033 -6378.681)">
      <path id="Path_95" data-name="Path 95" d="M59.468,338.977h-40.5a.117.117,0,0,1-.111-.152c1.269-3.954,4.222-6.331,9.03-7.266h.008a10.841,10.841,0,0,0,2.212-.5,10.646,10.646,0,0,0,2.015-.927.116.116,0,0,1,.1-.01.118.118,0,0,1,.07.071,7.354,7.354,0,0,0,13.589-.159.117.117,0,0,1,.174-.063,10.528,10.528,0,0,0,1.995.986,10.872,10.872,0,0,0,2.494.6h.008c4.808.936,7.762,3.313,9.031,7.266a.117.117,0,0,1-.111.152Zm-40.343-.233H59.307c-1.267-3.773-4.148-6.049-8.8-6.955a11.085,11.085,0,0,1-2.543-.614,10.747,10.747,0,0,1-1.913-.93,6.776,6.776,0,0,1-2.564,3.288,7.764,7.764,0,0,1-4.432,1.352,7.309,7.309,0,0,1-6.939-4.484,10.89,10.89,0,0,1-1.939.876,11.059,11.059,0,0,1-2.255.511C23.272,332.7,20.392,334.971,19.126,338.744Z" transform="translate(-18.848 -329.951)" fill="#1a1818"/>
    </g>
    <g id="Group_101" data-name="Group 101" transform="translate(-11668.407 -6396.842)">
      <path id="Path_96" data-name="Path 96" d="M42.411,293.306a3.16,3.16,0,1,1,.481-6.283.117.117,0,0,1,.1.114l.024,1.621a9.3,9.3,0,0,0,.944,4.02.117.117,0,0,1-.05.153A3.17,3.17,0,0,1,42.411,293.306Zm0-6.086a2.926,2.926,0,1,0,1.29,5.554,9.474,9.474,0,0,1-.919-4.016l-.023-1.518A2.966,2.966,0,0,0,42.411,287.22Z" transform="translate(-39.252 -286.987)" fill="#1a1818"/>
    </g>
    <g id="Group_102" data-name="Group 102" transform="translate(-11658.13 -6396.636)">
      <path id="Path_97" data-name="Path 97" d="M64.558,292.253a.116.116,0,0,1-.08-.032c-.714-.673-1-1.18-.887-1.549.085-.267.363-.439.85-.524V287.59a.117.117,0,0,1,.233,0v2.658a.116.116,0,0,1-.1.115c-.445.064-.7.191-.761.38s.036.565.825,1.309a.117.117,0,0,1-.08.2Z" transform="translate(-63.566 -287.473)" fill="#1a1818"/>
    </g>
    <g id="Group_103" data-name="Group 103" transform="translate(-11659.144 -6390.31)">
      <path id="Path_98" data-name="Path 98" d="M63.554,303.067a7.243,7.243,0,0,1-2.306-.4.117.117,0,0,1,.074-.221,6.242,6.242,0,0,0,4.329,0,.117.117,0,0,1,.082.219A6.129,6.129,0,0,1,63.554,303.067Z" transform="translate(-61.168 -302.439)" fill="#1a1818"/>
    </g>
    <g id="Group_104" data-name="Group 104" transform="translate(-11658.852 -6390.853)">
      <path id="Path_99" data-name="Path 99" d="M63.908,303.2a2.75,2.75,0,0,1-2.022-1.224.119.119,0,0,1-.025-.09.117.117,0,0,1,.049-.079l.563-.4a1.33,1.33,0,0,1,1.417-.074l.039-.022a1.337,1.337,0,0,1,1.439.1l.53.395a.116.116,0,0,1,.021.167,2.725,2.725,0,0,1-2.008,1.225Zm-1.76-1.275a2.447,2.447,0,0,0,1.76,1.042h0a2.429,2.429,0,0,0,1.749-1.045l-.432-.321a1.1,1.1,0,0,0-1.187-.081l-.1.054a.117.117,0,0,1-.118,0,1.1,1.1,0,0,0-1.219.031Z" transform="translate(-61.86 -301.154)" fill="#1a1818"/>
    </g>
    <g id="Group_105" data-name="Group 105" transform="translate(-11654.433 -6396.663)">
      <path id="Path_100" data-name="Path 100" d="M72.43,288.413a.115.115,0,0,1-.064-.019.117.117,0,0,1-.034-.161,1.666,1.666,0,0,1,1.073-.8,1.76,1.76,0,0,1,1.34.381.117.117,0,0,1-.137.189,1.533,1.533,0,0,0-1.162-.341,1.441,1.441,0,0,0-.92.7A.117.117,0,0,1,72.43,288.413Z" transform="translate(-72.313 -287.411)" fill="#1a1818"/>
    </g>
    <g id="Group_106" data-name="Group 106" transform="translate(-11660.804 -6396.52)">
      <ellipse id="Ellipse_12" data-name="Ellipse 12" cx="0.425" cy="0.708" rx="0.425" ry="0.708" fill="#1a1818"/>
    </g>
    <g id="Group_107" data-name="Group 107" transform="translate(-11661.697 -6396.663)">
      <path id="Path_101" data-name="Path 101" d="M57.492,288.413a.117.117,0,0,1-.1-.052,1.441,1.441,0,0,0-.92-.7,1.533,1.533,0,0,0-1.162.341.117.117,0,1,1-.137-.189,1.76,1.76,0,0,1,1.34-.381,1.666,1.666,0,0,1,1.073.8.117.117,0,0,1-.034.161A.115.115,0,0,1,57.492,288.413Z" transform="translate(-55.127 -287.411)" fill="#1a1818"/>
    </g>
    <g id="Group_108" data-name="Group 108" transform="translate(-11655.605 -6398.396)">
      <path id="Path_102" data-name="Path 102" d="M71.737,284.536a5.017,5.017,0,0,1,2.029.2.58.58,0,0,0,.452.022.368.368,0,0,0,.094-.49.955.955,0,0,0-.421-.347,5.406,5.406,0,0,0-3.51-.516c-.462.093-1.177.544-.67,1.046C70.184,284.92,71.175,284.6,71.737,284.536Z" transform="translate(-69.537 -283.308)" fill="#1a1818"/>
    </g>
    <g id="Group_109" data-name="Group 109" transform="translate(-11663.081 -6398.396)">
      <path id="Path_103" data-name="Path 103" d="M54.481,284.536a5.018,5.018,0,0,0-2.029.2.58.58,0,0,1-.452.022.369.369,0,0,1-.094-.49.956.956,0,0,1,.422-.347,5.405,5.405,0,0,1,3.51-.516c.462.093,1.177.544.67,1.046C56.034,284.92,55.043,284.6,54.481,284.536Z" transform="translate(-51.853 -283.308)" fill="#1a1818"/>
    </g>
    <g id="Group_110" data-name="Group 110" transform="translate(-11674.932 -6409.426)">
      <path id="Path_104" data-name="Path 104" d="M58.076,290.021c-.8-.976-1.942-1.825-2.089-3.078a4.943,4.943,0,0,1,.444-2.15,3.572,3.572,0,0,0,.263-1.836c-.218-1.1-1.329-1.845-1.595-2.936-.4-1.644,1.255-3.164,1.176-4.854-.053-1.13-.864-2.068-1.232-3.139-.7-2.03.262-4.309-.257-6.391a4.648,4.648,0,0,0-1.476-2.39,6.841,6.841,0,0,1-1.6-1.449,8.165,8.165,0,0,1-.525-1.449c-.241-.656-.783-.952-1.211-1.447a5.083,5.083,0,0,0-1.572-1.37,3.186,3.186,0,0,0-2.439-.137,3.394,3.394,0,0,1-.984.3,3.234,3.234,0,0,1-.772-.128,4.262,4.262,0,0,0-2.807.46,8.016,8.016,0,0,0-2.242,1.927,5.038,5.038,0,0,0-5.638,3.456c-.274.872-.49,1.759-.769,2.624a21.613,21.613,0,0,0-1.212,2.8,9.739,9.739,0,0,0,.231,2.658,3.65,3.65,0,0,1-.686,2.528,5.817,5.817,0,0,0-1.268,2.448c-.223,1.415.591,2.981-.1,4.236-.362.658-1.058,1.05-1.583,1.589a5.826,5.826,0,0,0-1.272,4.529,3.726,3.726,0,0,1-.188,2.081,3.848,3.848,0,0,1-1.413,1.207,3.306,3.306,0,0,0-1.3,1.332,1.439,1.439,0,0,0,.33,1.717,2.18,2.18,0,0,0,.9.317,6.037,6.037,0,0,0,2.592.123,4.686,4.686,0,0,1,1.846-.4c.609.1,1.069.618,1.659.8a3.086,3.086,0,0,0,2.415-.6,11.019,11.019,0,0,1,1.1-.712c.366-.163.775-.157,1.149-.307a2.451,2.451,0,0,0,1.574-1.975c.094-1.083-.6-2.125-.48-3.206a18.582,18.582,0,0,1,.629-2c.306-1.362-.4-2.762-.3-4.154.058-.766.36-1.5.4-2.266.062-1.2-.581-2.177-.892-3.283-.275-.98-1.114-1.936-.96-3.009.182-1.272,1.7-2.036,1.872-3.309.106-.773-.316-1.592-.032-2.319a2.189,2.189,0,0,1,1.108-1.04,5.319,5.319,0,0,0,1.325-.8,1.228,1.228,0,0,0,.333-1.406,2.62,2.62,0,0,0,1.884,1.778,5.645,5.645,0,0,1,1.5.368c1.242.717.767,2.831,1.866,3.753.628.527,1.607.5,2.182,1.086.716.728.417,1.955-.072,2.852a4.829,4.829,0,0,0-1,2.834c.1.675.557,1.3.462,1.975a4.5,4.5,0,0,1-.805,1.49,4.059,4.059,0,0,0-.293,3.45,6.426,6.426,0,0,1,.656,2.027c.063,1.322-.987,2.506-.931,3.829.047,1.114.88,2.151.664,3.246a5.506,5.506,0,0,0-.308,1.262c.034.766.853,1.257,1.609,1.384a4.035,4.035,0,0,0,1.239.015,2.525,2.525,0,0,1,1.668.165,4.382,4.382,0,0,0,3.4-.033c.5-.222.963-.538,1.459-.777.814-.393,1.742-.082,2.486-.567a2.119,2.119,0,0,0,.843-1.155C59.347,291.616,58.67,290.746,58.076,290.021Z" transform="translate(-23.818 -257.216)" fill="#1a1818"/>
    </g>
    <g id="Group_139" data-name="Group 139" transform="translate(-11676.025 -6507.005)">
      <g id="Group_111" data-name="Group 111" transform="translate(4.024 16.015)">
        <path id="Path_105" data-name="Path 105" d="M63.278,85.051H30.75a7.73,7.73,0,0,1,.807-2.517,16.065,16.065,0,0,0,1.414-3.021,7.761,7.761,0,0,0,.208-.934c.135-.807.191-1.636.4-2.424a7.828,7.828,0,0,1,2.4-3.7,8.351,8.351,0,0,0,1.741-1.791c.644-1.073.56-2.371.853-3.569a5.428,5.428,0,0,1,1.608-2.834c.014.037.029.072.044.1a7.328,7.328,0,0,0,1.7,2.224c.13.153.22.248.254.28h0c.207.194.427.389.656.583.625.531,1.449,1.057,2.105,1.532a3.675,3.675,0,0,0,5.021-.246,24.635,24.635,0,0,0,2.05-1.838h0a6.049,6.049,0,0,0,1.882-2.592A5.459,5.459,0,0,1,55.452,67.1c.294,1.2.21,2.5.853,3.569a8.359,8.359,0,0,0,1.74,1.791,7.826,7.826,0,0,1,2.4,3.7,23.389,23.389,0,0,1,.394,2.362,7.936,7.936,0,0,0,.217,1,16.146,16.146,0,0,0,1.414,3.021A7.741,7.741,0,0,1,63.278,85.051Z" transform="translate(-30.75 -64.264)" fill="#1a1818"/>
      </g>
      <g id="Group_112" data-name="Group 112" transform="translate(0.083)">
        <path id="Path_106" data-name="Path 106" d="M62,63.169a9.843,9.843,0,0,0-6.528-6.555,17.188,17.188,0,0,0-2.443-.656,10.96,10.96,0,0,1-2.513-.607,10.566,10.566,0,0,1-2.01-.994l-.239-.151a9.377,9.377,0,0,1-1.6-1.167V45.045c.015-.014.041-.036.077-.065a6.135,6.135,0,0,0,1.8-2.529c.013-.029.025-.058.038-.088l.011-.025.015-.039a3.118,3.118,0,1,0,1.047-6.134,17.713,17.713,0,0,0-.416-5.8,5.267,5.267,0,0,0-2.362-3.335,6.879,6.879,0,0,0-4.808-.4,8.5,8.5,0,0,0-5.514.4,5.212,5.212,0,0,0-2.548,3.335,9.711,9.711,0,0,0-.294,1.376,18.75,18.75,0,0,0-.018,4.424A3.118,3.118,0,1,0,34.733,42.3c.012.036.024.069.037.1s.029.074.044.106a5.862,5.862,0,0,0,1.364,1.881c.129.127.241.237.338.351.123.144.208.234.246.272V53.04a11.021,11.021,0,0,1-2.1,1.479h0a10.7,10.7,0,0,1-2.032.934,10.941,10.941,0,0,1-2.23.5,16.957,16.957,0,0,0-2.612.717,9.8,9.8,0,0,0-6.356,6.493.034.034,0,0,0,.033.045h40.5A.034.034,0,0,0,62,63.169Z" transform="translate(-21.426 -26.377)" fill="#fff"/>
      </g>
      <g id="Group_113" data-name="Group 113" transform="translate(23.338 10.191)">
        <ellipse id="Ellipse_13" data-name="Ellipse 13" cx="0.425" cy="0.708" rx="0.425" ry="0.708" fill="#1a1818"/>
      </g>
      <g id="Group_114" data-name="Group 114" transform="translate(25.168 18.536)">
        <path id="Path_107" data-name="Path 107" d="M82.743,79.818a.116.116,0,0,1-.062-.018l-.238-.151a9.307,9.307,0,0,1-1.64-1.2.118.118,0,0,1-.033-.081V70.345a.117.117,0,0,1,.234,0V78.32a9.585,9.585,0,0,0,1.563,1.131l.239.151a.117.117,0,0,1-.063.215Z" transform="translate(-80.77 -70.228)" fill="#1a1818"/>
      </g>
      <g id="Group_115" data-name="Group 115" transform="translate(13.215 18.506)">
        <path id="Path_108" data-name="Path 108" d="M52.609,79.939a.117.117,0,0,1-.06-.217,11.236,11.236,0,0,0,2.065-1.442V70.274a.117.117,0,1,1,.233,0v8.053a.118.118,0,0,1-.033.081,11.024,11.024,0,0,1-2.146,1.515A.117.117,0,0,1,52.609,79.939Z" transform="translate(-52.492 -70.157)" fill="#1a1818"/>
      </g>
      <g id="Group_116" data-name="Group 116" transform="translate(12.387 2.176)">
        <path id="Path_109" data-name="Path 109" d="M58.751,51.079a4.188,4.188,0,0,1-2.458-.9c-.206-.149-.424-.3-.656-.461-.5-.348-1.024-.709-1.456-1.077-.23-.2-.45-.391-.652-.58l-.009-.008c-.033-.032-.126-.128-.263-.289-.094-.111-.2-.219-.333-.345a6,6,0,0,1-1.381-1.9c-.014-.03-.03-.066-.047-.111s-.032-.084-.048-.134a24.278,24.278,0,0,1-.643-3.907c-.115-1.093-.183-1.979-.183-1.988V39.37l-.088-4.635a.09.09,0,0,1,0-.019,9.679,9.679,0,0,1,.294-1.373.116.116,0,0,1,.065-.074c3.916-1.7,8.452-2.881,15.061,0a.115.115,0,0,1,.066.075,19.725,19.725,0,0,1,.324,7h0l0,.011c-.027.223-.059.473-.094.74a28.818,28.818,0,0,1-.752,4.179c-.008.024-.018.048-.027.07l-.009.023c-.013.031-.026.063-.04.093a6.207,6.207,0,0,1-1.827,2.559c-.031.025-.067.055-.075.064a16.015,16.015,0,0,1-1.526,1.4c-.187.157-.364.306-.535.454A4.132,4.132,0,0,1,58.751,51.079Zm-5.076-3.2.006.005c.2.189.421.383.651.579.424.361.939.718,1.438,1.063.233.161.453.313.66.464a3.574,3.574,0,0,0,4.876-.24c.172-.149.349-.3.537-.456a15.8,15.8,0,0,0,1.5-1.373.921.921,0,0,1,.1-.089,5.989,5.989,0,0,0,1.76-2.472c.014-.031.026-.06.038-.089l.009-.022c.007-.017.015-.038.023-.06a28.737,28.737,0,0,0,.74-4.13c.036-.268.067-.519.095-.741v-.005a19.657,19.657,0,0,0-.3-6.853c-6.472-2.805-10.927-1.665-14.774,0a9.59,9.59,0,0,0-.27,1.278l.088,4.622c0,.06.071.922.183,1.978a22.457,22.457,0,0,0,.632,3.858c.015.046.029.086.044.122s.028.071.041.1a5.722,5.722,0,0,0,1.334,1.838c.126.125.246.242.347.361C53.557,47.759,53.641,47.848,53.675,47.881Zm12.554-7.545h0Z" transform="translate(-50.535 -31.524)" fill="#1a1818"/>
      </g>
      <g id="Group_117" data-name="Group 117" transform="translate(18.828 9.696)">
        <path id="Path_110" data-name="Path 110" d="M66.838,54.1a.117.117,0,0,1-.063-.019c-.744-.481-1.1-1-.981-1.417.09-.312.433-.512.928-.545V49.432a.117.117,0,0,1,.234,0v2.8a.117.117,0,0,1-.115.117c-.442.007-.757.153-.822.381-.088.309.242.741.884,1.156a.117.117,0,0,1-.064.215Z" transform="translate(-65.771 -49.315)" fill="#1a1818"/>
      </g>
      <g id="Group_118" data-name="Group 118" transform="translate(27.123 9.696)">
        <path id="Path_111" data-name="Path 111" d="M86.253,55.709a3.178,3.178,0,0,1-.769-.093.116.116,0,0,1-.081-.153,48.162,48.162,0,0,0,.95-5.84l0-.192a.116.116,0,0,1,.125-.114,3.2,3.2,0,0,1-.228,6.393Zm-.588-.292a2.967,2.967,0,1,0,.923-5.857v.082A51.656,51.656,0,0,1,85.665,55.417Z" transform="translate(-85.396 -49.315)" fill="#1a1818"/>
      </g>
      <g id="Group_119" data-name="Group 119" transform="translate(16.198 10.191)">
        <ellipse id="Ellipse_14" data-name="Ellipse 14" cx="0.425" cy="0.708" rx="0.425" ry="0.708" transform="translate(0)" fill="#1a1818"/>
      </g>
      <g id="Group_120" data-name="Group 120" transform="translate(14.284 7.793)">
        <path id="Path_112" data-name="Path 112" d="M58.164,46.158a2.74,2.74,0,0,0,.909.049.706.706,0,0,0,.6-.6.774.774,0,0,0-.533-.667,2.705,2.705,0,0,0-2.119.244,6.394,6.394,0,0,0-1.35.8c-.149.119-1.028.94-.464.8a6.587,6.587,0,0,0,.674-.373,3.905,3.905,0,0,1,.744-.221A4.685,4.685,0,0,1,58.164,46.158Z" transform="translate(-55.023 -44.813)" fill="#1a1818"/>
      </g>
      <g id="Group_121" data-name="Group 121" transform="translate(21.498 7.611)">
        <path id="Path_113" data-name="Path 113" d="M73.626,45.715a2.742,2.742,0,0,1-.906.089.706.706,0,0,1-.629-.57.775.775,0,0,1,.5-.69,2.7,2.7,0,0,1,2.127.151,6.393,6.393,0,0,1,1.384.743c.154.112,1.068.894.5.777a6.621,6.621,0,0,1-.69-.343,3.893,3.893,0,0,0-.753-.189A4.685,4.685,0,0,0,73.626,45.715Z" transform="translate(-72.089 -44.382)" fill="#1a1818"/>
      </g>
      <g id="Group_122" data-name="Group 122" transform="translate(9.486 9.69)">
        <path id="Path_114" data-name="Path 114" d="M46.872,55.7a3.2,3.2,0,0,1-.1-6.4.116.116,0,0,1,.084.032.117.117,0,0,1,.036.082l0,.21a40.048,40.048,0,0,0,.815,5.836.117.117,0,0,1-.084.15A3.2,3.2,0,0,1,46.872,55.7Zm-.214-6.16a2.967,2.967,0,0,0,.214,5.926,3.01,3.01,0,0,0,.576-.055,41.876,41.876,0,0,1-.788-5.772v-.006Z" transform="translate(-43.671 -49.3)" fill="#1a1818"/>
      </g>
      <g id="Group_123" data-name="Group 123" transform="translate(0 27.893)">
        <path id="Path_115" data-name="Path 115" d="M61.851,101.388h-40.5a.117.117,0,0,1-.111-.152,9.88,9.88,0,0,1,6.406-6.546,16.982,16.982,0,0,1,2.624-.721h.009a10.856,10.856,0,0,0,2.211-.5A10.627,10.627,0,0,0,34.5,92.54a.118.118,0,0,1,.148.024l6.7,7.712,6.93-7.874a.117.117,0,0,1,.15-.021,10.513,10.513,0,0,0,1.994.986,10.872,10.872,0,0,0,2.494.6h.008a17.266,17.266,0,0,1,2.453.659,9.921,9.921,0,0,1,6.579,6.608.117.117,0,0,1-.111.152Zm-40.342-.233H61.69a9.7,9.7,0,0,0-6.385-6.306,16.98,16.98,0,0,0-2.415-.649,11.1,11.1,0,0,1-2.543-.614,10.757,10.757,0,0,1-1.954-.955l-6.953,7.9a.117.117,0,0,1-.088.04h0a.118.118,0,0,1-.087-.04L34.538,92.79a10.9,10.9,0,0,1-1.976.9,11.068,11.068,0,0,1-2.254.511,16.774,16.774,0,0,0-2.584.71A9.65,9.65,0,0,0,21.509,101.155Z" transform="translate(-21.231 -92.362)" fill="#1a1818"/>
      </g>
      <g id="Group_124" data-name="Group 124" transform="translate(18.181 14.984)">
        <path id="Path_116" data-name="Path 116" d="M66.372,64.22a2.354,2.354,0,0,1-2.124-1.653.117.117,0,0,1,.026-.119,2.323,2.323,0,0,1,.363-.331,1.265,1.265,0,0,1,1.575.168,1.2,1.2,0,0,1,1.009-.461,1.584,1.584,0,0,1,1.108.585.116.116,0,0,1,.016.126c-.263.55-.753,1.572-1.767,1.674C66.509,64.216,66.44,64.22,66.372,64.22Zm-1.879-1.663a2.07,2.07,0,0,0,2.063,1.42c.788-.079,1.214-.79,1.546-1.473a1.331,1.331,0,0,0-.892-.447.925.925,0,0,0-.877.478.116.116,0,0,1-.1.066.118.118,0,0,1-.106-.049,1.032,1.032,0,0,0-1.364-.243A1.822,1.822,0,0,0,64.493,62.557Z" transform="translate(-64.242 -61.823)" fill="#1a1818"/>
      </g>
      <g id="Group_125" data-name="Group 125" transform="translate(18.181 15.529)">
        <path id="Path_117" data-name="Path 117" d="M66.388,63.908a5.377,5.377,0,0,1-2.074-.527.117.117,0,1,1,.09-.215,3.711,3.711,0,0,0,3.777-.036.117.117,0,0,1,.12.2A3.666,3.666,0,0,1,66.388,63.908Z" transform="translate(-64.242 -63.113)" fill="#1a1818"/>
      </g>
      <g id="Group_126" data-name="Group 126" transform="translate(13.117 7.439)">
        <path id="Path_118" data-name="Path 118" d="M55.281,50.013A3.019,3.019,0,1,1,58.3,46.994,3.022,3.022,0,0,1,55.281,50.013Zm0-5.8a2.785,2.785,0,1,0,2.785,2.785A2.788,2.788,0,0,0,55.281,44.208Z" transform="translate(-52.262 -43.975)" fill="#1a1818"/>
      </g>
      <g id="Group_127" data-name="Group 127" transform="translate(21.061 7.572)">
        <path id="Path_119" data-name="Path 119" d="M74.074,50.327a3.019,3.019,0,1,1,3.019-3.019A3.022,3.022,0,0,1,74.074,50.327Zm0-5.8a2.785,2.785,0,1,0,2.785,2.785A2.789,2.789,0,0,0,74.074,44.523Z" transform="translate(-71.055 -44.289)" fill="#1a1818"/>
      </g>
      <g id="Group_128" data-name="Group 128" transform="translate(18.921 10.569)">
        <path id="Path_120" data-name="Path 120" d="M66.109,51.92a.117.117,0,0,1-.054-.221,2.181,2.181,0,0,1,2.28,0,.117.117,0,0,1-.116.2,1.967,1.967,0,0,0-2.056,0A.117.117,0,0,1,66.109,51.92Z" transform="translate(-65.992 -51.379)" fill="#1a1818"/>
      </g>
      <g id="Group_129" data-name="Group 129" transform="translate(26.863 9.696)">
        <path id="Path_121" data-name="Path 121" d="M84.9,50.425h0a.116.116,0,0,1-.114-.12c0-.068,0-.161,1.274-.972a.117.117,0,0,1,.126.2,11.062,11.062,0,0,0-1.175.82A.117.117,0,0,1,84.9,50.425Z" transform="translate(-84.78 -49.315)" fill="#1a1818"/>
      </g>
      <g id="Group_130" data-name="Group 130" transform="translate(12.361 9.69)">
        <path id="Path_122" data-name="Path 122" d="M51.346,50.185a.117.117,0,0,1-.076-.028l-.756-.651a.117.117,0,0,1,.152-.177l.756.651a.117.117,0,0,1-.077.205Z" transform="translate(-50.474 -49.3)" fill="#1a1818"/>
      </g>
      <g id="Group_131" data-name="Group 131" transform="translate(22.887 9.846)">
        <path id="Path_123" data-name="Path 123" d="M75.49,50.544a.116.116,0,0,1-.108-.16,1.135,1.135,0,0,1,1.78-.454.117.117,0,0,1-.149.18.9.9,0,0,0-1.414.361A.117.117,0,0,1,75.49,50.544Z" transform="translate(-75.373 -49.669)" fill="#1a1818"/>
      </g>
      <g id="Group_132" data-name="Group 132" transform="translate(15.639 9.846)">
        <path id="Path_124" data-name="Path 124" d="M59.942,50.544a.117.117,0,0,1-.109-.074.9.9,0,0,0-1.414-.361.117.117,0,0,1-.149-.18,1.135,1.135,0,0,1,1.78.454.116.116,0,0,1-.108.16Z" transform="translate(-58.229 -49.669)" fill="#1a1818"/>
      </g>
      <g id="Group_133" data-name="Group 133" transform="translate(12.367 0.135)">
        <path id="Path_125" data-name="Path 125" d="M66.2,37.544v0c-.024.266-.052.537-.082.81l-.013-.068-1.49-7.7-.5,2.871H59.9l-.282-2.414-.774,2.379H52.864l-.649-2.836-.039-.172-.027.172-1.242,8.057c0-.027-.009-.055-.013-.082a23.044,23.044,0,0,1-.271-6.619,9.553,9.553,0,0,1,.29-1.356c.853-2.892,3.117-4.57,7.931-3.634,4.1-.857,6.192.663,7.037,3.634A19.873,19.873,0,0,1,66.2,37.544Z" transform="translate(-50.486 -26.696)" fill="#1a1818"/>
      </g>
      <g id="Group_134" data-name="Group 134" transform="translate(12.229)">
        <path id="Path_126" data-name="Path 126" d="M65.826,30.369a5.267,5.267,0,0,0-2.362-3.335,6.879,6.879,0,0,0-4.808-.4,8.5,8.5,0,0,0-5.514.4,5.212,5.212,0,0,0-2.548,3.335,9.711,9.711,0,0,0-.294,1.376,22.832,22.832,0,0,0,.271,6.659l.013.082a.137.137,0,0,0,.135.117h0a.137.137,0,0,0,.135-.116l1.159-7.521.529,2.31a.137.137,0,0,0,.134.107h5.981a.138.138,0,0,0,.131-.095l.58-1.783.209,1.792a.137.137,0,0,0,.136.121h4.221a.137.137,0,0,0,.135-.114l.368-2.133,1.348,6.965.013.068a.137.137,0,0,0,.271-.011c.031-.28.058-.552.081-.807v-.01A19.748,19.748,0,0,0,65.826,30.369Z" transform="translate(-50.161 -26.377)" fill="#1a1818"/>
      </g>
      <g id="Group_135" data-name="Group 135" transform="translate(10.702 14.118)">
        <circle id="Ellipse_15" data-name="Ellipse 15" cx="1.27" cy="1.27" r="1.27" transform="translate(0 2.471) rotate(-76.718)" fill="#fff"/>
      </g>
      <g id="Group_136" data-name="Group 136" transform="translate(10.843 14.259)">
        <path id="Path_127" data-name="Path 127" d="M48.268,62.883A1.386,1.386,0,1,1,49.655,61.5,1.388,1.388,0,0,1,48.268,62.883Zm0-2.539A1.153,1.153,0,1,0,49.421,61.5,1.154,1.154,0,0,0,48.268,60.343Z" transform="translate(-46.882 -60.11)" fill="#1a1818"/>
      </g>
      <g id="Group_137" data-name="Group 137" transform="translate(26.958 14.376)">
        <circle id="Ellipse_16" data-name="Ellipse 16" cx="1.27" cy="1.27" r="1.27" fill="#fff"/>
      </g>
      <g id="Group_138" data-name="Group 138" transform="translate(26.841 14.259)">
        <path id="Path_128" data-name="Path 128" d="M86.115,62.883A1.386,1.386,0,1,1,87.5,61.5,1.388,1.388,0,0,1,86.115,62.883Zm0-2.539A1.153,1.153,0,1,0,87.268,61.5,1.155,1.155,0,0,0,86.115,60.343Z" transform="translate(-84.729 -60.11)" fill="#1a1818"/>
      </g>
    </g>
    <g id="Group_186" data-name="Group 186" transform="translate(-11626.531 -6456.07)">
      <g id="Group_140" data-name="Group 140" transform="translate(0.048)">
        <path id="Path_129" data-name="Path 129" d="M179.069,184.535c-1.263-3.935-4.205-6.3-9-7.235a10.918,10.918,0,0,1-2.5-.6,10.563,10.563,0,0,1-2-.99h0l-.239-.151a9.425,9.425,0,0,1-1.586-1.152v-7.965l.063-.052a5.28,5.28,0,0,0,1.122-1.246l2.991-1.157v-.594a3.235,3.235,0,0,0,.282-.181l.156.6,2.067-.8c.536-4.02-.47-6.006-1.877-8.567-2.852-5.188-4.163-8.6-9.479-7.289-7.348-1.1-8.2,2.5-10.582,8.638-.722,1.861-1.875,3.036-1.6,5.2a4.391,4.391,0,0,0,2.951,3.61,7.629,7.629,0,0,0,.965.254l.137.025a9.025,9.025,0,0,0,1.561.14,7.01,7.01,0,0,0,.7.774c.129.127.241.236.336.349.115.136.2.222.238.264v8a11.094,11.094,0,0,1-2.088,1.464h0a10.661,10.661,0,0,1-2.024.931,10.9,10.9,0,0,1-2.226.5c-4.789.932-7.731,3.3-8.994,7.234a.069.069,0,0,0,.065.089H179a.068.068,0,0,0,.065-.089Z" transform="translate(-138.431 -146.872)" fill="#fff"/>
      </g>
      <g id="Group_141" data-name="Group 141" transform="translate(23.339 11.072)">
        <ellipse id="Ellipse_17" data-name="Ellipse 17" cx="0.425" cy="0.708" rx="0.425" ry="0.708" fill="#1a1818"/>
      </g>
      <g id="Group_142" data-name="Group 142" transform="translate(25.168 19.418)">
        <path id="Path_130" data-name="Path 130" d="M199.829,202.4a.117.117,0,0,1-.063-.018l-.238-.151a9.325,9.325,0,0,1-1.639-1.2.117.117,0,0,1-.033-.081v-8.023a.117.117,0,0,1,.234,0V200.9a9.562,9.562,0,0,0,1.563,1.131l.239.151a.117.117,0,0,1-.063.216Z" transform="translate(-197.856 -192.809)" fill="#1a1818"/>
      </g>
      <g id="Group_143" data-name="Group 143" transform="translate(13.215 19.388)">
        <path id="Path_131" data-name="Path 131" d="M169.7,202.52a.118.118,0,0,1-.1-.057.116.116,0,0,1,.041-.16,11.246,11.246,0,0,0,2.064-1.442v-8.006a.117.117,0,1,1,.233,0v8.053a.116.116,0,0,1-.033.081,11.01,11.01,0,0,1-2.146,1.515A.116.116,0,0,1,169.7,202.52Z" transform="translate(-169.578 -192.738)" fill="#1a1818"/>
      </g>
      <g id="Group_144" data-name="Group 144" transform="translate(12.361 4.794)">
        <path id="Path_132" data-name="Path 132" d="M175.8,176.031a4.187,4.187,0,0,1-2.458-.9c-.205-.149-.424-.3-.656-.461-.5-.349-1.023-.709-1.456-1.077-.233-.2-.455-.395-.66-.587-.042-.039-.14-.144-.264-.29-.094-.111-.205-.219-.333-.345a6.008,6.008,0,0,1-1.381-1.905,2.257,2.257,0,0,1-.095-.244,39.353,39.353,0,0,1-.826-5.9v-.007l-.113-5.991a.117.117,0,0,1,.115-.119h0a.117.117,0,0,1,.117.115l.113,5.987a39.964,39.964,0,0,0,.815,5.836,2.1,2.1,0,0,0,.085.219,5.73,5.73,0,0,0,1.333,1.838c.126.124.246.242.347.361.125.147.216.243.246.271.2.189.421.384.651.579.424.361.939.718,1.438,1.063.233.161.452.313.66.464a3.574,3.574,0,0,0,4.876-.24c.172-.149.349-.3.537-.456a15.753,15.753,0,0,0,1.5-1.373.932.932,0,0,1,.1-.088,6.063,6.063,0,0,0,1.807-2.582c.007-.018.016-.039.023-.061a48.146,48.146,0,0,0,.95-5.841l0-.192.109-5.784a.117.117,0,0,1,.117-.115h0a.117.117,0,0,1,.115.119l-.113,5.981v.011a47.227,47.227,0,0,1-.963,5.9c-.008.024-.018.048-.027.07a6.28,6.28,0,0,1-1.876,2.675c-.031.026-.067.055-.075.064a15.972,15.972,0,0,1-1.526,1.395c-.187.158-.364.306-.534.454A4.133,4.133,0,0,1,175.8,176.031Z" transform="translate(-167.56 -158.213)" fill="#1a1818"/>
      </g>
      <g id="Group_145" data-name="Group 145" transform="translate(0.143 28.891)">
        <path id="Path_133" data-name="Path 133" d="M179.157,224.011h-40.5a9.547,9.547,0,0,1,4.123-5.4,11.635,11.635,0,0,1,1.4-.741,14.957,14.957,0,0,1,2.564-.859q.415-.1.855-.187.275-.033.544-.078a10.967,10.967,0,0,0,1.691-.428,10.683,10.683,0,0,0,1.337-.556c.243-.12.476-.247.7-.381l.7-.008,2.8-.033,1.4-.016,2.822-.033,1.4-.016,2.821-.033,1.4-.016.465-.006a10.635,10.635,0,0,0,2.017,1q.268.1.547.186a10.947,10.947,0,0,0,1.4.337c.189.034.381.062.574.085a17.085,17.085,0,0,1,2.229.583,13.278,13.278,0,0,1,1.4.558A9.613,9.613,0,0,1,179.157,224.011Z" transform="translate(-138.654 -215.218)" fill="#1a1818"/>
      </g>
      <g id="Group_146" data-name="Group 146" transform="translate(18.903 10.578)">
        <path id="Path_134" data-name="Path 134" d="M184.027,176.676a.118.118,0,0,1-.08-.032c-.738-.7-.982-1.056-.9-1.324.074-.234.371-.332.859-.408v-2.9a.117.117,0,0,1,.234,0v3a.117.117,0,0,1-.1.115c-.216.031-.72.1-.771.262-.072.229.61.872.834,1.084a.117.117,0,0,1-.08.2Z" transform="translate(-183.034 -171.896)" fill="#1a1818"/>
      </g>
      <g id="Group_147" data-name="Group 147" transform="translate(27.123 10.578)">
        <path id="Path_135" data-name="Path 135" d="M203.339,178.289a3.2,3.2,0,0,1-.769-.093.116.116,0,0,1-.081-.153,48.152,48.152,0,0,0,.95-5.84l0-.192a.116.116,0,0,1,.038-.084.118.118,0,0,1,.087-.03,3.2,3.2,0,0,1-.228,6.394Zm-.588-.292a2.967,2.967,0,1,0,.923-5.857v.082A51.586,51.586,0,0,1,202.751,178Z" transform="translate(-202.482 -171.895)" fill="#1a1818"/>
      </g>
      <g id="Group_148" data-name="Group 148" transform="translate(22.736 10.915)">
        <path id="Path_136" data-name="Path 136" d="M192.219,173.744a.117.117,0,0,1-.1-.174,1.609,1.609,0,0,1,.752-.814,1.349,1.349,0,0,1,1,.08c.07.027.139.057.209.086a2.319,2.319,0,0,0,.648.205.117.117,0,0,1-.025.232,2.561,2.561,0,0,1-.714-.222c-.067-.028-.134-.057-.2-.083a1.136,1.136,0,0,0-.829-.079,1.43,1.43,0,0,0-.632.709A.117.117,0,0,1,192.219,173.744Z" transform="translate(-192.102 -172.693)" fill="#1a1818"/>
      </g>
      <g id="Group_149" data-name="Group 149" transform="translate(16.198 11.072)">
        <ellipse id="Ellipse_18" data-name="Ellipse 18" cx="0.425" cy="0.708" rx="0.425" ry="0.708" fill="#1a1818"/>
      </g>
      <g id="Group_150" data-name="Group 150" transform="translate(14.925 10.915)">
        <path id="Path_137" data-name="Path 137" d="M176.234,173.744a.117.117,0,0,1-.1-.06,1.428,1.428,0,0,0-.632-.709,1.136,1.136,0,0,0-.829.079c-.068.026-.135.055-.2.083a2.559,2.559,0,0,1-.714.222.117.117,0,1,1-.025-.232,2.321,2.321,0,0,0,.648-.205c.069-.029.139-.058.208-.086a1.349,1.349,0,0,1,1-.08,1.61,1.61,0,0,1,.752.814.117.117,0,0,1-.046.159A.115.115,0,0,1,176.234,173.744Z" transform="translate(-173.624 -172.693)" fill="#1a1818"/>
      </g>
      <g id="Group_151" data-name="Group 151" transform="translate(14.304 8.706)">
        <path id="Path_138" data-name="Path 138" d="M175.343,168.772a2.748,2.748,0,0,0,.864.287.706.706,0,0,0,.739-.416.775.775,0,0,0-.338-.785,2.706,2.706,0,0,0-2.108-.323,6.412,6.412,0,0,0-1.514.418c-.175.075-1.239.635-.659.647a6.656,6.656,0,0,0,.749-.182,3.9,3.9,0,0,1,.776-.017A4.676,4.676,0,0,1,175.343,168.772Z" transform="translate(-172.155 -167.466)" fill="#1a1818"/>
      </g>
      <g id="Group_152" data-name="Group 152" transform="translate(21.502 8.706)">
        <path id="Path_139" data-name="Path 139" d="M190.81,168.772a2.744,2.744,0,0,1-.864.287.706.706,0,0,1-.739-.416.774.774,0,0,1,.339-.785,2.7,2.7,0,0,1,2.108-.323,6.421,6.421,0,0,1,1.515.418c.175.075,1.239.635.658.647a6.649,6.649,0,0,1-.749-.182,3.906,3.906,0,0,0-.777-.017A4.679,4.679,0,0,0,190.81,168.772Z" transform="translate(-189.184 -167.466)" fill="#1a1818"/>
      </g>
      <g id="Group_153" data-name="Group 153" transform="translate(8.453)">
        <path id="Path_140" data-name="Path 140" d="M181.9,163.011l-2.067.8-.439-1.7v1.868l-4.3,1.665c1.589-3.616,1.692-8.138,1.088-12.965l-.971,2.752h-1.82l-.35-2.449-.606,2.449h-2.175l-.32-2.285-.373,2.285h-5.177l-.42-3.032c-.047.849-.074,1.7-.1,2.547a20.008,20.008,0,0,1,.077,2.214,1.776,1.776,0,0,1-1.1,1.33,19.572,19.572,0,0,0,1.263,6.525,8.633,8.633,0,0,1-2.8-.418,4.391,4.391,0,0,1-2.951-3.61c-.271-2.16.882-3.334,1.6-5.2,2.381-6.14,3.234-9.743,10.582-8.638,5.316-1.315,6.628,2.1,9.479,7.289C181.427,157,182.433,158.991,181.9,163.011Z" transform="translate(-158.314 -146.872)" fill="#1a1818"/>
      </g>
      <g id="Group_154" data-name="Group 154" transform="translate(9.603 10.688)">
        <path id="Path_141" data-name="Path 141" d="M164.843,178.238a3.084,3.084,0,1,1-.825-6.081l0,.213A40.106,40.106,0,0,0,164.843,178.238Z" transform="translate(-161.034 -172.157)" fill="#fff"/>
      </g>
      <g id="Group_155" data-name="Group 155" transform="translate(4.265 31.543)">
        <path id="Path_142" data-name="Path 142" d="M149.807,221.491v6.142h-1.4v-5.4A11.631,11.631,0,0,1,149.807,221.491Z" transform="translate(-148.407 -221.491)" fill="#fff"/>
      </g>
      <g id="Group_156" data-name="Group 156" transform="translate(8.229 30.419)">
        <path id="Path_143" data-name="Path 143" d="M159.183,218.832V226.1h-1.4v-7q.415-.1.855-.187Q158.913,218.877,159.183,218.832Z" transform="translate(-157.783 -218.832)" fill="#fff"/>
      </g>
      <g id="Group_157" data-name="Group 157" transform="translate(12.657 29.045)">
        <path id="Path_144" data-name="Path 144" d="M169.659,215.583v8.639h-1.4v-8.25c.243-.12.476-.247.7-.381Z" transform="translate(-168.259 -215.583)" fill="#fff"/>
      </g>
      <g id="Group_158" data-name="Group 158" transform="translate(16.86 28.996)">
        <path id="Path_145" data-name="Path 145" d="M179.6,215.466v8.688h-1.4v-8.672Z" transform="translate(-178.202 -215.466)" fill="#fff"/>
      </g>
      <g id="Group_159" data-name="Group 159" transform="translate(25.302 28.897)">
        <path id="Path_146" data-name="Path 146" d="M199.572,215.231v8.788h-1.4v-8.771Z" transform="translate(-198.172 -215.231)" fill="#fff"/>
      </g>
      <g id="Group_160" data-name="Group 160" transform="translate(21.081 28.946)">
        <path id="Path_147" data-name="Path 147" d="M189.587,215.348v8.738h-1.4v-8.722Z" transform="translate(-188.187 -215.348)" fill="#fff"/>
      </g>
      <g id="Group_161" data-name="Group 161" transform="translate(29.73 30.075)">
        <path id="Path_148" data-name="Path 148" d="M210.048,218.356v7.272h-1.4v-7.609A10.945,10.945,0,0,0,210.048,218.356Z" transform="translate(-208.648 -218.019)" fill="#fff"/>
      </g>
      <g id="Group_162" data-name="Group 162" transform="translate(33.933 31.08)">
        <path id="Path_149" data-name="Path 149" d="M219.99,220.954V227h-1.4v-6.6A13.277,13.277,0,0,1,219.99,220.954Z" transform="translate(-218.591 -220.396)" fill="#fff"/>
      </g>
      <g id="Group_163" data-name="Group 163" transform="translate(0 28.775)">
        <path id="Path_150" data-name="Path 150" d="M178.937,223.969h-40.5a.117.117,0,0,1-.111-.152c1.269-3.954,4.222-6.331,9.03-7.266h.009a10.864,10.864,0,0,0,2.212-.5,10.627,10.627,0,0,0,2.015-.927.119.119,0,0,1,.058-.016l13.81-.162a.129.129,0,0,1,.064.018,10.516,10.516,0,0,0,1.995.986,10.869,10.869,0,0,0,2.494.6h.008c4.808.936,7.761,3.313,9.031,7.266a.117.117,0,0,1-.111.152Zm-40.342-.233h40.181c-1.267-3.773-4.148-6.049-8.8-6.955a11.09,11.09,0,0,1-2.543-.614,10.737,10.737,0,0,1-2.01-.99l-13.744.161a10.866,10.866,0,0,1-2.033.931,11.049,11.049,0,0,1-2.255.511C142.741,217.687,139.861,219.964,138.6,223.736Z" transform="translate(-138.317 -214.943)" fill="#1a1818"/>
      </g>
      <g id="Group_164" data-name="Group 164" transform="translate(23.339 11.072)">
        <ellipse id="Ellipse_19" data-name="Ellipse 19" cx="0.425" cy="0.708" rx="0.425" ry="0.708" fill="#1a1818"/>
      </g>
      <g id="Group_165" data-name="Group 165" transform="translate(25.168 19.418)">
        <path id="Path_151" data-name="Path 151" d="M199.829,202.4a.117.117,0,0,1-.063-.018l-.238-.151a9.325,9.325,0,0,1-1.639-1.2.117.117,0,0,1-.033-.081v-8.023a.117.117,0,0,1,.234,0V200.9a9.562,9.562,0,0,0,1.563,1.131l.239.151a.117.117,0,0,1-.063.216Z" transform="translate(-197.856 -192.809)" fill="#1a1818"/>
      </g>
      <g id="Group_166" data-name="Group 166" transform="translate(13.215 19.388)">
        <path id="Path_152" data-name="Path 152" d="M169.7,202.52a.118.118,0,0,1-.1-.057.116.116,0,0,1,.041-.16,11.246,11.246,0,0,0,2.064-1.442v-8.006a.117.117,0,1,1,.233,0v8.053a.116.116,0,0,1-.033.081,11.01,11.01,0,0,1-2.146,1.515A.116.116,0,0,1,169.7,202.52Z" transform="translate(-169.578 -192.738)" fill="#1a1818"/>
      </g>
      <g id="Group_167" data-name="Group 167" transform="translate(12.361 4.794)">
        <path id="Path_153" data-name="Path 153" d="M175.8,176.031a4.187,4.187,0,0,1-2.458-.9c-.205-.149-.424-.3-.656-.461-.5-.349-1.023-.709-1.456-1.077-.233-.2-.455-.395-.66-.587-.042-.039-.14-.144-.264-.29-.094-.111-.205-.219-.333-.345a6.008,6.008,0,0,1-1.381-1.905,2.257,2.257,0,0,1-.095-.244,39.353,39.353,0,0,1-.826-5.9v-.007l-.113-5.991a.117.117,0,0,1,.115-.119h0a.117.117,0,0,1,.117.115l.113,5.987a39.964,39.964,0,0,0,.815,5.836,2.1,2.1,0,0,0,.085.219,5.73,5.73,0,0,0,1.333,1.838c.126.124.246.242.347.361.125.147.216.243.246.271.2.189.421.384.651.579.424.361.939.718,1.438,1.063.233.161.452.313.66.464a3.574,3.574,0,0,0,4.876-.24c.172-.149.349-.3.537-.456a15.753,15.753,0,0,0,1.5-1.373.932.932,0,0,1,.1-.088,6.063,6.063,0,0,0,1.807-2.582c.007-.018.016-.039.023-.061a48.146,48.146,0,0,0,.95-5.841l0-.192.109-5.784a.117.117,0,0,1,.117-.115h0a.117.117,0,0,1,.115.119l-.113,5.981v.011a47.227,47.227,0,0,1-.963,5.9c-.008.024-.018.048-.027.07a6.28,6.28,0,0,1-1.876,2.675c-.031.026-.067.055-.075.064a15.972,15.972,0,0,1-1.526,1.395c-.187.158-.364.306-.534.454A4.133,4.133,0,0,1,175.8,176.031Z" transform="translate(-167.56 -158.213)" fill="#1a1818"/>
      </g>
      <g id="Group_168" data-name="Group 168" transform="translate(0.143 28.891)">
        <path id="Path_154" data-name="Path 154" d="M179.157,224.011h-40.5a9.547,9.547,0,0,1,4.123-5.4,11.635,11.635,0,0,1,1.4-.741,14.957,14.957,0,0,1,2.564-.859q.415-.1.855-.187.275-.033.544-.078a10.967,10.967,0,0,0,1.691-.428,10.683,10.683,0,0,0,1.337-.556c.243-.12.476-.247.7-.381l.7-.008,2.8-.033,1.4-.016,2.822-.033,1.4-.016,2.821-.033,1.4-.016.465-.006a10.635,10.635,0,0,0,2.017,1q.268.1.547.186a10.947,10.947,0,0,0,1.4.337c.189.034.381.062.574.085a17.085,17.085,0,0,1,2.229.583,13.278,13.278,0,0,1,1.4.558A9.613,9.613,0,0,1,179.157,224.011Z" transform="translate(-138.654 -215.218)" fill="#1a1818"/>
      </g>
      <g id="Group_169" data-name="Group 169" transform="translate(18.903 10.578)">
        <path id="Path_155" data-name="Path 155" d="M184.027,176.676a.118.118,0,0,1-.08-.032c-.738-.7-.982-1.056-.9-1.324.074-.234.371-.332.859-.408v-2.9a.117.117,0,0,1,.234,0v3a.117.117,0,0,1-.1.115c-.216.031-.72.1-.771.262-.072.229.61.872.834,1.084a.117.117,0,0,1-.08.2Z" transform="translate(-183.034 -171.896)" fill="#1a1818"/>
      </g>
      <g id="Group_170" data-name="Group 170" transform="translate(27.123 10.578)">
        <path id="Path_156" data-name="Path 156" d="M203.339,178.289a3.2,3.2,0,0,1-.769-.093.116.116,0,0,1-.081-.153,48.152,48.152,0,0,0,.95-5.84l0-.192a.116.116,0,0,1,.038-.084.118.118,0,0,1,.087-.03,3.2,3.2,0,0,1-.228,6.394Zm-.588-.292a2.967,2.967,0,1,0,.923-5.857v.082A51.586,51.586,0,0,1,202.751,178Z" transform="translate(-202.482 -171.895)" fill="#1a1818"/>
      </g>
      <g id="Group_171" data-name="Group 171" transform="translate(22.736 10.915)">
        <path id="Path_157" data-name="Path 157" d="M192.219,173.744a.117.117,0,0,1-.1-.174,1.609,1.609,0,0,1,.752-.814,1.349,1.349,0,0,1,1,.08c.07.027.139.057.209.086a2.319,2.319,0,0,0,.648.205.117.117,0,0,1-.025.232,2.561,2.561,0,0,1-.714-.222c-.067-.028-.134-.057-.2-.083a1.136,1.136,0,0,0-.829-.079,1.43,1.43,0,0,0-.632.709A.117.117,0,0,1,192.219,173.744Z" transform="translate(-192.102 -172.693)" fill="#1a1818"/>
      </g>
      <g id="Group_172" data-name="Group 172" transform="translate(16.198 11.072)">
        <ellipse id="Ellipse_20" data-name="Ellipse 20" cx="0.425" cy="0.708" rx="0.425" ry="0.708" fill="#1a1818"/>
      </g>
      <g id="Group_173" data-name="Group 173" transform="translate(14.925 10.915)">
        <path id="Path_158" data-name="Path 158" d="M176.234,173.744a.117.117,0,0,1-.1-.06,1.428,1.428,0,0,0-.632-.709,1.136,1.136,0,0,0-.829.079c-.068.026-.135.055-.2.083a2.559,2.559,0,0,1-.714.222.117.117,0,1,1-.025-.232,2.321,2.321,0,0,0,.648-.205c.069-.029.139-.058.208-.086a1.349,1.349,0,0,1,1-.08,1.61,1.61,0,0,1,.752.814.117.117,0,0,1-.046.159A.115.115,0,0,1,176.234,173.744Z" transform="translate(-173.624 -172.693)" fill="#1a1818"/>
      </g>
      <g id="Group_174" data-name="Group 174" transform="translate(14.304 8.706)">
        <path id="Path_159" data-name="Path 159" d="M175.343,168.772a2.748,2.748,0,0,0,.864.287.706.706,0,0,0,.739-.416.775.775,0,0,0-.338-.785,2.706,2.706,0,0,0-2.108-.323,6.412,6.412,0,0,0-1.514.418c-.175.075-1.239.635-.659.647a6.656,6.656,0,0,0,.749-.182,3.9,3.9,0,0,1,.776-.017A4.676,4.676,0,0,1,175.343,168.772Z" transform="translate(-172.155 -167.466)" fill="#1a1818"/>
      </g>
      <g id="Group_175" data-name="Group 175" transform="translate(21.502 8.706)">
        <path id="Path_160" data-name="Path 160" d="M190.81,168.772a2.744,2.744,0,0,1-.864.287.706.706,0,0,1-.739-.416.774.774,0,0,1,.339-.785,2.7,2.7,0,0,1,2.108-.323,6.421,6.421,0,0,1,1.515.418c.175.075,1.239.635.658.647a6.649,6.649,0,0,1-.749-.182,3.906,3.906,0,0,0-.777-.017A4.679,4.679,0,0,0,190.81,168.772Z" transform="translate(-189.184 -167.466)" fill="#1a1818"/>
      </g>
      <g id="Group_176" data-name="Group 176" transform="translate(8.453)">
        <path id="Path_161" data-name="Path 161" d="M181.9,163.011l-2.067.8-.439-1.7v1.868l-4.3,1.665c1.589-3.616,1.692-8.138,1.088-12.965l-.971,2.752h-1.82l-.35-2.449-.606,2.449h-2.175l-.32-2.285-.373,2.285h-5.177l-.42-3.032c-.047.849-.074,1.7-.1,2.547a20.008,20.008,0,0,1,.077,2.214,1.776,1.776,0,0,1-1.1,1.33,19.572,19.572,0,0,0,1.263,6.525,8.633,8.633,0,0,1-2.8-.418,4.391,4.391,0,0,1-2.951-3.61c-.271-2.16.882-3.334,1.6-5.2,2.381-6.14,3.234-9.743,10.582-8.638,5.316-1.315,6.628,2.1,9.479,7.289C181.427,157,182.433,158.991,181.9,163.011Z" transform="translate(-158.314 -146.872)" fill="#fff" stroke="#161615" stroke-miterlimit="10" stroke-width="0.5"/>
      </g>
      <g id="Group_177" data-name="Group 177" transform="translate(9.603 10.688)">
        <path id="Path_162" data-name="Path 162" d="M164.843,178.238a3.084,3.084,0,1,1-.825-6.081l0,.213A40.106,40.106,0,0,0,164.843,178.238Z" transform="translate(-161.034 -172.157)" fill="#fff"/>
      </g>
      <g id="Group_178" data-name="Group 178" transform="translate(4.265 31.543)">
        <path id="Path_163" data-name="Path 163" d="M149.807,221.491v6.142h-1.4v-5.4A11.631,11.631,0,0,1,149.807,221.491Z" transform="translate(-148.407 -221.491)" fill="#fff"/>
      </g>
      <g id="Group_179" data-name="Group 179" transform="translate(12.657 29.045)">
        <path id="Path_164" data-name="Path 164" d="M169.659,215.583v8.639h-1.4v-8.25c.243-.12.476-.247.7-.381Z" transform="translate(-168.259 -215.583)" fill="#fff"/>
      </g>
      <g id="Group_180" data-name="Group 180" transform="translate(21.081 28.946)">
        <path id="Path_165" data-name="Path 165" d="M189.587,215.348v8.738h-1.4v-8.722Z" transform="translate(-188.187 -215.348)" fill="#fff"/>
      </g>
      <g id="Group_181" data-name="Group 181" transform="translate(29.73 30.075)">
        <path id="Path_166" data-name="Path 166" d="M210.048,218.356v7.272h-1.4v-7.609A10.945,10.945,0,0,0,210.048,218.356Z" transform="translate(-208.648 -218.019)" fill="#fff"/>
      </g>
      <g id="Group_182" data-name="Group 182" transform="translate(37.42 33.008)">
        <path id="Path_167" data-name="Path 167" d="M228.1,226.273l.143,3.362h-1.4v-4.676C227.338,225.126,227.66,226.069,228.1,226.273Z" transform="translate(-226.841 -224.959)" fill="#fff"/>
      </g>
      <g id="Group_183" data-name="Group 183" transform="translate(0 28.775)">
        <path id="Path_168" data-name="Path 168" d="M178.937,223.969h-40.5a.117.117,0,0,1-.111-.152c1.269-3.954,4.222-6.331,9.03-7.266h.009a10.864,10.864,0,0,0,2.212-.5,10.627,10.627,0,0,0,2.015-.927.119.119,0,0,1,.058-.016l13.81-.162a.129.129,0,0,1,.064.018,10.516,10.516,0,0,0,1.995.986,10.869,10.869,0,0,0,2.494.6h.008c4.808.936,7.761,3.313,9.031,7.266a.117.117,0,0,1-.111.152Zm-40.342-.233h40.181c-1.267-3.773-4.148-6.049-8.8-6.955a11.09,11.09,0,0,1-2.543-.614,10.737,10.737,0,0,1-2.01-.99l-13.744.161a10.866,10.866,0,0,1-2.033.931,11.049,11.049,0,0,1-2.255.511C142.741,217.687,139.861,219.964,138.6,223.736Z" transform="translate(-138.317 -214.943)" fill="#1a1818"/>
      </g>
      <g id="Group_184" data-name="Group 184" transform="translate(17.83 17.382)">
        <path id="Path_169" data-name="Path 169" d="M182.883,188.62a7.244,7.244,0,0,1-2.306-.4.117.117,0,1,1,.074-.221,6.24,6.24,0,0,0,4.329,0,.117.117,0,0,1,.082.219A6.123,6.123,0,0,1,182.883,188.62Z" transform="translate(-180.497 -187.993)" fill="#1a1818"/>
      </g>
      <g id="Group_185" data-name="Group 185" transform="translate(18.122 16.839)">
        <path id="Path_170" data-name="Path 170" d="M183.237,188.758a2.749,2.749,0,0,1-2.022-1.224.115.115,0,0,1-.025-.09.117.117,0,0,1,.048-.08l.564-.4a1.33,1.33,0,0,1,1.417-.074l.039-.022a1.338,1.338,0,0,1,1.44.1l.53.395a.117.117,0,0,1,.021.167,2.727,2.727,0,0,1-2.008,1.225Zm-1.761-1.276a2.448,2.448,0,0,0,1.761,1.042h0a2.429,2.429,0,0,0,1.75-1.044l-.432-.321a1.1,1.1,0,0,0-1.187-.082l-.1.054a.116.116,0,0,1-.118,0,1.1,1.1,0,0,0-1.219.032Z" transform="translate(-181.188 -186.708)" fill="#1a1818"/>
      </g>
    </g>
    <path id="Path_388" data-name="Path 388" d="M187.669,31.811h17.942v14.34h-3.657V68.4l-14.34-14.876V31.811Z" transform="translate(-11790.307 -6537.364)" fill="#a39393"/>
    <path id="Path_389" data-name="Path 389" d="M148.284,31.811h3.6v14.34h-3.6V68.4l-14.34-14.876V31.811Z" transform="translate(-11759.324 -6537.364)" fill="#a39393"/>
  </g>
</svg>
