<svg xmlns="http://www.w3.org/2000/svg" width="176.808" height="92.446" viewBox="0 0 176.808 92.446"><g transform="translate(-494 -152.125)"><g transform="translate(670.808 191.881) rotate(106)"><path d="M42.724,106.646l2.017,1.012c-.981,1.952-2.093,3.939-3.309,5.9l-1.921-1.186C40.691,110.467,41.772,108.54,42.724,106.646ZM4.171,72.683l1.575-1.614a12.16,12.16,0,0,0,5.268,2.968L10.4,76.211a14.77,14.77,0,0,1-5.482-2.857Q4.531,73.033,4.171,72.683ZM.132,59.428l2.244.242a16.892,16.892,0,0,0,.381,6.2l-2.179.59A19.182,19.182,0,0,1,.132,59.428ZM47.293,94.415l2.195.53a55.981,55.981,0,0,1-2.015,6.5l-2.112-.8A53.736,53.736,0,0,0,47.293,94.415ZM17.187,74.508a15.783,15.783,0,0,0,5.889-1.87L24.189,74.6a17.963,17.963,0,0,1-6.744,2.149ZM2.948,52.247a13.988,13.988,0,0,1,5.4-3.859l.875,2.082A11.79,11.79,0,0,0,4.678,53.7c-.1.116-.191.232-.284.355L2.6,52.682C2.714,52.534,2.829,52.39,2.948,52.247ZM48.533,81.832l-.017-.318,2.254-.125.017.339a44.413,44.413,0,0,1-.158,6.5L48.384,88A42.624,42.624,0,0,0,48.533,81.832ZM31.346,63.092l1.946,1.143a46.879,46.879,0,0,1-3.873,5.642l-1.756-1.418A44.237,44.237,0,0,0,31.346,63.092ZM15.188,46.856a28.794,28.794,0,0,1,6.914.414l-.393,2.221a26.811,26.811,0,0,0-6.372-.385ZM45.734,68.922l2.084-.866a38.288,38.288,0,0,1,2.042,6.551l-2.2.481A35.932,35.932,0,0,0,45.734,68.922ZM36.247,51.083l2.2.525a44.119,44.119,0,0,1-2.112,6.51l-2.087-.861A41.591,41.591,0,0,0,36.247,51.083Zm-7.519-1.908a34.939,34.939,0,0,1,6.1,3.182l-1.238,1.887a32.62,32.62,0,0,0-5.708-2.975ZM38.6,58.287l1.587-1.606a34.173,34.173,0,0,1,4.387,5.308L42.7,63.243A31.925,31.925,0,0,0,38.6,58.287ZM36.926,38.264l2.234-.316a35,35,0,0,1,.287,6.874l-2.252-.128A32.783,32.783,0,0,0,36.926,38.264ZM32.647,26.2l1.945-1.142a37.036,37.036,0,0,1,2.915,6.213l-2.125.759A34.894,34.894,0,0,0,32.647,26.2ZM3.31,0c2.1.966,4.125,1.971,6.034,2.989L8.282,4.983C6.411,3.983,4.42,3,2.365,2.047ZM24.444,16.178l1.54-1.651a52.733,52.733,0,0,1,4.676,4.94L28.921,20.9A49.94,49.94,0,0,0,24.444,16.178ZM15.188,6.362c1.975,1.235,3.853,2.519,5.584,3.821l-1.357,1.8c-1.679-1.263-3.505-2.509-5.425-3.713Z" transform="translate(6.656 9.355)" fill="rgba(0,0,0,0.85)"/><path d="M9.072,20.95,3,8,15.708,2.046,14.75,0,0,6.916,7.027,21.907Z" transform="translate(0)" fill="rgba(0,0,0,0.85)"/></g><path d="M18.1.08c-3.6.734-5.322,6.131-4.02,12.565.067.329.165.625.243.942-.183-.121-.351-.253-.54-.368a17.786,17.786,0,0,0-7.5-2.681C3.612,10.306,1.6,11.071.6,12.685s-.754,3.76.666,6.04A17.833,17.833,0,0,0,7.064,24.19,20.657,20.657,0,0,0,10.7,25.956c-.986,1.906-1.2,3.61-.383,4.716,1.764,2.4,7.617,1.081,13.072-2.936s8.45-9.214,6.686-11.61a3.553,3.553,0,0,0-2.987-1.187,20.293,20.293,0,0,0-.395-4.844h0C25.389,3.658,21.7-.647,18.1.08ZM8.472,21.895A15.343,15.343,0,0,1,3.554,17.3c-.827-1.328-1.072-2.525-.655-3.207a1.388,1.388,0,0,1,.357-.379,4.282,4.282,0,0,1,2.8-.494,15.314,15.314,0,0,1,6.322,2.3h0A16.249,16.249,0,0,1,16.7,19.3a24.467,24.467,0,0,0-4.471,4.322A17.6,17.6,0,0,1,8.472,21.895ZM24.053,10.628a17.146,17.146,0,0,1,.309,4.708,21.023,21.023,0,0,0-5.387,2.4,15.9,15.9,0,0,1-2.253-5.627c-.888-4.385-.058-8.1,1.344-9.131a1.431,1.431,0,0,1,.571-.261C20.367,2.369,23.05,5.678,24.053,10.628Z" transform="matrix(0.951, 0.309, -0.309, 0.951, 511.981, 168.499)"/><g transform="translate(-216 -751.002)"><g transform="translate(20 15.125)"><path d="M720.114,900.163V888l-7.839,8.132V908h9.838v-7.839Z" transform="translate(-9.874)" fill="#a39393"/><path d="M697.839,900.163V888L690,896.133V908h9.808v-7.839Z" fill="#a39393"/></g></g></g></svg>