<svg xmlns="http://www.w3.org/2000/svg" width="34.234" height="35.626" viewBox="0 0 34.234 35.626"><g transform="translate(0 0)"><path d="M.231,2.722a.23.23,0,0,1,.033.109c.026,0,.05,0,.074.006.434.034.869.065,1.3.085-.082,0,1.134.094.953.194a.71.71,0,0,0,.187-.343.324.324,0,0,1,.086-.278c.043-.149.079-.284.1-.349q.374-.964.748-1.928L.522,0C.2.928-.3,1.856.231,2.722" transform="translate(22.467 3.254)" fill="#fefefe"/><path d="M2.589.142.516,0A4.049,4.049,0,0,1,.561.706,4.937,4.937,0,0,1,0,2.7c.731.084,1.459.177,2.188.251a2.534,2.534,0,0,1,.1-1.987c.1-.276.215-.546.306-.821" transform="translate(19.94 3.081)" fill="#fefefe"/><path d="M.572,2.733c.632.021,1.265.077,1.9.146a4.029,4.029,0,0,0,.579-1.857A3.227,3.227,0,0,0,2.976.2L.009,0C-.016.648.021,1.3.025,1.949c0,.7-.151.761.547.784" transform="translate(16.949 2.842)" fill="#fefefe"/><path d="M.49.363C.458.447.425.53.392.614L.608.637A1.607,1.607,0,0,1,.49.363" transform="translate(26.034 3.56)" fill="#ee4046"/><path d="M.465.488a.368.368,0,0,1-.049,0C.488.6.726.425.465.488" transform="translate(29.54 6.226)" fill="#eb008b"/><path d="M24.889,31.446a5.65,5.65,0,0,0,.657-1.826c.334-1.013.649-2.033.957-3.054,1.755-5.787,3.371-11.62,4.914-17.468.531-2.011,1.081-4.026,1.511-6.062a2.475,2.475,0,0,0,.143-.742.648.648,0,0,1-.01-.079.3.3,0,0,1-.144-.042,10.593,10.593,0,0,0-2.981-.436c-1.394-.173-2.789-.325-4.185-.47a.247.247,0,0,1-.082-.026q-.2.521-.4,1.039l4.436.5a.227.227,0,0,1,.2.272Q29.5,4.629,29.09,6.214q-2.832,11-5.666,22c-.03.119-.142.278-.29.254L3.4,25.371a.235.235,0,0,1-.186-.338q.475-1.481.949-2.963Q7.494,11.654,10.828,1.236a.3.3,0,0,1,.271-.187c1.6.069,3.225.124,4.814.348,0-.328-.013-.657-.021-.985C14.33.293,12.768.175,11.2.1c-.5-.022-1-.052-1.5-.042C9.486.066,9.035.145,9.2,0c-.414.374-.617,1.7-.789,2.2C7.154,5.851,5.951,9.52,4.743,13.188Q2.8,19.105.878,25.034c-.131.407-1.038,2.307-.853,2.647s2.8.573,3.248.661c2.84.55,5.692,1.028,8.552,1.468q4,.615,8.019,1.144,2.013.268,4.027.522c.655.083.694.3,1.018-.03" transform="translate(0.565 3.431)" fill="#fefefe"/><path d="M19.13,26.335h0a3.509,3.509,0,0,0-1.152-.206c-.19-.014-.37-.027-.521-.05L11.211,25.1,0,23.336q2.175-6.8,4.352-13.6L7.28.587,7.3.526c.057-.174.113-.35.168-.526l.017.009a.4.4,0,0,0,.048.024A2.864,2.864,0,0,0,8.543.166c.162,0,.33,0,.477-.009.17-.005.311-.009.444-.009.1,0,.188,0,.262.008.861.057,1.637.114,2.422.225,0,.167-.011.291-.019.4a.228.228,0,0,0,.2.271c1,.077,2.02.184,3,.288,1.822.192,3.706.39,5.571.407a.3.3,0,0,0,.271-.188l.118-.3L21.3,1.24l1.521.17.024,0,.772.087,1.591.177c.038,0,.084.014.132.024a1.675,1.675,0,0,0,.226.035c-.157.495-.277,1.017-.394,1.521-.066.283-.133.575-.206.856L23.762,8.8q-1.051,4.083-2.1,8.165L20.055,23.2l-.17.661q-.192.746-.383,1.492c-.024.091-.065.206-.108.327a3.511,3.511,0,0,0-.184.633H19.2a.108.108,0,0,0-.072.02ZM6.264,20.815a.282.282,0,0,0-.259.283.216.216,0,0,0,.2.244c.9.1,1.814.191,2.7.279a64.843,64.843,0,0,1,8.106,1.147.245.245,0,0,0,.054.006.339.339,0,0,0,.3-.3.179.179,0,0,0-.148-.211A66.29,66.29,0,0,0,8.982,21.1c-.882-.087-1.794-.178-2.69-.279Zm.756-3.9a.276.276,0,0,0-.252.273.224.224,0,0,0,.2.256c1.421.2,2.875.37,4.28.529,2.149.244,4.37.5,6.527.9a.247.247,0,0,0,.045,0,.35.35,0,0,0,.314-.312.169.169,0,0,0-.149-.2c-2.181-.4-4.425-.661-6.6-.909-1.424-.163-2.9-.331-4.334-.539ZM8.233,13.7a.307.307,0,0,0-.281.311.2.2,0,0,0,.2.216,57.251,57.251,0,0,1,10.806,1.425.243.243,0,0,0,.055.006.338.338,0,0,0,.3-.3.178.178,0,0,0-.148-.21A57.95,57.95,0,0,0,8.241,13.7Zm1.133-3.172a.283.283,0,0,0-.26.283.216.216,0,0,0,.2.244c.893.1,1.8.19,2.683.277a64.844,64.844,0,0,1,8.123,1.15.244.244,0,0,0,.054.006.34.34,0,0,0,.3-.3.178.178,0,0,0-.148-.21A66.073,66.073,0,0,0,12.1,10.809c-.887-.088-1.8-.179-2.7-.28ZM10.122,7.1a.275.275,0,0,0-.251.271.225.225,0,0,0,.2.257c1.424.205,2.88.371,4.288.531,2.145.244,4.363.5,6.518.895a.247.247,0,0,0,.044,0,.352.352,0,0,0,.315-.313.168.168,0,0,0-.149-.2c-2.186-.4-4.437-.662-6.613-.91-1.418-.162-2.884-.329-4.318-.536Zm1.211-3.213a.306.306,0,0,0-.279.311.2.2,0,0,0,.2.215A57.407,57.407,0,0,1,22.062,5.842a.243.243,0,0,0,.055.006.339.339,0,0,0,.3-.3.179.179,0,0,0-.147-.211A58.058,58.058,0,0,0,11.342,3.891Z" transform="translate(4.327 4.984)" fill="#fefefe"/><path d="M24.842,32.719a5.247,5.247,0,0,1-1.146-.185,8.907,8.907,0,0,0-.887-.174C15.9,31.469,7.885,30.375.161,28.682a.2.2,0,0,1-.128-.094.359.359,0,0,1-.014-.268q1.5-4.656,3.016-9.306C4.713,13.871,6.448,8.553,8.248,3.268c.24-.7.48-1.412.73-2.112.022-.064.046-.145.07-.234a1.65,1.65,0,0,1,.277-.65A1.254,1.254,0,0,1,10.22,0c.167,0,.334.013.491.026.11,0,.215.014.309.016,1.683.043,3.39.176,5.041.3l.487.037a.238.238,0,0,1,.23.263.323.323,0,0,1-.3.322C15.1.861,13.4.73,11.765.657L11.559.648c-.37-.017-.742-.035-1.113-.035l-.179,0c-.052,0-.117,0-.186.012S9.916.639,9.85.639C9.757.639,9.713.627,9.7.594a4.742,4.742,0,0,0-.547,1.563c-.056.23-.108.435-.156.573C7.841,6.1,6.711,9.54,5.616,12.865l-.281.855Q3.388,19.639,1.469,25.566c-.032.1-.119.311-.225.566-.285.68-.76,1.82-.631,2.06a7.95,7.95,0,0,0,2.613.562c.285.035.51.064.617.084,2.544.494,5.342.974,8.551,1.468,2.539.39,5.161.764,8.018,1.142q2.011.27,4.027.523a3.086,3.086,0,0,1,.484.1.821.821,0,0,0,.221.045c.091,0,.169-.045.289-.169a3.352,3.352,0,0,0,.52-1.333c.046-.183.087-.353.131-.481.334-1.013.649-2.033.956-3.054,1.583-5.215,3.189-10.927,4.914-17.466l.217-.824c.454-1.711.923-3.479,1.295-5.237a1.944,1.944,0,0,1,.054-.207,1.385,1.385,0,0,0,.087-.526c-.027-.054-.075-.069-.136-.1a6.139,6.139,0,0,0-2.155-.368c-.3-.019-.581-.035-.821-.064-1.392-.174-2.787-.324-4.182-.469a.242.242,0,0,1-.227-.271.318.318,0,0,1,.291-.313l.378.037c1.972.2,4.011.417,6,.724.085.015.187.024.294.034.432.04.971.088,1.128.458a3.875,3.875,0,0,1-.333,2c-.069.215-.13.4-.163.534-1.789,7.432-3.915,15.091-6.5,23.418l-.208.684c-.283.925-.575,1.884-.951,2.785a1.176,1.176,0,0,1-1.184.806" transform="translate(0 2.907)" fill="#6a6c60"/><path d="M8.818,4.495h0c-1.9-.019-3.837-.225-5.55-.407l-.38-.039C2.017,3.959,1.122,3.867.238,3.8a.258.258,0,0,1-.23-.3c.036-.517.025-1.032.008-1.6C0,1.394-.014.827.023.284A.286.286,0,0,1,.172.051.253.253,0,0,1,.326,0l9.835.671a.238.238,0,0,1,.189.11.306.306,0,0,1,.022.266l-.276.708L9.113,4.289A.339.339,0,0,1,8.818,4.495ZM.53.6c.014.32.023.664.031,1l.005.212c.006.235.013.477.015.712,0,.107,0,.2-.007.277l0,.042v.029c-.006.164-.009.264.042.319s.19.077.486.088c1.033.035,2.084.161,3.1.284H4.2c.775.094,1.475.176,2.182.23.467.039.892.067,1.3.086l.045.007c.934.091.945.151.951.186A4.141,4.141,0,0,0,8.907,3.4l.01-.034c.032-.122.056-.2.073-.244L9.737,1.2Z" transform="translate(16.42 2.267)" fill="#78c5a9"/><path d="M3.239,6.454a.209.209,0,0,1-.181-.108A2.41,2.41,0,0,1,3,4.033l.119-.314a3.989,3.989,0,0,0,.353-1.378A2.171,2.171,0,0,0,2.98.873.887.887,0,0,0,2.325.591a1.17,1.17,0,0,0-.9.362,2.663,2.663,0,0,0-.165,1.911,5.284,5.284,0,0,1,.074.924A4.42,4.42,0,0,1,.5,6.177a.309.309,0,0,1-.235.115A.276.276,0,0,1,.019,6.14a.261.261,0,0,1,.058-.279,3.738,3.738,0,0,0,.687-2A3.826,3.826,0,0,0,.656,2.835,3.375,3.375,0,0,1,.567,1.612,2.013,2.013,0,0,1,2.278,0L2.4,0c1.1,0,1.62,1.252,1.641,2.142a4.321,4.321,0,0,1-.377,1.547A2.491,2.491,0,0,0,3.521,5.96a.293.293,0,0,1-.006.307.334.334,0,0,1-.276.187" transform="translate(19.201 0)" fill="#78c5a9"/><path d="M2.971,3.085a.256.256,0,0,1-.22-.111.261.261,0,0,1-.005-.251A2.318,2.318,0,0,0,2.893.885a.7.7,0,0,0-.632-.3A1.385,1.385,0,0,0,2.084.6C1.168.708.823,1.675.544,2.453a.3.3,0,0,1-.279.235.273.273,0,0,1-.221-.109.283.283,0,0,1-.022-.262C.378,1.323.995,0,2.255,0a2.084,2.084,0,0,1,.233.015,1.171,1.171,0,0,1,.934.574A2.863,2.863,0,0,1,3.257,2.9a.313.313,0,0,1-.286.189" transform="translate(20.97 0.088)" fill="#78c5a9"/><path d="M.61,1.494a.226.226,0,0,1-.187-.1A1.682,1.682,0,0,1,.067.341.34.34,0,0,1,.318,0H.335C.5,0,.625.084.625.222a1.248,1.248,0,0,0,.256.784A.263.263,0,0,1,.9,1.294a.348.348,0,0,1-.29.2" transform="translate(26.344 3.046)" fill="#6a6c60"/><path d="M20,27.483h0l-.03,0L10.1,25.929.229,24.38a.266.266,0,0,1-.193-.117A.308.308,0,0,1,.021,24l.473-1.483.476-1.48,4.8-14.987L7.638.209A.323.323,0,0,1,7.927,0l.467.021a43.076,43.076,0,0,1,4.535.351.257.257,0,0,1,.224.289.3.3,0,0,1-.278.3C12.006.831,11.152.772,10.326.718c-.082-.006-.167-.007-.26-.007-.134,0-.283,0-.433.01-.17,0-.328.008-.487.008A2.962,2.962,0,0,1,8.123.6L8,.838l-.093.291L4.218,12.653.627,23.877l5.441.822,5.747.9,3.123.492,3.123.49c.152.024.334.039.526.051a3.52,3.52,0,0,1,1.152.206.3.3,0,0,0-.014.154.244.244,0,0,0,.062.13.652.652,0,0,1-.016-.215h-.007a.031.031,0,0,1-.029-.03.028.028,0,0,1,.029-.028.027.027,0,0,1,.025.014l.017,0a2.072,2.072,0,0,1,.156-.654c.044-.126.085-.241.11-.334l.277-1.076.278-1.076.8-3.118.8-3.118.562-2.185L25.542,4.64c.072-.285.139-.576.2-.867.115-.508.232-1.02.388-1.514a.112.112,0,0,1-.073.019.56.56,0,0,1-.119-.017c-.049-.01-.1-.018-.136-.022l-1.592-.178-1.252-.14L21.71,1.782a.246.246,0,0,1-.226-.277.308.308,0,0,1,.287-.307l2.4.264,2.371.264a.287.287,0,0,1,.194.12.229.229,0,0,1,.033.188L25.953,5.2l-5.664,22c-.027.107-.133.279-.289.279" transform="translate(3.728 4.451)" fill="#6a6c60"/><path d="M1.8,2.012H1.787l-.779-.058L.229,1.9a.238.238,0,0,1-.184-.1.325.325,0,0,1-.027-.276L.413.2A.266.266,0,0,1,.638,0l.876.047.8.054A.238.238,0,0,1,2.5.2a.32.32,0,0,1,.025.275L2.085,1.8A.327.327,0,0,1,1.8,2.012ZM.833.589h0l-.2.751.457.032.582.044L1.909.626l-.476,0L.833.589Z" transform="translate(11.985 8.167)" fill="#6a6c60"/><path d="M11.094,2.015h0l-.058-.008A57.593,57.593,0,0,0,.231.583.225.225,0,0,1,0,.338.335.335,0,0,1,.307,0,57.96,57.96,0,0,1,11.255,1.449a.208.208,0,0,1,.171.241.371.371,0,0,1-.332.325" transform="translate(15.352 8.846)" fill="#6a6c60"/><path d="M1.8,2.011H1.786l-.752-.056L.226,1.9a.236.236,0,0,1-.181-.1.332.332,0,0,1-.027-.278L.413.2A.265.265,0,0,1,.632,0L2.314.1A.239.239,0,0,1,2.5.2a.321.321,0,0,1,.026.275L2.3,1.14l-.22.662A.319.319,0,0,1,1.8,2.011ZM.834.589.743.971l-.112.366.491.037.548.039L1.8.96,1.909.626Z" transform="translate(11.034 11.269)" fill="#6a6c60"/><path d="M11.077,2.016h0l-.048,0c-2.157-.4-4.381-.653-6.53-.9C3.069.951,1.643.789.223.585A.254.254,0,0,1,0,.3.3.3,0,0,1,.279,0c1.47.208,2.907.373,4.348.538,2.179.249,4.432.5,6.623.912a.2.2,0,0,1,.171.226.382.382,0,0,1-.344.34" transform="translate(14.169 12.059)" fill="#6a6c60"/><path d="M1.8,2.014H1.784L.226,1.9a.236.236,0,0,1-.182-.1.33.33,0,0,1-.026-.277L.411.2A.264.264,0,0,1,.636,0L.809,0l1.5.1A.242.242,0,0,1,2.5.2a.321.321,0,0,1,.024.274L2.3,1.142l-.219.664A.329.329,0,0,1,1.8,2.014ZM.833.592.752.94l-.12.4,1.039.076L1.8.962,1.907.629H1.4Z" transform="translate(10.037 14.345)" fill="#6a6c60"/><path d="M11.089,2.017h0l-.058-.009A64.75,64.75,0,0,0,2.909.861C2.015.772,1.12.683.226.584A.245.245,0,0,1,0,.31.311.311,0,0,1,.289,0c.932.1,1.835.193,2.737.281A66.417,66.417,0,0,1,11.252,1.45a.205.205,0,0,1,.171.241.371.371,0,0,1-.334.326" transform="translate(13.403 15.484)" fill="#6a6c60"/><path d="M1.8,2.013H1.786l-.779-.058L.226,1.9a.243.243,0,0,1-.181-.1.328.328,0,0,1-.027-.278L.189.948.411.2A.267.267,0,0,1,.637,0L2.313.1A.238.238,0,0,1,2.5.2a.318.318,0,0,1,.023.273L2.3,1.141l-.219.664A.329.329,0,0,1,1.8,2.013ZM.832.59h0l-.2.748.456.032.584.043L1.908.627,1.4.629.832.59Z" transform="translate(8.885 17.976)" fill="#6a6c60"/><path d="M11.093,2.015h0l-.058-.008A57.356,57.356,0,0,0,.231.584.225.225,0,0,1,0,.341.336.336,0,0,1,.31,0,57.869,57.869,0,0,1,11.254,1.451a.2.2,0,0,1,.169.239.366.366,0,0,1-.33.325" transform="translate(12.251 18.655)" fill="#6a6c60"/><path d="M1.8,2.012H1.786l-.78-.058L.227,1.9a.242.242,0,0,1-.183-.1.329.329,0,0,1-.025-.278L.24.775.411.2A.268.268,0,0,1,.631,0l.88.048.8.054A.242.242,0,0,1,2.5.2a.331.331,0,0,1,.025.277L2.084,1.8A.319.319,0,0,1,1.8,2.012ZM.832.59h0l-.2.747.455.032.584.043L1.907.627l-.473,0L.833.59Z" transform="translate(7.933 21.078)" fill="#6a6c60"/><path d="M11.08,2.014h0l-.048,0c-2.147-.4-4.356-.65-6.492-.892C3.1.953,1.658.79.226.584A.258.258,0,0,1,0,.3.3.3,0,0,1,.28,0C1.755.21,3.2.375,4.64.538c2.175.25,4.424.506,6.612.911a.2.2,0,0,1,.171.226.381.381,0,0,1-.343.339" transform="translate(11.066 21.869)" fill="#6a6c60"/><path d="M1.8,2.013H1.784L1.681,2,.226,1.9a.237.237,0,0,1-.182-.1.333.333,0,0,1-.026-.278L.41.2A.274.274,0,0,1,.635,0L1.54.05,2.313.1A.235.235,0,0,1,2.5.2a.313.313,0,0,1,.025.273L2.084,1.8A.329.329,0,0,1,1.8,2.013ZM.832.591h0l-.2.747,1.038.076L1.908.628l-.477,0-.6-.04Z" transform="translate(6.936 24.633)" fill="#6a6c60"/><path d="M11.089,2.017h0l-.056-.009A65.152,65.152,0,0,0,2.919.861C2.022.772,1.124.686.226.584A.244.244,0,0,1,0,.31.31.31,0,0,1,.29,0C1.212.1,2.107.19,3,.279A66.078,66.078,0,0,1,11.252,1.45a.207.207,0,0,1,.172.241.375.375,0,0,1-.335.326" transform="translate(10.303 25.771)" fill="#6a6c60"/></g></svg>