<?xml version="1.0" encoding="UTF-8"?>
<svg width="35px" height="35px" viewBox="0 0 35 35" version="1.1" xmlns="http://www.w3.org/2000/svg" xmlns:xlink="http://www.w3.org/1999/xlink">
    <title>user copy</title>
    <g id="Page-1" stroke="none" stroke-width="1" fill="none" fill-rule="evenodd">
        <g id="user-copy" fill-rule="nonzero">
            <path d="M17.5,0.583333333 C8.15733333,0.583333333 0.583333333,8.15733333 0.583333333,17.5 C0.583333333,21.602 2.044,25.3621667 4.47241667,28.2910833 C5.6035,23.6845 9.11633333,20.0235 13.62725,18.6631667 C11.7430833,17.4084167 10.5,15.267 10.5,12.8333333 C10.5,8.96758333 13.63425,5.83333333 17.5,5.83333333 C21.36575,5.83333333 24.5,8.96758333 24.5,12.8333333 C24.5,15.267 23.2569167,17.4084167 21.3721667,18.6631667 C25.8830833,20.0235 29.3959167,23.6845 30.527,28.2910833 C32.956,25.3621667 34.4166667,21.602 34.4166667,17.5 C34.4166667,8.15733333 26.8426667,0.583333333 17.5,0.583333333 Z" id="Path" fill="#FFFFFF"></path>
            <path d="M21.3721667,18.6631667 C23.2569167,17.4084167 24.5,15.267 24.5,12.8333333 C24.5,8.96758333 21.36575,5.83333333 17.5,5.83333333 C13.63425,5.83333333 10.5,8.96758333 10.5,12.8333333 C10.5,15.267 11.7430833,17.4084167 13.6278333,18.6631667 C9.11691667,20.0235 5.60408333,23.6845 4.473,28.2910833 C4.473,28.2910833 4.473,28.2916667 4.47358333,28.2916667 C4.65791667,28.5139167 4.84925,28.7309167 5.04466667,28.9438333 C5.09191667,28.99575 5.1415,29.0453333 5.18991667,29.0960833 C5.34041667,29.2559167 5.49266667,29.4134167 5.649,29.5674167 C5.71375,29.631 5.77966667,29.69225 5.84558333,29.7546667 C5.99025,29.8923333 6.13666667,30.02825 6.286,30.1606667 C6.36008333,30.226 6.43533333,30.29075 6.51,30.3549167 C6.65641667,30.4803333 6.80458333,30.6034167 6.95566667,30.7235833 C7.035,30.7871667 7.11491667,30.8495833 7.19483333,30.912 C7.34766667,31.0298333 7.50283333,31.1441667 7.65975,31.2561667 C7.74083333,31.3139167 7.82075,31.3728333 7.903,31.4294167 C8.06866667,31.54375 8.23725,31.6534167 8.407,31.7619167 C8.48341667,31.8103333 8.55808333,31.8605 8.63508333,31.9083333 C8.83108333,32.0290833 9.03058333,32.1445833 9.23183333,32.25775 C9.28491667,32.2875 9.33683333,32.3195833 9.3905,32.34875 C9.65066667,32.4910833 9.91491667,32.6275833 10.18325,32.7565 C10.1896667,32.7594167 10.1966667,32.7623333 10.2030833,32.76525 C10.4591667,32.88775 10.7193333,33.0038333 10.9824167,33.1135 C11.0640833,33.1479167 11.1475,33.17825 11.22975,33.2109167 C11.4199167,33.28675 11.6100833,33.3614167 11.80375,33.43025 C11.9064167,33.467 12.01025,33.50025 12.1135,33.53525 C12.2896667,33.59475 12.467,33.6525 12.6455,33.7055833 C12.7586667,33.7394167 12.8724167,33.7709167 12.98675,33.8024167 C13.1594167,33.85025 13.33325,33.89575 13.5088333,33.9383333 C13.62725,33.9669167 13.74625,33.9943333 13.8658333,34.0205833 C14.0414167,34.0590833 14.2175833,34.0940833 14.3949167,34.12675 C14.5150833,34.1489167 14.6346667,34.1716667 14.756,34.1909167 C14.9391667,34.2206667 15.1235,34.24575 15.3084167,34.2696667 C15.4250833,34.2848333 15.5411667,34.30175 15.6584167,34.314 C15.8625833,34.3361667 16.0685,34.3519167 16.2744167,34.3665 C16.3741667,34.3735 16.47275,34.384 16.5725,34.38925 C16.8799167,34.40675 17.1885,34.4166667 17.5,34.4166667 C17.8115,34.4166667 18.1200833,34.40675 18.4275,34.3904167 C18.52725,34.3851667 18.6264167,34.3746667 18.7255833,34.3676667 C18.9320833,34.3530833 19.138,34.3373333 19.3415833,34.3151667 C19.4588333,34.3023333 19.5749167,34.286 19.6915833,34.2708333 C19.8765,34.2469167 20.0608333,34.2218333 20.244,34.1920833 C20.36475,34.17225 20.4849167,34.1500833 20.6050833,34.1279167 C20.7824167,34.09525 20.9591667,34.06025 21.1341667,34.02175 C21.25375,33.9955 21.37275,33.9680833 21.4911667,33.9395 C21.6661667,33.8969167 21.84,33.8514167 22.01325,33.8035833 C22.127,33.7720833 22.2413333,33.7405833 22.3545,33.70675 C22.5335833,33.6530833 22.7103333,33.5953333 22.8865,33.5364167 C22.98975,33.5014167 23.0941667,33.4681667 23.19625,33.4314167 C23.3893333,33.362 23.5800833,33.2879167 23.77025,33.2120833 C23.8525,33.1794167 23.9359167,33.1485 24.0175833,33.1146667 C24.2795,33.005 24.5385,32.8900833 24.7934167,32.7675833 C24.801,32.7640833 24.8091667,32.7605833 24.81675,32.7570833 C25.0850833,32.6281667 25.3493333,32.4916667 25.6095,32.3493333 C25.6631667,32.3201667 25.7150833,32.2880833 25.7681667,32.2583333 C25.9694167,32.1451667 26.1689167,32.0296667 26.3649167,31.9089167 C26.4419167,31.8616667 26.5171667,31.8115 26.593,31.7625 C26.76275,31.654 26.9313333,31.54375 27.097,31.43 C27.1786667,31.3734167 27.2591667,31.3150833 27.34025,31.25675 C27.4971667,31.1441667 27.6523333,31.0298333 27.8051667,30.9125833 C27.8856667,30.85075 27.965,30.78775 28.0443333,30.7241667 C28.1948333,30.604 28.3435833,30.4809167 28.49,30.3555 C28.56525,30.2913333 28.6405,30.2265833 28.714,30.16125 C28.8633333,30.0288333 29.00975,29.8929167 29.1544167,29.75525 C29.21975,29.6928333 29.28625,29.631 29.351,29.568 C29.5073333,29.414 29.6601667,29.2565 29.8100833,29.0966667 C29.8579167,29.0453333 29.9075,28.99575 29.9553333,28.9444167 C30.15075,28.7315 30.3420833,28.5145 30.5264167,28.29225 C30.5264167,28.29225 30.5264167,28.2916667 30.527,28.2916667 C29.3965,23.6845 25.8836667,20.0229167 21.3721667,18.6631667 Z" id="Path" fill="#FFFFFF"></path>
            <path d="M17.5,0 C7.8505,0 0,7.8505 0,17.5 C0,21.72625 1.50616667,25.6071667 4.00983333,28.6346667 C4.01625,28.6434167 4.01683333,28.6545 4.02383333,28.6626667 C5.83158333,30.8425833 8.10191667,32.5138333 10.6318333,33.5935833 C10.661,33.6058333 10.6895833,33.61925 10.71875,33.6315 C10.9235,33.7178333 11.1305833,33.79775 11.33825,33.8759167 C11.4199167,33.9068333 11.5015833,33.9383333 11.5844167,33.9680833 C11.7635,34.03225 11.94375,34.0929167 12.1251667,34.15125 C12.24125,34.1885833 12.3573333,34.2253333 12.4745833,34.2603333 C12.635,34.3081667 12.796,34.35425 12.9581667,34.398 C13.1005,34.4365 13.244,34.4720833 13.3875,34.5065 C13.53275,34.5415 13.6785833,34.5765 13.825,34.6074167 C13.9883333,34.6424167 14.1534167,34.6733333 14.3190833,34.7036667 C14.4520833,34.7281667 14.5845,34.7538333 14.7186667,34.7754167 C14.9024167,34.8051667 15.0873333,34.8285 15.2728333,34.8524167 C15.3924167,34.8675833 15.5114167,34.8850833 15.6315833,34.8979167 C15.8415833,34.9200833 16.0533333,34.9358333 16.2656667,34.9504167 C16.36425,34.9574167 16.46225,34.9679167 16.5614167,34.9731667 C16.8711667,34.9906667 17.1844167,35 17.5,35 C17.8155833,35 18.1288333,34.9906667 18.43975,34.9743333 C18.5389167,34.9690833 18.6369167,34.9585833 18.7355,34.9515833 C18.9478333,34.9364167 19.1595833,34.92125 19.3695833,34.8990833 C19.48975,34.88625 19.60875,34.86875 19.7283333,34.8535833 C19.9138333,34.8296667 20.09875,34.8063333 20.2825,34.7765833 C20.4160833,34.755 20.5490833,34.7293333 20.6820833,34.7048333 C20.8471667,34.6745 21.01225,34.6435833 21.1761667,34.6085833 C21.3225833,34.5770833 21.4678333,34.5426667 21.6136667,34.5076667 C21.7571667,34.4726667 21.9006667,34.4370833 22.043,34.3991667 C22.2051667,34.356 22.3661667,34.3093333 22.5265833,34.2615 C22.6438333,34.2265 22.7599167,34.18975 22.876,34.1524167 C23.0574167,34.0940833 23.2376667,34.0334167 23.41675,33.96925 C23.499,33.9395 23.5806667,33.908 23.6629167,33.8770833 C23.8711667,33.7989167 24.0776667,33.7184167 24.2824167,33.6326667 C24.3115833,33.6204167 24.3401667,33.607 24.3693333,33.59475 C26.8986667,32.515 29.1695833,30.84375 30.9773333,28.6638333 C30.9843333,28.6556667 30.9849167,28.644 30.9913333,28.6358333 C33.4938333,25.6071667 35,21.72625 35,17.5 C35,7.8505 27.1495,0 17.5,0 Z M20.9906667,18.2099167 C20.7608333,18.35925 20.5216667,18.4928333 20.2760833,18.6095 C20.2469167,18.6235 20.2183333,18.6380833 20.1891667,18.6515 C18.4998333,19.41975 16.5001667,19.41975 14.8108333,18.6515 C14.7816667,18.6380833 14.7525,18.6235 14.7239167,18.6095 C14.47775,18.4928333 14.2391667,18.35925 14.0093333,18.2099167 C12.2505833,17.06425 11.0833333,15.0838333 11.0833333,12.8333333 C11.0833333,9.29541667 13.9620833,6.41666667 17.5,6.41666667 C21.0379167,6.41666667 23.9166667,9.29541667 23.9166667,12.8333333 C23.9166667,15.0838333 22.7494167,17.06425 20.9906667,18.2099167 Z M13.7923333,19.4419167 C13.8413333,19.4693333 13.88975,19.4985 13.9393333,19.52475 C14.1131667,19.6169167 14.2893333,19.70325 14.4695833,19.7808333 C14.6078333,19.8415 14.75075,19.8928333 14.8930833,19.9453333 C14.9210833,19.95525 14.9490833,19.9663333 14.9770833,19.97625 C15.7680833,20.25625 16.6145,20.4166667 17.5,20.4166667 C18.3855,20.4166667 19.2319167,20.25625 20.0223333,19.97625 C20.0503333,19.9663333 20.0783333,19.95525 20.1063333,19.9453333 C20.2486667,19.8928333 20.3915833,19.8415 20.5298333,19.7808333 C20.7100833,19.70325 20.88625,19.6169167 21.0600833,19.52475 C21.1096667,19.4979167 21.1580833,19.4693333 21.2070833,19.4419167 C21.2905,19.39525 21.3756667,19.3509167 21.4573333,19.30075 C25.564,20.6330833 28.7554167,23.98025 29.8835833,28.1318333 C28.4246667,29.82875 26.6268333,31.2264167 24.5915833,32.2116667 C24.5828333,32.21575 24.5746667,32.2204167 24.5659167,32.2245 C24.3576667,32.3248333 24.1459167,32.4193333 23.9324167,32.5115 C23.884,32.5319167 23.8361667,32.5529167 23.78775,32.5733333 C23.6010833,32.6515 23.4120833,32.7255833 23.2219167,32.79675 C23.1425833,32.8265 23.06325,32.8556667 22.9833333,32.8836667 C22.81475,32.94375 22.6455833,33.0015 22.4746667,33.0563333 C22.3685,33.0901667 22.26175,33.12225 22.155,33.15375 C22.0033333,33.19925 21.8510833,33.243 21.6970833,33.2838333 C21.5675833,33.31825 21.4369167,33.34975 21.30625,33.3806667 C21.1691667,33.4133333 21.0326667,33.4465833 20.8944167,33.47575 C20.7433333,33.5078333 20.5910833,33.53525 20.4394167,33.5626667 C20.3163333,33.5854167 20.1938333,33.6093333 20.0695833,33.6291667 C19.8986667,33.656 19.726,33.6775833 19.5539167,33.6991667 C19.4448333,33.7131667 19.3363333,33.7295 19.2260833,33.7411667 C19.0295,33.7621667 18.8311667,33.7755833 18.6334167,33.7895833 C18.5453333,33.7954167 18.4578333,33.8053333 18.3685833,33.81 C18.0798333,33.8251667 17.7905,33.8333333 17.5,33.8333333 C17.2095,33.8333333 16.9201667,33.8251667 16.632,33.81 C16.5433333,33.8053333 16.4558333,33.796 16.3671667,33.7895833 C16.1688333,33.7761667 15.9710833,33.7621667 15.7745,33.7411667 C15.66425,33.7295 15.55575,33.7131667 15.4466667,33.6991667 C15.2745833,33.6775833 15.1019167,33.656 14.931,33.6291667 C14.80675,33.6093333 14.68425,33.5854167 14.5611667,33.5626667 C14.4089167,33.53525 14.2566667,33.50725 14.1061667,33.47575 C13.9679167,33.4465833 13.8308333,33.4133333 13.6943333,33.3806667 C13.5636667,33.3491667 13.433,33.31825 13.3035,33.2838333 C13.1500833,33.243 12.99725,33.1986667 12.8455833,33.15375 C12.7388333,33.12225 12.6320833,33.0901667 12.5259167,33.0563333 C12.355,33.0015 12.18525,32.94375 12.01725,32.8836667 C11.9373333,32.8550833 11.858,32.8259167 11.7786667,32.79675 C11.5885,32.7255833 11.3995,32.6515 11.2128333,32.5733333 C11.1644167,32.5535 11.1171667,32.5325 11.06875,32.5120833 C10.85525,32.4205 10.6435,32.3254167 10.4346667,32.2250833 C10.4259167,32.221 10.41775,32.2169167 10.409,32.21225 C8.37375,31.2275833 6.57591667,29.8299167 5.117,28.1324167 C6.24458333,23.98025 9.43658333,20.6330833 13.54325,19.3013333 C13.6243333,19.3509167 13.7089167,19.39525 13.7923333,19.4419167 Z M30.7585833,27.02175 C29.4361667,23.1169167 26.4191667,19.9610833 22.5645,18.4619167 C24.10625,17.073 25.0833333,15.0675 25.0833333,12.8333333 C25.0833333,8.652 21.6813333,5.25 17.5,5.25 C13.3186667,5.25 9.91666667,8.652 9.91666667,12.8333333 C9.91666667,15.0675 10.89375,17.073 12.4360833,18.4619167 C8.58141667,19.9616667 5.56441667,23.1169167 4.242,27.02175 C2.30941667,24.339 1.16666667,21.0513333 1.16666667,17.5 C1.16666667,8.49391667 8.49391667,1.16666667 17.5,1.16666667 C26.5060833,1.16666667 33.8333333,8.49391667 33.8333333,17.5 C33.8333333,21.0513333 32.6905833,24.339 30.7585833,27.02175 Z" id="Shape" fill="#A39393"></path>
        </g>
    </g>
</svg>